<svg width="160" height="86" viewBox="0 0 160 86" fill="none" xmlns="http://www.w3.org/2000/svg">
<mask id="mask0_728_2310" style="mask-type:luminance" maskUnits="userSpaceOnUse" x="31" y="28" width="39" height="53">
<path d="M31.8862 28.7773H69.8214V80.6221H31.8862V28.7773Z" fill="white"/>
</mask>
<g mask="url(#mask0_728_2310)">
<path d="M62.0791 43.2173C64.8118 40.8919 66.4376 44.4052 66.4376 44.4052C71.581 47.1182 65.4546 77.066 65.4546 77.066L57.7397 77.5828L58.8644 60.2708C58.8644 60.2708 59.3469 45.5428 62.0791 43.2173Z" fill="#34002F"/>
<path d="M63.6157 44.8822C63.5157 42.8768 64.6067 39.8696 65.5892 37.6071C66.3651 35.8208 67.0718 34.4985 67.0718 34.4985C67.0718 34.4985 62.3866 28.3753 59.8612 28.7897C59.2855 28.884 58.822 29.3187 58.552 30.2437C57.0987 35.2232 51.2104 36.5262 51.2104 36.5262C51.2104 36.5262 60.6204 55.7509 63.1562 55.9298C65.6925 56.1095 63.7324 47.2081 63.6157 44.8822Z" fill="#FDBD96"/>
<path d="M58.6244 80.6124C58.6244 80.6124 60.768 78.9811 62.1718 74.8232C63.1057 72.0591 63.712 68.1779 63.1447 62.9165C62.216 54.3005 61.4526 46.2917 59.2644 41.3836C59.164 41.1578 59.06 40.9384 58.9534 40.7264C57.8323 38.4963 56.3617 37.0168 54.3621 36.5676C54.3621 36.5676 52.0625 36.2989 49.025 37.2223C48.5183 37.3765 47.991 37.5637 47.4501 37.7909C43.8531 39.3021 39.6689 42.5819 37.034 49.6278C31.6293 64.0791 31.8877 79.579 31.8877 79.579L43.5164 80.0286L58.6244 80.6124Z" fill="#B4D0FC"/>
<path d="M69.2788 47.5009C67.9787 43.1534 64.1997 42.4219 64.1997 42.4219C64.1997 42.4219 65.4188 43.8032 65.7051 50.2651C66.2518 62.621 62.3467 80.6181 62.3467 80.6181L68.2882 79.5847C68.2882 79.5847 68.2882 79.5845 67.3838 75.4514C66.4794 71.3182 71.398 54.5863 69.2788 47.5009Z" fill="#90B3DA"/>
<path d="M55.546 46.1209C55.0298 43.1269 58.1314 41.8753 59.2648 41.3915L58.953 40.7339L49.0245 37.2295L47.6216 36.7344L47.4495 37.7983L45.5494 49.5745L34.8633 73.2227C34.8633 73.2227 40.6256 77.8229 43.5163 80.0358L58.6243 80.6196C58.6243 80.6196 60.7679 78.9884 62.1717 74.8305C58.3614 74.1927 57.6724 73.7875 55.9113 70.8254C54.1234 67.8185 49.0854 69.6061 48.5164 66.0306C47.9478 62.4551 56.5618 52.0129 55.546 46.1209Z" fill="#90B3DA"/>
</g>
<path d="M68.9554 75.5022C66.4568 75.7687 55.1833 75.5022 55.1833 75.5022C55.1833 75.5022 49.0483 80.8372 51.7151 80.8367C54.3824 80.8367 57.0499 80.9699 60.384 81.5035C63.7181 82.0372 67.5861 80.0365 68.3861 80.7033C69.1865 81.3706 72.1204 82.4372 72.5206 81.6372C72.9208 80.8367 70.6536 79.3699 70.6536 79.3699C70.6536 79.3699 72.5206 80.8367 74.7881 82.0369C77.0556 83.2372 77.1888 81.6367 77.1888 81.6367C77.1888 81.6367 78.6554 82.7038 79.5893 82.0369C80.5231 81.3701 79.1897 80.3038 77.589 78.7031C75.9884 77.1028 71.454 75.2356 68.9554 75.5022Z" fill="#F9AE8F"/>
<path d="M172.776 84.4733V82.6591C172.776 82.1747 172.265 81.7812 171.637 81.7812H-15.7608C-16.3903 81.7812 -16.9004 82.1747 -16.9004 82.6591V84.4733C-16.9004 84.9578 -16.3903 85.3516 -15.7608 85.3516H171.636C172.265 85.3516 172.776 84.9578 172.776 84.4733Z" fill="white"/>
<mask id="mask1_728_2310" style="mask-type:luminance" maskUnits="userSpaceOnUse" x="70" y="14" width="12" height="22">
<path d="M70.8726 14.5508H81.4349V35.2292H70.8726V14.5508Z" fill="white"/>
</mask>
<g mask="url(#mask1_728_2310)">
<path d="M80.6924 23.279C81.4864 16.9304 75.9215 14.5508 75.9215 14.5508L70.8726 33.3894C70.8726 33.3894 79.8991 29.6276 80.6924 23.279Z" fill="#230021"/>
<path d="M73.83 25.5589C74.6029 22.5473 75.3844 19.5236 76.1755 16.4944C76.1474 16.4859 76.1213 16.4757 76.1242 16.4781L76.1288 16.4806L76.1483 16.489L76.1884 16.5071L76.2703 16.5462C76.3257 16.5723 76.3801 16.6015 76.4354 16.6296C76.5455 16.6881 76.6552 16.749 76.7632 16.8128C76.9799 16.94 77.1908 17.0793 77.3961 17.2254C77.8076 17.5178 78.1941 17.8458 78.5484 18.2044C79.2589 18.9202 79.8373 19.7642 80.2187 20.6947C80.4093 21.1595 80.557 21.6429 80.6507 22.1392C80.7422 22.6359 80.7873 23.1411 80.794 23.6496C80.7859 24.6712 80.6458 25.6843 80.2544 26.6267C80.0763 27.1033 79.8306 27.5545 79.5725 27.9963C79.433 28.2117 79.3016 28.4322 79.1462 28.6383C79.0702 28.7421 78.9992 28.8499 78.9186 28.9508L78.6785 29.254C78.6009 29.3573 78.513 29.4522 78.429 29.5508C78.3429 29.6479 78.2617 29.7485 78.1722 29.8422C77.9941 30.0308 77.8199 30.222 77.6317 30.4017C77.2651 30.7694 76.8742 31.1137 76.474 31.4476C76.0739 31.7814 75.6558 32.0947 75.232 32.4C74.8062 32.7023 74.3691 32.9904 73.9248 33.2667C73.0362 33.8163 72.109 34.3222 71.1622 34.7479L71.4133 34.9673L73.83 25.5589ZM76.4736 15.698C76.4761 15.698 76.4316 15.6819 76.3946 15.6719L76.2817 16.0805C75.4268 19.1927 74.5606 22.3096 73.6858 25.4409L71.0536 34.8711L70.9507 35.2393L71.3046 35.0907C71.8018 34.8816 72.2771 34.6511 72.7519 34.4087C73.2248 34.1648 73.6905 33.9082 74.1477 33.6357C74.605 33.3633 75.0548 33.0792 75.4953 32.7786C75.9334 32.4754 76.3669 32.1636 76.7836 31.8289C77.1997 31.4946 77.6083 31.1485 77.9946 30.7761C78.1918 30.5947 78.3766 30.3999 78.5647 30.208C78.6596 30.1127 78.7461 30.0094 78.8372 29.9103C78.9262 29.8099 79.0191 29.7121 79.103 29.6064L79.36 29.294C79.4462 29.1902 79.5229 29.0786 79.6048 28.9711C79.7715 28.7577 79.9152 28.5277 80.0667 28.303C80.3497 27.8401 80.6197 27.3646 80.8216 26.8556L80.9015 26.6666C80.9283 26.6037 80.9473 26.5376 80.9707 26.4734L81.1039 26.0842C81.143 25.9528 81.1749 25.8189 81.2101 25.6861L81.2621 25.4866C81.2784 25.4199 81.2874 25.3514 81.3003 25.2838L81.3717 24.8765C81.3898 24.7413 81.4012 24.6058 81.4163 24.4702L81.4378 24.2669C81.4436 24.1993 81.4449 24.1308 81.4487 24.0627L81.467 23.653C81.4708 23.1058 81.432 22.5562 81.3425 22.0129C81.2501 21.4695 81.0992 20.9357 80.8993 20.4205C80.4992 19.3884 79.8791 18.4463 79.1181 17.6501C78.7381 17.2504 78.3237 16.8854 77.8808 16.5582C77.6594 16.394 77.4322 16.2382 77.1966 16.0934C77.0786 16.0211 76.9587 15.951 76.8369 15.8834C76.7751 15.8506 76.7142 15.8167 76.6508 15.7848L76.555 15.7366L76.5055 15.7129L76.4798 15.7009L76.4736 15.698Z" fill="#34002F"/>
</g>
<mask id="mask2_728_2310" style="mask-type:luminance" maskUnits="userSpaceOnUse" x="60" y="13" width="19" height="25">
<path d="M60.3149 13.3516H78.9106V37.6003H60.3149V13.3516Z" fill="white"/>
</mask>
<g mask="url(#mask2_728_2310)">
<path d="M65.5902 37.6096C66.3661 35.8233 67.0732 34.5009 67.0732 34.5009C67.0732 34.5009 62.8403 24.1446 60.3149 24.559C60.5622 28.0892 63.6528 35.9018 65.5902 37.6096Z" fill="#FB9B77"/>
<path d="M72.0572 36.4972C75.0398 35.4508 79.0515 29.721 78.9011 23.711C78.8873 23.1386 78.8369 22.5665 78.7454 22.0008C78.5321 20.6668 77.9128 18.9178 77.1943 17.7123C76.9214 17.2538 76.6203 16.8249 76.297 16.4292C71.9795 11.1393 63.6048 11.7043 61.8957 25.9121C61.8046 26.6664 61.7328 27.4594 61.6815 28.2918C61.6786 28.3427 61.6752 28.3942 61.6723 28.4455C61.6556 28.7345 61.8658 29.2504 62.1648 29.8148C62.2911 30.0533 62.4333 30.3014 62.581 30.5438C62.633 30.629 62.6852 30.7136 62.7376 30.7968C63.14 31.435 63.5539 32.0072 63.7764 32.2511C65.3842 34.0175 69.0703 37.5448 72.0572 36.4972Z" fill="#FDBD96"/>
<path d="M75.1968 33.1744C75.1968 33.1744 77.358 33.9715 77.3441 33.2005C77.3131 31.455 77.663 29.2227 77.663 29.2227" fill="#FDBD96"/>
<path d="M72.3864 31.9254C72.8588 32.5703 73.9029 33.986 74.3219 34.4941C74.4043 34.5936 74.367 34.7451 74.2465 34.7922C73.7837 34.9752 72.7809 35.2389 72.1708 34.4264C71.596 33.6617 71.8211 32.5663 72.003 31.9886C72.0568 31.8181 72.2806 31.781 72.3864 31.9254Z" fill="#FFF4F3"/>
</g>
<path d="M78.1048 20.7772C78.2353 20.5311 78.1278 20.2251 77.8721 20.1142L77.5552 19.9766C77.4989 20.1138 77.43 20.2667 77.3628 20.4115C77.2948 20.5581 77.2238 20.7038 77.1504 20.8491C77.0047 21.1396 76.8494 21.4261 76.688 21.7091C76.3638 22.2743 76.0103 22.8239 75.6265 23.3512C75.2427 23.8779 74.8279 24.3828 74.3764 24.8519C73.9259 25.3219 73.4399 25.7577 72.9126 26.1381C72.3868 26.5211 71.8192 26.8455 71.2171 27.0921C70.9165 27.2168 70.6061 27.3168 70.2904 27.3962C69.9742 27.4748 69.6522 27.5355 69.3264 27.5645C68.6748 27.6288 68.0127 27.5926 67.3645 27.4683C66.7153 27.346 66.0831 27.132 65.4746 26.8654C66.068 27.1639 66.691 27.4134 67.3415 27.5725C67.9911 27.7334 68.6665 27.8079 69.3413 27.7774C69.6789 27.7655 70.0155 27.7211 70.3479 27.6569C70.68 27.5917 71.0096 27.5049 71.3296 27.3916C71.9707 27.1677 72.583 26.8605 73.1525 26.4905C73.7244 26.1227 74.2559 25.6958 74.7507 25.2319C75.2465 24.7684 75.7057 24.2675 76.1333 23.7422C76.5608 23.2169 76.9576 22.6668 77.3258 22.0978C77.5092 21.8131 77.6864 21.5234 77.8549 21.2286C77.9397 21.0816 78.022 20.9323 78.1026 20.7819C78.1035 20.7799 78.1039 20.7786 78.1048 20.7772Z" fill="#11181E"/>
<mask id="mask3_728_2310" style="mask-type:luminance" maskUnits="userSpaceOnUse" x="21" y="9" width="58" height="69">
<path d="M21.5293 9.47266H78.4321V77.0122H21.5293V9.47266Z" fill="white"/>
</mask>
<g mask="url(#mask3_728_2310)">
<path d="M21.5303 65.2653C21.3898 50.6641 35.4769 50.9379 35.4769 50.9379C48.1231 55.3263 39.7191 63.7037 37.5542 71.5639C35.3883 79.4245 21.6709 79.8666 21.5303 65.2653Z" fill="#34002F"/>
<path d="M64.2539 26.8911C70.9501 27.3802 75.5528 23.7423 77.5435 21.7507C78.2968 20.9973 78.6061 19.911 78.3685 18.8714C78.1266 17.815 77.7883 16.8568 77.3696 15.993C72.9192 6.81402 59.3536 8.27921 54.9921 14.6026C48.5496 23.9424 54.9301 22.753 40.2222 33.8946C25.5138 45.036 32.6858 57.9843 32.6858 57.9843C33.7025 56.4852 34.8617 54.584 36.1337 52.5848C40.3445 45.9656 45.7913 38.2607 51.4088 40.4128C64.4081 45.3932 61.1541 26.6639 64.2539 26.8911Z" fill="#34002F"/>
<path d="M64.2538 26.8859C70.95 27.3751 75.5529 23.7371 77.5436 21.7455C78.297 20.9922 78.606 19.9059 78.3679 18.8667C78.126 17.8103 77.788 16.8521 77.3693 15.9883C77.1484 16.2592 76.9717 16.597 76.844 17.0065C76.844 17.0065 70.9643 26.086 65.4358 26.0645C59.9073 26.0431 61.0969 29.1732 56.2807 34.0399C51.4641 38.906 39.354 37.3786 36.2804 51.5838C36.2032 51.9399 36.1548 52.2715 36.1338 52.5797C40.3446 45.9604 45.7914 38.2556 51.4089 40.4076C64.4082 45.3881 61.1541 26.6588 64.2538 26.8859Z" fill="#230021"/>
</g>
<path d="M74.0905 15.367L74.169 15.4326L75.6134 13.9344L75.5472 13.8806L75.4885 13.8344L75.3738 13.7463C75.2977 13.6887 75.2218 13.6327 75.1462 13.5774C74.9947 13.4669 74.8422 13.3602 74.6889 13.2554C74.3823 13.0463 74.0704 12.8463 73.7537 12.6544C73.1204 12.2706 72.4659 11.9176 71.7916 11.5976C70.4433 10.9598 69.01 10.4508 67.5065 10.1485C66.0063 9.84521 64.4304 9.75751 62.8822 9.9637C61.3344 10.1661 59.8315 10.6689 58.4975 11.4028C57.1584 12.1338 55.9865 13.0797 54.9687 14.1232C54.7138 14.3847 54.4693 14.6527 54.2325 14.9261C54.1125 15.0638 54.0009 15.197 53.8871 15.3318C53.7733 15.4656 53.6619 15.6018 53.5494 15.737C53.1014 16.2795 52.6656 16.8318 52.2418 17.3919C51.818 17.952 51.4075 18.5221 51.0111 19.0987C50.6144 19.6749 50.233 20.2593 49.8601 20.8426C49.1119 22.0099 48.4106 23.1721 47.58 24.2164C45.9374 26.3189 43.6444 27.9367 41.2643 29.4144C40.6671 29.7835 40.0622 30.1408 39.4492 30.4956C38.8257 30.8571 38.2143 31.2366 37.6138 31.6318C36.4195 32.4309 35.2732 33.2999 34.2213 34.2652C33.1673 35.2276 32.202 36.2807 31.3714 37.4232C30.9561 37.9942 30.5746 38.5871 30.2323 39.199C29.8908 39.8116 29.5914 40.4448 29.3332 41.0915C28.8213 42.3869 28.4899 43.7441 28.367 45.1171C28.3065 45.8033 28.2964 46.4935 28.3426 47.1808C28.3654 47.5242 28.404 47.867 28.4573 48.2084C28.4846 48.3789 28.516 48.5494 28.5522 48.7194C28.5702 48.8046 28.5901 48.8894 28.6111 48.9747L28.6446 49.1028C28.6568 49.147 28.668 49.1862 28.6836 49.2362L28.8436 48.9218C28.7206 48.9727 28.6111 49.0227 28.4973 49.0751C28.3844 49.1275 28.273 49.1811 28.1626 49.2358C27.9416 49.3453 27.7236 49.4591 27.5078 49.5767C27.0769 49.8124 26.6563 50.0634 26.2462 50.3292C25.4265 50.8607 24.65 51.4512 23.9379 52.1059C23.227 52.7602 22.5783 53.4785 22.0349 54.2633C21.762 54.6547 21.5168 55.0628 21.3025 55.4848C21.0868 55.9063 20.9047 56.3424 20.7576 56.7882C20.6099 57.2334 20.4976 57.6893 20.4258 58.1499C20.4077 58.265 20.3894 58.3802 20.3776 58.496L20.3575 58.6693L20.3432 58.8423L20.3142 59.1875C20.3033 59.3026 20.3004 59.418 20.2932 59.5332C20.2642 59.9942 20.2633 60.4561 20.27 60.9171C20.2852 61.3781 20.3147 61.8392 20.37 62.2973C20.4847 63.2122 20.688 64.1206 21.0343 64.9827C21.2073 65.4131 21.4128 65.8324 21.6638 66.2272C21.7894 66.4244 21.9249 66.6163 22.074 66.7982C22.2235 66.9796 22.3826 67.1555 22.5673 67.3059C22.3864 67.1517 22.2322 66.972 22.0878 66.7882C21.9439 66.6034 21.814 66.4095 21.6939 66.2104C21.4538 65.8123 21.2599 65.3908 21.099 64.9599C20.777 64.097 20.5987 63.1921 20.5077 62.283C20.4644 61.8278 20.4468 61.3706 20.4434 60.9138C20.4485 60.4565 20.461 59.9993 20.5014 59.5436C20.5115 59.4294 20.5171 59.3156 20.5304 59.2018L20.5677 58.8604L20.5862 58.6899L20.6099 58.5207C20.6242 58.4078 20.6451 58.296 20.6652 58.184C20.7471 57.7364 20.8678 57.2959 21.022 56.8659C21.1762 56.4359 21.363 56.0163 21.583 55.612C21.8017 55.2068 22.0496 54.816 22.3239 54.4418C22.8702 53.6918 23.5179 53.0079 24.2256 52.3859C24.9343 51.764 25.7057 51.2053 26.5166 50.7048C26.9223 50.4548 27.338 50.2192 27.7629 49.9996C27.9753 49.89 28.1898 49.7838 28.4065 49.6834C28.5151 49.6334 28.6236 49.5837 28.7327 49.5361C28.8407 49.489 28.9536 49.4408 29.0569 49.4009L29.2832 49.3128L29.2169 49.0867C29.2078 49.0557 29.1971 49.0133 29.1875 48.9756L29.1594 48.8575C29.1417 48.7785 29.125 48.6987 29.1098 48.6181C29.0792 48.4572 29.0531 48.2948 29.0313 48.1319C28.9884 47.8061 28.9587 47.4774 28.9445 47.1478C28.915 46.4886 28.9398 45.8272 29.0132 45.1705C29.1614 43.857 29.5084 42.5645 30.0261 41.3359C30.2871 40.7224 30.5871 40.1228 30.9271 39.5438C31.2681 38.9647 31.6457 38.4053 32.0558 37.8661C32.8759 36.7874 33.8254 35.7958 34.8603 34.8896C35.8937 33.9809 37.0193 33.1637 38.1928 32.4137C38.7833 32.0426 39.3845 31.6865 39.9974 31.348C40.6218 31.0041 41.248 30.6524 41.8652 30.2892C43.0996 29.5615 44.3149 28.7905 45.4679 27.9209C46.0441 27.4855 46.6028 27.0236 47.1333 26.5293C47.6628 26.0351 48.162 25.506 48.621 24.9526C49.0805 24.3992 49.5007 23.8239 49.8983 23.2473C50.2959 22.6706 50.6749 22.0927 51.0573 21.5241C51.8198 20.3854 52.608 19.2801 53.4575 18.2106C53.8813 17.6757 54.3169 17.1486 54.7654 16.6305C54.8783 16.5015 54.9892 16.371 55.1035 16.2429C55.2173 16.1148 55.3311 15.9836 55.4431 15.8622C55.6682 15.6156 55.8999 15.3746 56.1384 15.1416C57.0928 14.2111 58.1619 13.3988 59.3386 12.7934C60.5126 12.1854 61.7932 11.7944 63.1076 11.6534C64.4219 11.5106 65.7655 11.6143 67.0689 11.9104C68.3739 12.2057 69.6404 12.6877 70.8401 13.292C71.4397 13.5943 72.0234 13.9286 72.5864 14.2892C72.8678 14.4697 73.1441 14.657 73.4128 14.8498C73.5471 14.9464 73.6794 15.0446 73.8084 15.1436C73.8727 15.1932 73.9365 15.2432 73.999 15.2927L74.0905 15.367Z" fill="#34002F"/>
<mask id="mask4_728_2310" style="mask-type:luminance" maskUnits="userSpaceOnUse" x="21" y="40" width="36" height="43">
<path d="M21.6763 40.0312H56.5618V82.2062H21.6763V40.0312Z" fill="white"/>
</mask>
<g mask="url(#mask4_728_2310)">
<path d="M56.0139 77.0089C56.3739 75.9221 56.5622 75.0753 56.5622 75.0753C56.5622 75.0753 41.9672 73.3965 38.3506 73.0089C36.141 72.7717 52.0417 57.1219 53.5919 50.2762C55.0644 43.7718 53.0385 40.5317 50.1735 40.1151C50.0235 40.0932 49.8709 40.079 49.7167 40.0723C49.7167 40.0723 44.4212 38.7807 35.767 51.4385C27.1134 64.0964 17.9426 78.1753 23.2384 80.8874C28.5341 83.6 49.5873 81.275 52.2999 81.6626C54.0667 81.915 55.3405 79.042 56.0135 77.0093L56.0139 77.0089Z" fill="#B4D0FC"/>
<path d="M52.3003 81.6626C54.0672 81.915 55.341 79.042 56.014 77.0093C52.7808 82.696 27.4731 80.465 24.6295 78.5557C21.7851 76.646 28.733 65.2282 37.5357 51.7804C43.3191 42.9448 47.7885 40.65 50.174 40.1151C50.024 40.0932 49.8716 40.079 49.7174 40.0723C49.7174 40.0723 44.4217 38.7807 35.7675 51.4385C27.1138 64.0964 17.9431 78.1753 23.2389 80.8874C28.5346 83.6 49.5878 81.275 52.3003 81.6626Z" fill="#90B3DA"/>
</g>
<mask id="mask5_728_2310" style="mask-type:luminance" maskUnits="userSpaceOnUse" x="91" y="0" width="39" height="21">
<path d="M91.1987 0.25H129.952V20.854H91.1987V0.25Z" fill="white"/>
</mask>
<g mask="url(#mask5_728_2310)">
<path d="M94.3712 16.6863H126.78C128.533 16.6863 129.953 15.2662 129.952 13.5136V3.41881C129.952 1.66666 128.532 0.246094 126.78 0.246094H94.3712C92.6191 0.246094 91.1987 1.66666 91.1987 3.41881V13.5136C91.1987 15.2657 92.6191 16.6863 94.3712 16.6863Z" fill="#B4D0FC"/>
<path d="M96.3232 20.8468V14.6406L105.552 15.4951L96.3232 20.8468Z" fill="#B4D0FC"/>
<path d="M95.1831 3.84214C94.8913 3.84214 94.5998 3.84214 94.3084 3.84214C93.967 3.84214 93.7135 3.64354 93.6988 3.40834C93.684 3.17404 93.9893 2.97454 94.3084 2.97454C94.3269 2.97454 94.345 2.97454 94.3635 2.97454C94.7839 2.9703 95.2055 2.97454 95.6265 2.97454C96.5171 2.97454 97.4081 2.97454 98.2987 2.97454C99.5379 2.97454 100.777 2.97454 102.016 2.97454C103.477 2.97454 104.937 2.97454 106.398 2.97454C107.976 2.97454 109.554 2.97454 111.131 2.97454C112.684 2.97454 114.236 2.97454 115.788 2.97454C117.21 2.97454 118.633 2.97454 120.055 2.97454C121.22 2.97454 122.386 2.97454 123.552 2.97454C124.338 2.97454 125.124 2.97454 125.911 2.97454C126.203 2.97454 126.494 2.97454 126.785 2.97454C127.127 2.97454 127.38 3.17314 127.395 3.40834C127.41 3.64265 127.104 3.84214 126.785 3.84214C126.767 3.84214 126.749 3.84214 126.73 3.84214C126.31 3.84638 125.888 3.84214 125.467 3.84214C124.577 3.84214 123.686 3.84214 122.795 3.84214C121.556 3.84214 120.317 3.84214 119.078 3.84214C117.617 3.84214 116.157 3.84214 114.695 3.84214C113.118 3.84214 111.54 3.84214 109.962 3.84214C108.41 3.84214 106.858 3.84214 105.306 3.84214C103.883 3.84214 102.461 3.84214 101.039 3.84214C99.8737 3.84214 98.7078 3.84214 97.542 3.84214C96.7559 3.84214 95.9693 3.84214 95.1831 3.84214Z" fill="white"/>
<path d="M94.7203 8.25491C94.5826 8.25491 94.4456 8.25491 94.3079 8.25491C93.9665 8.25491 93.713 8.05587 93.6983 7.82111C93.6835 7.58681 93.9888 7.38731 94.3079 7.38731C94.3171 7.38731 94.3255 7.38731 94.334 7.38731C94.5326 7.38597 94.7308 7.38731 94.9294 7.38731C95.3493 7.38731 95.7691 7.38731 96.189 7.38731C96.7728 7.38731 97.3568 7.38731 97.9405 7.38731C98.6287 7.38731 99.3174 7.38731 100.006 7.38731C100.75 7.38731 101.494 7.38731 102.237 7.38731C102.969 7.38731 103.7 7.38731 104.432 7.38731C105.102 7.38731 105.772 7.38731 106.442 7.38731C106.992 7.38731 107.541 7.38731 108.091 7.38731C108.461 7.38731 108.832 7.38731 109.202 7.38731C109.34 7.38731 109.477 7.38731 109.615 7.38731C109.956 7.38731 110.209 7.58592 110.224 7.82111C110.239 8.05542 109.934 8.25491 109.615 8.25491C109.605 8.25491 109.597 8.25491 109.588 8.25491C109.39 8.25625 109.192 8.25491 108.993 8.25491C108.573 8.25491 108.153 8.25491 107.733 8.25491C107.15 8.25491 106.566 8.25491 105.982 8.25491C105.294 8.25491 104.605 8.25491 103.916 8.25491C103.172 8.25491 102.429 8.25491 101.686 8.25491C100.954 8.25491 100.222 8.25491 99.4907 8.25491C98.8206 8.25491 98.1503 8.25491 97.4802 8.25491C96.9306 8.25491 96.3814 8.25491 95.8318 8.25491C95.4614 8.25491 95.0907 8.25491 94.7203 8.25491Z" fill="white"/>
<path d="M113.557 8.26905C113.436 8.26905 113.316 8.26949 113.195 8.26949C113.03 8.26994 112.884 8.22062 112.765 8.14252C112.645 8.06442 112.593 7.94816 112.586 7.83569C112.579 7.72769 112.659 7.60429 112.765 7.52909C112.875 7.45009 113.039 7.40189 113.195 7.40189C113.203 7.40189 113.211 7.40189 113.218 7.40189C113.392 7.401 113.567 7.40145 113.74 7.40145C114.11 7.401 114.48 7.40033 114.849 7.39988C115.36 7.39899 115.871 7.39855 116.382 7.3981C116.99 7.39765 117.598 7.39654 118.206 7.39609C118.855 7.3952 119.502 7.39475 120.15 7.39386C120.797 7.39297 121.443 7.3923 122.089 7.3914C122.675 7.39096 123.261 7.38984 123.847 7.3894C124.331 7.38895 124.815 7.3885 125.298 7.38806C125.623 7.38806 125.949 7.38761 126.273 7.38717C126.394 7.38717 126.514 7.38672 126.635 7.38672C126.799 7.38672 126.947 7.43559 127.066 7.51369C127.185 7.59179 127.237 7.70805 127.244 7.82052C127.251 7.92852 127.171 8.05192 127.066 8.12712C126.955 8.20612 126.791 8.25432 126.635 8.25432C126.627 8.25432 126.619 8.25432 126.612 8.25432C126.438 8.25521 126.264 8.25476 126.09 8.25476C125.72 8.25521 125.35 8.25588 124.981 8.25633C124.47 8.25722 123.959 8.25767 123.449 8.25811C122.841 8.25856 122.232 8.25967 121.624 8.26012C120.976 8.26101 120.328 8.26146 119.68 8.26235C119.034 8.26324 118.387 8.26391 117.741 8.26481C117.155 8.26525 116.569 8.26637 115.983 8.26682C115.499 8.26726 115.016 8.26771 114.532 8.26815C114.207 8.26815 113.882 8.2686 113.557 8.26905Z" fill="white"/>
<path d="M94.5888 12.6959C94.4951 12.6959 94.4016 12.6959 94.3083 12.6959C94.1429 12.6959 93.9963 12.6468 93.8772 12.5687C93.7575 12.4906 93.7058 12.3746 93.6986 12.2621C93.6919 12.1541 93.7714 12.0307 93.8772 11.9555C93.9876 11.877 94.1521 11.8283 94.3083 11.8283C94.3141 11.8283 94.3201 11.8283 94.3259 11.8283C94.4607 11.8279 94.5959 11.8283 94.7307 11.8283C95.0174 11.8283 95.304 11.8283 95.5907 11.8283C95.987 11.8283 96.3827 11.8283 96.779 11.8283C97.2509 11.8283 97.7224 11.8283 98.1944 11.8283C98.6974 11.8283 99.1995 11.8283 99.702 11.8283C100.203 11.8283 100.705 11.8283 101.206 11.8283C101.66 11.8283 102.115 11.8283 102.569 11.8283C102.945 11.8283 103.319 11.8283 103.695 11.8283C103.947 11.8283 104.199 11.8283 104.451 11.8283C104.545 11.8283 104.638 11.8283 104.732 11.8283C104.897 11.8283 105.043 11.8774 105.163 11.9555C105.282 12.0336 105.334 12.1497 105.341 12.2621C105.348 12.3701 105.268 12.4935 105.163 12.5687C105.052 12.6473 104.888 12.6959 104.732 12.6959C104.726 12.6959 104.72 12.6959 104.714 12.6959C104.579 12.6964 104.444 12.6959 104.309 12.6959C104.022 12.6959 103.736 12.6959 103.449 12.6959C103.053 12.6959 102.657 12.6959 102.261 12.6959C101.789 12.6959 101.317 12.6959 100.845 12.6959C100.342 12.6959 99.8403 12.6959 99.3378 12.6959C98.8364 12.6959 98.3352 12.6959 97.8338 12.6959C97.3795 12.6959 96.9247 12.6959 96.4704 12.6959C96.095 12.6959 95.7204 12.6959 95.345 12.6959C95.0926 12.6959 94.8407 12.6959 94.5888 12.6959Z" fill="white"/>
<path d="M109.049 12.6963C108.886 12.6963 108.725 12.6963 108.562 12.6963C108.22 12.6963 107.967 12.4977 107.953 12.2625C107.938 12.0282 108.243 11.8287 108.562 11.8287C108.573 11.8287 108.583 11.8287 108.593 11.8287C108.827 11.8274 109.062 11.8287 109.296 11.8287C109.792 11.8287 110.287 11.8287 110.783 11.8287C111.472 11.8287 112.162 11.8287 112.852 11.8287C113.665 11.8287 114.478 11.8287 115.29 11.8287C116.168 11.8287 117.046 11.8287 117.924 11.8287C118.788 11.8287 119.652 11.8287 120.516 11.8287C121.307 11.8287 122.099 11.8287 122.89 11.8287C123.539 11.8287 124.187 11.8287 124.836 11.8287C125.273 11.8287 125.711 11.8287 126.149 11.8287C126.311 11.8287 126.473 11.8287 126.635 11.8287C126.977 11.8287 127.23 12.0273 127.245 12.2625C127.259 12.4968 126.954 12.6963 126.635 12.6963C126.625 12.6963 126.614 12.6963 126.604 12.6963C126.37 12.6977 126.136 12.6963 125.901 12.6963C125.406 12.6963 124.91 12.6963 124.414 12.6963C123.725 12.6963 123.035 12.6963 122.346 12.6963C121.533 12.6963 120.72 12.6963 119.907 12.6963C119.029 12.6963 118.151 12.6963 117.273 12.6963C116.41 12.6963 115.546 12.6963 114.682 12.6963C113.89 12.6963 113.099 12.6963 112.307 12.6963C111.658 12.6963 111.01 12.6963 110.361 12.6963C109.924 12.6963 109.486 12.6963 109.049 12.6963Z" fill="white"/>
</g>
<path d="M12.2581 42.3776C12.9644 42.3776 13.5368 41.8052 13.5368 41.099C13.5368 40.3927 12.9644 39.8203 12.2581 39.8203C11.5519 39.8203 10.9795 40.3927 10.9795 41.099C10.9795 41.8052 11.5519 42.3776 12.2581 42.3776Z" fill="#FFFEFB"/>
<path d="M156.641 54.6786C157.855 54.6786 158.84 53.6943 158.84 52.4799C158.84 51.2656 157.855 50.2812 156.641 50.2812C155.427 50.2812 154.442 51.2656 154.442 52.4799C154.442 53.6943 155.427 54.6786 156.641 54.6786Z" fill="white"/>
<path d="M139.046 40.395C140.075 40.395 140.909 39.5606 140.909 38.5315C140.909 37.5023 140.075 36.668 139.046 36.668C138.016 36.668 137.182 37.5023 137.182 38.5315C137.182 39.5606 138.016 40.395 139.046 40.395Z" fill="white"/>
<path d="M143.117 53.8665C143.873 53.8665 144.486 53.2535 144.486 52.4977C144.486 51.7419 143.873 51.1289 143.117 51.1289C142.362 51.1289 141.749 51.7419 141.749 52.4977C141.749 53.2535 142.362 53.8665 143.117 53.8665Z" fill="#FFFEFB"/>
<path d="M18.5846 31.2063C19.3404 31.2063 19.9534 30.5933 19.9534 29.8375C19.9534 29.0817 19.3404 28.4688 18.5846 28.4688C17.8288 28.4688 17.2158 29.0817 17.2158 29.8375C17.2158 30.5933 17.8288 31.2063 18.5846 31.2063Z" fill="#FFFEFB"/>
<path d="M2.26674 50.6399C3.02254 50.6399 3.63553 50.0269 3.63553 49.2711C3.63553 48.5153 3.02254 47.9023 2.26674 47.9023C1.51094 47.9023 0.897949 48.5153 0.897949 49.2711C0.897949 50.0269 1.51094 50.6399 2.26674 50.6399Z" fill="white"/>
<mask id="mask6_728_2310" style="mask-type:luminance" maskUnits="userSpaceOnUse" x="59" y="54" width="83" height="29">
<path d="M59.1191 54.8164H141.535V82.1892H59.1191V54.8164Z" fill="white"/>
</mask>
<g mask="url(#mask6_728_2310)">
<path d="M132.356 81.58L130.557 66.0547H141.044L138.782 81.58H132.356Z" fill="#B4D0FC"/>
<path d="M141.043 68.8867H130.248L131.122 75.1072H140.221L141.043 68.8867Z" fill="#FFFEFB"/>
<path d="M129.991 66.7274H141.507H141.506V65.9651C141.506 65.279 140.95 64.7227 140.264 64.7227H131.234C130.548 64.7227 129.991 65.279 129.991 65.9651V66.7274Z" fill="#34002F"/>
<path d="M131.173 64.7274H140.324V63.667C140.324 63.1455 139.901 62.7227 139.379 62.7227H132.117C131.596 62.7227 131.173 63.1455 131.173 63.667V64.7274Z" fill="#34002F"/>
<path d="M60.294 79.8398H83.5697C84.2184 79.8398 84.7441 80.366 84.7446 81.0147C84.7446 81.6639 84.2184 82.1896 83.5697 82.1896H60.294C59.6449 82.1896 59.1191 81.6634 59.1191 81.0147C59.1191 80.3656 59.6453 79.8398 60.294 79.8398Z" fill="#80808E"/>
<path d="M81 82.1934H116.345C116.952 82.1934 117.491 81.8032 117.68 81.2259L125.721 56.6617C126.019 55.7535 125.342 54.8203 124.386 54.8203H89.0412C88.434 54.8203 87.8953 55.2106 87.7063 55.7879L79.6651 80.352C79.3675 81.2602 80.0443 82.1934 81 82.1934Z" fill="#80808E"/>
<path d="M81.9747 82.1943H117.833C118.335 82.1943 118.78 81.8712 118.936 81.3941L127.136 56.3429C127.382 55.5917 126.823 54.8203 126.033 54.8203H90.175C89.6731 54.8203 89.2279 55.1434 89.0717 55.6205L80.8715 80.6718C80.6258 81.4229 81.1846 82.1943 81.9747 82.1943Z" fill="#292929"/>
<path d="M104.585 71.5683C106.336 71.5683 107.754 70.1495 107.754 68.3994C107.754 66.6492 106.336 65.2305 104.585 65.2305C102.835 65.2305 101.417 66.6492 101.417 68.3994C101.417 70.1495 102.835 71.5683 104.585 71.5683Z" fill="#FFFEFB"/>
</g>
<path d="M76.4856 26.6859C76.5436 26.6983 76.8775 26.7914 76.6184 26.7127C77.2198 26.8959 77.6316 25.9954 77.0245 25.8114C76.1353 25.5406 75.1007 25.4943 74.2507 25.9125C73.6836 26.1916 74.0299 27.1184 74.6019 26.8371C75.0354 26.624 75.4997 26.564 75.9782 26.6087C76.1486 26.6245 76.318 26.6504 76.4856 26.6859Z" fill="#34002F"/>
<path d="M75.2593 29.1886C75.557 29.2995 75.9515 28.98 76.1405 28.4748C76.3295 27.9696 76.2421 27.4693 75.9448 27.3579C75.6471 27.247 75.2526 27.5666 75.0636 28.0718C74.8746 28.5774 74.9621 29.0773 75.2593 29.1886Z" fill="#34002F"/>
<mask id="mask7_728_2310" style="mask-type:luminance" maskUnits="userSpaceOnUse" x="59" y="13" width="20" height="23">
<path d="M59.7358 13.3125H78.034V35.2554H59.7358V13.3125Z" fill="white"/>
</mask>
<g mask="url(#mask7_728_2310)">
<path d="M61.6557 28.3704C63.0884 29.2228 64.9184 28.9847 66.4195 27.9212C58.8479 28.3202 64.2545 19.6996 65.0023 18.5586C63.3697 18.6644 61.6801 19.7207 60.64 21.4689C59.1123 24.0382 59.5664 27.1279 61.6557 28.3704Z" fill="#B4D0FC"/>
<path d="M66.4195 27.9183C67.1068 27.4316 67.7249 26.7724 68.2049 25.9658C69.7333 23.3969 69.2783 20.3065 67.1896 19.0636C66.5215 18.6668 65.7686 18.5064 65.0023 18.5555C63.3697 18.6612 61.6801 19.7176 60.64 21.4658C59.1123 24.0351 59.5664 27.1248 61.6557 28.3673C63.0884 29.2197 64.9184 28.9818 66.4195 27.9183Z" fill="#C5DBF9"/>
<path d="M77.0516 16.0863C77.6655 15.8449 78.0446 15.7101 78.0446 15.7101C76.9764 13.7975 75.5942 13.349 75.5942 13.349C71.6191 12.9627 68.1393 15.7326 66.3664 17.4841C65.5706 18.2703 65.1181 18.8518 65.1181 18.8518L64.479 18.9429C64.479 18.9429 66.4387 25.316 67.6622 22.1403C68.6365 19.6105 74.6468 17.0307 77.0516 16.0863Z" fill="#C5DBF9"/>
<path d="M64.6473 25.5214C64.6255 25.4529 64.604 25.3839 64.5851 25.3143C64.5503 25.1896 64.6272 25.0679 64.7469 25.0289C64.866 24.9907 64.9992 25.0742 65.0316 25.1909C65.0329 25.1951 65.034 25.1994 65.0354 25.2036C65.0653 25.3036 65.0954 25.4038 65.1273 25.5029C65.1963 25.7166 65.2708 25.9286 65.3489 26.1395C65.4013 26.281 65.4553 26.422 65.5111 26.5619C65.5417 26.6387 65.5727 26.7154 65.6042 26.7915C65.6209 26.8319 65.6374 26.8721 65.6546 26.9125C65.6689 26.9468 65.627 26.8473 65.6484 26.8982C65.6531 26.9087 65.6575 26.9185 65.6618 26.929C65.6702 26.9484 65.6785 26.9687 65.687 26.9881C65.8441 27.3534 66.0117 27.7138 66.1913 28.0682C66.3946 28.4709 66.6133 28.8659 66.8476 29.2517C67.1004 29.6675 67.3715 30.0718 67.6638 30.4603C67.6824 30.4851 67.7016 30.5103 67.7205 30.5351C67.7301 30.5473 67.7395 30.5601 67.7491 30.5723C67.7533 30.5781 67.7576 30.583 67.7618 30.5888C67.7794 30.6116 67.7234 30.5389 67.7482 30.5708C67.7868 30.6208 67.8252 30.6703 67.8647 30.7194C67.9428 30.8165 68.022 30.9133 68.103 31.0086C68.2672 31.2025 68.4377 31.3906 68.6145 31.5729C68.7941 31.7581 68.9806 31.9367 69.1734 32.108C69.2705 32.1942 69.3694 32.2787 69.4698 32.3606C69.5202 32.4021 69.5706 32.4425 69.622 32.4825C69.6305 32.4892 69.6394 32.4956 69.6479 32.5023C69.6479 32.5023 69.5988 32.4649 69.6269 32.4863C69.6383 32.4948 69.6496 32.5039 69.661 32.5124C69.6867 32.5318 69.713 32.5517 69.7391 32.5711C70.1578 32.883 70.6049 33.1573 71.0769 33.3815C71.1369 33.4101 71.1974 33.4378 71.2583 33.465C71.2907 33.4793 71.3233 33.4929 71.3556 33.5067C71.3828 33.5186 71.2969 33.4824 71.336 33.4987C71.3427 33.5016 71.3498 33.5045 71.3565 33.5074C71.3703 33.5132 71.3842 33.5186 71.398 33.5244C71.5227 33.5752 71.6488 33.623 71.7765 33.6667C72.0364 33.7562 72.3018 33.8303 72.5704 33.8883C72.6972 33.916 72.7592 34.0563 72.7324 34.173C72.7039 34.2998 72.5655 34.3607 72.4475 34.3351C72.316 34.3065 72.1851 34.2744 72.0556 34.2382C71.5207 34.0896 71.0017 33.8774 70.513 33.6145C70.0352 33.3579 69.5883 33.0491 69.1672 32.7081C68.7662 32.3827 68.3929 32.0241 68.0452 31.6428C67.6942 31.2581 67.37 30.8488 67.0671 30.4255C66.7862 30.0321 66.5251 29.6251 66.2823 29.2073C66.0594 28.824 65.8519 28.4314 65.658 28.0329C65.4832 27.673 65.3201 27.3072 65.1668 26.9372C65.051 26.6576 64.9417 26.3751 64.8392 26.09C64.7716 25.9018 64.7074 25.7124 64.6473 25.5214Z" fill="#1B2630"/>
<path d="M65.5885 26.165C65.9895 25.8811 66.3505 25.4964 66.6306 25.0254C67.5225 23.5258 67.2572 21.7217 66.0381 20.9969C65.648 20.765 65.2084 20.6717 64.7612 20.7003C63.8084 20.7617 62.8221 21.3785 62.2149 22.3989C61.323 23.8985 61.5881 25.7022 62.8078 26.4274C63.6442 26.925 64.7122 26.7856 65.5885 26.165Z" fill="#1B2630"/>
<path d="M65.6726 24.0871C65.8445 23.9552 65.9991 23.7767 66.1192 23.558C66.5005 22.8614 66.3836 22.0208 65.8574 21.6811C65.6894 21.5731 65.4997 21.5283 65.3073 21.5412C64.8974 21.5685 64.4734 21.8536 64.2139 22.328C63.8326 23.0247 63.9495 23.8651 64.4757 24.2047C64.8367 24.4377 65.2964 24.3748 65.6726 24.0871Z" fill="#415C7B"/>
<path d="M77.0514 16.087C77.6653 15.8456 78.0444 15.7108 78.0444 15.7108C76.9762 13.7982 75.5943 13.349 75.5943 13.349C71.6191 12.9627 68.1391 15.7326 66.3662 17.4841C69.2194 16.1941 73.8392 14.6182 77.0514 16.087Z" fill="#B4D0FC"/>
<path d="M71.5627 34.9674C71.7423 35.0888 71.9608 35.179 72.2065 35.2227C72.9884 35.3626 73.7482 34.984 73.902 34.3772C73.9515 34.1829 73.9334 33.9896 73.86 33.8111C73.7038 33.4315 73.2986 33.1204 72.7661 33.0252C71.9842 32.8852 71.2244 33.2639 71.0702 33.8707C70.964 34.2868 71.1702 34.7026 71.5627 34.9674Z" fill="#415C7B"/>
</g>
</svg>
