<svg fill="none" xmlns="http://www.w3.org/2000/svg">
<g clip-path="url(#clip0_321_4151)">
<mask id="mask0_321_4151" style="mask-type:luminance" maskUnits="userSpaceOnUse" x="0" y="0" width="238" height="238">
<path d="M238 0H0V238H238V0Z" fill="white"/>
</mask>
<g mask="url(#mask0_321_4151)">
<path d="M233.269 124.773H4.14551V116.551H233.269V124.773Z" fill="#A16C1C"/>
<path d="M4.14596 124.775H65.4657V116.552H4.14596V124.775ZM0 0H238V238H0V0ZM0 238H238V0H0V238Z" fill="black"/>
<path d="M66.4492 124.775H61.1123L63.9074 227.806H66.4492H68.9911L71.7861 124.775H66.4492Z" fill="#A16C1C"/>
<path d="M63.9052 227.807H66.447V126.99L61.1963 127.95L63.9052 227.807Z" fill="black"/>
<path d="M15.8872 124.775H10.5498L13.3454 227.806H15.8872H18.4281L21.2236 124.775H15.8872Z" fill="#A16C1C"/>
<path d="M13.3447 227.807H15.8865V126.99L10.6357 127.95L13.3447 227.807Z" fill="black"/>
<path d="M221.529 124.775H216.192L218.987 227.806H221.529H224.071L226.866 124.775H221.529Z" fill="#A16C1C"/>
<path d="M218.987 227.807H221.529V126.99L216.278 127.95L218.987 227.807Z" fill="black"/>
<path d="M170.968 124.775H165.631L168.425 227.806H170.968H173.51L176.304 124.775H170.968Z" fill="#A16C1C"/>
<path d="M168.427 227.807H170.969V126.99L165.718 127.95L168.427 227.807Z" fill="black"/>
<path d="M112.905 72.543H58.391C56.4341 72.543 55.1689 74.1438 55.5792 76.1011L62.8397 110.731C63.25 112.687 65.1863 114.288 67.1432 114.288H121.657C123.614 114.288 124.88 112.687 124.469 110.731L117.209 76.1011C116.799 74.1438 114.862 72.543 112.905 72.543Z" fill="#2D2D2D"/>
<path d="M67.6478 112.317C66.3679 112.317 65.0079 111.183 64.7366 109.89L57.4766 75.2606C57.3648 74.727 57.4543 74.2476 57.7289 73.9097C57.986 73.5927 58.4006 73.418 58.8956 73.418H113.409C114.689 73.418 116.049 74.5518 116.321 75.8451L123.581 110.475C123.693 111.007 123.603 111.487 123.329 111.825C123.067 112.147 122.664 112.317 122.162 112.317H67.6478Z" fill="white"/>
<path d="M108.778 109.544L101.899 76.7334C101.725 75.9032 102.359 75.123 103.207 75.123H112.053C112.685 75.123 113.23 75.5662 113.36 76.1855L120.239 108.995C120.412 109.825 119.779 110.605 118.931 110.605H110.085C109.453 110.605 108.907 110.162 108.778 109.544Z" fill="#737373"/>
<path d="M71.124 77.9672C68.0176 77.9672 62.0162 77.9672 62.0162 77.9672L61.7178 76.5449C61.7178 76.5449 68.1738 76.5449 71.1597 76.5449" fill="#FF6666"/>
<path d="M85.8998 81.5014C83.436 81.5014 67.0597 81.5014 67.0597 81.5014L66.7607 80.0781H85.9102C85.9102 80.0781 86.0749 80.8635 86.1596 81.2676" fill="black"/>
<path d="M89.3747 85.0317C87.444 85.0317 68.068 85.0317 68.068 85.0317L67.7695 83.6094H89.2314C89.2314 83.6094 89.2452 83.6755 89.2671 83.7793" fill="black"/>
<path d="M80.7864 88.5619C75.7351 88.5619 69.0763 88.5619 69.0763 88.5619L68.7783 87.1387C68.7783 87.1387 76.6209 87.1387 81.7393 87.1387" fill="black"/>
<path d="M65.2207 93.7285C65.2163 93.7085 65.2119 93.6885 65.208 93.668L65.2207 93.7285Z" fill="#FF6666"/>
<path d="M72.7514 97.8178C71.4105 97.8178 70.3795 97.8178 70.3795 97.8178L70.0811 96.3945C70.0811 96.3945 71.0978 96.3945 72.4244 96.3945" fill="black"/>
<path d="M87.1645 97.8178C84.6717 97.8178 80.8175 97.8178 80.8175 97.8178L80.5186 96.3945C80.5186 96.3945 84.3432 96.3945 86.8375 96.3945" fill="black"/>
<path d="M78.5735 101.347C74.4542 101.347 71.3883 101.347 71.3883 101.347L71.0898 99.9238C71.0898 99.9238 75.6613 99.9238 81.1406 99.9238" fill="black"/>
<path d="M88.7886 104.875C82.3645 104.875 72.3966 104.875 72.3966 104.875L72.0986 103.453C72.0986 103.453 86.2011 103.453 91.6679 103.453" fill="black"/>
<path d="M138.356 114.082H66.6258C64.6689 114.082 63.4033 115.194 63.8136 116.552H142.66C142.25 115.194 140.313 114.082 138.356 114.082Z" fill="#2D2D2D"/>
<path d="M43.0569 63.7892L36.1782 30.9794C36.0045 30.1493 36.6381 29.3691 37.4863 29.3691H93.1935C93.8256 29.3691 94.3711 29.8123 94.5011 30.4316L101.379 63.2413C101.554 64.0714 100.92 64.8511 100.072 64.8511H44.365C43.7324 64.8511 43.1864 64.4085 43.0569 63.7892Z" fill="#313131"/>
<path d="M62.7262 29.8145C62.7919 30.1315 62.8585 30.45 62.8585 30.45H51.1656L50.9033 29.1914H62.5963C62.5963 29.1914 62.661 29.5022 62.7262 29.8145Z" fill="#FF6666"/>
<path d="M60.8957 32.1631C60.9309 32.3325 60.9566 32.4558 60.9566 32.4558H56.2633L56.001 31.1973H60.6943C60.6943 31.1973 60.8181 31.7913 60.8957 32.1631Z" fill="#FF6666"/>
<path d="M68.6785 32.0388C68.7266 32.2687 68.7657 32.4558 68.7657 32.4558H61.5347L61.2725 31.1973H68.5034C68.5034 31.1973 68.6024 31.6723 68.6785 32.0388Z" fill="#FF6666"/>
<path d="M71.75 33.6564C71.8252 34.0177 71.9185 34.4651 71.9185 34.4651H56.6812L56.4189 33.207H71.6562C71.6562 33.207 71.699 33.4117 71.75 33.6564Z" fill="#FF6666"/>
<path d="M69.8346 35.7779C69.9045 36.1125 69.9793 36.4714 69.9793 36.4714H57.0992L56.8369 35.2129H69.717C69.717 35.2129 69.7741 35.4861 69.8346 35.7779Z" fill="#FF6666"/>
<path d="M56.4367 55.0378C56.3406 55.0378 56.2891 55.0378 56.2891 55.0378L56.0273 53.7793C56.0273 53.7793 56.063 53.7793 56.1306 53.7793" fill="#FF6666"/>
<path d="M62.2996 20.3809C62.3701 20.7203 62.4477 21.0916 62.4477 21.0916H49.2134L48.9512 19.834H62.1854C62.1854 19.834 62.2401 20.0963 62.2996 20.3809Z" fill="#FF6666"/>
<path d="M69.1418 26.6289C69.0681 26.2733 68.98 25.8516 68.98 25.8516H54.3896L54.6514 27.1101H69.2423C69.2423 27.1101 69.1956 26.8869 69.1418 26.6289Z" fill="#FF6666"/>
<path d="M66.1953 24.4983C66.1277 24.1755 66.0587 23.8438 66.0587 23.8438H53.9697L54.232 25.1023H66.321C66.321 25.1023 66.2591 24.8043 66.1953 24.4983Z" fill="#FF6666"/>
<path d="M67.0154 22.5563C66.9445 22.2159 66.8664 21.8418 66.8664 21.8418H53.5518L53.8145 23.1003H67.1287C67.1287 23.1003 67.0744 22.84 67.0154 22.5563Z" fill="#FF6666"/>
<path d="M62.188 39.222C62.2446 39.4938 62.2951 39.7351 62.2951 39.7351H53.1002L52.8379 38.4766H62.0328C62.0328 38.4766 62.1156 38.874 62.188 39.222Z" fill="#FF6666"/>
<path d="M76.8781 45.1501C76.8105 44.8269 76.7415 44.4941 76.7415 44.4941H58.7725L59.0343 45.7527H77.0033C77.0033 45.7527 77.0009 45.7422 76.9971 45.7232" fill="#FF6666"/>
<path d="M65.8857 42.9118C65.8367 42.6772 65.7967 42.4844 65.7967 42.4844H58.3525L58.6148 43.7429H66.059C66.059 43.7429 65.9619 43.2764 65.8857 42.9118Z" fill="#FF6666"/>
<path d="M73.9653 42.9066C73.9168 42.6743 73.8773 42.4844 73.8773 42.4844H66.4326L66.6954 43.7429H74.1395C74.1395 43.7429 74.0434 43.2812 73.9672 42.9166" fill="#FF6666"/>
<path d="M74.5147 41.3439C74.4375 40.975 74.3342 40.4785 74.3342 40.4785H57.9365L58.1988 41.7366H74.5965C74.5965 41.7366 74.5603 41.5628 74.5147 41.3439Z" fill="#FF6666"/>
<path d="M67.9018 50.5137C64.1053 50.5137 60.0283 50.5137 60.0283 50.5137L60.2906 51.7717C60.2906 51.7717 64.1762 51.7717 67.8933 51.7717" fill="#FF6666"/>
<path d="M63.5473 48.5078C62.701 48.5078 59.6084 48.5078 59.6084 48.5078L59.8707 49.7664H64.0214C64.0214 49.7664 63.9705 49.5212 63.9133 49.2475" fill="#FF6666"/>
<path d="M69.1492 48.5078C67.4341 48.5078 64.333 48.5078 64.333 48.5078L64.5953 49.7664C64.5953 49.7664 68.5109 49.7664 69.976 49.7664" fill="#FF6666"/>
<path d="M75.5882 46.502H59.1904L59.4532 47.7605C59.4532 47.7605 72.3837 47.7605 75.2797 47.7605" fill="#FF6666"/>
<path d="M88.4334 45.814C88.4748 46.012 88.5067 46.1643 88.5067 46.1643H82.6309L82.3682 44.9062H88.2444C88.2444 44.9062 88.3558 45.4418 88.4334 45.814Z" fill="#FF6666"/>
<path d="M98.1794 45.6583C98.2355 45.9268 98.285 46.1643 98.285 46.1643H89.232L88.9697 44.9062H98.0228C98.0228 44.9062 98.1065 45.3085 98.1794 45.6583Z" fill="#FF6666"/>
<path d="M101.918 47.1739C101.995 47.5428 102.126 48.1707 102.126 48.1707H83.0494L82.7871 46.9121H101.863C101.863 46.9121 101.886 47.0206 101.918 47.1739Z" fill="#FF6666"/>
<path d="M99.4172 49.3225C99.4938 49.69 99.5948 50.1746 99.5948 50.1746H83.4698L83.207 48.916H99.3325C99.3325 48.916 99.3701 49.0974 99.4172 49.3225Z" fill="#FF6666"/>
<path d="M107.014 39.1369C106.936 38.7642 106.814 38.1797 106.814 38.1797H88.5479L88.8097 39.4382H107.077C107.077 39.4382 107.05 39.3107 107.014 39.1369Z" fill="#FF6666"/>
<path d="M103.431 36.9778C103.356 36.617 103.263 36.1738 103.263 36.1738H88.1279L88.3902 37.4328H103.526C103.526 37.4328 103.482 37.2248 103.431 36.9778Z" fill="#FF6666"/>
<path d="M100.71 35.0506C100.633 34.6802 100.527 34.1719 100.527 34.1719H83.8574L84.1202 35.4304H100.789C100.789 35.4304 100.754 35.2633 100.71 35.0506Z" fill="#FF6666"/>
<path d="M103.981 58.2012C97.608 58.2012 85.1416 58.2012 85.1416 58.2012L85.4039 59.4597C85.4039 59.4597 96.5494 59.4597 103.151 59.4597" fill="#FF6666"/>
<path d="M94.0842 56.3905C94.0599 56.2734 94.0437 56.1953 94.0437 56.1953H84.7236L84.9859 57.4539H94.306C94.306 57.4539 94.267 57.2677 94.2194 57.0383" fill="#FF6666"/>
<path d="M103.744 56.1953C101.939 56.1953 94.8379 56.1953 94.8379 56.1953L95.1002 57.4539C95.1002 57.4539 102.912 57.4539 104.232 57.4539" fill="#FF6666"/>
<path d="M105.054 55.2404C104.98 54.8843 104.834 54.1855 104.834 54.1855H84.3047L84.567 55.4441H105.096C105.096 55.4441 105.082 55.3736 105.059 55.2661" fill="#FF6666"/>
<path d="M86.4492 64.4746C86.4578 64.5165 86.4673 64.5622 86.4773 64.6098L86.4492 64.4746Z" fill="#FF6666"/>
<path d="M88.5075 62.2129C87.2313 62.2129 85.9775 62.2129 85.9775 62.2129L86.2398 63.471C86.2398 63.471 87.9487 63.471 89.4066 63.471" fill="#FF6666"/>
<path d="M92.0576 63.0156C92.062 63.0363 92.0663 63.0571 92.0706 63.0778L92.0576 63.0156Z" fill="#FF6666"/>
<path d="M91.1512 60.209C87.9767 60.209 85.5605 60.209 85.5605 60.209L85.8228 61.4675C85.8228 61.4675 87.7954 61.4675 90.5171 61.4675" fill="#FF6666"/>
<path d="M51.5688 66.5247C51.4964 66.1762 51.4131 65.7773 51.4131 65.7773H37.4297L37.692 67.0359H51.6754C51.6754 67.0359 51.6254 66.7955 51.5688 66.5247Z" fill="#FF6666"/>
<path d="M47.3942 64.3331C47.3333 64.0408 47.2762 63.7676 47.2762 63.7676H37.0117L37.2735 65.0261H47.5385C47.5385 65.0261 47.4637 64.6672 47.3942 64.3331Z" fill="#FF6666"/>
<path d="M58.3874 64.3331C58.3265 64.0408 58.2693 63.7676 58.2693 63.7676H48.0049L48.2672 65.0261H58.5316C58.5316 65.0261 58.4569 64.6672 58.3874 64.3331Z" fill="#FF6666"/>
<path d="M57.3449 62.8313C57.2712 62.4796 57.1222 61.7637 57.1222 61.7637H36.5928L36.855 63.0222H57.3845C57.3845 63.0222 57.3687 62.9461 57.3449 62.8313Z" fill="#FF6666"/>
<path d="M214.176 103.455H205.519L206.527 116.554H213.167L214.176 103.455Z" fill="#FF6666"/>
<path d="M214.176 103.455H205.519L206.527 116.554H213.167L214.176 103.455Z" fill="black"/>
<path d="M25.4714 94.3574H37.9188L33.6696 116.553H21.2217L25.4714 94.3574Z" fill="#2D2D2D"/>
<path d="M41.3276 88.4082H23.7451L28.666 116.554H46.2485L41.3276 88.4082Z" fill="#A26C1C"/>
<path d="M22.7061 88.4082H23.7461L28.6665 116.554H27.6269L22.7061 88.4082Z" fill="#FF6666"/>
<path d="M22.7061 88.4082H23.7461L28.6665 116.554H27.6269L22.7061 88.4082Z" fill="black"/>
<path d="M31.1927 113.542L27.3242 91.4141H38.7987L42.6676 113.542H31.1927Z" fill="white"/>
<path d="M42.1233 113.542L38.2549 91.4141H38.7994L42.6684 113.542H42.1233Z" fill="#A26C1C"/>
<path d="M127.626 53.778C127.912 54.3008 127.867 54.8753 127.525 55.0624C127.183 55.249 126.675 54.9768 126.389 54.4541C126.104 53.9318 126.149 53.3567 126.491 53.1701C126.832 52.9836 127.341 53.2552 127.626 53.778Z" fill="#2D2D2D"/>
<path d="M127.913 54.8492C127.913 54.8492 128.373 58.5127 127.861 60.6825C129.257 61.0396 130.613 59.7863 130.613 59.7863L127.913 54.8492Z" fill="#DFB395"/>
<path d="M127.394 49.3538C127.342 49.4022 127.275 49.4353 127.199 49.4447C125.668 49.6339 125.089 50.752 125.065 50.7998C124.979 50.9726 124.77 51.0429 124.597 50.9577C124.425 50.8719 124.354 50.664 124.438 50.4913C124.468 50.4301 125.194 48.9874 127.114 48.7501C127.305 48.7267 127.48 48.8624 127.504 49.0545C127.518 49.1704 127.474 49.2798 127.394 49.3538Z" fill="#2D2D2D"/>
<path d="M147.388 51.6361C149.951 58.6987 152.645 64.1386 155.696 67.1257C155.696 67.1257 156.128 72.7834 146.664 76.1237C136.258 79.7964 139.868 72.7131 139.868 72.7131C145.069 69.352 144.233 64.8659 140.067 63.4168L147.388 51.6361Z" fill="#DFB395"/>
<path d="M144.446 43.1432C147.56 49.7757 149.72 53.4992 148.28 58.5646C146.114 66.184 136.586 67.5759 131.553 62.0083C127.023 56.9962 122.691 46.9924 127.576 41.0047C132.388 35.1049 141.332 36.5112 144.446 43.1432Z" fill="#DFB395"/>
<path d="M132.197 54.2133C131.19 55.7704 130.423 56.9474 130.423 56.9474C130.423 56.9474 127.776 51.468 128.471 48.828C127.219 46.7142 125.209 50.0871 124.082 45.8835C122.955 41.6803 126.283 36.8606 127.597 35.822C127.812 36.1244 127.883 37.338 127.883 37.338C127.883 37.338 133.001 32.1209 140.797 32.2804C140.3 32.8486 140.19 34.3119 140.19 34.3119C140.19 34.3119 148.269 35.1461 150.386 39.5208C149.206 39.0457 148.327 38.9459 148.327 38.9459C148.327 38.9459 150.805 41.6318 150.429 46.0552C150.053 50.4786 150.062 55.3351 150.269 57.239C150.476 59.1425 145.476 63.1476 142.019 59.4573C138.561 55.7671 132.197 54.2133 132.197 54.2133Z" fill="#2D2D2D"/>
<path d="M135.432 52.5255C136.005 54.1611 135.893 55.9729 135.413 57.328C134.691 59.3659 132.907 59.0321 131.917 57.333C131.024 55.8033 130.325 52.9001 131.623 51.3998C132.901 49.9213 134.776 50.6555 135.432 52.5255Z" fill="#DFB395"/>
<path d="M157.773 66.2211C157.581 63.5808 157.335 60.5734 155.706 60.4972C153.913 60.413 143.53 65.0525 141.311 68.3246C139.092 71.5961 143.424 74.7986 143.424 74.7986L157.773 66.2211Z" fill="#2D2D2D"/>
<path d="M136.335 106.71L127.366 106.414L127.526 113.926C127.526 113.926 135.351 113.12 135.696 111.064L136.335 106.71Z" fill="#DFB395"/>
<path d="M122.626 110.1L121.686 113.942L127.526 113.926L127.367 106.414L122.626 110.1Z" fill="#DFB395"/>
<path d="M172.339 75.4857L172.151 77.4125C172.091 78.0328 172.004 78.6435 171.925 79.2561C171.768 80.4794 171.575 81.6956 171.365 82.9113C170.959 85.3446 170.433 87.7646 169.831 90.2003C169.199 92.6274 168.504 95.0745 167.589 97.5331C167.123 98.7669 166.64 99.9997 166.056 101.257C165.477 102.513 164.849 103.775 164.031 105.067C163.845 105.384 163.617 105.714 163.397 106.039C163.181 106.362 162.955 106.687 162.692 107.021C162.433 107.353 162.206 107.673 161.899 108.013L161.459 108.512C161.317 108.674 161.17 108.838 160.96 109.035C159.396 110.575 157.793 111.503 156.289 112.175C153.282 113.497 150.552 114.001 147.907 114.298C146.589 114.454 145.29 114.515 144.01 114.544C142.731 114.58 141.466 114.551 140.212 114.48C138.959 114.423 137.716 114.302 136.48 114.157C135.228 114.003 134.048 113.813 132.734 113.549L132.95 106.503C137.28 105.642 141.814 104.759 145.697 103.464C146.672 103.151 147.597 102.789 148.437 102.411C149.279 102.046 150.039 101.64 150.609 101.236C151.176 100.832 151.545 100.442 151.59 100.279L151.79 99.9688C151.869 99.8683 151.954 99.6922 152.04 99.5527C152.128 99.4166 152.216 99.2486 152.304 99.0724C152.392 98.9006 152.484 98.7407 152.57 98.5408C153.277 97.0423 153.966 95.1592 154.518 93.191C155.07 91.2075 155.594 89.134 156.012 87.003C156.47 84.8829 156.833 82.7085 157.205 80.5299L157.717 77.2517L158.178 74.0605L172.339 75.4857Z" fill="#FF6666"/>
<path d="M172.339 75.4857L172.151 77.4125C172.091 78.0328 172.004 78.6435 171.925 79.2561C171.768 80.4794 171.575 81.6956 171.365 82.9113C170.959 85.3446 170.433 87.7646 169.831 90.2003C169.199 92.6274 168.504 95.0745 167.589 97.5331C167.123 98.7669 166.64 99.9997 166.056 101.257C165.477 102.513 164.849 103.775 164.031 105.067C163.845 105.384 163.617 105.714 163.397 106.039C163.181 106.362 162.955 106.687 162.692 107.021C162.433 107.353 162.206 107.673 161.899 108.013L161.459 108.512C161.317 108.674 161.17 108.838 160.96 109.035C159.396 110.575 157.793 111.503 156.289 112.175C153.282 113.497 150.552 114.001 147.907 114.298C146.589 114.454 145.29 114.515 144.01 114.544C142.731 114.58 141.466 114.551 140.212 114.48C138.959 114.423 137.716 114.302 136.48 114.157C135.228 114.003 134.048 113.813 132.734 113.549L132.95 106.503C137.28 105.642 141.814 104.759 145.697 103.464C146.672 103.151 147.597 102.789 148.437 102.411C149.279 102.046 150.039 101.64 150.609 101.236C151.176 100.832 151.545 100.442 151.59 100.279L151.79 99.9688C151.869 99.8683 151.954 99.6922 152.04 99.5527C152.128 99.4166 152.216 99.2486 152.304 99.0724C152.392 98.9006 152.484 98.7407 152.57 98.5408C153.277 97.0423 153.966 95.1592 154.518 93.191C155.07 91.2075 155.594 89.134 156.012 87.003C156.47 84.8829 156.833 82.7085 157.205 80.5299L157.717 77.2517L158.178 74.0605L172.339 75.4857Z" fill="black"/>
<path d="M132.693 84.7714C134.865 93.7959 137.67 108.925 138.312 128.706H177.799C178.018 123.824 177.193 96.3601 173.219 76.469C171.707 68.9058 164.289 64.0135 156.764 65.7033C156.701 65.7176 156.638 65.7318 156.575 65.7461C151.65 66.869 144.571 68.6773 140.407 70.2605C140.35 70.2819 140.294 70.3029 140.238 70.3248C134.452 72.5472 131.244 78.7462 132.693 84.7714Z" fill="#A42828"/>
<path d="M135.022 95.8037C135.602 97.6078 136.108 100.91 136.178 103.416C139.409 100.043 140.434 89.7109 140.434 89.7109L135.022 95.8037Z" fill="black"/>
<path d="M98.3793 101.08L89.6913 98.836L88.2082 106.202C88.2082 106.202 92.5121 108.425 96.8063 105.19L98.3793 101.08Z" fill="#DFB395"/>
<path d="M85.1062 100.345L81.4472 104.982L88.2088 106.203L89.6912 98.8378L85.1062 100.345Z" fill="#DFB395"/>
<path d="M147.021 82.3517C146.218 83.4221 145.509 84.3631 144.725 85.3311C143.956 86.2893 143.183 87.2427 142.386 88.1738C140.804 90.047 139.173 91.8802 137.481 93.6761C134.095 97.268 130.521 100.733 126.464 103.956C124.444 105.579 122.268 107.116 119.794 108.528C119.495 108.708 119.155 108.876 118.836 109.048C118.506 109.22 118.231 109.381 117.757 109.58C117.326 109.777 116.897 109.948 116.472 110.091C116.042 110.25 115.626 110.374 115.204 110.485C113.518 110.921 111.916 111.098 110.397 111.14C107.355 111.185 104.613 110.702 102.029 109.988C100.743 109.601 99.4907 109.194 98.2799 108.68C97.6719 108.434 97.0735 108.168 96.4823 107.877C95.8721 107.592 95.3428 107.291 94.6671 106.927L96.8733 100.232C101.144 100.336 105.781 100.335 109.124 99.4285C109.955 99.2212 110.687 98.9411 111.242 98.624C111.521 98.4706 111.776 98.3289 111.961 98.1695C112.022 98.1186 112.252 97.9706 112.435 97.8509C112.625 97.7218 112.81 97.6156 113.005 97.4692C114.55 96.3886 116.145 95.0549 117.728 93.619C120.884 90.7239 123.963 87.4398 126.961 84.0614C128.461 82.3712 129.939 80.6416 131.41 78.9056L133.596 76.2876L135.71 73.714L147.021 82.3517Z" fill="#A42828"/>
<path d="M136.671 222.103H129.288L125.577 205.006H132.96L136.671 222.103Z" fill="#DFB395"/>
<path d="M128.878 220.52H137.172C137.474 220.52 137.735 220.729 137.801 221.024L139.259 227.586C139.411 228.266 138.876 228.911 138.178 228.899C135.283 228.849 133.876 228.68 130.228 228.68C127.984 228.68 125.104 228.912 122.005 228.912C118.974 228.912 118.502 225.848 119.77 225.571C125.458 224.327 125.859 222.611 127.68 220.974C128.008 220.679 128.437 220.52 128.878 220.52Z" fill="#2D2D2D"/>
<path d="M132.961 205.014H125.575L127.634 214.48L134.878 213.826L132.961 205.014Z" fill="black"/>
<path d="M150.147 128.701C150.147 128.701 115.862 141.131 114.852 157.583C112.99 187.882 125.384 211.871 125.384 211.871L136.74 210.657C136.74 210.657 134.721 200.905 133.212 173.455C131.316 138.964 189.856 174.263 177.8 128.701H150.147Z" fill="#FF6666"/>
<path d="M150.147 128.702C150.147 128.702 115.862 141.131 114.852 157.583C112.99 187.882 125.384 211.871 125.384 211.871L136.74 210.657C136.74 210.657 134.721 200.905 133.212 173.456C131.316 138.964 189.856 174.263 177.8 128.701L150.147 128.702Z" fill="black"/>
<path d="M122.237 207.692C122.184 207.697 124.044 212.732 124.044 212.732L138.225 211.345L137.513 206.758L122.237 207.692Z" fill="#FF6666"/>
<path d="M104.778 227.437H97.3946L95.2383 210.34H102.621L104.778 227.437Z" fill="#DFB395"/>
<path d="M97.3373 225.014L105.399 225.004C105.702 225.004 105.963 225.213 106.029 225.507L107.496 232.067C107.648 232.747 107.133 233.393 106.436 233.382C103.528 233.336 99.3246 233.172 95.6694 233.176C91.3954 233.183 90.5757 233.417 85.5634 233.424C82.5327 233.429 81.6874 230.365 82.9554 230.086C88.7293 228.815 90.5729 228.677 95.5599 225.593C96.1016 225.258 96.6999 225.015 97.3373 225.014Z" fill="#2D2D2D"/>
<path d="M95.2402 210.348L96.4136 219.66L103.737 219.161L102.626 210.348H95.2402Z" fill="black"/>
<path d="M138.312 128.701C138.312 128.701 82.1309 133.684 82.7373 161.898C83.368 191.246 94.3308 211.04 94.3308 211.04H105.3C105.3 211.04 103.221 195.816 103.59 166.923C103.701 158.267 121.19 155.407 138.272 154.397C153.027 153.525 166.838 145.115 172.57 131.49L173.744 128.701H138.312Z" fill="#FF6666"/>
<path d="M138.312 128.701C138.312 128.701 82.1309 133.684 82.7373 161.898C83.368 191.246 94.3312 211.04 94.3312 211.04H105.301C105.301 211.04 103.221 195.816 103.59 166.923C103.701 158.267 121.19 155.407 138.272 154.397C153.027 153.525 166.839 145.115 172.571 131.49L173.744 128.701H138.312Z" fill="black"/>
<path d="M91.7646 208.092C91.7146 208.096 93.6448 213.164 93.6448 213.164L106.886 212.218L106.114 207.627L91.7646 208.092Z" fill="#FF6666"/>
<path d="M153.054 96.9889L145.927 124.457C144.11 131.464 143.188 138.715 143.188 146V158.769C143.188 161.992 145.564 164.606 148.495 164.606H185.038C187.97 164.606 190.346 161.992 190.346 158.769V146C190.346 138.715 191.267 131.464 193.085 124.457L199.38 100.192C200.347 96.4634 197.802 92.7539 194.277 92.7539H158.158C155.787 92.7539 153.704 94.4818 153.054 96.9889Z" fill="#2D2D2D"/>
<path d="M107.611 151.309L108.807 158.12C109.436 161.703 112.588 164.608 115.846 164.608H156.465C159.723 164.608 161.854 161.703 161.225 158.12L160.029 151.309C159.313 147.232 155.727 143.926 152.019 143.926H113.027C109.319 143.926 106.895 147.232 107.611 151.309Z" fill="#2D2D2D"/>
<path d="M160.373 171.448H139.096L137.019 164.607H162.451L160.373 171.448Z" fill="#261905"/>
<path d="M153.534 222.306H145.932V172.672L153.534 173.445V222.306Z" fill="#E4E4E4"/>
<path d="M151.682 222.306H149.865V173.07L151.682 173.255V222.306Z" fill="black"/>
<path d="M167.214 230.163H132.253C131.318 230.163 130.927 228.968 131.682 228.415L137.231 224.347C139.894 222.394 143.111 221.342 146.413 221.342H153.054C156.356 221.342 159.573 222.394 162.236 224.347L167.786 228.415C168.54 228.968 168.149 230.163 167.214 230.163Z" fill="#261905"/>
</g>
<path d="M96.9277 28.9542C96.9277 27.62 97.9487 26.6562 99.3215 26.6562C100.05 26.6562 100.675 26.918 101.09 27.4032L100.553 27.9073C100.228 27.5562 99.8261 27.3838 99.3598 27.3838C98.4348 27.3838 97.7639 28.0348 97.7639 28.9542C97.7639 29.8731 98.4348 30.5241 99.3598 30.5241C99.8261 30.5241 100.228 30.3521 100.553 29.9949L101.09 30.5052C100.675 30.9903 100.05 31.2521 99.3154 31.2521C97.9487 31.2521 96.9277 30.2883 96.9277 28.9542Z" fill="#A42828"/>
<path d="M101.488 30.7159L101.776 30.0714C102.133 30.3587 102.701 30.5628 103.25 30.5628C103.946 30.5628 104.239 30.3138 104.239 29.9822C104.239 29.0184 101.583 29.65 101.583 27.9904C101.583 27.2694 102.158 26.6562 103.384 26.6562C103.92 26.6562 104.482 26.7966 104.87 27.0517L104.609 27.6966C104.207 27.4603 103.767 27.3455 103.378 27.3455C102.689 27.3455 102.407 27.6139 102.407 27.9521C102.407 28.9031 105.056 28.2838 105.056 29.9245C105.056 30.6393 104.475 31.2521 103.25 31.2521C102.555 31.2521 101.858 31.0352 101.488 30.7159Z" fill="#A42828"/>
<path d="M105.506 30.7159L105.793 30.0714C106.151 30.3587 106.719 30.5628 107.268 30.5628C107.963 30.5628 108.257 30.3138 108.257 29.9822C108.257 29.0184 105.602 29.65 105.602 27.9904C105.602 27.2694 106.176 26.6562 107.402 26.6562C107.938 26.6562 108.5 26.7966 108.889 27.0517L108.627 27.6966C108.226 27.4603 107.785 27.3455 107.396 27.3455C106.706 27.3455 106.425 27.6139 106.425 27.9521C106.425 28.9031 109.074 28.2838 109.074 29.9245C109.074 30.6393 108.493 31.2521 107.268 31.2521C106.572 31.2521 105.876 31.0352 105.506 30.7159Z" fill="#A42828"/>
<path d="M29.7666 77.494L30.7348 76.3296C31.2324 77.0099 31.8337 77.376 32.5531 77.376C33.4957 77.376 33.979 76.8145 33.979 75.6892V70.9528H30.722V69.5254H35.6794V75.5967C35.6794 77.7556 34.6067 78.8162 32.5922 78.8162C31.4414 78.8162 30.395 78.3442 29.7666 77.494Z" fill="#831C1C"/>
<path d="M37.1064 77.9963L37.7341 76.7545C38.3497 77.1597 39.2916 77.4483 40.1681 77.4483C41.2016 77.4483 41.6331 77.1589 41.6331 76.6748C41.6331 75.3406 37.3154 76.5974 37.3154 73.8101C37.3154 72.4887 38.5061 71.625 40.3906 71.625C41.3189 71.625 42.3788 71.8467 43.0079 72.2263L42.3788 73.4704C41.712 73.078 41.0445 72.9457 40.3778 72.9457C39.3833 72.9457 38.912 73.2734 38.912 73.732C38.912 75.1451 43.2297 73.8891 43.2297 76.623C43.2297 77.9316 42.0262 78.781 40.0628 78.781C38.8985 78.781 37.7341 78.4413 37.1064 77.9963Z" fill="#831C1C"/>
<path d="M16.9551 52.7355C16.9551 53.897 16.0954 54.6135 14.7071 54.6135H13.5157V56.1373H12.5342V50.8574H14.7071C16.0954 50.8574 16.9551 51.5668 16.9551 52.7355ZM15.9664 52.7355C15.9664 52.0721 15.5221 51.6873 14.6617 51.6873H13.5157V53.7844H14.6617C15.5221 53.7844 15.9664 53.3995 15.9664 52.7355Z" fill="#313131"/>
<path d="M22.6233 50.8574V56.1373H21.6424V53.8744H18.9125V56.1373H17.9316V50.8574H18.9125V53.0374H21.6424V50.8574H22.6233Z" fill="#313131"/>
<path d="M28.4697 52.7355C28.4697 53.897 27.6101 54.6135 26.2217 54.6135H25.0304V56.1373H24.0488V50.8574H26.2217C27.6101 50.8574 28.4697 51.5668 28.4697 52.7355ZM27.4811 52.7355C27.4811 52.0721 27.0367 51.6873 26.1764 51.6873H25.0304V53.7844H26.1764C27.0367 53.7844 27.4811 53.3995 27.4811 52.7355Z" fill="#313131"/>
<path d="M81.0868 8.68555V13.9715H80.1049V11.7059H77.3711V13.9715H76.3896V8.68555H77.3711V10.8675H80.1049V8.68555H81.0868Z" fill="#2F2C2C"/>
<path d="M83.5772 9.51559H81.8252V8.68555H86.3111V9.51559H84.5586V13.9705H83.5772V9.51559Z" fill="#2F2C2C"/>
<path d="M91.8974 13.9715L91.8891 10.468L90.1528 13.3675H89.7154L87.9782 10.5127V13.9715H87.042V8.68555H87.8494L89.9494 12.1895L92.0105 8.68555H92.8189L92.8262 13.9715H91.8974Z" fill="#2F2C2C"/>
<path d="M94.2529 8.68555H95.2343V13.1409H97.9977V13.9715H94.2529V8.68555Z" fill="#2F2C2C"/>
</g>
<defs>
<clipPath id="clip0_321_4151">
<rect width="238" height="238" fill="white"/>
</clipPath>
</defs>
</svg>
