<svg  fill="none" xmlns="http://www.w3.org/2000/svg">
<g clip-path="url(#clip0_141_644)">
<mask id="mask0_141_644" style="mask-type:luminance" maskUnits="userSpaceOnUse" x="1" y="0" width="200" height="199">
<path d="M200.376 0H1.63184V198.744H200.376V0Z" fill="white"/>
</mask>
<g mask="url(#mask0_141_644)">
<g filter="url(#filter0_d_141_644)">
<path d="M73.4427 164.424C73.0007 164.424 72.5837 164.63 72.315 164.98L67.5759 171.168L65.8727 171.395L65.8628 173.807L65.8652 173.807C65.8276 174.568 66.4174 175.302 67.2858 175.302H101.292V164.424H73.4427Z" fill="#1C8D57"/>
</g>
<path d="M101.293 161.745H73.4427C73.0006 161.745 72.5838 161.951 72.315 162.302L66.1581 170.34C65.4425 171.274 66.1086 172.624 67.2858 172.624H101.293V161.745Z" fill="#1C8D57"/>
<g filter="url(#filter1_d_141_644)">
<path d="M101.293 161.745H73.4427C73.0006 161.745 72.5838 161.951 72.315 162.302L66.1581 170.34C65.4425 171.274 66.1086 172.624 67.2858 172.624H101.293V161.745Z" fill="white" fill-opacity="0.4"/>
</g>
<path d="M83.0662 153.79C82.6242 153.79 82.2072 153.996 81.9385 154.347L75.4963 155.237L75.4863 167.025L75.4889 167.025C75.4514 167.786 76.041 168.521 76.9094 168.521H102.223V153.79H83.0662Z" fill="#1C8D57"/>
<path d="M102.223 145.676H83.0662C82.6242 145.676 82.2074 145.882 81.9385 146.233L75.7817 154.27C75.066 155.205 75.732 156.554 76.9092 156.554H102.223V145.676Z" fill="#1C8D57"/>
<path d="M102.223 145.676H83.0662C82.6242 145.676 82.2074 145.882 81.9385 146.233L75.7817 154.27C75.066 155.205 75.732 156.554 76.9092 156.554H102.223V145.676Z" fill="white" fill-opacity="0.4"/>
<g filter="url(#filter2_d_141_644)">
<path d="M129.143 164.424C129.585 164.424 130.002 164.63 130.271 164.98L135.01 171.168L136.714 171.395L136.723 173.807L136.721 173.807C136.758 174.568 136.169 175.302 135.3 175.302H101.293V164.424H129.143Z" fill="#1C8D57"/>
</g>
<path d="M101.293 161.745H129.143C129.585 161.745 130.002 161.951 130.271 162.302L136.428 170.34C137.143 171.274 136.477 172.624 135.3 172.624H101.293V161.745Z" fill="#1C8D57"/>
<g filter="url(#filter3_d_141_644)">
<path d="M101.293 161.745H129.143C129.585 161.745 130.002 161.951 130.271 162.302L136.428 170.34C137.143 171.274 136.477 172.624 135.3 172.624H101.293V161.745Z" fill="white" fill-opacity="0.4"/>
</g>
<path d="M119.519 153.79C119.961 153.79 120.378 153.996 120.647 154.347L127.09 155.237L127.099 167.025L127.097 167.025C127.134 167.786 126.545 168.521 125.676 168.521H100.362V153.79H119.519Z" fill="#1C8D57"/>
<path d="M100.363 145.676H119.52C119.962 145.676 120.379 145.882 120.648 146.233L126.805 154.27C127.52 155.205 126.854 156.554 125.677 156.554H100.363V145.676Z" fill="#1C8D57"/>
<path d="M100.363 145.676H119.52C119.962 145.676 120.379 145.882 120.648 146.233L126.805 154.27C127.52 155.205 126.854 156.554 125.677 156.554H100.363V145.676Z" fill="white" fill-opacity="0.4"/>
<path d="M86.1959 144.57C85.7539 144.57 85.3371 144.776 85.0684 145.127L80.3293 151.314L78.626 151.541L78.6162 153.953L78.6186 153.954C78.5811 154.714 79.1707 155.449 80.0391 155.449H101.293V144.57H86.1959Z" fill="#1C8D57"/>
<path d="M116.39 144.57C116.832 144.57 117.249 144.776 117.518 145.127L122.257 151.314L123.96 151.541L123.97 153.953L123.968 153.954C124.005 154.714 123.416 155.449 122.547 155.449H101.293V144.57H116.39Z" fill="#1C8D57"/>
<path d="M101.292 141.892H86.1955C85.7535 141.892 85.3367 142.098 85.068 142.448L78.9111 150.486C78.1953 151.421 78.8616 152.77 80.0386 152.77H101.292V141.892Z" fill="#1C8D57"/>
<path d="M101.292 141.892H86.1955C85.7535 141.892 85.3367 142.098 85.068 142.448L78.9111 150.486C78.1953 151.421 78.8616 152.77 80.0386 152.77H101.292V141.892Z" fill="white" fill-opacity="0.4"/>
<path d="M101.292 141.892H116.389C116.831 141.892 117.248 142.098 117.517 142.448L123.674 150.486C124.389 151.421 123.723 152.77 122.546 152.77H101.292V141.892Z" fill="#1C8D57"/>
<path d="M101.292 141.892H116.389C116.831 141.892 117.248 142.098 117.517 142.448L123.674 150.486C124.389 151.421 123.723 152.77 122.546 152.77H101.292V141.892Z" fill="white" fill-opacity="0.4"/>
<path d="M92.1064 155.45H84.6733V152.771H92.1064V155.45Z" fill="white" fill-opacity="0.3"/>
<path d="M85.4947 175.302H78.1143V172.622H85.4947V175.302Z" fill="white" fill-opacity="0.3"/>
<path d="M89.9545 168.522H82.5215V156.552H89.9545V168.522Z" fill="white" fill-opacity="0.3"/>
<path d="M78.1143 172.624L82.5477 168.524H89.9281L85.4947 172.624H78.1143Z" fill="white" fill-opacity="0.3"/>
<path d="M84.6743 155.449L82.522 156.553H89.9548L92.107 155.449H84.6743Z" fill="white" fill-opacity="0.3"/>
<path d="M101.003 49.5264C75.926 49.5264 72.3784 55.3431 72.3784 59.2847C72.3784 74.7328 82.5254 121.855 101.003 121.855C119.481 121.855 129.628 74.7328 129.628 59.2847C129.628 55.3431 126.08 49.5264 101.003 49.5264Z" fill="#FFBB0D"/>
<path d="M140.693 66.762C138.144 64.9917 134.913 64.6544 132.052 65.8588L129.074 67.1135C129.074 67.1135 128.521 70.9273 128.079 73.7887C127.638 76.6499 126.303 82.4158 126.303 82.4158C126.303 82.4158 127.612 74.4788 133.595 71.339L134.245 71.0651C135.329 70.6088 136.505 70.7315 137.472 71.4025C138.438 72.0734 138.964 73.1325 138.915 74.3076L138.681 79.9538C138.526 83.6876 137.275 87.2536 135.064 90.2664C132.853 93.279 129.825 95.541 126.31 96.808L122.769 98.084C118.28 99.702 115.826 104.553 117.182 109.128L118.079 112.156C118.443 113.384 119.567 114.178 120.786 114.178C121.052 114.178 121.322 114.141 121.59 114.061C123.086 113.618 123.939 112.046 123.495 110.55L122.598 107.523C122.092 105.814 123.008 104.003 124.685 103.399L128.225 102.123C132.801 100.474 136.74 97.53 139.618 93.609C142.496 89.6884 144.124 85.0474 144.325 80.1879L144.56 74.5419C144.689 71.4406 143.243 68.5323 140.693 66.762Z" fill="#FFBB0D"/>
<path d="M61.3134 66.762C63.863 64.9917 67.0933 64.6544 69.954 65.8588L72.9327 67.1135C72.9327 67.1135 73.4859 70.9273 73.9274 73.7887C74.3688 76.6499 75.7039 82.4158 75.7039 82.4158C75.7039 82.4158 74.3942 74.4788 68.4117 71.339L67.7619 71.0651C66.6774 70.6088 65.5015 70.7315 64.5351 71.4025C63.5688 72.0734 63.0423 73.1325 63.091 74.3076L63.3255 79.9538C63.4804 83.6876 64.7312 87.2536 66.9426 90.2664C69.154 93.279 72.181 95.541 75.6967 96.808L79.2375 98.084C83.7266 99.702 86.1807 104.553 84.8248 109.128L83.9275 112.156C83.5637 113.384 82.4393 114.178 81.2205 114.178C80.9548 114.178 80.6843 114.141 80.4166 114.061C78.9208 113.618 78.0677 112.046 78.5112 110.55L79.4085 107.523C79.9147 105.814 78.9983 104.003 77.322 103.399L73.7816 102.123C69.2061 100.474 65.2664 97.53 62.3884 93.609C59.5107 89.6884 57.8828 85.0474 57.6811 80.1879L57.4469 74.5419C57.3183 71.4406 58.7636 68.5323 61.3134 66.762Z" fill="#FFBB0D"/>
<path d="M94.9168 114.176C94.9168 114.176 77.5653 92.4425 77.8697 61.2317C77.8807 60.0939 78.6463 59.1011 79.743 58.7984C81.3672 58.3505 82.9732 59.5711 82.9726 61.2562C82.9708 69.6084 84.0803 92.1871 94.9168 114.176Z" fill="white" fill-opacity="0.5"/>
<path d="M129.627 59.2827C129.627 56.892 128.322 53.8121 121.7 51.7578C121.904 64.3713 120.603 100.699 109.025 118.719C122.396 107.939 129.627 72.324 129.627 59.2827Z" fill="black" fill-opacity="0.15"/>
<path d="M116.294 148.239C116.354 148.158 116.402 148.074 116.437 147.985C116.44 147.979 116.443 147.972 116.445 147.966C116.461 147.924 116.474 147.88 116.484 147.836L116.489 147.811C116.498 147.767 116.504 147.721 116.508 147.675C116.508 147.668 116.508 147.66 116.508 147.653C116.511 147.604 116.511 147.554 116.507 147.503L116.511 145.912L115.502 145.751C114.586 144.754 113.018 143.498 110.688 141.892L101.003 143.437L91.3176 141.892C88.9872 143.498 87.4195 144.754 86.5033 145.751L85.4946 145.912L85.4985 147.503C85.4944 147.554 85.4943 147.604 85.4968 147.653C85.4972 147.66 85.4974 147.668 85.4979 147.675C85.5011 147.721 85.5077 147.767 85.5167 147.811C85.5184 147.82 85.52 147.828 85.5219 147.836C85.532 147.88 85.5447 147.924 85.5605 147.966C85.5629 147.972 85.5658 147.979 85.5682 147.985C85.6036 148.074 85.651 148.158 85.711 148.239C85.7153 148.245 85.7195 148.251 85.7239 148.257C85.7534 148.295 85.7858 148.332 85.8205 148.369C85.827 148.376 85.8334 148.383 85.84 148.389C85.8759 148.426 85.914 148.462 85.9551 148.496C85.9613 148.502 85.9679 148.507 85.9744 148.512C86.0625 148.585 86.1623 148.654 86.2734 148.721C86.2813 148.726 86.2891 148.731 86.2972 148.735C86.3509 148.767 86.4074 148.798 86.4663 148.828C86.4771 148.833 86.4882 148.839 86.4992 148.845C86.559 148.875 86.6208 148.904 86.6856 148.933C86.6952 148.937 86.7051 148.941 86.7149 148.946C86.8525 149.006 87.0009 149.063 87.1598 149.119C87.1711 149.123 87.1821 149.126 87.1933 149.13C87.2697 149.156 87.3488 149.182 87.4298 149.207C87.4451 149.212 87.4602 149.217 87.4754 149.222C87.5572 149.247 87.6411 149.271 87.7276 149.295C87.7404 149.299 87.7539 149.302 87.7671 149.306C87.8584 149.331 87.9515 149.356 88.0479 149.38C91.44 150.234 96.9745 150.324 100.653 150.329C100.771 150.329 100.888 150.329 101.003 150.329C101.117 150.329 101.234 150.329 101.353 150.329C105.031 150.324 110.565 150.234 113.958 149.38C114.054 149.356 114.147 149.331 114.239 149.306C114.251 149.302 114.265 149.299 114.278 149.295C114.364 149.271 114.448 149.247 114.53 149.222C114.545 149.217 114.56 149.212 114.576 149.207C114.657 149.182 114.736 149.156 114.812 149.13C114.824 149.126 114.834 149.123 114.846 149.119C115.005 149.063 115.153 149.006 115.291 148.946C115.3 148.941 115.31 148.937 115.32 148.933C115.385 148.904 115.447 148.875 115.506 148.845C115.517 148.839 115.528 148.833 115.539 148.828C115.598 148.798 115.655 148.767 115.708 148.735C115.716 148.731 115.724 148.726 115.732 148.721C115.843 148.654 115.943 148.585 116.031 148.512C116.038 148.507 116.044 148.502 116.05 148.497C116.091 148.462 116.129 148.426 116.165 148.389C116.172 148.383 116.179 148.376 116.185 148.369C116.22 148.332 116.252 148.295 116.282 148.257C116.286 148.251 116.29 148.245 116.294 148.239Z" fill="#FFBB0D"/>
<path d="M106.877 123.019H95.1281C93.9415 123.019 92.98 122.057 92.98 120.87C92.98 119.684 93.9415 118.722 95.1281 118.722H106.877C108.063 118.722 109.025 119.684 109.025 120.87C109.025 122.057 108.063 123.019 106.877 123.019Z" fill="#FFBB0D"/>
<path d="M110.688 140.09C102.794 134.649 105.836 123.016 105.836 123.016H101.003H96.1692C96.1692 123.016 99.212 134.649 91.3176 140.09C84.2596 144.955 84.1959 146.609 88.0479 147.579C91.5495 148.46 97.3337 148.528 101.003 148.528C104.672 148.528 110.456 148.46 113.958 147.579C117.809 146.609 117.746 144.955 110.688 140.09Z" fill="#FFBB0D"/>
<path d="M97.8346 126.055C97.8346 126.055 99.3303 136.524 92.076 141.778C91.3817 142.282 91.7254 143.375 92.5828 143.375H92.6001C92.8051 143.375 93.0033 143.304 93.161 143.173C94.3755 142.163 99.3797 137.256 97.8346 126.055Z" fill="white" fill-opacity="0.5"/>
<path d="M116.511 145.909L116.505 145.908C116.623 144.755 114.903 142.995 110.688 140.09C102.795 134.649 105.836 123.018 105.836 123.016C105.836 123.017 100.082 137.306 113.086 145.254C114.483 146.107 114.499 148.528 113.958 149.377C113.968 149.373 115.311 148.934 115.32 148.93C115.385 148.901 115.447 148.872 115.507 148.842C115.518 148.836 115.529 148.83 115.539 148.825C115.598 148.795 115.655 148.764 115.709 148.733C115.717 148.728 115.725 148.723 115.732 148.718C115.844 148.651 115.943 148.582 116.031 148.509C116.038 148.504 116.045 148.499 116.051 148.494C116.092 148.459 116.13 148.423 116.166 148.387C116.172 148.38 116.179 148.373 116.185 148.366C116.22 148.329 116.253 148.292 116.282 148.254C116.286 148.248 116.29 148.242 116.295 148.236C116.355 148.155 116.402 148.071 116.438 147.982C116.44 147.976 116.443 147.969 116.445 147.963C116.461 147.921 116.474 147.877 116.484 147.833L116.489 147.808C116.498 147.764 116.505 147.718 116.508 147.672C116.508 147.665 116.508 147.658 116.509 147.65C116.511 147.601 116.511 147.551 116.507 147.5L116.511 145.909Z" fill="black" fill-opacity="0.15"/>
<path d="M101.002 146.728C101.002 146.728 92.5989 146.339 88.6417 144.871C88.4748 144.809 88.2915 144.922 88.2083 145.079C88.0679 145.345 88.2615 145.611 88.556 145.673C90.6501 146.108 95.3589 147.201 101.002 146.728Z" fill="white" fill-opacity="0.5"/>
</g>
</g>
<g filter="url(#filter4_d_141_644)">
<path d="M175.705 155.428C175.705 167.339 165.973 176.995 153.967 176.995C141.962 176.995 132.229 167.339 132.229 155.428C132.229 143.517 141.962 133.861 153.967 133.861C165.973 133.861 175.705 143.517 175.705 155.428Z" fill="#C63D53"/>
<mask id="mask1_141_644" style="mask-type:alpha" maskUnits="userSpaceOnUse" x="132" y="133" width="44" height="44">
<path d="M175.705 155.427C175.705 167.338 165.973 176.994 153.967 176.994C141.962 176.994 132.229 167.338 132.229 155.427C132.229 143.516 141.962 133.86 153.967 133.86C165.973 133.86 175.705 143.516 175.705 155.427Z" fill="#C63D53"/>
</mask>
<g mask="url(#mask1_141_644)">
<path d="M153.968 132.944C156.489 134.633 161.513 141.629 161.513 155.457C161.513 168.707 156.489 176.295 153.968 177.916" stroke="#802541" stroke-width="3.97877" stroke-miterlimit="10"/>
</g>
<mask id="mask2_141_644" style="mask-type:alpha" maskUnits="userSpaceOnUse" x="132" y="133" width="44" height="44">
<path d="M175.705 155.427C175.705 167.338 165.973 176.994 153.967 176.994C141.962 176.994 132.229 167.338 132.229 155.427C132.229 143.516 141.962 133.86 153.967 133.86C165.973 133.86 175.705 143.516 175.705 155.427Z" fill="#C63D53"/>
</mask>
<g mask="url(#mask2_141_644)">
<path d="M54.7544 155.431H211.136" stroke="#802541" stroke-width="3.97877" stroke-miterlimit="10"/>
<path d="M155.088 155.43C155.088 164.406 145.175 171.682 132.946 171.682C120.717 171.682 110.804 164.406 110.804 155.43C110.804 146.455 120.717 139.179 132.946 139.179C145.175 139.179 155.088 146.455 155.088 155.43Z" stroke="#802541" stroke-width="3.97877" stroke-miterlimit="10"/>
<path d="M211.137 155.43C211.137 164.406 201.223 171.682 188.994 171.682C176.765 171.682 166.852 164.406 166.852 155.43C166.852 146.455 176.765 139.179 188.994 139.179C201.223 139.179 211.137 146.455 211.137 155.43Z" stroke="#802541" stroke-width="3.97877" stroke-miterlimit="10"/>
</g>
<path d="M169.872 143.29C170.308 145.452 170.413 147.721 170.137 150.037C168.768 161.515 158.352 169.905 146.747 168.89C142.958 168.558 139.486 167.278 136.545 165.307C136.342 165.171 136.093 165.403 136.216 165.614C140.204 172.44 148.106 176.844 157.182 175.548C164.978 174.436 171.39 168.844 173.604 161.345C175.592 154.61 174.046 148.008 170.285 143.108C170.136 142.914 169.824 143.051 169.872 143.29Z" fill="#331527" fill-opacity="0.12"/>
</g>
<g filter="url(#filter5_d_141_644)">
<path d="M205.024 161.253C205.024 172.973 195.523 182.473 183.803 182.473C172.083 182.473 162.582 172.973 162.582 161.253C162.582 149.533 172.083 140.032 183.803 140.032C195.523 140.032 205.024 149.533 205.024 161.253Z" fill="#FAFAEF"/>
<path d="M202.232 153.299C201.716 152.926 199.782 151.628 197.294 151.196C196.835 150.441 194.341 146.482 191.713 145.088C191.94 143.427 191.917 142.304 191.842 141.605C191.75 141.568 191.658 141.531 191.566 141.495C191.762 143.063 191.594 144.335 191.458 145.012C190.447 144.954 185.713 145.643 184.02 146.683C183.178 146.102 180.594 144.61 176.455 144.774C176.578 144.5 176.391 142.664 176.245 141.416C171.553 143.205 167.659 146.612 165.245 150.954C166.283 150.788 168.03 150.626 169.159 150.775C169.203 152.173 169.421 155.825 170.511 158.927C168.613 160.936 167.587 164.59 167.553 165.818C165.448 166.125 164.028 165.861 163.533 165.739C163.279 165.303 162.995 164.588 162.746 163.888C162.956 165.589 163.368 167.227 163.957 168.778C163.82 167.582 163.715 166.194 163.701 166.009C165.203 166.35 166.986 166.129 167.568 166.04C168.364 168.468 172.12 172.08 173.008 172.687C173.219 175.752 174.268 177.849 174.675 178.558C173.728 178.748 172.312 178.597 171.382 178.457C174.761 180.901 178.889 182.374 183.356 182.466C183.325 182.178 183.265 181.774 183.154 181.436C187.943 180.886 189.898 178.695 190.434 177.948C193.931 177.732 195.726 177.139 198.111 175.558C198.111 175.558 198.112 175.558 198.112 175.557C198.294 175.777 198.561 176.096 198.754 176.311C198.82 176.245 198.886 176.179 198.951 176.112C198.751 175.896 198.444 175.561 198.242 175.324C198.764 174.405 200.474 171.371 200.697 169.083C201.507 168.07 203.305 165.6 204.356 162.444C204.609 162.554 204.816 162.67 204.971 162.767C205.007 162.266 205.025 161.761 205.025 161.251C205.025 157.938 204.266 154.803 202.912 152.009C202.704 152.45 202.428 153.006 202.232 153.299ZM170.827 158.898C170.448 157.976 169.588 155.395 169.506 150.825C172.086 147.336 174.892 145.798 175.987 145.128C177.348 145.055 180.977 145.067 183.814 146.903L184.835 154.354C183.835 155.187 181.031 157.587 178.086 160.685C175.163 159.616 171.767 159.044 170.827 158.898ZM182.545 181.265C181.067 181.01 177.283 179.955 175.185 178.81C173.807 176.884 173.414 173.946 173.307 172.737C174.195 172.425 179.189 170.251 180.032 169.609C181.14 170.199 184.197 171.643 188.833 172.421C189.179 173.761 190.034 176.897 190.202 177.761C187.918 181.003 182.55 181.265 182.545 181.265ZM188.976 172.164C187.789 171.964 183.755 171.187 180.125 169.325C179.917 168.27 178.79 162.007 178.319 160.897C179.119 160.046 181.564 157.513 185.065 154.515C186.127 154.76 190.873 155.902 193.344 157.262C193.886 158.877 195.192 163.119 195.191 166.495C194.491 167.303 191.694 170.432 188.976 172.164ZM200.592 168.673C199.742 168.137 196.207 166.634 195.481 166.347C195.483 165.392 195.347 162.085 193.611 157.129C194.892 155.629 196.912 152.123 197.303 151.439C198.214 151.619 200.34 152.149 202.132 153.432C202.129 153.435 202.127 153.438 202.125 153.441C202.125 153.441 204.071 158.079 204.25 161.863C203.864 163.145 202.777 166.195 200.592 168.673Z" fill="black"/>
<path d="M183.803 182.473C195.523 182.473 205.024 172.972 205.024 161.252C205.024 158.52 204.508 155.909 203.567 153.51C200.8 169.21 182.45 178.203 166.438 173.451C170.278 178.908 176.624 182.473 183.803 182.473Z" fill="black" fill-opacity="0.2"/>
</g>
<mask id="mask3_141_644" style="mask-type:luminance" maskUnits="userSpaceOnUse" x="0" y="93" width="94" height="89">
<path d="M93.0717 95.1507L1.98193 93.0537L-9.18404e-05 179.149L91.0897 181.246L93.0717 95.1507Z" fill="white"/>
</mask>
<g mask="url(#mask3_141_644)">
<mask id="mask4_141_644" style="mask-type:luminance" maskUnits="userSpaceOnUse" x="59" y="132" width="17" height="16">
<path d="M59.5723 132.253L75.1877 132.612L74.8479 147.372L59.2325 147.012L59.5723 132.253Z" fill="white"/>
</mask>
<g mask="url(#mask4_141_644)">
<path d="M67.375 132.693C71.5342 132.789 74.8324 136.053 74.7419 139.984C74.6514 143.915 71.2065 147.024 67.0473 146.929C62.8881 146.833 59.5899 143.568 59.6804 139.637C59.7709 135.706 63.2159 132.597 67.375 132.693Z" fill="#FF4823"/>
<mask id="mask5_141_644" style="mask-type:alpha" maskUnits="userSpaceOnUse" x="59" y="132" width="16" height="15">
<path d="M67.378 132.69C71.5371 132.786 74.8354 136.05 74.7449 139.981C74.6544 143.912 71.2094 147.021 67.0502 146.926C62.8911 146.83 59.5928 143.566 59.6833 139.634C59.7738 135.703 63.2188 132.594 67.378 132.69Z" fill="#FF4823"/>
</mask>
<g mask="url(#mask5_141_644)">
<path d="M77.5468 152.279C75.6394 155.844 71.1162 157.348 67.4438 155.639C63.7715 153.929 62.3407 149.654 64.2482 146.089C66.1557 142.524 70.6789 141.02 74.3512 142.729C78.0236 144.439 79.4543 148.714 77.5468 152.279Z" fill="#E5D3B3"/>
<path d="M70.6342 133.174C68.7268 136.739 64.2036 138.243 60.5312 136.534C56.8589 134.825 55.4282 130.55 57.3356 126.985C59.2431 123.42 63.7663 121.916 67.4386 123.625C71.111 125.334 72.5417 129.609 70.6342 133.174Z" fill="#E5D3B3"/>
</g>
<g opacity="0.1">
<path d="M70.139 144.141C65.9799 144.046 62.6816 140.781 62.7721 136.85C62.8004 135.619 63.1601 134.473 63.7588 133.474C61.3891 134.623 59.7398 136.943 59.6777 139.643C59.5872 143.574 62.8856 146.838 67.0446 146.934C69.9014 147 72.4295 145.55 73.7525 143.365C72.6699 143.885 71.4412 144.171 70.139 144.141Z" fill="black"/>
</g>
</g>
<mask id="mask6_141_644" style="mask-type:luminance" maskUnits="userSpaceOnUse" x="10" y="145" width="24" height="23">
<path d="M10.0312 150.532L27.2479 145.194L33.4706 162.007L16.254 167.345L10.0312 150.532Z" fill="white"/>
</mask>
<g mask="url(#mask6_141_644)">
<path d="M23.5678 146.48L15.3387 163.168C15.0046 163.846 15.3122 164.674 16.0292 165.027L18.2956 166.143C19.0126 166.496 19.8574 166.235 20.1916 165.557L28.4267 148.857L23.5678 146.48Z" fill="#FF4823"/>
<mask id="mask7_141_644" style="mask-type:alpha" maskUnits="userSpaceOnUse" x="15" y="146" width="14" height="21">
<path d="M23.5662 146.471L15.3439 163.16C15.01 163.838 15.3179 164.666 16.0349 165.019L18.3013 166.136C19.0183 166.489 19.8628 166.228 20.1967 165.551L28.425 148.85L23.5662 146.471Z" fill="#FF4823"/>
</mask>
<g mask="url(#mask7_141_644)">
<path d="M-3.10268 153.541L40.0194 144.748L39.097 141.091L-4.02506 149.884L-3.10268 153.541Z" fill="#FEC200"/>
<path d="M-1.48745 160.233L41.6346 151.44L40.7123 147.783L-2.40982 156.577L-1.48745 160.233Z" fill="#FEC200"/>
<path d="M0.127786 166.927L43.2499 158.134L42.3275 154.477L-0.794587 163.27L0.127786 166.927Z" fill="#FEC200"/>
</g>
<g opacity="0.1">
<path d="M19.1246 162.782C18.7898 163.461 17.9436 163.722 17.2254 163.369L15.5963 162.567L15.3034 163.161C14.9687 163.84 15.2768 164.67 15.9951 165.023L18.2654 166.141C18.9836 166.494 19.8298 166.233 20.1646 165.554L28.4143 148.824L26.4904 147.876L19.1246 162.782Z" fill="black"/>
</g>
</g>
<path d="M31.9143 136.772C27.8805 134.797 27.1245 132.123 25.6923 127.857C25.9899 131.989 28.0666 132.297 24.4309 145.195C24.3298 145.687 24.2384 146.176 24.1339 146.659L28.7569 148.922C29.0884 148.543 29.3451 148.139 29.6671 147.762C32.2684 144.624 39.3235 137.866 42.7662 135.746C38.9047 136.417 35.6298 138.039 31.9143 136.772Z" fill="#5072FF"/>
<mask id="mask8_141_644" style="mask-type:alpha" maskUnits="userSpaceOnUse" x="27" y="100" width="29" height="37">
<path d="M30.7618 113.199C36.048 103.866 45.1353 98.7343 51.0414 101.748C56.9476 104.762 57.4509 114.787 52.1647 124.121C46.8786 133.455 37.7912 138.586 31.8851 135.572C25.9789 132.558 25.4756 122.533 30.7618 113.199Z" fill="#4E0690"/>
</mask>
<g mask="url(#mask8_141_644)">
<path d="M26.4533 126.847L47.3991 131.677L51.8955 127.797L25.5063 122.423" stroke="#E4E4E4" stroke-width="0.956116"/>
<path d="M25.953 117.42L55.2343 124.035L56.5496 119.579L29.1908 113.79L31.5177 109.839L57.699 115.491L58.053 110.621L35.9491 106.105" stroke="#E4E4E4" stroke-width="0.956116"/>
</g>
<mask id="mask9_141_644" style="mask-type:alpha" maskUnits="userSpaceOnUse" x="27" y="100" width="29" height="37">
<path d="M30.7618 113.199C36.048 103.866 45.1353 98.7343 51.0414 101.748C56.9476 104.762 57.4509 114.787 52.1647 124.121C46.8786 133.455 37.7912 138.586 31.8851 135.572C25.9789 132.558 25.4756 122.533 30.7618 113.199Z" fill="#4E0690"/>
</mask>
<g mask="url(#mask9_141_644)">
<path d="M27.9544 131.135L41.1919 103.016L46.6568 101.983L32.0357 133.894L36.68 134.992L51.3344 103.007L55.4156 105.766L42.0797 134.513" stroke="#E4E4E4" stroke-width="0.956116"/>
</g>
<path d="M30.7613 113.195C36.0475 103.862 45.1348 98.7304 51.041 101.744C56.9471 104.758 57.4505 114.783 52.1643 124.117C46.8781 133.451 37.7907 138.582 31.8846 135.568C25.9784 132.554 25.4751 122.529 30.7613 113.195Z" stroke="#009AFF" stroke-width="3.77472"/>
</g>
<defs>
<filter id="filter0_d_141_644" x="61.8628" y="164.424" width="43.4297" height="18.8789" filterUnits="userSpaceOnUse" color-interpolation-filters="sRGB">
<feFlood flood-opacity="0" result="BackgroundImageFix"/>
<feColorMatrix in="SourceAlpha" type="matrix" values="0 0 0 0 0 0 0 0 0 0 0 0 0 0 0 0 0 0 127 0" result="hardAlpha"/>
<feOffset dy="4"/>
<feGaussianBlur stdDeviation="2"/>
<feComposite in2="hardAlpha" operator="out"/>
<feColorMatrix type="matrix" values="0 0 0 0 0.733333 0 0 0 0 0.733333 0 0 0 0 0.733333 0 0 0 0.25 0"/>
<feBlend mode="normal" in2="BackgroundImageFix" result="effect1_dropShadow_141_644"/>
<feBlend mode="normal" in="SourceGraphic" in2="effect1_dropShadow_141_644" result="shape"/>
</filter>
<filter id="filter1_d_141_644" x="61.8628" y="161.745" width="43.4297" height="18.8789" filterUnits="userSpaceOnUse" color-interpolation-filters="sRGB">
<feFlood flood-opacity="0" result="BackgroundImageFix"/>
<feColorMatrix in="SourceAlpha" type="matrix" values="0 0 0 0 0 0 0 0 0 0 0 0 0 0 0 0 0 0 127 0" result="hardAlpha"/>
<feOffset dy="4"/>
<feGaussianBlur stdDeviation="2"/>
<feComposite in2="hardAlpha" operator="out"/>
<feColorMatrix type="matrix" values="0 0 0 0 0.733333 0 0 0 0 0.733333 0 0 0 0 0.733333 0 0 0 0.25 0"/>
<feBlend mode="normal" in2="BackgroundImageFix" result="effect1_dropShadow_141_644"/>
<feBlend mode="normal" in="SourceGraphic" in2="effect1_dropShadow_141_644" result="shape"/>
</filter>
<filter id="filter2_d_141_644" x="97.2935" y="164.424" width="43.4297" height="18.8789" filterUnits="userSpaceOnUse" color-interpolation-filters="sRGB">
<feFlood flood-opacity="0" result="BackgroundImageFix"/>
<feColorMatrix in="SourceAlpha" type="matrix" values="0 0 0 0 0 0 0 0 0 0 0 0 0 0 0 0 0 0 127 0" result="hardAlpha"/>
<feOffset dy="4"/>
<feGaussianBlur stdDeviation="2"/>
<feComposite in2="hardAlpha" operator="out"/>
<feColorMatrix type="matrix" values="0 0 0 0 0.733333 0 0 0 0 0.733333 0 0 0 0 0.733333 0 0 0 0.25 0"/>
<feBlend mode="normal" in2="BackgroundImageFix" result="effect1_dropShadow_141_644"/>
<feBlend mode="normal" in="SourceGraphic" in2="effect1_dropShadow_141_644" result="shape"/>
</filter>
<filter id="filter3_d_141_644" x="97.2935" y="161.745" width="43.4292" height="18.8789" filterUnits="userSpaceOnUse" color-interpolation-filters="sRGB">
<feFlood flood-opacity="0" result="BackgroundImageFix"/>
<feColorMatrix in="SourceAlpha" type="matrix" values="0 0 0 0 0 0 0 0 0 0 0 0 0 0 0 0 0 0 127 0" result="hardAlpha"/>
<feOffset dy="4"/>
<feGaussianBlur stdDeviation="2"/>
<feComposite in2="hardAlpha" operator="out"/>
<feColorMatrix type="matrix" values="0 0 0 0 0.733333 0 0 0 0 0.733333 0 0 0 0 0.733333 0 0 0 0.25 0"/>
<feBlend mode="normal" in2="BackgroundImageFix" result="effect1_dropShadow_141_644"/>
<feBlend mode="normal" in="SourceGraphic" in2="effect1_dropShadow_141_644" result="shape"/>
</filter>
<filter id="filter4_d_141_644" x="128.474" y="133.86" width="50.987" height="50.6447" filterUnits="userSpaceOnUse" color-interpolation-filters="sRGB">
<feFlood flood-opacity="0" result="BackgroundImageFix"/>
<feColorMatrix in="SourceAlpha" type="matrix" values="0 0 0 0 0 0 0 0 0 0 0 0 0 0 0 0 0 0 127 0" result="hardAlpha"/>
<feOffset dy="3.75547"/>
<feGaussianBlur stdDeviation="1.87774"/>
<feComposite in2="hardAlpha" operator="out"/>
<feColorMatrix type="matrix" values="0 0 0 0 0.733333 0 0 0 0 0.733333 0 0 0 0 0.733333 0 0 0 0.25 0"/>
<feBlend mode="normal" in2="BackgroundImageFix" result="effect1_dropShadow_141_644"/>
<feBlend mode="normal" in="SourceGraphic" in2="effect1_dropShadow_141_644" result="shape"/>
</filter>
<filter id="filter5_d_141_644" x="158.827" y="140.032" width="49.9538" height="49.9524" filterUnits="userSpaceOnUse" color-interpolation-filters="sRGB">
<feFlood flood-opacity="0" result="BackgroundImageFix"/>
<feColorMatrix in="SourceAlpha" type="matrix" values="0 0 0 0 0 0 0 0 0 0 0 0 0 0 0 0 0 0 127 0" result="hardAlpha"/>
<feOffset dy="3.75547"/>
<feGaussianBlur stdDeviation="1.87774"/>
<feComposite in2="hardAlpha" operator="out"/>
<feColorMatrix type="matrix" values="0 0 0 0 0.733333 0 0 0 0 0.733333 0 0 0 0 0.733333 0 0 0 0.25 0"/>
<feBlend mode="normal" in2="BackgroundImageFix" result="effect1_dropShadow_141_644"/>
<feBlend mode="normal" in="SourceGraphic" in2="effect1_dropShadow_141_644" result="shape"/>
</filter>
<clipPath id="clip0_141_644">
<rect width="198.744" height="198.744" fill="white" transform="translate(1.63184)"/>
</clipPath>
</defs>
</svg>
