<svg width="104" height="26" viewBox="0 0 104 26" fill="none" xmlns="http://www.w3.org/2000/svg">
<path d="M13.0969 10.9678L13.549 10.3695L13.549 10.3695L13.0969 10.9678ZM93.9868 10.8904L93.5335 10.2929L93.5335 10.2929L93.9868 10.8904ZM102.315 3.90656C102.725 3.96287 103.012 4.34118 102.956 4.75155L102.038 11.4389C101.982 11.8493 101.604 12.1363 101.193 12.08C100.783 12.0237 100.496 11.6454 100.552 11.235L101.368 5.29068L95.4234 4.47505C95.013 4.41874 94.726 4.04042 94.7823 3.63006C94.8386 3.21969 95.2169 2.93266 95.6273 2.98897L102.315 3.90656ZM4.93514 3.86015C5.2656 4.10988 5.33106 4.58022 5.08133 4.91069C4.83161 5.24116 4.36126 5.30661 4.0308 5.05688L4.93514 3.86015ZM9.33166 9.06261C9.00119 8.81289 8.93573 8.34255 9.18546 8.01208C9.43519 7.68161 9.90553 7.61615 10.236 7.86588L9.33166 9.06261ZM17.4566 13.1085C17.8041 13.3339 17.903 13.7984 17.6775 14.1459C17.4521 14.4934 16.9876 14.5923 16.6402 14.3669L17.4566 13.1085ZM23.4186 18.2293C23.0475 18.0453 22.8958 17.5953 23.0798 17.2242C23.2637 16.8531 23.7137 16.7014 24.0849 16.8853L23.4186 18.2293ZM32.9081 20.4911C33.3019 20.6197 33.5168 21.0431 33.3882 21.4369C33.2596 21.8306 32.8362 22.0455 32.4424 21.9169L32.9081 20.4911ZM39.986 23.9074C39.58 23.825 39.3178 23.4291 39.4002 23.0232C39.4826 22.6172 39.8785 22.355 40.2844 22.4374L39.986 23.9074ZM49.7395 23.6578C50.1531 23.6812 50.4694 24.0354 50.446 24.449C50.4226 24.8625 50.0684 25.1788 49.6549 25.1554L49.7395 23.6578ZM57.4561 25.148C57.0426 25.1721 56.6878 24.8565 56.6636 24.443C56.6394 24.0295 56.955 23.6747 57.3685 23.6505L57.4561 25.148ZM66.8213 22.412C67.2271 22.3288 67.6234 22.5903 67.7066 22.9961C67.7898 23.4018 67.5283 23.7982 67.1226 23.8814L66.8213 22.412ZM74.6623 21.8765C74.2688 22.0059 73.8449 21.7918 73.7156 21.3983C73.5862 21.0048 73.8004 20.5809 74.1938 20.4516L74.6623 21.8765ZM83.0102 16.829C83.381 16.6443 83.8312 16.7951 84.0159 17.1659C84.2006 17.5367 84.0497 17.9869 83.679 18.1716L83.0102 16.829ZM90.4501 14.2962C90.103 14.5223 89.6384 14.4243 89.4123 14.0772C89.1862 13.7302 89.2842 13.2655 89.6312 13.0394L90.4501 14.2962ZM95.8185 8.55937C96.1485 8.30901 96.6189 8.37356 96.8693 8.70355C97.1197 9.03354 97.0551 9.50401 96.7251 9.75436L95.8185 8.55937ZM100.381 6.98066C100.051 7.23102 99.5806 7.16647 99.3302 6.83648C99.0799 6.50649 99.1444 6.03602 99.4744 5.78566L100.381 6.98066ZM1.6221 1.35657L4.93514 3.86015L4.0308 5.05688L0.717757 2.5533L1.6221 1.35657ZM10.236 7.86588L13.549 10.3695L12.6447 11.5662L9.33166 9.06261L10.236 7.86588ZM13.549 10.3695C14.8263 11.3347 16.1298 12.2477 17.4566 13.1085L16.6402 14.3669C15.2834 13.4866 13.9506 12.553 12.6447 11.5662L13.549 10.3695ZM24.0849 16.8853C26.9547 18.3079 29.904 19.5098 32.9081 20.4911L32.4424 21.9169C29.37 20.9134 26.3537 19.6842 23.4186 18.2293L24.0849 16.8853ZM40.2844 22.4374C43.4087 23.0717 46.5691 23.4785 49.7395 23.6578L49.6549 25.1554C46.4128 24.9721 43.181 24.5561 39.986 23.9074L40.2844 22.4374ZM57.3685 23.6505C60.5387 23.4652 63.6982 23.0523 66.8213 22.412L67.1226 23.8814C63.9288 24.5362 60.6978 24.9584 57.4561 25.148L57.3685 23.6505ZM74.1938 20.4516C77.1961 19.4646 80.1431 18.257 83.0102 16.829L83.679 18.1716C80.7467 19.6321 77.7328 20.8671 74.6623 21.8765L74.1938 20.4516ZM89.6312 13.0394C90.9564 12.1761 92.2581 11.2606 93.5335 10.2929L94.4402 11.4879C93.1361 12.4773 91.8051 13.4134 90.4501 14.2962L89.6312 13.0394ZM93.5335 10.2929L95.8185 8.55937L96.7251 9.75436L94.4402 11.4879L93.5335 10.2929ZM99.4744 5.78566L101.759 4.0521L102.666 5.2471L100.381 6.98066L99.4744 5.78566ZM13.0969 10.9678L14.0012 9.7711L14.0012 9.7711L13.0969 10.9678ZM93.9868 10.8904L93.0802 9.69543L93.0802 9.69543L93.9868 10.8904ZM102.417 3.16352C103.237 3.27614 103.811 4.03277 103.699 4.85351L101.864 18.2282C101.751 19.0489 100.994 19.623 100.174 19.5104C99.3529 19.3977 98.7788 18.6411 98.8914 17.8204L100.523 5.93177L88.6341 4.3005C87.8134 4.18788 87.2393 3.43125 87.3519 2.61051C87.4645 1.78978 88.2212 1.21573 89.0419 1.32835L102.417 3.16352ZM5.38731 3.26179C6.04824 3.76124 6.17915 4.70192 5.6797 5.36286C5.18024 6.0238 4.23956 6.1547 3.57863 5.65525L5.38731 3.26179ZM8.87949 9.66098C8.21855 9.16153 8.08764 8.22084 8.5871 7.55991C9.08655 6.89897 10.0272 6.76806 10.6882 7.26752L8.87949 9.66098ZM17.8648 12.4793C18.5598 12.9302 18.7576 13.8591 18.3067 14.5541C17.8558 15.2491 16.9269 15.4469 16.2319 14.996L17.8648 12.4793ZM23.0855 18.9012C22.3433 18.5333 22.0399 17.6333 22.4078 16.8911C22.7757 16.1489 23.6757 15.8454 24.418 16.2134L23.0855 18.9012ZM33.141 19.7781C33.9285 20.0354 34.3584 20.8822 34.1011 21.6697C33.8439 22.4572 32.997 22.8871 32.2095 22.6299L33.141 19.7781ZM39.8367 24.6424C39.0249 24.4776 38.5004 23.6858 38.6652 22.8739C38.83 22.0621 39.6218 21.5375 40.4337 21.7024L39.8367 24.6424ZM49.7819 22.909C50.609 22.9558 51.2416 23.6642 51.1948 24.4913C51.148 25.3184 50.4396 25.951 49.6125 25.9042L49.7819 22.909ZM57.4999 25.8967C56.6728 25.945 55.9632 25.3138 55.9149 24.4868C55.8665 23.6598 56.4977 22.9502 57.3247 22.9018L57.4999 25.8967ZM66.6706 21.6773C67.4822 21.5109 68.275 22.0339 68.4414 22.8454C68.6077 23.657 68.0847 24.4497 67.2732 24.6161L66.6706 21.6773ZM74.8965 22.589C74.1095 22.8477 73.2618 22.4195 73.0031 21.6325C72.7444 20.8455 73.1726 19.9978 73.9596 19.7391L74.8965 22.589ZM82.6758 16.1576C83.4174 15.7883 84.3179 16.09 84.6873 16.8315C85.0566 17.573 84.7549 18.4736 84.0134 18.8429L82.6758 16.1576ZM90.8595 14.9246C90.1654 15.3768 89.2361 15.1808 88.7839 14.4866C88.3316 13.7925 88.5277 12.8633 89.2218 12.411L90.8595 14.9246ZM95.3652 7.96187C96.0251 7.46115 96.9661 7.59026 97.4668 8.25024C97.9675 8.91022 97.8384 9.85115 97.1784 10.3519L95.3652 7.96187ZM100.834 7.57816C100.174 8.07888 99.2334 7.94977 98.7327 7.28979C98.232 6.62981 98.3611 5.68888 99.0211 5.18816L100.834 7.57816ZM2.07427 0.758205L5.38731 3.26179L3.57863 5.65525L0.265587 3.15167L2.07427 0.758205ZM10.6882 7.26752L14.0012 9.7711L12.1925 12.1646L8.87949 9.66098L10.6882 7.26752ZM14.0012 9.7711C15.2642 10.7255 16.553 11.6282 17.8648 12.4793L16.2319 14.996C14.8602 14.1061 13.5128 13.1622 12.1925 12.1646L14.0012 9.7711ZM24.418 16.2134C27.2552 17.6198 30.171 18.808 33.141 19.7781L32.2095 22.6299C29.103 21.6152 26.0532 20.3723 23.0855 18.9012L24.418 16.2134ZM40.4337 21.7024C43.5226 22.3295 46.6472 22.7317 49.7819 22.909L49.6125 25.9042C46.3346 25.7189 43.0671 25.2983 39.8367 24.6424L40.4337 21.7024ZM57.3247 22.9018C60.4591 22.7185 63.5829 22.3103 66.6706 21.6773L67.2732 24.6161C64.0441 25.2782 60.7774 25.705 57.4999 25.8967L57.3247 22.9018ZM73.9596 19.7391C76.9278 18.7633 79.8413 17.5695 82.6758 16.1576L84.0134 18.8429C81.0485 20.3197 78.0011 21.5684 74.8965 22.589L73.9596 19.7391ZM89.2218 12.411C90.532 11.5574 91.8191 10.6522 93.0802 9.69543L94.8935 12.0854C93.5752 13.0856 92.2295 14.032 90.8595 14.9246L89.2218 12.411ZM93.0802 9.69543L95.3652 7.96187L97.1784 10.3519L94.8935 12.0854L93.0802 9.69543ZM99.0211 5.18816L101.306 3.4546L103.119 5.8446L100.834 7.57816L99.0211 5.18816Z" fill="#7C92A2" fill-opacity="0.53"/>
</svg>
