<svg width="423" height="423" viewBox="0 0 423 423" fill="none" xmlns="http://www.w3.org/2000/svg">
<path d="M211.03 422.06C327.579 422.06 422.06 327.579 422.06 211.03C422.06 94.4813 327.579 0 211.03 0C94.4813 0 0 94.4813 0 211.03C0 327.579 94.4813 422.06 211.03 422.06Z" fill="url(#paint0_linear_2207_3176)"/>
<mask id="mask0_2207_3176" style="mask-type:luminance" maskUnits="userSpaceOnUse" x="0" y="0" width="423" height="423">
<path d="M211.03 422.06C327.579 422.06 422.06 327.579 422.06 211.03C422.06 94.4813 327.579 0 211.03 0C94.4813 0 0 94.4813 0 211.03C0 327.579 94.4813 422.06 211.03 422.06Z" fill="white"/>
</mask>
<g mask="url(#mask0_2207_3176)">
<path d="M236.99 331.53C228.62 333.35 219.94 334.32 211.03 334.32C202.12 334.32 193.44 333.35 185.07 331.53C167.38 333.76 146.12 339.28 140.04 352.86C122.71 391.58 154.95 453.35 169.7 475.39C181.69 493.32 204.73 491.86 210.52 491.93H211.54C217.33 491.86 240.37 493.32 252.36 475.39C267.1 453.35 299.34 391.58 282.02 352.86C275.94 339.29 254.68 333.76 236.99 331.53Z" fill="url(#paint1_linear_2207_3176)"/>
<path d="M97.6399 212.39C97.6399 201.15 99.2799 190.3 102.33 180.05C97.8499 181.95 90.8299 184.95 86.2399 186.94C83.8899 187.96 82.4099 189.78 82.2999 191.78C82.0599 196.1 81.7699 204.42 82.2899 214.29C82.7699 223.42 83.9299 233.87 86.4699 243.73C87.0199 245.89 89.1499 247.65 92.0099 248.3L104.44 251.13C100.04 239.04 97.6499 225.99 97.6499 212.39H97.6399Z" fill="url(#paint2_linear_2207_3176)"/>
<path d="M211.03 325.78C273.654 325.78 324.42 275.014 324.42 212.39C324.42 149.766 273.654 99 211.03 99C148.407 99 97.6401 149.766 97.6401 212.39C97.6401 275.014 148.407 325.78 211.03 325.78Z" fill="url(#paint3_linear_2207_3176)"/>
<g style="mix-blend-mode:screen" opacity="0.31">
<path d="M97.6399 212.39C97.6399 201.15 99.2799 190.3 102.33 180.05C97.8499 181.95 90.8299 184.95 86.2399 186.94C83.8899 187.96 82.4099 189.78 82.2999 191.78C82.0599 196.1 81.7699 204.42 82.2899 214.29C86.9999 215.95 92.1699 217.48 97.8299 218.79C97.7099 216.67 97.6499 214.54 97.6499 212.39H97.6399Z" fill="#B3B3B3"/>
</g>
<g style="mix-blend-mode:multiply" opacity="0.1">
<path d="M211.03 98.9997C196.99 98.9997 183.55 101.56 171.14 106.22L183.42 128.06C187.95 136.13 196.52 141.14 205.77 141.14H216.28C225.54 141.14 234.1 136.13 238.63 128.06L250.91 106.22C238.5 101.55 225.06 98.9897 211.02 98.9897L211.03 98.9997Z" fill="black"/>
</g>
<path d="M211.03 176.24C208.51 176.24 125.56 173.33 125.56 224.69L126.53 246.94C126.53 277.71 147.78 307.8 211.03 307.8C274.28 307.8 295.53 277.71 295.53 246.94L296.5 224.69C296.5 173.33 213.55 176.24 211.03 176.24Z" fill="#141E28"/>
<path d="M211.03 177.72C208.57 177.72 127.41 174.94 127.41 223.98L128.36 245C128.36 274.38 149.15 303.11 211.03 303.11C272.91 303.11 293.7 274.38 293.7 245L294.65 223.98C294.65 174.94 213.49 177.72 211.03 177.72Z" fill="#2D3246"/>
<path d="M211.03 99C198.52 99 186.48 101.03 175.23 104.77L187.15 125.96C190.93 132.69 198.06 136.86 205.78 136.86H216.29C224.01 136.86 231.13 132.7 234.92 125.96L246.84 104.77C235.58 101.03 223.55 99 211.04 99H211.03Z" fill="url(#paint4_linear_2207_3176)"/>
<g style="mix-blend-mode:screen" opacity="0.6">
<path d="M113.41 223.88C113.41 163.73 162.37 114.77 222.52 114.77C226.47 114.77 230.38 114.98 234.22 115.39C240.09 116.02 241.52 107.43 235.77 106.1C227.82 104.26 219.54 103.28 211.03 103.28C150.91 103.28 101.92 152.27 101.92 212.39C101.92 229.68 105.94 246.03 113.1 260.55C114.83 264.07 120.14 261.88 118.9 258.15C115.34 247.37 113.41 235.85 113.41 223.88Z" fill="#B3B3B3"/>
</g>
<g style="mix-blend-mode:multiply" opacity="0.1">
<path d="M212.08 453.68H207.83C203.6 453.68 199.7 451.46 197.56 447.89C194.05 442.02 185.21 426.4 179.1 408.21C175.97 398.9 174.08 390.48 173.48 383.19C172.98 377.09 177.17 371.64 183.22 370.52C190.91 369.09 199.97 368.31 208.72 368.31C209.36 368.31 209.81 368.31 210.02 368.31L211.22 368.35L212.09 368.31C212.31 368.31 212.73 368.31 213.33 368.31C222.07 368.31 231.13 369.1 238.83 370.52C244.88 371.64 249.07 377.09 248.57 383.19C247.97 390.48 246.08 398.89 242.95 408.21C236.84 426.4 228.01 442.02 224.49 447.89C222.35 451.46 218.45 453.69 214.29 453.69H212.06L212.08 453.68Z" fill="black"/>
</g>
<path d="M212.09 449.4C211.82 449.4 207.81 449.4 207.81 449.4C207.79 449.4 207.77 449.4 207.75 449.4C205.07 449.4 202.59 447.98 201.22 445.68C195.3 435.79 188.08 421.53 183.15 406.83C179.85 397 178.25 388.97 177.74 382.82C177.42 378.91 180.14 375.42 184 374.7C190.53 373.49 199.2 372.56 208.72 372.56C209.32 372.56 209.74 372.56 209.93 372.56L211.26 372.6L212.16 372.56C212.37 372.56 212.77 372.56 213.34 372.56C222.86 372.56 231.52 373.49 238.06 374.7C241.91 375.42 244.64 378.91 244.32 382.82C243.81 388.97 242.21 397 238.91 406.83C233.97 421.53 226.75 435.79 220.84 445.68C219.46 447.98 216.99 449.4 214.31 449.4C214.29 449.4 214.27 449.4 214.25 449.4H212.1H212.09Z" fill="url(#paint5_linear_2207_3176)"/>
<path d="M185.07 331.53C193.44 333.35 202.12 334.32 211.03 334.32C219.94 334.32 228.62 333.35 236.99 331.53C222.87 329.75 211.03 330.07 211.03 330.07C211.03 330.07 199.19 329.75 185.07 331.53Z" fill="#2D3246"/>
<g style="mix-blend-mode:screen" opacity="0.2">
<path d="M238.06 374.71C231.53 373.5 222.86 372.57 213.34 372.57C212.77 372.57 212.36 372.57 212.16 372.57L211.26 372.61L209.93 372.57C209.73 372.57 209.32 372.57 208.72 372.57C199.2 372.57 190.54 373.5 184 374.71C180.15 375.43 177.42 378.92 177.74 382.83C177.75 382.96 177.77 383.1 177.78 383.23C188.83 400.28 208.01 411.57 229.84 411.57C232.4 411.57 234.92 411.4 237.4 411.1C237.92 409.69 238.42 408.27 238.9 406.84C242.2 397.01 243.8 388.98 244.31 382.83C244.63 378.92 241.91 375.42 238.05 374.71H238.06Z" fill="#B3B3B3"/>
</g>
<g style="mix-blend-mode:screen" opacity="0.6">
<path d="M193.01 340.99L192 340.36C187.24 337.36 181.52 336.23 176 337.31C158.73 340.69 147.48 346.71 143.95 354.61C136.97 370.21 137.99 392.48 146.9 419.02C154.16 440.63 165.27 461.08 173.26 473.01C175.9 476.95 179.17 479.83 182.68 481.94C183.88 482.66 185.18 481.23 184.4 480.07C184.39 480.05 184.38 480.04 184.37 480.02C176.39 468.09 165.27 447.64 158.01 426.03C149.1 399.49 148.08 377.22 155.06 361.62C158.95 352.92 172.18 346.51 192.52 343.38C193.71 343.2 194.04 341.64 193.02 341L193.01 340.99Z" fill="#B3B3B3"/>
</g>
<path style="mix-blend-mode:multiply" opacity="0.4" d="M278.11 354.61C275.83 349.51 270.33 345.2 262.08 341.87C260.46 341.22 258.87 342.88 259.58 344.47L259.6 344.52C266.58 360.12 265.56 382.39 256.65 408.93C249.39 430.54 238.4 451.08 230.29 462.92C219.19 479.14 235.07 493.89 248.79 473.01C256.67 461.01 267.89 440.63 275.15 419.02C284.06 392.48 285.08 370.21 278.1 354.61H278.11Z" fill="url(#paint6_linear_2207_3176)"/>
<path d="M217.11 158.69C217.11 162.05 214.39 164.77 211.03 164.77C207.67 164.77 204.95 162.05 204.95 158.69C204.95 155.33 207.67 152.61 211.03 152.61C214.39 152.61 217.11 155.33 217.11 158.69Z" fill="url(#paint7_linear_2207_3176)"/>
<g style="mix-blend-mode:multiply" opacity="0.7">
<path d="M214.7 158.69C214.7 160.72 213.06 162.36 211.03 162.36C209 162.36 207.36 160.72 207.36 158.69C207.36 156.66 209 155.02 211.03 155.02C213.06 155.02 214.7 156.66 214.7 158.69Z" fill="#9EB0C5"/>
</g>
<path opacity="0.8" d="M213.61 158.69C213.61 160.12 212.45 161.28 211.02 161.28C209.59 161.28 208.43 160.12 208.43 158.69C208.43 157.26 209.59 156.1 211.02 156.1C212.45 156.1 213.61 157.26 213.61 158.69Z" fill="black"/>
<path d="M249.4 236.18C255.337 236.18 260.15 231.367 260.15 225.43C260.15 219.493 255.337 214.68 249.4 214.68C243.463 214.68 238.65 219.493 238.65 225.43C238.65 231.367 243.463 236.18 249.4 236.18Z" fill="#00E3D4"/>
<g filter="url(#filter0_f_2207_3176)">
<path opacity="0.4" d="M290.809 235.088C296.143 212.219 281.928 189.355 259.059 184.021C236.19 178.686 213.326 192.901 207.992 215.77C202.657 238.64 216.872 261.503 239.741 266.838C262.611 272.172 285.474 257.957 290.809 235.088Z" fill="url(#paint8_radial_2207_3176)"/>
</g>
<g filter="url(#filter1_f_2207_3176)">
<path opacity="0.4" d="M214.054 235.092C219.389 212.222 205.174 189.359 182.305 184.024C159.436 178.69 136.572 192.905 131.238 215.774C125.903 238.643 140.118 261.507 162.987 266.841C185.856 272.175 208.72 257.961 214.054 235.092Z" fill="url(#paint9_radial_2207_3176)"/>
</g>
<path d="M172.65 236.18C178.587 236.18 183.4 231.367 183.4 225.43C183.4 219.493 178.587 214.68 172.65 214.68C166.713 214.68 161.9 219.493 161.9 225.43C161.9 231.367 166.713 236.18 172.65 236.18Z" fill="#00E3D4"/>
<path d="M184.73 252.64C183.04 252.64 181.73 254.11 181.91 255.79C183.48 270.48 195.92 281.93 211.03 281.93C226.14 281.93 238.58 270.49 240.15 255.79C240.33 254.11 239.02 252.64 237.33 252.64H184.73Z" fill="#00E3D4"/>
<path style="mix-blend-mode:multiply" opacity="0.4" d="M268.06 136.4C270.32 145.15 271.53 154.32 271.53 163.77C271.53 223.86 222.5 272.88 162.42 272.88C160.83 272.88 159.24 272.85 157.66 272.78C142.03 272.11 134.97 292.15 147.7 301.24C165.56 313.99 187.42 321.5 211.04 321.5C271.09 321.5 320.15 272.44 320.15 212.39C320.15 178.62 304.81 148.44 280.72 128.43C274.87 123.57 266.16 129.04 268.07 136.4H268.06Z" fill="url(#paint10_linear_2207_3176)"/>
<path style="mix-blend-mode:screen" d="M195.17 356.59C206.49 353.92 215.78 353.89 227.1 356.43C227.52 356.55 227.82 356.79 227.76 356.97C227.7 357.15 227.32 357.2 226.91 357.08C215.73 354.57 206.57 354.61 195.39 357.28C194.98 357.4 194.6 357.35 194.53 357.16C194.47 356.97 194.75 356.71 195.17 356.59Z" fill="url(#paint11_linear_2207_3176)"/>
<path d="M195.31 357.05C206.53 354.38 215.74 354.34 226.97 356.86C227.39 356.98 227.68 357.22 227.62 357.41C227.56 357.59 227.18 357.64 226.77 357.52C215.68 355.02 206.61 355.07 195.54 357.75C195.13 357.87 194.75 357.82 194.69 357.63C194.63 357.44 194.91 357.18 195.32 357.06L195.31 357.05Z" fill="url(#paint12_linear_2207_3176)"/>
<path style="mix-blend-mode:screen" d="M194.56 354.53C206.29 351.9 215.95 351.9 227.64 354.47C228.08 354.59 228.39 354.83 228.34 355C228.29 355.17 227.91 355.21 227.47 355.09C215.89 352.53 206.35 352.54 194.74 355.18C194.31 355.3 193.92 355.26 193.87 355.08C193.82 354.9 194.12 354.65 194.56 354.53Z" fill="url(#paint13_linear_2207_3176)"/>
<path d="M194.69 354.96C206.34 352.32 215.92 352.31 227.54 354.88C227.97 355 228.28 355.24 228.23 355.41C228.18 355.58 227.79 355.62 227.37 355.5C215.87 352.95 206.4 352.96 194.88 355.61C194.45 355.73 194.07 355.69 194.01 355.51C193.95 355.33 194.26 355.08 194.69 354.96Z" fill="url(#paint14_linear_2207_3176)"/>
<path style="mix-blend-mode:screen" d="M194.05 352.57C206.12 349.99 216.09 350.01 228.09 352.61C228.54 352.73 228.87 352.96 228.83 353.13C228.79 353.29 228.4 353.32 227.95 353.2C216.05 350.61 206.16 350.59 194.2 353.2C193.76 353.32 193.36 353.29 193.31 353.11C193.27 352.94 193.59 352.7 194.04 352.58L194.05 352.57Z" fill="url(#paint15_linear_2207_3176)"/>
<path d="M194.16 352.98C206.16 350.39 216.07 350.4 228.01 353C228.46 353.12 228.78 353.36 228.74 353.52C228.7 353.68 228.31 353.71 227.87 353.59C216.03 351 206.22 350.99 194.32 353.6C193.88 353.72 193.48 353.68 193.44 353.51C193.39 353.34 193.72 353.1 194.16 352.98Z" fill="url(#paint16_linear_2207_3176)"/>
<path style="mix-blend-mode:screen" d="M193.63 350.72C205.97 348.19 216.23 348.24 228.48 350.84C228.94 350.96 229.28 351.19 229.25 351.34C229.22 351.49 228.82 351.52 228.37 351.39C216.2 348.79 206.03 348.75 193.77 351.29C193.31 351.41 192.91 351.38 192.87 351.22C192.83 351.06 193.18 350.83 193.64 350.71L193.63 350.72Z" fill="url(#paint17_linear_2207_3176)"/>
<path d="M193.71 351.11C206 348.57 216.2 348.61 228.4 351.22C228.86 351.34 229.2 351.57 229.16 351.73C229.13 351.89 228.73 351.91 228.28 351.79C216.16 349.19 206.05 349.15 193.85 351.71C193.39 351.83 193 351.8 192.96 351.63C192.92 351.47 193.26 351.23 193.72 351.12L193.71 351.11Z" fill="url(#paint18_linear_2207_3176)"/>
<path style="mix-blend-mode:screen" d="M193.27 348.96C205.77 346.42 216.34 346.48 228.78 349.16C229.25 349.28 229.6 349.5 229.58 349.65C229.55 349.8 229.15 349.81 228.69 349.69C216.31 347.01 205.81 346.96 193.38 349.51C192.91 349.63 192.51 349.6 192.48 349.45C192.45 349.3 192.81 349.07 193.28 348.96H193.27Z" fill="url(#paint19_linear_2207_3176)"/>
<path d="M193.34 349.33C205.79 346.78 216.32 346.83 228.72 349.51C229.19 349.63 229.54 349.85 229.51 350C229.48 350.15 229.08 350.17 228.62 350.04C216.29 347.36 205.83 347.31 193.45 349.88C192.98 350 192.58 349.97 192.55 349.82C192.52 349.67 192.87 349.44 193.34 349.32V349.33Z" fill="url(#paint20_linear_2207_3176)"/>
<path d="M96.52 182.53L90.7 104.77C90.54 104.79 90.39 104.81 90.23 104.81C89.9 104.82 89.58 104.81 89.27 104.77C89.25 104.77 89.22 104.77 89.2 104.77C88.88 104.73 88.57 104.66 88.27 104.56L89.29 185.64C92.04 184.46 95.15 183.12 97.98 181.92C97.5 182.12 97.02 182.33 96.53 182.54L96.52 182.53Z" fill="#2D3246"/>
<path d="M92.1697 104.39C91.9397 104.48 91.7097 104.56 91.4597 104.62C91.4597 104.62 91.4497 104.62 91.4397 104.62C91.1997 104.68 90.9497 104.73 90.6997 104.76L96.5197 182.52C97.0097 182.31 97.4897 182.11 97.9697 181.9L92.1697 104.38V104.39Z" fill="#141E28"/>
<path d="M95.8099 98.7299C95.9499 101.95 93.4499 104.67 90.2399 104.81C87.0299 104.95 84.2999 102.45 84.1599 99.2399C84.0199 96.0299 86.5199 93.2999 89.7299 93.1599C92.9399 93.0199 95.6699 95.5199 95.8099 98.7299Z" fill="url(#paint21_linear_2207_3176)"/>
<path style="mix-blend-mode:multiply" opacity="0.4" d="M90.8199 93.2598C92.5099 93.9998 93.6799 95.6798 93.8599 97.6198C94.0999 100.31 91.6999 102.71 89.0899 102.83C86.7899 102.93 84.9099 101.46 84.1899 99.4398C84.5399 102.31 87.0499 104.47 89.9899 104.35C93.0799 104.22 95.4699 101.6 95.3399 98.5198C95.2299 95.8898 93.3099 93.7598 90.8399 93.2698L90.8199 93.2598Z" fill="url(#paint22_linear_2207_3176)"/>
<path d="M89.8899 96.9701C89.9299 97.9501 89.1699 98.7801 88.1899 98.8201C87.2099 98.8601 86.3799 98.1001 86.3399 97.1201C86.2999 96.1401 87.0599 95.3101 88.0399 95.2701C89.0199 95.2301 89.8499 95.9901 89.8899 96.9701Z" fill="white"/>
<path style="mix-blend-mode:multiply" opacity="0.4" d="M89.72 93.15C86.5 93.29 84 96.02 84.15 99.23C84.3 102.44 87.01 104.95 90.23 104.8C93.45 104.65 95.94 101.94 95.8 98.72C95.66 95.5 92.94 93 89.72 93.15ZM89.02 101.47C86.92 101.56 85.29 99.91 85.11 97.88C84.93 95.86 86.73 94.05 88.7 93.97C90.8 93.88 92.43 95.53 92.61 97.56C92.79 99.58 90.99 101.39 89.02 101.47Z" fill="url(#paint23_linear_2207_3176)"/>
</g>
<defs>
<filter id="filter0_f_2207_3176" x="196.871" y="172.9" width="105.059" height="105.059" filterUnits="userSpaceOnUse" color-interpolation-filters="sRGB">
<feFlood flood-opacity="0" result="BackgroundImageFix"/>
<feBlend mode="normal" in="SourceGraphic" in2="BackgroundImageFix" result="shape"/>
<feGaussianBlur stdDeviation="5" result="effect1_foregroundBlur_2207_3176"/>
</filter>
<filter id="filter1_f_2207_3176" x="120.116" y="172.903" width="105.059" height="105.059" filterUnits="userSpaceOnUse" color-interpolation-filters="sRGB">
<feFlood flood-opacity="0" result="BackgroundImageFix"/>
<feBlend mode="normal" in="SourceGraphic" in2="BackgroundImageFix" result="shape"/>
<feGaussianBlur stdDeviation="5" result="effect1_foregroundBlur_2207_3176"/>
</filter>
<linearGradient id="paint0_linear_2207_3176" x1="61.81" y1="360.25" x2="360.25" y2="61.81" gradientUnits="userSpaceOnUse">
<stop stop-color="#0071BC"/>
<stop offset="0.99" stop-color="#00E3D4"/>
</linearGradient>
<linearGradient id="paint1_linear_2207_3176" x1="151.61" y1="339.37" x2="270.45" y2="458.22" gradientUnits="userSpaceOnUse">
<stop stop-color="#F3F6FA"/>
<stop offset="0.19" stop-color="#EAEFF5"/>
<stop offset="0.48" stop-color="#D2DDE9"/>
<stop offset="0.86" stop-color="#ABC0D6"/>
<stop offset="1" stop-color="#9BB4CF"/>
</linearGradient>
<linearGradient id="paint2_linear_2207_3176" x1="93.2199" y1="182.97" x2="93.2199" y2="226.45" gradientUnits="userSpaceOnUse">
<stop stop-color="#00E3D4"/>
<stop offset="1" stop-color="#0071BC"/>
</linearGradient>
<linearGradient id="paint3_linear_2207_3176" x1="130.85" y1="132.21" x2="291.2" y2="292.57" gradientUnits="userSpaceOnUse">
<stop stop-color="#F3F6FA"/>
<stop offset="0.19" stop-color="#EAEFF5"/>
<stop offset="0.48" stop-color="#D2DDE9"/>
<stop offset="0.86" stop-color="#ABC0D6"/>
<stop offset="1" stop-color="#9BB4CF"/>
</linearGradient>
<linearGradient id="paint4_linear_2207_3176" x1="211.03" y1="99" x2="211.03" y2="136.87" gradientUnits="userSpaceOnUse">
<stop stop-color="#00E3D4"/>
<stop offset="1" stop-color="#0071BC"/>
</linearGradient>
<linearGradient id="paint5_linear_2207_3176" x1="225.76" y1="367.1" x2="185.11" y2="437.5" gradientUnits="userSpaceOnUse">
<stop stop-color="#00E3D4"/>
<stop offset="1" stop-color="#0071BC"/>
</linearGradient>
<linearGradient id="paint6_linear_2207_3176" x1="219.46" y1="382.84" x2="279.76" y2="443.14" gradientUnits="userSpaceOnUse">
<stop stop-color="#F3F6FA"/>
<stop offset="0.19" stop-color="#EAEFF5"/>
<stop offset="0.48" stop-color="#D2DDE9"/>
<stop offset="0.86" stop-color="#ABC0D6"/>
<stop offset="1" stop-color="#9BB4CF"/>
</linearGradient>
<linearGradient id="paint7_linear_2207_3176" x1="211.03" y1="164.85" x2="211.03" y2="152.45" gradientUnits="userSpaceOnUse">
<stop stop-color="#F3F6FA"/>
<stop offset="0.19" stop-color="#EAEFF5"/>
<stop offset="0.48" stop-color="#D2DDE9"/>
<stop offset="0.86" stop-color="#ABC0D6"/>
<stop offset="1" stop-color="#9BB4CF"/>
</linearGradient>
<radialGradient id="paint8_radial_2207_3176" cx="0" cy="0" r="1" gradientUnits="userSpaceOnUse" gradientTransform="translate(249.4 225.429) rotate(135.466) scale(28.6184)">
<stop stop-color="#00E3D4"/>
<stop offset="1" stop-color="#00E3D4" stop-opacity="0"/>
</radialGradient>
<radialGradient id="paint9_radial_2207_3176" cx="0" cy="0" r="1" gradientUnits="userSpaceOnUse" gradientTransform="translate(172.646 225.433) rotate(39.9582) scale(30.4679 30.4679)">
<stop stop-color="#00E3D4"/>
<stop offset="1" stop-color="#00E3D4" stop-opacity="0"/>
</radialGradient>
<linearGradient id="paint10_linear_2207_3176" x1="204.65" y1="206.86" x2="294.62" y2="282.35" gradientUnits="userSpaceOnUse">
<stop stop-color="#F3F6FA"/>
<stop offset="0.19" stop-color="#EAEFF5"/>
<stop offset="0.48" stop-color="#D2DDE9"/>
<stop offset="0.86" stop-color="#ABC0D6"/>
<stop offset="1" stop-color="#9BB4CF"/>
</linearGradient>
<linearGradient id="paint11_linear_2207_3176" x1="211.15" y1="356.31" x2="211.16" y2="354.47" gradientUnits="userSpaceOnUse">
<stop stop-color="#9BB4CF"/>
<stop offset="0.14" stop-color="#ABC0D6"/>
<stop offset="0.52" stop-color="#D2DDE9"/>
<stop offset="0.81" stop-color="#EAEFF5"/>
<stop offset="1" stop-color="#F3F6FA"/>
</linearGradient>
<linearGradient id="paint12_linear_2207_3176" x1="211.16" y1="356.77" x2="211.17" y2="354.91" gradientUnits="userSpaceOnUse">
<stop stop-color="#323D57"/>
<stop offset="0.34" stop-color="#2B354E"/>
<stop offset="0.88" stop-color="#1B2236"/>
<stop offset="1" stop-color="#171E30"/>
</linearGradient>
<linearGradient id="paint13_linear_2207_3176" x1="211.12" y1="354.25" x2="211.13" y2="352.46" gradientUnits="userSpaceOnUse">
<stop stop-color="#9BB4CF"/>
<stop offset="0.14" stop-color="#ABC0D6"/>
<stop offset="0.52" stop-color="#D2DDE9"/>
<stop offset="0.81" stop-color="#EAEFF5"/>
<stop offset="1" stop-color="#F3F6FA"/>
</linearGradient>
<linearGradient id="paint14_linear_2207_3176" x1="211.12" y1="354.68" x2="211.14" y2="352.88" gradientUnits="userSpaceOnUse">
<stop stop-color="#323D57"/>
<stop offset="0.34" stop-color="#2B354E"/>
<stop offset="0.88" stop-color="#1B2236"/>
<stop offset="1" stop-color="#171E30"/>
</linearGradient>
<linearGradient id="paint15_linear_2207_3176" x1="211.09" y1="352.3" x2="211.1" y2="350.56" gradientUnits="userSpaceOnUse">
<stop stop-color="#9BB4CF"/>
<stop offset="0.14" stop-color="#ABC0D6"/>
<stop offset="0.52" stop-color="#D2DDE9"/>
<stop offset="0.81" stop-color="#EAEFF5"/>
<stop offset="1" stop-color="#F3F6FA"/>
</linearGradient>
<linearGradient id="paint16_linear_2207_3176" x1="211.09" y1="352.7" x2="211.1" y2="350.96" gradientUnits="userSpaceOnUse">
<stop stop-color="#323D57"/>
<stop offset="0.34" stop-color="#2B354E"/>
<stop offset="0.88" stop-color="#1B2236"/>
<stop offset="1" stop-color="#171E30"/>
</linearGradient>
<linearGradient id="paint17_linear_2207_3176" x1="211.06" y1="350.45" x2="211.07" y2="348.78" gradientUnits="userSpaceOnUse">
<stop stop-color="#9BB4CF"/>
<stop offset="0.14" stop-color="#ABC0D6"/>
<stop offset="0.52" stop-color="#D2DDE9"/>
<stop offset="0.81" stop-color="#EAEFF5"/>
<stop offset="1" stop-color="#F3F6FA"/>
</linearGradient>
<linearGradient id="paint18_linear_2207_3176" x1="211.07" y1="350.84" x2="211.08" y2="349.15" gradientUnits="userSpaceOnUse">
<stop stop-color="#323D57"/>
<stop offset="0.34" stop-color="#2B354E"/>
<stop offset="0.88" stop-color="#1B2236"/>
<stop offset="1" stop-color="#171E30"/>
</linearGradient>
<linearGradient id="paint19_linear_2207_3176" x1="211.04" y1="348.68" x2="211.05" y2="347.03" gradientUnits="userSpaceOnUse">
<stop stop-color="#9BB4CF"/>
<stop offset="0.14" stop-color="#ABC0D6"/>
<stop offset="0.52" stop-color="#D2DDE9"/>
<stop offset="0.81" stop-color="#EAEFF5"/>
<stop offset="1" stop-color="#F3F6FA"/>
</linearGradient>
<linearGradient id="paint20_linear_2207_3176" x1="211.04" y1="349.05" x2="211.05" y2="347.38" gradientUnits="userSpaceOnUse">
<stop stop-color="#323D57"/>
<stop offset="0.34" stop-color="#2B354E"/>
<stop offset="0.88" stop-color="#1B2236"/>
<stop offset="1" stop-color="#171E30"/>
</linearGradient>
<linearGradient id="paint21_linear_2207_3176" x1="85.7153" y1="95.0697" x2="94.2756" y2="102.914" gradientUnits="userSpaceOnUse">
<stop stop-color="#F3F6FA"/>
<stop offset="0.19" stop-color="#EAEFF5"/>
<stop offset="0.48" stop-color="#D2DDE9"/>
<stop offset="0.86" stop-color="#ABC0D6"/>
<stop offset="1" stop-color="#9BB4CF"/>
</linearGradient>
<linearGradient id="paint22_linear_2207_3176" x1="85.6423" y1="95.0027" x2="93.8481" y2="102.522" gradientUnits="userSpaceOnUse">
<stop stop-color="#F3F6FA"/>
<stop offset="0.19" stop-color="#EAEFF5"/>
<stop offset="0.48" stop-color="#D2DDE9"/>
<stop offset="0.86" stop-color="#ABC0D6"/>
<stop offset="1" stop-color="#9BB4CF"/>
</linearGradient>
<linearGradient id="paint23_linear_2207_3176" x1="87.759" y1="96.9424" x2="94.4325" y2="103.067" gradientUnits="userSpaceOnUse">
<stop stop-color="#F3F6FA"/>
<stop offset="0.19" stop-color="#EAEFF5"/>
<stop offset="0.48" stop-color="#D2DDE9"/>
<stop offset="0.86" stop-color="#ABC0D6"/>
<stop offset="1" stop-color="#9BB4CF"/>
</linearGradient>
</defs>
</svg>
