<svg width="47" height="47" viewBox="0 0 47 47" fill="none" xmlns="http://www.w3.org/2000/svg">
<mask id="mask0_2223_3408" style="mask-type:luminance" maskUnits="userSpaceOnUse" x="0" y="0" width="47" height="47">
<path d="M23.5 47C36.4787 47 47 36.4787 47 23.5C47 10.5213 36.4787 0 23.5 0C10.5213 0 0 10.5213 0 23.5C0 36.4787 10.5213 47 23.5 47Z" fill="white"/>
</mask>
<g mask="url(#mask0_2223_3408)">
<path d="M27.2593 37.5459C26.3272 37.7486 25.3606 37.8566 24.3684 37.8566C23.3762 37.8566 22.4096 37.7486 21.4775 37.5459C19.5076 37.7942 17.1401 38.4089 16.463 39.9212C14.5332 44.233 18.1234 51.1116 19.7659 53.5659C21.1011 55.5626 23.6668 55.4 24.3116 55.4078H24.4252C25.0699 55.4 27.6356 55.5626 28.9708 53.5659C30.6123 51.1116 34.2025 44.233 32.2737 39.9212C31.5967 38.41 29.2292 37.7942 27.2593 37.5459Z" fill="url(#paint0_linear_2223_3408)"/>
<path d="M11.7417 24.2791C11.7417 23.0274 11.9243 21.8192 12.264 20.6777C11.7651 20.8893 10.9833 21.2234 10.4722 21.445C10.2105 21.5586 10.0457 21.7613 10.0335 21.984C10.0067 22.465 9.97443 23.3915 10.0323 24.4907C10.0858 25.5074 10.215 26.6711 10.4978 27.769C10.5591 28.0096 10.7963 28.2056 11.1147 28.278L12.4989 28.5931C12.009 27.2468 11.7428 25.7935 11.7428 24.2791H11.7417Z" fill="url(#paint1_linear_2223_3408)"/>
<path d="M24.3691 36.9062C31.3428 36.9062 36.9961 31.253 36.9961 24.2793C36.9961 17.3056 31.3428 11.6523 24.3691 11.6523C17.3955 11.6523 11.7422 17.3056 11.7422 24.2793C11.7422 31.253 17.3955 36.9062 24.3691 36.9062Z" fill="url(#paint2_linear_2223_3408)"/>
<g style="mix-blend-mode:screen" opacity="0.31">
<path d="M11.7417 24.2791C11.7417 23.0274 11.9243 21.8192 12.264 20.6777C11.7651 20.8893 10.9833 21.2234 10.4722 21.445C10.2105 21.5586 10.0457 21.7613 10.0335 21.984C10.0067 22.465 9.97443 23.3915 10.0323 24.4907C10.5568 24.6755 11.1326 24.8459 11.7628 24.9918C11.7495 24.7557 11.7428 24.5185 11.7428 24.2791H11.7417Z" fill="#B3B3B3"/>
</g>
<g style="mix-blend-mode:multiply" opacity="0.1">
<path d="M24.3684 11.6515C22.8049 11.6515 21.3082 11.9366 19.9263 12.4555L21.2938 14.8876C21.7982 15.7862 22.7526 16.3442 23.7826 16.3442H24.953C25.9842 16.3442 26.9374 15.7862 27.4419 14.8876L28.8093 12.4555C27.4274 11.9355 25.9307 11.6504 24.3672 11.6504L24.3684 11.6515Z" fill="black"/>
</g>
<path d="M24.3689 20.2534C24.0883 20.2534 14.8511 19.9293 14.8511 25.6487L14.9591 28.1264C14.9591 31.5529 17.3255 34.9037 24.3689 34.9037C31.4123 34.9037 33.7787 31.5529 33.7787 28.1264L33.8867 25.6487C33.8867 19.9293 24.6495 20.2534 24.3689 20.2534Z" fill="#141E28"/>
<path d="M24.3689 20.4182C24.095 20.4182 15.0571 20.1087 15.0571 25.5697L15.1629 27.9105C15.1629 31.1822 17.4781 34.3815 24.3689 34.3815C31.2598 34.3815 33.5749 31.1822 33.5749 27.9105L33.6807 25.5697C33.6807 20.1087 24.6429 20.4182 24.3689 20.4182Z" fill="#2D3246"/>
<path d="M24.369 11.6523C22.9759 11.6523 21.6351 11.8784 20.3823 12.2949L21.7097 14.6546C22.1307 15.404 22.9246 15.8684 23.7843 15.8684H24.9547C25.8144 15.8684 26.6073 15.4051 27.0293 14.6546L28.3567 12.2949C27.1028 11.8784 25.7632 11.6523 24.3701 11.6523H24.369Z" fill="url(#paint3_linear_2223_3408)"/>
<g style="mix-blend-mode:screen" opacity="0.6">
<path d="M13.4978 25.5583C13.4978 18.86 18.9499 13.4079 25.6481 13.4079C26.088 13.4079 26.5234 13.4313 26.951 13.477C27.6047 13.5471 27.7639 12.5906 27.1236 12.4424C26.2383 12.2375 25.3163 12.1284 24.3686 12.1284C17.6737 12.1284 12.2183 17.5839 12.2183 24.2788C12.2183 26.2041 12.6659 28.0249 13.4633 29.6418C13.6559 30.0338 14.2472 29.7899 14.1091 29.3745C13.7127 28.1741 13.4978 26.8912 13.4978 25.5583Z" fill="#B3B3B3"/>
</g>
<g style="mix-blend-mode:multiply" opacity="0.1">
<path d="M24.4856 51.1488H24.0123C23.5412 51.1488 23.1069 50.9016 22.8686 50.504C22.4778 49.8503 21.4934 48.1109 20.813 46.0853C20.4644 45.0485 20.2539 44.1109 20.1871 43.2991C20.1314 42.6198 20.598 42.0129 21.2718 41.8882C22.1281 41.7289 23.137 41.6421 24.1114 41.6421C24.1827 41.6421 24.2328 41.6421 24.2562 41.6421L24.3898 41.6465L24.4867 41.6421C24.5112 41.6421 24.5579 41.6421 24.6248 41.6421C25.598 41.6421 26.6069 41.7301 27.4644 41.8882C28.1381 42.0129 28.6047 42.6198 28.549 43.2991C28.4822 44.1109 28.2718 45.0474 27.9232 46.0853C27.2428 48.1109 26.2595 49.8503 25.8675 50.504C25.6292 50.9016 25.1949 51.1499 24.7317 51.1499H24.4833L24.4856 51.1488Z" fill="black"/>
</g>
<path d="M24.4867 50.672C24.4566 50.672 24.0101 50.672 24.0101 50.672C24.0079 50.672 24.0056 50.672 24.0034 50.672C23.705 50.672 23.4288 50.5139 23.2762 50.2578C22.617 49.1564 21.813 47.5685 21.264 45.9315C20.8965 44.8368 20.7183 43.9426 20.6615 43.2578C20.6259 42.8224 20.9288 42.4337 21.3586 42.3535C22.0858 42.2188 23.0513 42.1152 24.1114 42.1152C24.1782 42.1152 24.225 42.1152 24.2462 42.1152L24.3943 42.1197L24.4945 42.1152C24.5179 42.1152 24.5624 42.1152 24.6259 42.1152C25.686 42.1152 26.6504 42.2188 27.3787 42.3535C27.8074 42.4337 28.1114 42.8224 28.0758 43.2578C28.019 43.9426 27.8408 44.8368 27.4733 45.9315C26.9232 47.5685 26.1192 49.1564 25.4611 50.2578C25.3074 50.5139 25.0324 50.672 24.7339 50.672C24.7317 50.672 24.7295 50.672 24.7272 50.672H24.4878H24.4867Z" fill="url(#paint4_linear_2223_3408)"/>
<path d="M21.4775 37.5464C22.4096 37.7491 23.3762 37.8571 24.3684 37.8571C25.3606 37.8571 26.3272 37.7491 27.2593 37.5464C25.6869 37.3482 24.3684 37.3838 24.3684 37.3838C24.3684 37.3838 23.0499 37.3482 21.4775 37.5464Z" fill="#2D3246"/>
<g style="mix-blend-mode:screen" opacity="0.2">
<path d="M27.3787 42.3545C26.6515 42.2198 25.686 42.1162 24.6259 42.1162C24.5624 42.1162 24.5168 42.1162 24.4945 42.1162L24.3943 42.1207L24.2462 42.1162C24.2239 42.1162 24.1782 42.1162 24.1114 42.1162C23.0513 42.1162 22.0869 42.2198 21.3586 42.3545C20.9299 42.4347 20.6259 42.8233 20.6615 43.2587C20.6626 43.2732 20.6649 43.2888 20.666 43.3033C21.8965 45.202 24.0324 46.4592 26.4633 46.4592C26.7484 46.4592 27.029 46.4403 27.3052 46.4069C27.3631 46.2498 27.4188 46.0917 27.4722 45.9325C27.8397 44.8378 28.0179 43.9436 28.0747 43.2587C28.1103 42.8233 27.8074 42.4336 27.3776 42.3545H27.3787Z" fill="#B3B3B3"/>
</g>
<g style="mix-blend-mode:screen" opacity="0.6">
<path d="M22.3621 38.5995L22.2496 38.5293C21.7195 38.1952 21.0826 38.0694 20.4679 38.1897C18.5447 38.5661 17.2919 39.2364 16.8988 40.1162C16.1215 41.8534 16.2351 44.3333 17.2273 47.2888C18.0358 49.6952 19.273 51.9725 20.1627 53.301C20.4567 53.7398 20.8209 54.0605 21.2117 54.2955C21.3454 54.3756 21.4901 54.2164 21.4033 54.0872C21.4022 54.085 21.401 54.0839 21.3999 54.0816C20.5113 52.7531 19.273 50.4759 18.4645 48.0694C17.4723 45.1139 17.3587 42.634 18.136 40.8968C18.5692 39.928 20.0425 39.2142 22.3075 38.8656C22.44 38.8456 22.4768 38.6719 22.3632 38.6006L22.3621 38.5995Z" fill="#B3B3B3"/>
</g>
<path style="mix-blend-mode:multiply" opacity="0.4" d="M31.8386 40.1165C31.5847 39.5485 30.9722 39.0686 30.0535 38.6977C29.8731 38.6254 29.6961 38.8102 29.7751 38.9873L29.7774 38.9928C30.5547 40.73 30.4411 43.21 29.4489 46.1655C28.6404 48.5719 27.4166 50.8592 26.5134 52.1777C25.2774 53.9839 27.0457 55.6265 28.5736 53.3013C29.4511 51.965 30.7005 49.6955 31.509 47.2891C32.5012 44.3336 32.6148 41.8536 31.8375 40.1165H31.8386Z" fill="url(#paint5_linear_2223_3408)"/>
<path d="M25.0455 18.2986C25.0455 18.6728 24.7426 18.9757 24.3685 18.9757C23.9943 18.9757 23.6914 18.6728 23.6914 18.2986C23.6914 17.9245 23.9943 17.6216 24.3685 17.6216C24.7426 17.6216 25.0455 17.9245 25.0455 18.2986Z" fill="url(#paint6_linear_2223_3408)"/>
<g style="mix-blend-mode:multiply" opacity="0.7">
<path d="M24.7773 18.2988C24.7773 18.5249 24.5947 18.7075 24.3686 18.7075C24.1426 18.7075 23.96 18.5249 23.96 18.2988C23.96 18.0728 24.1426 17.8901 24.3686 17.8901C24.5947 17.8901 24.7773 18.0728 24.7773 18.2988Z" fill="#9EB0C5"/>
</g>
<path opacity="0.8" d="M24.6555 18.2982C24.6555 18.4574 24.5263 18.5866 24.367 18.5866C24.2078 18.5866 24.0786 18.4574 24.0786 18.2982C24.0786 18.1389 24.2078 18.0098 24.367 18.0098C24.5263 18.0098 24.6555 18.1389 24.6555 18.2982Z" fill="black"/>
<path d="M28.6414 26.9279C29.3026 26.9279 29.8385 26.3919 29.8385 25.7308C29.8385 25.0697 29.3026 24.5337 28.6414 24.5337C27.9803 24.5337 27.4443 25.0697 27.4443 25.7308C27.4443 26.3919 27.9803 26.9279 28.6414 26.9279Z" fill="#00E3D4"/>
<g filter="url(#filter0_f_2223_3408)">
<path opacity="0.4" d="M33.253 26.8061C33.8471 24.2595 32.2641 21.7134 29.7175 21.1194C27.1708 20.5253 24.6247 22.1082 24.0307 24.6549C23.4366 27.2016 25.0196 29.7477 27.5663 30.3417C30.1129 30.9358 32.659 29.3528 33.253 26.8061Z" fill="url(#paint7_radial_2223_3408)"/>
</g>
<g filter="url(#filter1_f_2223_3408)">
<path opacity="0.4" d="M24.7052 26.8061C25.2992 24.2595 23.7163 21.7134 21.1696 21.1194C18.6229 20.5253 16.0769 22.1082 15.4828 24.6549C14.8888 27.2016 16.4717 29.7477 19.0184 30.3417C21.5651 30.9358 24.1112 29.3528 24.7052 26.8061Z" fill="url(#paint8_radial_2223_3408)"/>
</g>
<path d="M20.0946 26.9279C20.7557 26.9279 21.2917 26.3919 21.2917 25.7308C21.2917 25.0697 20.7557 24.5337 20.0946 24.5337C19.4334 24.5337 18.8975 25.0697 18.8975 25.7308C18.8975 26.3919 19.4334 26.9279 20.0946 26.9279Z" fill="#00E3D4"/>
<path d="M21.4399 28.7607C21.2517 28.7607 21.1058 28.9244 21.1259 29.1115C21.3007 30.7474 22.686 32.0224 24.3686 32.0224C26.0513 32.0224 27.4366 30.7485 27.6114 29.1115C27.6314 28.9244 27.4856 28.7607 27.2974 28.7607H21.4399Z" fill="#00E3D4"/>
<path style="mix-blend-mode:multiply" opacity="0.4" d="M30.7191 15.8171C30.9708 16.7914 31.1055 17.8126 31.1055 18.8649C31.1055 25.5565 25.6456 31.0153 18.9552 31.0153C18.7781 31.0153 18.6011 31.0119 18.4251 31.0041C16.6846 30.9295 15.8984 33.1612 17.316 34.1734C19.3048 35.5932 21.7391 36.4295 24.3694 36.4295C31.0565 36.4295 36.5198 30.9663 36.5198 24.2792C36.5198 20.5186 34.8115 17.1578 32.1289 14.9295C31.4775 14.3883 30.5075 14.9975 30.7202 15.8171H30.7191Z" fill="url(#paint9_linear_2223_3408)"/>
<path style="mix-blend-mode:screen" d="M22.6024 40.3369C23.863 40.0396 24.8975 40.0362 26.1581 40.3191C26.2049 40.3324 26.2383 40.3592 26.2316 40.3792C26.2249 40.3993 26.1826 40.4048 26.137 40.3915C24.892 40.112 23.8719 40.1164 22.6269 40.4137C22.5813 40.4271 22.539 40.4215 22.5312 40.4004C22.5245 40.3792 22.5557 40.3503 22.6024 40.3369Z" fill="url(#paint10_linear_2223_3408)"/>
<path d="M22.6183 40.3876C23.8677 40.0902 24.8933 40.0858 26.1439 40.3664C26.1907 40.3798 26.223 40.4065 26.2163 40.4277C26.2096 40.4477 26.1673 40.4533 26.1216 40.4399C24.8867 40.1615 23.8766 40.1671 22.6439 40.4655C22.5982 40.4789 22.5559 40.4733 22.5492 40.4522C22.5426 40.431 22.5737 40.4021 22.6194 40.3887L22.6183 40.3876Z" fill="url(#paint11_linear_2223_3408)"/>
<path style="mix-blend-mode:screen" d="M22.5345 40.1072C23.8407 39.8143 24.9164 39.8143 26.2182 40.1005C26.2672 40.1139 26.3017 40.1406 26.2962 40.1596C26.2906 40.1785 26.2483 40.1829 26.1993 40.1696C24.9098 39.8845 23.8474 39.8856 22.5545 40.1796C22.5066 40.193 22.4632 40.1885 22.4576 40.1685C22.4521 40.1484 22.4855 40.1206 22.5345 40.1072Z" fill="url(#paint12_linear_2223_3408)"/>
<path d="M22.5492 40.1551C23.8465 39.8612 24.9134 39.86 26.2073 40.1462C26.2552 40.1596 26.2897 40.1863 26.2842 40.2053C26.2786 40.2242 26.2352 40.2286 26.1884 40.2153C24.9078 39.9313 23.8532 39.9324 22.5704 40.2275C22.5225 40.2409 22.4802 40.2364 22.4735 40.2164C22.4668 40.1963 22.5013 40.1685 22.5492 40.1551Z" fill="url(#paint13_linear_2223_3408)"/>
<path style="mix-blend-mode:screen" d="M22.4778 39.8889C23.8219 39.6016 24.9321 39.6038 26.2684 39.8934C26.3186 39.9067 26.3553 39.9323 26.3509 39.9513C26.3464 39.9691 26.303 39.9724 26.2529 39.9591C24.9277 39.6706 23.8264 39.6684 22.4945 39.9591C22.4455 39.9724 22.401 39.9691 22.3954 39.949C22.3909 39.9301 22.4266 39.9034 22.4767 39.89L22.4778 39.8889Z" fill="url(#paint14_linear_2223_3408)"/>
<path d="M22.4899 39.9349C23.8262 39.6464 24.9298 39.6476 26.2594 39.9371C26.3095 39.9504 26.3452 39.9772 26.3407 39.995C26.3362 40.0128 26.2928 40.0161 26.2438 40.0028C24.9253 39.7144 23.8329 39.7133 22.5077 40.0039C22.4587 40.0173 22.4142 40.0128 22.4097 39.9939C22.4042 39.9749 22.4409 39.9482 22.4899 39.9349Z" fill="url(#paint15_linear_2223_3408)"/>
<path style="mix-blend-mode:screen" d="M22.4312 39.6827C23.8053 39.401 24.9479 39.4065 26.312 39.6961C26.3632 39.7094 26.4011 39.735 26.3978 39.7517C26.3944 39.7684 26.3499 39.7718 26.2998 39.7573C24.9445 39.4678 23.812 39.4633 22.4468 39.7462C22.3955 39.7595 22.351 39.7562 22.3465 39.7384C22.3421 39.7206 22.3811 39.6949 22.4323 39.6816L22.4312 39.6827Z" fill="url(#paint16_linear_2223_3408)"/>
<path d="M22.4398 39.7261C23.8084 39.4432 24.9443 39.4477 26.3029 39.7383C26.3541 39.7517 26.3919 39.7773 26.3875 39.7951C26.3842 39.8129 26.3396 39.8152 26.2895 39.8018C24.9398 39.5123 23.814 39.5078 22.4554 39.7929C22.4042 39.8062 22.3608 39.8029 22.3563 39.784C22.3519 39.7662 22.3897 39.7394 22.4409 39.7272L22.4398 39.7261Z" fill="url(#paint17_linear_2223_3408)"/>
<path style="mix-blend-mode:screen" d="M22.3909 39.4873C23.7829 39.2044 24.9599 39.2111 26.3452 39.5095C26.3976 39.5229 26.4366 39.5474 26.4343 39.5641C26.431 39.5808 26.3864 39.5819 26.3352 39.5685C24.9566 39.2701 23.7873 39.2645 22.4032 39.5485C22.3508 39.5619 22.3063 39.5585 22.3029 39.5418C22.2996 39.5251 22.3397 39.4995 22.392 39.4873H22.3909Z" fill="url(#paint18_linear_2223_3408)"/>
<path d="M22.3987 39.5283C23.7851 39.2443 24.9577 39.2499 26.3386 39.5484C26.3909 39.5617 26.4299 39.5862 26.4266 39.6029C26.4232 39.6196 26.3787 39.6219 26.3274 39.6074C24.9544 39.3089 23.7896 39.3034 22.411 39.5896C22.3586 39.6029 22.3141 39.5996 22.3107 39.5829C22.3074 39.5662 22.3464 39.5406 22.3987 39.5272V39.5283Z" fill="url(#paint19_linear_2223_3408)"/>
<path d="M11.617 20.9541L10.9688 12.2949C10.951 12.2971 10.9343 12.2993 10.9165 12.2993C10.8798 12.3004 10.8441 12.2993 10.8096 12.2949C10.8074 12.2949 10.804 12.2949 10.8018 12.2949C10.7662 12.2904 10.7316 12.2826 10.6982 12.2715L10.8118 21.3004C11.1181 21.169 11.4644 21.0198 11.7795 20.8862C11.7261 20.9085 11.6726 20.9318 11.6181 20.9552L11.617 20.9541Z" fill="#2D3246"/>
<path d="M11.1324 12.2521C11.1068 12.2621 11.0812 12.271 11.0534 12.2777C11.0534 12.2777 11.0523 12.2777 11.0512 12.2777C11.0244 12.2844 10.9966 12.29 10.9688 12.2933L11.6169 20.9525C11.6714 20.9292 11.7249 20.9069 11.7783 20.8835L11.1324 12.251V12.2521Z" fill="#141E28"/>
<path d="M11.5377 11.6219C11.5533 11.9804 11.2749 12.2833 10.9174 12.2989C10.56 12.3145 10.256 12.0361 10.2404 11.6787C10.2248 11.3212 10.5032 11.0172 10.8606 11.0016C11.2181 10.986 11.5221 11.2644 11.5377 11.6219Z" fill="url(#paint20_linear_2223_3408)"/>
<path style="mix-blend-mode:multiply" opacity="0.4" d="M10.9824 11.0127C11.1706 11.0951 11.3009 11.2822 11.321 11.4982C11.3477 11.7978 11.0804 12.065 10.7898 12.0784C10.5337 12.0895 10.3243 11.9258 10.2441 11.7009C10.2831 12.0205 10.5626 12.261 10.89 12.2477C11.2341 12.2332 11.5003 11.9414 11.4858 11.5984C11.4735 11.3056 11.2597 11.0684 10.9847 11.0138L10.9824 11.0127Z" fill="url(#paint21_linear_2223_3408)"/>
<path d="M10.8789 11.4258C10.8833 11.5349 10.7987 11.6274 10.6896 11.6318C10.5804 11.6363 10.488 11.5516 10.4836 11.4425C10.4791 11.3334 10.5637 11.241 10.6729 11.2365C10.782 11.232 10.8744 11.3167 10.8789 11.4258Z" fill="white"/>
<path style="mix-blend-mode:multiply" opacity="0.4" d="M10.8598 11.0007C10.5012 11.0163 10.2228 11.3203 10.2395 11.6778C10.2562 12.0352 10.558 12.3147 10.9165 12.298C11.2751 12.2813 11.5524 11.9796 11.5368 11.621C11.5212 11.2624 11.2183 10.984 10.8598 11.0007ZM10.7818 11.9272C10.5479 11.9372 10.3664 11.7535 10.3464 11.5274C10.3263 11.3025 10.5268 11.1009 10.7462 11.092C10.98 11.082 11.1615 11.2657 11.1816 11.4918C11.2016 11.7167 11.0012 11.9183 10.7818 11.9272Z" fill="url(#paint22_linear_2223_3408)"/>
</g>
<defs>
<filter id="filter0_f_2223_3408" x="13.9058" y="10.9946" width="29.4722" height="29.4722" filterUnits="userSpaceOnUse" color-interpolation-filters="sRGB">
<feFlood flood-opacity="0" result="BackgroundImageFix"/>
<feBlend mode="normal" in="SourceGraphic" in2="BackgroundImageFix" result="shape"/>
<feGaussianBlur stdDeviation="5" result="effect1_foregroundBlur_2223_3408"/>
</filter>
<filter id="filter1_f_2223_3408" x="5.35791" y="10.9946" width="29.4722" height="29.4722" filterUnits="userSpaceOnUse" color-interpolation-filters="sRGB">
<feFlood flood-opacity="0" result="BackgroundImageFix"/>
<feBlend mode="normal" in="SourceGraphic" in2="BackgroundImageFix" result="shape"/>
<feGaussianBlur stdDeviation="5" result="effect1_foregroundBlur_2223_3408"/>
</filter>
<linearGradient id="paint0_linear_2223_3408" x1="17.7515" y1="38.4189" x2="30.9853" y2="51.6539" gradientUnits="userSpaceOnUse">
<stop stop-color="#F3F6FA"/>
<stop offset="0.19" stop-color="#EAEFF5"/>
<stop offset="0.48" stop-color="#D2DDE9"/>
<stop offset="0.86" stop-color="#ABC0D6"/>
<stop offset="1" stop-color="#9BB4CF"/>
</linearGradient>
<linearGradient id="paint1_linear_2223_3408" x1="11.2495" y1="21.0029" x2="11.2495" y2="25.8448" gradientUnits="userSpaceOnUse">
<stop stop-color="#00E3D4"/>
<stop offset="1" stop-color="#0071BC"/>
</linearGradient>
<linearGradient id="paint2_linear_2223_3408" x1="15.4404" y1="15.3506" x2="33.2968" y2="33.208" gradientUnits="userSpaceOnUse">
<stop stop-color="#F3F6FA"/>
<stop offset="0.19" stop-color="#EAEFF5"/>
<stop offset="0.48" stop-color="#D2DDE9"/>
<stop offset="0.86" stop-color="#ABC0D6"/>
<stop offset="1" stop-color="#9BB4CF"/>
</linearGradient>
<linearGradient id="paint3_linear_2223_3408" x1="24.369" y1="11.6523" x2="24.369" y2="15.8695" gradientUnits="userSpaceOnUse">
<stop stop-color="#00E3D4"/>
<stop offset="1" stop-color="#0071BC"/>
</linearGradient>
<linearGradient id="paint4_linear_2223_3408" x1="26.009" y1="41.5072" x2="21.4822" y2="49.3469" gradientUnits="userSpaceOnUse">
<stop stop-color="#00E3D4"/>
<stop offset="1" stop-color="#0071BC"/>
</linearGradient>
<linearGradient id="paint5_linear_2223_3408" x1="25.3074" y1="43.2601" x2="32.0224" y2="49.975" gradientUnits="userSpaceOnUse">
<stop stop-color="#F3F6FA"/>
<stop offset="0.19" stop-color="#EAEFF5"/>
<stop offset="0.48" stop-color="#D2DDE9"/>
<stop offset="0.86" stop-color="#ABC0D6"/>
<stop offset="1" stop-color="#9BB4CF"/>
</linearGradient>
<linearGradient id="paint6_linear_2223_3408" x1="24.3685" y1="18.9846" x2="24.3685" y2="17.6038" gradientUnits="userSpaceOnUse">
<stop stop-color="#F3F6FA"/>
<stop offset="0.19" stop-color="#EAEFF5"/>
<stop offset="0.48" stop-color="#D2DDE9"/>
<stop offset="0.86" stop-color="#ABC0D6"/>
<stop offset="1" stop-color="#9BB4CF"/>
</linearGradient>
<radialGradient id="paint7_radial_2223_3408" cx="0" cy="0" r="1" gradientUnits="userSpaceOnUse" gradientTransform="translate(28.6419 25.7305) rotate(135.466) scale(3.1869)">
<stop stop-color="#00E3D4"/>
<stop offset="1" stop-color="#00E3D4" stop-opacity="0"/>
</radialGradient>
<radialGradient id="paint8_radial_2223_3408" cx="0" cy="0" r="1" gradientUnits="userSpaceOnUse" gradientTransform="translate(20.094 25.7305) rotate(39.9582) scale(3.39287)">
<stop stop-color="#00E3D4"/>
<stop offset="1" stop-color="#00E3D4" stop-opacity="0"/>
</radialGradient>
<linearGradient id="paint9_linear_2223_3408" x1="23.6579" y1="23.6634" x2="33.6768" y2="32.0698" gradientUnits="userSpaceOnUse">
<stop stop-color="#F3F6FA"/>
<stop offset="0.19" stop-color="#EAEFF5"/>
<stop offset="0.48" stop-color="#D2DDE9"/>
<stop offset="0.86" stop-color="#ABC0D6"/>
<stop offset="1" stop-color="#9BB4CF"/>
</linearGradient>
<linearGradient id="paint10_linear_2223_3408" x1="24.382" y1="40.3057" x2="24.3831" y2="40.1008" gradientUnits="userSpaceOnUse">
<stop stop-color="#9BB4CF"/>
<stop offset="0.14" stop-color="#ABC0D6"/>
<stop offset="0.52" stop-color="#D2DDE9"/>
<stop offset="0.81" stop-color="#EAEFF5"/>
<stop offset="1" stop-color="#F3F6FA"/>
</linearGradient>
<linearGradient id="paint11_linear_2223_3408" x1="24.3833" y1="40.3564" x2="24.3844" y2="40.1493" gradientUnits="userSpaceOnUse">
<stop stop-color="#323D57"/>
<stop offset="0.34" stop-color="#2B354E"/>
<stop offset="0.88" stop-color="#1B2236"/>
<stop offset="1" stop-color="#171E30"/>
</linearGradient>
<linearGradient id="paint12_linear_2223_3408" x1="24.3786" y1="40.076" x2="24.3797" y2="39.8767" gradientUnits="userSpaceOnUse">
<stop stop-color="#9BB4CF"/>
<stop offset="0.14" stop-color="#ABC0D6"/>
<stop offset="0.52" stop-color="#D2DDE9"/>
<stop offset="0.81" stop-color="#EAEFF5"/>
<stop offset="1" stop-color="#F3F6FA"/>
</linearGradient>
<linearGradient id="paint13_linear_2223_3408" x1="24.3788" y1="40.124" x2="24.3811" y2="39.9235" gradientUnits="userSpaceOnUse">
<stop stop-color="#323D57"/>
<stop offset="0.34" stop-color="#2B354E"/>
<stop offset="0.88" stop-color="#1B2236"/>
<stop offset="1" stop-color="#171E30"/>
</linearGradient>
<linearGradient id="paint14_linear_2223_3408" x1="24.3754" y1="39.8588" x2="24.3765" y2="39.6651" gradientUnits="userSpaceOnUse">
<stop stop-color="#9BB4CF"/>
<stop offset="0.14" stop-color="#ABC0D6"/>
<stop offset="0.52" stop-color="#D2DDE9"/>
<stop offset="0.81" stop-color="#EAEFF5"/>
<stop offset="1" stop-color="#F3F6FA"/>
</linearGradient>
<linearGradient id="paint15_linear_2223_3408" x1="24.3752" y1="39.9037" x2="24.3763" y2="39.7099" gradientUnits="userSpaceOnUse">
<stop stop-color="#323D57"/>
<stop offset="0.34" stop-color="#2B354E"/>
<stop offset="0.88" stop-color="#1B2236"/>
<stop offset="1" stop-color="#171E30"/>
</linearGradient>
<linearGradient id="paint16_linear_2223_3408" x1="24.3722" y1="39.6526" x2="24.3733" y2="39.4667" gradientUnits="userSpaceOnUse">
<stop stop-color="#9BB4CF"/>
<stop offset="0.14" stop-color="#ABC0D6"/>
<stop offset="0.52" stop-color="#D2DDE9"/>
<stop offset="0.81" stop-color="#EAEFF5"/>
<stop offset="1" stop-color="#F3F6FA"/>
</linearGradient>
<linearGradient id="paint17_linear_2223_3408" x1="24.373" y1="39.696" x2="24.3741" y2="39.5078" gradientUnits="userSpaceOnUse">
<stop stop-color="#323D57"/>
<stop offset="0.34" stop-color="#2B354E"/>
<stop offset="0.88" stop-color="#1B2236"/>
<stop offset="1" stop-color="#171E30"/>
</linearGradient>
<linearGradient id="paint18_linear_2223_3408" x1="24.3697" y1="39.4561" x2="24.3709" y2="39.2723" gradientUnits="userSpaceOnUse">
<stop stop-color="#9BB4CF"/>
<stop offset="0.14" stop-color="#ABC0D6"/>
<stop offset="0.52" stop-color="#D2DDE9"/>
<stop offset="0.81" stop-color="#EAEFF5"/>
<stop offset="1" stop-color="#F3F6FA"/>
</linearGradient>
<linearGradient id="paint19_linear_2223_3408" x1="24.3698" y1="39.4971" x2="24.3709" y2="39.3112" gradientUnits="userSpaceOnUse">
<stop stop-color="#323D57"/>
<stop offset="0.34" stop-color="#2B354E"/>
<stop offset="0.88" stop-color="#1B2236"/>
<stop offset="1" stop-color="#171E30"/>
</linearGradient>
<linearGradient id="paint20_linear_2223_3408" x1="10.4136" y1="11.2143" x2="11.3668" y2="12.0878" gradientUnits="userSpaceOnUse">
<stop stop-color="#F3F6FA"/>
<stop offset="0.19" stop-color="#EAEFF5"/>
<stop offset="0.48" stop-color="#D2DDE9"/>
<stop offset="0.86" stop-color="#ABC0D6"/>
<stop offset="1" stop-color="#9BB4CF"/>
</linearGradient>
<linearGradient id="paint21_linear_2223_3408" x1="10.4059" y1="11.2068" x2="11.3197" y2="12.0441" gradientUnits="userSpaceOnUse">
<stop stop-color="#F3F6FA"/>
<stop offset="0.19" stop-color="#EAEFF5"/>
<stop offset="0.48" stop-color="#D2DDE9"/>
<stop offset="0.86" stop-color="#ABC0D6"/>
<stop offset="1" stop-color="#9BB4CF"/>
</linearGradient>
<linearGradient id="paint22_linear_2223_3408" x1="10.6414" y1="11.423" x2="11.3845" y2="12.1051" gradientUnits="userSpaceOnUse">
<stop stop-color="#F3F6FA"/>
<stop offset="0.19" stop-color="#EAEFF5"/>
<stop offset="0.48" stop-color="#D2DDE9"/>
<stop offset="0.86" stop-color="#ABC0D6"/>
<stop offset="1" stop-color="#9BB4CF"/>
</linearGradient>
</defs>
</svg>
