<svg width="149" height="132" viewBox="0 0 149 132" fill="none" xmlns="http://www.w3.org/2000/svg">
<path d="M145.068 46.0938H34.4718C32.688 46.0938 31.2427 47.5412 31.2427 49.3241V115.67C31.2427 117.45 32.688 118.898 34.4718 118.898H78.7366V124.17H56.5C55.0429 124.17 53.8643 125.347 53.8643 126.806V128.783C53.8643 130.237 55.0429 131.416 56.5 131.416H123.041C124.498 131.416 125.677 130.237 125.677 128.783V126.806C125.677 125.347 124.498 124.17 123.041 124.17H100.804V118.898H145.068C146.851 118.898 148.297 117.45 148.297 115.67V49.3241C148.297 47.5412 146.851 46.0938 145.068 46.0938Z" fill="#A6A6A6"/>
<path d="M141.401 112.411H38.478V51.668H141.401V112.411Z" fill="#FEFEFE"/>
<path d="M123.979 106.678H116.163V61.1289H123.979V106.678Z" fill="#103557"/>
<path d="M111.952 106.681H104.136V65.7461H111.952V106.681Z" fill="#0D2235"/>
<path d="M99.9272 106.669H92.1104V69.8398H99.9272V106.669Z" fill="#038477"/>
<path d="M87.8981 106.675H80.0825V79.4258H87.8981V106.675Z" fill="#ACC7E2"/>
<path d="M75.8745 106.676H68.0576V73.9727H75.8745V106.676Z" fill="#A6A6A6"/>
<path d="M63.8469 106.674H56.0312V73.7539H63.8469V106.674Z" fill="#ACC7E2"/>
<path d="M19.4609 64.0552L20.1585 61.0011C21.061 60.9531 21.9331 60.8212 22.7547 60.5726L24.4236 63.2008C24.7801 63.7655 25.5308 63.937 26.0974 63.5832L29.7858 61.2872C30.3557 60.9065 30.5218 60.1796 30.1736 59.5895L28.5015 56.9631C29.1108 56.3124 29.6089 55.5842 30.0446 54.7894L33.0988 55.487C33.7547 55.6369 34.3852 55.2204 34.5344 54.5673L35.5035 50.3246C35.6534 49.6687 35.2608 49.0433 34.605 48.8935L31.5508 48.1958C31.5029 47.293 31.3704 46.4208 31.1045 45.5679L33.7566 43.9042C34.321 43.5477 34.4925 42.797 34.139 42.2304L31.8129 38.5627C31.462 37.972 30.7113 37.8005 30.139 38.1804L27.495 39.8211C26.8623 39.2429 26.134 38.7455 25.3424 38.3079L26.04 35.2538C26.1893 34.6003 25.7765 33.943 25.1227 33.7936L20.8797 32.8244C20.2241 32.6746 19.5692 33.0881 19.4199 33.7415L18.7277 36.7718C17.8427 36.8515 16.9709 36.9834 16.1237 37.2236L14.454 34.5974C14.1053 34.0072 13.3525 33.8352 12.7823 34.2155L9.09499 36.5095C8.5278 36.8658 8.35632 37.6165 8.71263 38.1834L10.3766 40.833C9.79273 41.4917 9.27142 42.2146 8.8341 43.0066L5.80352 42.3143C5.15005 42.165 4.50077 42.5524 4.35095 43.2083L3.38178 47.451C3.23257 48.1042 3.64387 48.7586 4.29734 48.9079L7.32792 49.6001C7.40099 50.5112 7.53315 51.3834 7.77901 52.2043L5.1296 53.8687C4.55704 54.2485 4.391 54.9753 4.74179 55.5664L7.06684 59.236C7.42122 59.8002 8.17403 59.9722 8.73855 59.6179L11.3834 57.9751C12.0418 58.5617 12.7698 59.0591 13.5384 59.4888L12.8407 62.543C12.691 63.1986 13.1019 63.8532 13.7575 64.003L18.0005 64.9722C18.6543 65.1215 19.3111 64.7108 19.4609 64.0552ZM12.2992 47.2684C13.1965 43.3406 17.134 40.8471 21.0856 41.7497C25.0134 42.647 27.4755 46.6024 26.5783 50.5302C25.681 54.4579 21.7516 56.9257 17.8239 56.0285C13.8723 55.1258 11.402 51.1961 12.2992 47.2684Z" fill="#B16848"/>
<path d="M39.1022 43.8666L42.4311 41.5977C43.3624 42.3469 44.349 43.0003 45.3768 43.5338L44.6426 47.4934C44.4788 48.3574 45.0397 49.1803 45.9175 49.3639L51.5158 50.424C52.3996 50.574 53.2225 50.0131 53.386 49.1493L54.1518 45.1975C55.3023 45.0745 56.4591 44.827 57.6013 44.4717L59.8704 47.8009C60.3737 48.5394 61.3625 48.7092 62.0807 48.2197L66.8066 44.9987C67.5473 44.4938 67.7505 43.5115 67.2472 42.7731L64.9782 39.4439C65.7414 38.5327 66.3795 37.5247 66.9146 36.4987L70.8531 37.2443C71.7369 37.3943 72.5595 36.8336 72.7231 35.9698L73.8034 30.3577C73.9532 29.4737 73.3924 28.6508 72.5285 28.4872L68.555 27.7363C68.4542 26.571 68.2063 25.4141 67.8494 24.2734L71.1783 22.0045C71.8988 21.5134 72.0884 20.5112 71.5987 19.7927L68.3776 15.0668C67.873 14.3263 66.8708 14.1363 66.1503 14.6274L62.8214 16.8963C61.8901 16.1471 60.9054 15.4954 59.8576 14.9755L60.6237 11.0204C60.7737 10.1366 60.2142 9.3158 59.3504 9.15222L53.7181 8.08566C52.8543 7.92208 52.0317 8.48277 51.8481 9.36019L51.1157 13.3185C49.9515 13.4215 48.7936 13.6668 47.6528 14.0241L45.3837 10.6949C44.8941 9.97649 43.8919 9.78649 43.1512 10.2913L38.4253 13.5124C37.7071 14.0019 37.5172 15.0043 38.0069 15.7228L40.276 19.052C39.5263 19.9831 38.8744 20.9714 38.3529 22.0173L34.3811 21.2652C33.5173 21.1016 32.6944 21.6625 32.5108 22.5399L31.4645 28.1584C31.3007 29.0224 31.8601 29.8432 32.7378 30.0266L36.6795 30.773C36.8002 31.9247 37.0462 33.0799 37.4031 34.2206L34.0742 36.4895C33.334 36.994 33.1641 37.9828 33.6688 38.7233L36.8899 43.4492C37.3795 44.1677 38.362 44.3711 39.1022 43.8666ZM47.2089 21.2772C51.5857 18.2941 57.5993 19.4329 60.596 23.8297C63.5805 28.2085 62.4402 34.2198 58.0634 37.2029C53.6663 40.1998 47.6548 39.063 44.6703 34.6841C41.6736 30.2874 42.8119 24.2741 47.2089 21.2772Z" fill="#B16848"/>
<path d="M52.3969 68.5467L51.1685 66.6849C51.5609 66.2001 51.9265 65.6644 52.2148 65.1084L54.4101 65.5541C54.8775 65.6616 55.3365 65.3425 55.446 64.8765L56.0517 61.8262C56.1453 61.3786 55.84 60.8995 55.3588 60.8122L53.1973 60.3604C53.1489 59.7247 53.0183 59.1237 52.8315 58.5139L54.6916 57.2874C55.0898 57.015 55.2056 56.4914 54.934 56.0971L53.2243 53.4838C52.9725 53.1031 52.4156 52.9934 52.019 53.2639L50.1711 54.4725C49.6862 54.0797 49.1727 53.7293 48.5966 53.4272L49.0622 51.2459C49.1497 50.7645 48.8508 50.3194 48.3694 50.2319L45.3342 49.6042C44.8667 49.4967 44.4078 49.8158 44.3122 50.262L43.8683 52.4586C43.2328 52.5067 42.6117 52.6239 42.0223 52.8243L40.7934 50.9626C40.523 50.5665 39.9996 50.4504 39.5831 50.7073L36.9921 52.4315C36.6092 52.6821 36.4795 53.2255 36.7501 53.622L37.9785 55.4838C37.5679 55.9563 37.2177 56.4695 36.9135 57.0442L34.7541 56.5938C34.2708 56.5051 33.8257 56.804 33.7168 57.2735L33.0926 60.308C33.0051 60.7895 33.3019 61.2332 33.7703 61.3443L35.9449 61.7724C36.0133 62.4218 36.1321 63.0444 36.3103 63.619L34.4489 64.8474C34.0524 65.1179 33.9583 65.6563 34.1955 66.0589L35.9198 68.6503C36.1903 69.0468 36.7137 69.1629 37.1302 68.906L38.9699 67.6621C39.4644 68.0881 39.9779 68.4386 40.5326 68.7286L40.1018 70.9022C39.9929 71.3717 40.3122 71.8303 40.7596 71.9242L43.8162 72.5635C44.2763 72.6394 44.7412 72.3544 44.8299 71.8711L45.2809 69.7113C45.9302 69.643 46.5325 69.5099 47.1269 69.3456L48.3555 71.2071C48.6258 71.6035 49.1647 71.6975 49.5589 71.4254L52.1373 69.7245C52.5547 69.4656 52.6486 68.9274 52.3969 68.5467ZM43.5265 66.1942C40.697 65.6184 38.8861 62.8479 39.4483 60.0383C40.0224 57.2107 42.8082 55.3779 45.6379 55.9535C48.4301 56.5361 50.2768 59.3021 49.6824 62.1159C49.1047 64.9438 46.354 66.7686 43.5265 66.1942Z" fill="#B16848"/>
</svg>
