<svg width="405" height="551" viewBox="0 0 405 551" fill="none" xmlns="http://www.w3.org/2000/svg">
<g clip-path="url(#clip0_728_1179)">
<mask id="mask0_728_1179" style="mask-type:luminance" maskUnits="userSpaceOnUse" x="-32" y="0" width="525" height="552">
<path d="M492.235 0H-32V551.279H492.235V0Z" fill="white"/>
</mask>
<g mask="url(#mask0_728_1179)">
<path d="M358.657 239.841C356.445 239.776 354.099 239.859 351.695 240.172C337.188 242.063 326.378 255.167 326.405 270.539C326.415 275.016 326.868 280.026 328.205 285.013C332.253 300.114 333.502 313.428 333.035 319.91L346.588 327.57C346.588 327.57 352.862 318.091 358.922 314.002C364.983 309.913 385.16 298.983 393.147 287.746C398.297 280.501 399.286 265.634 387.011 252.631C379.512 244.687 369.298 240.156 358.657 239.841Z" fill="#3968E2"/>
<path d="M326.62 336.398L338.863 343.357L330.893 354.001L322.732 350.1L326.62 336.398Z" fill="#455A63"/>
<path d="M327.214 336.822C327.105 336.782 328.319 332.96 329.927 328.288C331.534 323.614 332.925 319.861 333.033 319.903C333.142 319.944 331.928 323.764 330.319 328.437C328.712 333.11 327.322 336.864 327.214 336.822Z" fill="#253138"/>
<path d="M338.092 342.836C337.992 342.774 339.909 339.164 342.375 334.774C344.841 330.382 346.92 326.873 347.019 326.934C347.119 326.996 345.202 330.606 342.736 334.997C340.271 339.387 338.191 342.897 338.092 342.836Z" fill="#253138"/>
<path d="M362.739 240.241C362.191 240.274 355.454 248.567 352.474 254.179C342.447 273.061 341.997 291.437 339.215 312.864C338.816 315.925 337.369 322.525 337.397 322.371C338.88 323.595 343.866 326.029 343.866 326.029C343.866 326.029 348.568 320.06 350.437 317.059C357.918 305.04 366.041 295.671 372.445 282.981C378.851 270.293 385.015 259.041 379.088 246.098C379.088 246.098 368.822 239.884 362.739 240.241Z" fill="#28C7B7"/>
<path d="M393.199 289.636C393.189 289.64 393.129 289.5 393.024 289.228C392.91 288.959 392.782 288.545 392.555 288.033C392.114 287.001 391.391 285.519 390.19 283.847C388.983 282.189 387.303 280.317 384.989 278.743C382.712 277.136 379.781 275.861 376.458 275.423L376.378 275.413L376.329 275.343C374.771 273.135 372.985 270.856 370.859 268.741C368.736 266.632 366.251 264.691 363.391 263.334C360.538 261.996 357.466 261.401 354.566 261.564C351.666 261.718 348.946 262.688 346.841 264.271L346.72 264.364L346.607 264.259C344.091 261.931 341.076 260.728 338.359 260.404C335.623 260.072 333.196 260.602 331.345 261.344C329.48 262.09 328.166 263.04 327.317 263.728C326.893 264.077 326.577 264.36 326.372 264.56C326.164 264.755 326.052 264.853 326.044 264.846C326.037 264.838 326.135 264.725 326.33 264.514C326.523 264.298 326.827 263.998 327.242 263.632C328.074 262.907 329.384 261.914 331.264 261.124C333.128 260.34 335.596 259.767 338.393 260.079C341.17 260.382 344.262 261.586 346.856 263.962L346.622 263.95C348.78 262.307 351.576 261.301 354.543 261.137C357.511 260.962 360.648 261.565 363.563 262.933C366.476 264.315 368.997 266.29 371.139 268.43C373.285 270.574 375.076 272.879 376.632 275.109L376.502 275.031C379.892 275.495 382.865 276.815 385.161 278.47C387.496 280.088 389.177 282.01 390.37 283.705C391.558 285.416 392.255 286.93 392.664 287.983C392.876 288.507 392.986 288.931 393.08 289.208C393.169 289.487 393.209 289.633 393.199 289.636Z" fill="#253138"/>
<path d="M368.006 308.454C367.923 308.484 367.939 307.165 366.837 305.357C366.281 304.479 365.45 303.481 364.235 302.731C363.049 301.958 361.462 301.439 359.75 301.612L359.58 301.63L359.554 301.453C359.283 299.622 358.562 297.674 357.331 295.948C356.106 294.231 354.392 292.697 352.303 291.843C350.588 291.125 348.761 290.874 347.045 290.996C345.327 291.125 343.723 291.639 342.363 292.388L342.235 292.458L342.134 292.346C340.78 290.82 339.032 289.963 337.429 289.665C335.819 289.323 334.351 289.495 333.209 289.805C330.892 290.469 329.905 291.646 329.859 291.553C329.853 291.545 329.913 291.48 330.038 291.361C330.168 291.248 330.345 291.058 330.613 290.861C331.14 290.459 331.979 289.939 333.149 289.577C334.312 289.226 335.819 289.016 337.485 289.342C339.145 289.623 340.975 290.487 342.413 292.079L342.185 292.038C343.585 291.251 345.24 290.71 347.015 290.569C348.787 290.434 350.678 290.69 352.457 291.434C354.627 292.323 356.399 293.916 357.654 295.696C358.917 297.486 359.647 299.504 359.909 301.397L359.713 301.238C361.524 301.073 363.174 301.646 364.389 302.468C365.633 303.27 366.468 304.32 367.014 305.24C367.556 306.174 367.795 307.004 367.911 307.571C367.97 307.854 367.979 308.079 367.998 308.227C368.012 308.376 368.016 308.453 368.006 308.454Z" fill="#253138"/>
<path d="M336.495 346.711C336.464 346.736 336.362 346.535 336.046 346.398C335.731 346.259 335.221 346.24 334.614 346.444C334.304 346.531 333.952 346.651 333.531 346.653C333.11 346.66 332.643 346.446 332.321 346.091C331.671 345.38 331.424 344.351 330.81 343.64C330.505 343.293 330.107 343.113 329.681 343.141C329.256 343.157 328.83 343.305 328.406 343.409C327.983 343.515 327.535 343.582 327.122 343.481C326.713 343.389 326.378 343.176 326.119 342.941C325.6 342.462 325.372 341.898 325.313 341.51C325.25 341.117 325.31 340.9 325.331 340.902C325.366 340.903 325.365 341.118 325.471 341.468C325.571 341.815 325.822 342.304 326.306 342.7C326.547 342.894 326.847 343.063 327.19 343.123C327.528 343.192 327.909 343.128 328.313 343.015C328.719 342.909 329.153 342.74 329.665 342.709C330.18 342.662 330.753 342.911 331.113 343.338C331.826 344.19 332.049 345.202 332.599 345.809C332.865 346.108 333.196 346.276 333.54 346.287C333.885 346.302 334.226 346.212 334.544 346.141C335.184 345.967 335.783 346.03 336.118 346.245C336.461 346.458 336.513 346.71 336.495 346.711Z" fill="#253138"/>
<path d="M337.901 344.647C337.847 344.754 335.172 343.366 331.928 341.546C328.683 339.726 326.097 338.164 326.151 338.057C326.205 337.949 328.879 339.338 332.125 341.158C335.369 342.978 337.954 344.54 337.901 344.647Z" fill="#253138"/>
<path d="M335.469 347.888C335.475 347.922 335.298 347.977 335.001 348.121C334.852 348.191 334.681 348.298 334.448 348.398C334.215 348.499 333.913 348.537 333.605 348.514C332.993 348.468 332.24 348.267 331.587 347.695C331.263 347.417 330.989 347.011 330.819 346.583C330.638 346.163 330.497 345.731 330.225 345.424C329.665 344.795 328.759 344.728 328.008 344.755C327.235 344.785 326.473 344.809 325.878 344.542C325.291 344.283 324.935 343.846 324.802 343.503C324.665 343.156 324.714 342.943 324.734 342.945C324.77 342.941 324.783 343.142 324.948 343.425C325.107 343.705 325.453 344.057 325.984 344.251C326.511 344.45 327.205 344.405 327.993 344.35C328.761 344.308 329.799 344.322 330.534 345.127C330.883 345.532 331.024 346.013 331.192 346.407C331.351 346.811 331.562 347.133 331.84 347.391C332.391 347.904 333.072 348.127 333.632 348.204C334.199 348.313 334.607 348.063 334.944 347.961C335.273 347.861 335.464 347.864 335.469 347.888Z" fill="#253138"/>
<path d="M321.493 245.449C323.015 238.545 321.078 242.153 324.748 233.573C328.399 224.984 333.148 215.899 338.429 206.567C339.758 204.239 341.071 201.938 342.365 199.672C343.661 197.411 344.944 195.17 346.332 193.057C349.087 188.816 352.045 184.949 354.962 181.368C357.877 177.784 360.77 174.492 363.494 171.433C366.227 168.379 368.822 165.581 371.292 163.134C376.221 158.218 380.632 154.74 383.751 152.48C385.31 151.342 386.544 150.502 387.39 149.944C387.796 149.68 388.114 149.471 388.354 149.315C388.573 149.177 388.687 149.109 388.692 149.117C388.698 149.125 388.592 149.208 388.382 149.362C388.15 149.53 387.841 149.752 387.446 150.036C386.622 150.623 385.403 151.492 383.864 152.652C380.785 154.963 376.426 158.476 371.544 163.412C369.097 165.87 366.521 168.675 363.807 171.74C361.099 174.809 358.224 178.108 355.325 181.691C352.426 185.271 349.487 189.13 346.752 193.352C345.377 195.457 344.106 197.679 342.808 199.945C341.516 202.211 340.205 204.511 338.877 206.838C333.602 216.163 328.85 225.219 325.184 233.772C321.504 242.314 323.415 238.66 321.853 245.531" fill="#B5B5B5"/>
<path d="M346.408 192.883C346.372 192.884 346.334 192.425 346.294 191.59C346.25 190.757 346.226 189.547 346.219 188.052C346.2 185.064 346.312 180.934 346.454 176.381C346.596 171.825 346.65 167.708 346.587 164.729C346.56 163.24 346.526 162.035 346.492 161.202C346.463 160.369 346.464 159.903 346.501 159.899C346.537 159.896 346.607 160.353 346.699 161.182C346.798 162.01 346.889 163.216 346.964 164.708C347.125 167.692 347.13 171.827 346.988 176.387C346.837 180.879 346.701 184.943 346.597 188.05C346.559 189.453 346.527 190.635 346.502 191.584C346.476 192.418 346.446 192.882 346.408 192.883Z" fill="#B5B5B5"/>
<path d="M383.411 190.611C383.406 190.647 382.886 190.646 381.95 190.61C381.015 190.58 379.663 190.528 377.99 190.519C374.644 190.473 370.018 190.574 364.917 190.909C359.814 191.253 355.206 191.762 351.884 192.227C350.219 192.448 348.879 192.664 347.951 192.806C347.022 192.953 346.507 193.017 346.499 192.982C346.492 192.945 346.998 192.813 347.918 192.604C348.837 192.398 350.174 192.127 351.836 191.857C355.155 191.296 359.774 190.726 364.893 190.38C370.009 190.044 374.652 190.004 378.004 190.145C379.681 190.203 381.035 190.31 381.968 190.404C382.9 190.504 383.413 190.574 383.411 190.611Z" fill="#B5B5B5"/>
<path d="M325.616 232.795C325.598 232.8 325.533 232.631 325.423 232.301C325.301 231.909 325.154 231.431 324.974 230.853C324.588 229.591 324.079 227.752 323.477 225.47C322.271 220.908 320.798 214.548 319.266 207.506C317.733 200.462 316.32 194.095 315.208 189.512C314.661 187.284 314.21 185.451 313.875 184.088C313.733 183.496 313.618 183.009 313.522 182.608C313.446 182.269 313.415 182.088 313.433 182.081C313.451 182.077 313.517 182.246 313.626 182.576C313.748 182.968 313.895 183.445 314.076 184.024C314.46 185.284 314.97 187.124 315.572 189.406C316.779 193.969 318.251 200.328 319.783 207.373C321.316 214.415 322.729 220.78 323.841 225.365C324.388 227.593 324.839 229.427 325.173 230.789C325.315 231.381 325.431 231.869 325.526 232.268C325.602 232.608 325.634 232.789 325.616 232.795Z" fill="#B5B5B5"/>
<path d="M375.524 223.156C375.527 223.175 375.353 223.222 375.022 223.295C374.631 223.377 374.152 223.476 373.571 223.596C372.232 223.859 370.422 224.214 368.222 224.644C363.707 225.531 357.484 226.828 350.608 228.27C343.731 229.715 337.49 230.954 332.957 231.747C330.69 232.145 328.854 232.447 327.579 232.631C326.991 232.711 326.507 232.777 326.112 232.833C325.776 232.873 325.598 232.885 325.596 232.867C325.594 232.849 325.766 232.801 326.096 232.727C326.487 232.646 326.966 232.548 327.549 232.427C328.889 232.164 330.696 231.81 332.896 231.379C337.411 230.492 343.636 229.195 350.513 227.752C357.389 226.309 363.628 225.068 368.163 224.276C370.43 223.878 372.266 223.576 373.54 223.393C374.128 223.312 374.612 223.244 375.007 223.19C375.343 223.15 375.521 223.138 375.524 223.156Z" fill="#B5B5B5"/>
<path d="M261.441 430.566L317.055 433.069L318.398 436.476L281.948 498.691L216.147 496.674L261.441 430.566Z" fill="#253138"/>
<path d="M213.651 490.612L279.849 494.589L314.423 438.164L290.146 440.24L228.697 462.995L213.651 490.612Z" fill="#DFDFDF"/>
<path d="M204.353 486.427L265.141 487.437C262.616 479.258 268.571 467.74 276.744 463.866C282.16 461.299 292.353 457.972 297.611 455.135C307.605 449.745 316.635 439.536 315.845 430.776L290.879 429.939L259.014 428.645C256.349 436.957 250.65 442.403 241.986 445.678C234.232 448.61 225.407 448.602 217.844 451.933C205.67 457.295 199.821 474.665 204.353 486.427Z" fill="#EBEBEB"/>
<path d="M204.354 486.423C204.354 486.423 204.296 486.287 204.201 486.011C204.103 485.72 203.964 485.31 203.785 484.778C203.573 484.241 203.449 483.537 203.267 482.708C203.049 481.886 202.976 480.901 202.848 479.797C202.694 477.585 202.715 474.821 203.331 471.67C203.949 468.533 205.123 464.998 207.229 461.525C207.775 460.673 208.299 459.772 208.979 458.955C209.308 458.542 209.617 458.099 209.974 457.692C210.344 457.298 210.718 456.898 211.097 456.495C211.461 456.075 211.881 455.709 212.312 455.347C212.742 454.986 213.159 454.595 213.614 454.247C214.567 453.619 215.491 452.882 216.574 452.39C220.785 450.157 225.818 449.215 231.058 448.216C233.685 447.714 236.39 447.188 239.107 446.402C241.81 445.595 244.535 444.519 247.12 443.011C248.419 442.273 249.674 441.41 250.86 440.432C252.056 439.464 253.176 438.365 254.179 437.136C256.222 434.707 257.761 431.754 258.797 428.563L258.853 428.395L259.024 428.4C267.486 428.74 276.368 429.095 285.573 429.464C294.779 429.844 304.313 430.107 314.072 430.451C314.672 430.472 315.27 430.493 315.852 430.511L316.072 430.519L316.092 430.748C316.259 432.773 315.908 434.787 315.287 436.656C315.004 437.608 314.571 438.487 314.175 439.379C313.705 440.23 313.267 441.1 312.72 441.893C310.648 445.148 307.992 447.873 305.189 450.265C302.363 452.642 299.296 454.615 296.101 456.169C292.895 457.685 289.648 458.921 286.468 460.158C283.289 461.394 280.146 462.567 277.161 463.933C275.696 464.65 274.29 465.467 273.071 466.543C272.425 467.027 271.886 467.641 271.296 468.185C270.776 468.802 270.196 469.363 269.735 470.022C267.772 472.554 266.297 475.424 265.484 478.423C264.623 481.401 264.527 484.551 265.334 487.365L265.415 487.65L265.137 487.645C246.725 487.301 231.535 487.017 220.93 486.819C215.645 486.706 211.505 486.619 208.67 486.559C207.271 486.523 206.196 486.493 205.454 486.475C204.728 486.452 204.354 486.423 204.354 486.423C204.354 486.423 204.728 486.408 205.455 486.41C206.197 486.415 207.272 486.421 208.672 486.431C211.508 486.464 215.648 486.513 220.934 486.576C231.54 486.73 246.731 486.951 265.144 487.219L264.949 487.498C264.104 484.582 264.205 481.34 265.077 478.298C265.901 475.234 267.397 472.312 269.392 469.729C269.864 469.057 270.45 468.483 270.981 467.852C271.582 467.296 272.132 466.671 272.792 466.172C274.033 465.075 275.482 464.227 276.975 463.494C279.986 462.111 283.128 460.935 286.305 459.694C289.483 458.455 292.725 457.215 295.902 455.709C299.055 454.171 302.092 452.215 304.886 449.864C307.656 447.495 310.278 444.801 312.313 441.604C312.85 440.824 313.276 439.972 313.736 439.138C314.123 438.267 314.548 437.407 314.821 436.484C315.424 434.669 315.758 432.729 315.599 430.797L315.837 431.032C315.254 431.013 314.656 430.991 314.057 430.972C304.297 430.627 294.763 430.362 285.556 429.973C276.35 429.594 267.468 429.228 259.006 428.879L259.231 428.716C258.172 431.958 256.599 434.969 254.511 437.441C253.487 438.693 252.344 439.809 251.126 440.791C249.918 441.784 248.642 442.656 247.324 443.402C244.7 444.924 241.948 446.006 239.214 446.814C236.472 447.599 233.756 448.12 231.125 448.614C225.882 449.595 220.879 450.52 216.722 452.705C215.655 453.184 214.744 453.905 213.801 454.52C213.351 454.86 212.938 455.245 212.512 455.599C212.086 455.955 211.671 456.314 211.309 456.726C210.933 457.123 210.562 457.515 210.194 457.903C209.841 458.303 209.533 458.74 209.205 459.149C208.53 459.952 208.007 460.842 207.462 461.683C205.363 465.109 204.175 468.609 203.541 471.718C202.909 474.84 202.865 477.585 202.995 479.786C203.111 480.884 203.171 481.863 203.377 482.684C203.546 483.51 203.657 484.216 203.858 484.754C204.021 485.291 204.147 485.703 204.237 485.997C204.321 486.276 204.354 486.423 204.354 486.423Z" fill="#253138"/>
<path d="M276.091 429.682C276.047 429.668 276.171 429.271 276.229 428.539C276.281 427.813 276.236 426.724 275.75 425.519C275.282 424.333 274.351 423.014 272.877 422.283C271.426 421.547 269.508 421.394 267.755 422.089C265.989 422.77 264.717 424.283 264.055 425.835C263.366 427.397 263.272 429.007 263.469 430.286C263.668 431.579 264.134 432.548 264.508 433.164C264.886 433.786 265.165 434.079 265.135 434.112C265.118 434.13 264.788 433.885 264.351 433.281C263.915 432.682 263.379 431.699 263.125 430.352C262.873 429.019 262.93 427.306 263.638 425.639C264.316 423.985 265.669 422.34 267.581 421.602C269.468 420.854 271.521 421.034 273.078 421.851C274.661 422.67 275.625 424.115 276.075 425.383C276.544 426.673 276.534 427.819 276.42 428.563C276.361 428.937 276.288 429.223 276.217 429.407C276.151 429.594 276.108 429.688 276.091 429.682Z" fill="#253138"/>
<path d="M285.618 429.682C285.574 429.668 285.697 429.271 285.756 428.539C285.808 427.813 285.763 426.724 285.278 425.519C284.81 424.333 283.877 423.014 282.403 422.283C280.952 421.547 279.036 421.394 277.282 422.089C275.516 422.77 274.244 424.283 273.581 425.835C272.892 427.397 272.798 429.007 272.997 430.286C273.196 431.579 273.661 432.548 274.035 433.164C274.412 433.786 274.693 434.079 274.662 434.112C274.645 434.13 274.315 433.885 273.877 433.281C273.442 432.682 272.906 431.699 272.652 430.352C272.4 429.019 272.458 427.306 273.165 425.639C273.842 423.985 275.197 422.34 277.107 421.602C278.995 420.854 281.049 421.034 282.604 421.851C284.188 422.67 285.152 424.115 285.603 425.383C286.071 426.673 286.061 427.819 285.946 428.563C285.887 428.937 285.815 429.223 285.744 429.407C285.677 429.594 285.634 429.688 285.618 429.682Z" fill="#253138"/>
<path d="M292.855 430.204C292.81 430.191 292.912 429.79 292.929 429.055C292.943 428.327 292.838 427.241 292.29 426.069C291.757 424.909 290.758 423.649 289.247 423.007C287.759 422.36 285.835 422.321 284.121 423.119C282.396 423.904 281.208 425.491 280.63 427.079C280.026 428.68 280.019 430.294 280.286 431.558C280.554 432.837 281.07 433.778 281.477 434.371C281.886 434.969 282.182 435.245 282.153 435.279C282.137 435.299 281.795 435.072 281.326 434.496C280.858 433.924 280.271 432.974 279.944 431.644C279.62 430.329 279.586 428.615 280.203 426.909C280.791 425.215 282.055 423.496 283.922 422.645C285.767 421.786 287.826 421.842 289.423 422.565C291.049 423.287 292.089 424.672 292.607 425.913C293.144 427.171 293.196 428.318 293.123 429.068C293.083 429.445 293.027 429.735 292.964 429.922C292.909 430.113 292.872 430.208 292.855 430.204Z" fill="#253138"/>
<path d="M300.61 430.663C300.564 430.653 300.646 430.246 300.628 429.511C300.605 428.783 300.446 427.705 299.839 426.565C299.249 425.437 298.186 424.234 296.646 423.676C295.127 423.113 293.204 423.18 291.534 424.074C289.85 424.954 288.742 426.604 288.245 428.222C287.723 429.855 287.798 431.467 288.127 432.716C288.459 433.977 289.022 434.886 289.459 435.456C289.898 436.031 290.208 436.291 290.179 436.325C290.166 436.347 289.813 436.14 289.314 435.589C288.82 435.045 288.184 434.13 287.792 432.82C287.401 431.524 287.281 429.815 287.811 428.076C288.312 426.354 289.487 424.565 291.31 423.61C293.109 422.65 295.169 422.592 296.8 423.225C298.459 423.857 299.568 425.183 300.148 426.392C300.747 427.619 300.857 428.76 300.82 429.512C300.799 429.892 300.757 430.183 300.707 430.376C300.66 430.567 300.627 430.666 300.61 430.663Z" fill="#253138"/>
<path d="M308.384 430.474C308.338 430.467 308.409 430.056 308.37 429.322C308.328 428.595 308.141 427.523 307.504 426.401C306.884 425.292 305.791 424.119 304.235 423.607C302.701 423.089 300.781 423.214 299.136 424.157C297.476 425.086 296.413 426.768 295.96 428.401C295.48 430.049 295.598 431.657 295.961 432.896C296.327 434.146 296.914 435.039 297.365 435.596C297.82 436.157 298.137 436.407 298.11 436.442C298.096 436.464 297.737 436.269 297.225 435.733C296.716 435.203 296.056 434.307 295.628 433.01C295.205 431.726 295.039 430.02 295.521 428.266C295.976 426.529 297.103 424.707 298.9 423.699C300.672 422.685 302.729 422.568 304.377 423.154C306.052 423.734 307.197 425.027 307.808 426.22C308.441 427.427 308.579 428.565 308.564 429.318C308.554 429.698 308.52 429.99 308.473 430.184C308.431 430.378 308.401 430.477 308.384 430.474Z" fill="#253138"/>
<path d="M314.935 431.394C314.889 431.384 314.976 430.978 314.965 430.242C314.951 429.514 314.803 428.434 314.209 427.286C313.632 426.152 312.583 424.936 311.049 424.36C309.536 423.778 307.613 423.821 305.933 424.694C304.239 425.553 303.113 427.189 302.598 428.801C302.057 430.427 302.114 432.04 302.429 433.292C302.748 434.558 303.3 435.475 303.73 436.048C304.164 436.628 304.469 436.892 304.441 436.927C304.428 436.948 304.077 436.737 303.584 436.18C303.095 435.629 302.47 434.706 302.093 433.392C301.716 432.092 301.617 430.382 302.167 428.649C302.685 426.932 303.881 425.158 305.714 424.227C307.523 423.289 309.584 423.257 311.209 423.911C312.861 424.562 313.955 425.901 314.519 427.118C315.106 428.353 315.203 429.494 315.158 430.245C315.133 430.626 315.087 430.917 315.034 431.108C314.985 431.3 314.952 431.398 314.935 431.394Z" fill="#253138"/>
<path d="M142.932 296.396C142.932 296.396 136.745 300.92 147.749 313.851C158.755 326.781 165.669 332.778 165.669 332.778C165.669 332.778 167.817 335.891 165.108 337.216C162.398 338.543 155.899 339.244 155.492 343.176C155.071 347.254 158.53 350.035 164.574 351.642C170.619 353.248 183.726 357.274 184.911 357.642C186.073 358.006 187.472 359.344 185.761 360.551C184.048 361.757 170.347 367.161 173.083 373.695C175.818 380.228 193.422 381.822 195.342 382.034C197.262 382.247 197.865 382.898 197.961 383.929C198.055 384.961 193.294 386.33 189.455 388.031C185.615 389.733 181.438 392.397 183.324 396.024C185.209 399.65 196.735 405.176 220.527 401.097L231.447 398.462L235.08 387.395C241.471 363.25 237.382 350.769 234.106 348.443C230.83 346.117 227.842 350.152 225.812 353.939C223.781 357.726 221.973 362.502 220.995 362.296C220.016 362.089 219.457 361.399 219.454 359.394C219.45 357.388 219.763 339.042 213.791 335.534C207.819 332.027 201.213 345.612 199.879 347.254C198.545 348.896 197.408 347.311 197.183 346.073C196.954 344.812 194.467 330.855 193.56 324.444C192.653 318.033 190.349 314.172 186.4 314.18C182.592 314.189 181.241 320.829 179.688 323.488C178.136 326.148 175.377 323.603 175.377 323.603C175.377 323.603 170.357 315.837 159.123 303.122C147.89 290.405 142.813 296.497 142.813 296.497" fill="#B5B5B5"/>
<path d="M232.705 401.114C224.483 391.729 210.146 374.788 197.763 360.311C185.385 345.84 174.164 332.748 165.991 323.32C161.906 318.618 158.597 314.81 156.3 312.166C155.164 310.857 154.278 309.835 153.667 309.129C153.376 308.788 153.15 308.523 152.987 308.333C152.836 308.153 152.767 308.055 152.767 308.055C152.767 308.055 152.855 308.135 153.014 308.309C153.183 308.492 153.417 308.749 153.718 309.08C154.341 309.774 155.243 310.78 156.401 312.069C158.726 314.667 162.065 318.453 166.174 323.147C174.395 332.533 185.646 345.597 198.025 360.07C210.408 374.547 224.714 391.513 232.888 400.942" fill="#DFDFDF"/>
<path d="M164.747 342.335C164.749 342.311 165.035 342.316 165.55 342.344C166.066 342.371 166.809 342.433 167.726 342.517C169.561 342.689 172.087 342.994 174.87 343.381C177.61 343.773 180.091 344.128 181.987 344.398C182.842 344.515 183.564 344.614 184.143 344.692C184.654 344.76 184.936 344.809 184.933 344.833C184.931 344.857 184.645 344.854 184.13 344.829C183.613 344.801 182.87 344.74 181.953 344.646C180.121 344.454 177.598 344.117 174.818 343.729C172.074 343.357 169.594 343.021 167.696 342.763C166.839 342.651 166.116 342.557 165.535 342.48C165.026 342.409 164.744 342.358 164.747 342.335Z" fill="#DFDFDF"/>
<path d="M185.39 344.075C185.293 344.066 185.781 338.558 186.479 331.773C187.177 324.985 187.821 319.492 187.918 319.501C188.014 319.51 187.527 325.017 186.829 331.805C186.13 338.589 185.486 344.084 185.39 344.075Z" fill="#DFDFDF"/>
<path d="M203.437 367.649C203.415 367.639 203.515 367.35 203.713 366.834C203.942 366.251 204.228 365.523 204.566 364.661C205.284 362.825 206.264 360.285 207.247 357.443C208.237 354.603 209.047 352.003 209.62 350.114C209.891 349.227 210.117 348.479 210.299 347.879C210.463 347.352 210.564 347.062 210.588 347.069C210.61 347.075 210.553 347.376 210.431 347.914C210.306 348.453 210.114 349.23 209.856 350.183C209.344 352.091 208.568 354.711 207.576 357.559C206.589 360.408 205.569 362.942 204.793 364.756C204.4 365.663 204.076 366.392 203.837 366.89C203.6 367.388 203.46 367.66 203.437 367.649Z" fill="#DFDFDF"/>
<path d="M184.407 370.251C184.403 370.227 184.667 370.163 185.145 370.07C185.697 369.972 186.376 369.851 187.176 369.708C188.892 369.417 191.268 369.038 193.895 368.641C196.522 368.244 198.903 367.905 200.629 367.675C201.435 367.575 202.118 367.49 202.675 367.422C203.159 367.369 203.428 367.352 203.431 367.375C203.434 367.398 203.172 367.461 202.692 367.554C202.14 367.653 201.461 367.775 200.662 367.917C198.944 368.207 196.569 368.586 193.942 368.983C191.315 369.381 188.935 369.721 187.209 369.95C186.404 370.05 185.719 370.135 185.164 370.204C184.679 370.256 184.41 370.273 184.407 370.251Z" fill="#DFDFDF"/>
<path d="M197.816 393.21C197.812 393.186 198.149 393.108 198.762 392.989C199.44 392.866 200.315 392.706 201.364 392.513C203.563 392.127 206.603 391.617 209.965 391.075C213.328 390.533 216.376 390.061 218.584 389.738C219.64 389.589 220.518 389.466 221.201 389.37C221.819 389.291 222.164 389.259 222.167 389.283C222.171 389.306 221.833 389.384 221.22 389.504C220.543 389.628 219.669 389.788 218.619 389.98C216.42 390.365 213.38 390.874 210.016 391.417C206.654 391.959 203.606 392.431 201.399 392.756C200.343 392.904 199.465 393.027 198.783 393.121C198.164 393.2 197.819 393.233 197.816 393.21Z" fill="#DFDFDF"/>
<path d="M221.435 389.196C221.413 389.187 221.529 388.817 221.76 388.156C222.014 387.435 222.346 386.493 222.746 385.359C223.577 382.998 224.713 379.732 225.867 376.093C227.029 372.454 227.996 369.133 228.681 366.725C229.011 365.568 229.284 364.607 229.494 363.872C229.689 363.199 229.808 362.83 229.83 362.835C229.853 362.841 229.78 363.222 229.626 363.907C229.47 364.59 229.232 365.576 228.919 366.79C228.294 369.216 227.362 372.554 226.199 376.199C225.041 379.845 223.867 383.104 222.976 385.446C222.527 386.615 222.156 387.558 221.886 388.204C221.616 388.852 221.457 389.205 221.435 389.196Z" fill="#DFDFDF"/>
<path d="M101.389 280.409L105.349 287.079C105.349 287.079 122.243 270.731 139.001 275.353C139.001 275.353 123.94 261.923 101.389 280.409Z" fill="#084640"/>
<path d="M139.002 275.362C139.002 275.362 151.403 261.202 169.586 264.431L174.545 265.217L172.961 262.206C172.961 262.206 141.337 250.815 139.002 275.362Z" fill="#084640"/>
<path d="M112.828 227.605C112.828 227.605 87.9896 223.11 71.6963 232.38L97.5646 283.599C97.5646 283.599 118.741 262.135 139.001 275.353L112.828 227.605Z" fill="#F5F5F5"/>
<path d="M112.827 227.608C112.831 227.603 112.876 227.673 112.959 227.817C113.053 227.978 113.174 228.19 113.331 228.462C113.666 229.057 114.145 229.907 114.762 231.007C116.018 233.267 117.838 236.547 120.147 240.702C124.774 249.095 131.35 261.021 139.191 275.241C139.251 275.351 139.215 275.492 139.112 275.555C139.039 275.599 138.951 275.594 138.885 275.551C136.076 273.738 132.848 272.362 129.363 271.708C127.617 271.405 125.817 271.278 123.994 271.316C122.171 271.394 120.329 271.636 118.493 272.043C111.157 273.756 104.03 277.946 97.947 283.581L97.7358 283.789C97.6372 283.889 97.4808 283.886 97.3852 283.783C97.3703 283.766 97.3553 283.743 97.3454 283.723C87.7355 264.661 78.8278 246.991 71.5139 232.483C71.4611 232.382 71.4959 232.255 71.5926 232.198L71.5975 232.195C77.2939 229.098 83.074 227.755 88.1538 227.042C93.2586 226.349 97.7398 226.326 101.403 226.436C105.071 226.564 107.93 226.873 109.87 227.125C110.84 227.249 111.58 227.368 112.077 227.455C112.312 227.499 112.498 227.534 112.641 227.56C112.769 227.588 112.83 227.604 112.827 227.608C112.824 227.612 112.757 227.607 112.633 227.591C112.489 227.574 112.304 227.55 112.067 227.519C111.568 227.454 110.826 227.356 109.856 227.252C107.914 227.042 105.056 226.772 101.397 226.681C97.7418 226.608 93.2735 226.666 88.1967 227.385C83.1447 228.124 77.4085 229.489 71.7918 232.571L71.8744 232.283C79.2093 246.778 88.1449 264.433 97.7826 283.48L97.3922 283.414L97.6143 283.197C100.68 280.31 104.032 277.889 107.517 275.891C111.01 273.91 114.672 272.394 118.394 271.55C120.256 271.139 122.127 270.895 123.981 270.82C125.836 270.785 127.664 270.917 129.442 271.23C132.988 271.901 136.27 273.311 139.117 275.159L138.811 275.471C131.057 261.241 124.55 249.305 119.974 240.906C117.705 236.712 115.915 233.404 114.68 231.122C114.08 230 113.615 229.13 113.29 228.523C113.141 228.237 113.027 228.016 112.938 227.847C112.861 227.694 112.824 227.613 112.827 227.608Z" fill="#253138"/>
<path d="M151.871 217.097C151.871 217.097 133.081 204.505 113.146 227.608L139.321 275.356C139.321 275.356 144.662 255.975 175.912 262.715L151.871 217.097Z" fill="#F5F5F5"/>
<path d="M151.872 217.105C151.877 217.101 151.919 217.17 151.997 217.306C152.084 217.461 152.197 217.664 152.342 217.923C152.651 218.493 153.092 219.307 153.66 220.356C154.814 222.515 156.487 225.645 158.607 229.614C162.854 237.626 168.894 249.015 176.104 262.613C176.162 262.724 176.125 262.863 176.019 262.925C175.974 262.951 175.924 262.959 175.879 262.951L175.87 262.948C174.347 262.685 172.796 262.417 171.216 262.145C170.43 261.978 169.623 261.932 168.813 261.864C168.001 261.797 167.184 261.727 166.359 261.658C165.537 261.556 164.704 261.578 163.864 261.596C163.026 261.606 162.181 261.618 161.33 261.63C160.48 261.649 159.633 261.812 158.775 261.897C157.921 262.011 157.049 262.057 156.207 262.303C155.356 262.505 154.5 262.71 153.639 262.915C152.806 263.221 151.969 263.529 151.128 263.839C150.284 264.145 149.509 264.634 148.69 265.025C148.275 265.213 147.895 265.467 147.518 265.73L146.373 266.502C145.618 267.032 144.941 267.686 144.227 268.289C143.6 268.99 142.892 269.62 142.345 270.407C141.17 271.894 140.167 273.61 139.56 275.436L139.555 275.45C139.51 275.586 139.368 275.657 139.239 275.609C139.182 275.588 139.136 275.545 139.107 275.493C138.775 274.886 138.413 274.227 138.052 273.568C128.797 256.654 120.173 240.895 112.965 227.724C112.92 227.64 112.933 227.536 112.993 227.468C117.419 222.392 122.303 218.518 127.172 216.257C132.03 213.939 136.769 213.363 140.548 213.618C144.351 213.867 147.232 214.839 149.105 215.634C150.045 216.033 150.736 216.409 151.197 216.67C151.412 216.802 151.579 216.904 151.709 216.984C151.822 217.062 151.876 217.102 151.872 217.105C151.868 217.11 151.807 217.078 151.692 217.013C151.559 216.941 151.387 216.849 151.167 216.729C150.698 216.489 150 216.136 149.057 215.758C147.179 215.006 144.306 214.08 140.534 213.872C136.786 213.656 132.104 214.262 127.31 216.584C122.504 218.85 117.681 222.708 113.301 227.763L113.328 227.506C120.554 240.665 129.201 256.41 138.481 273.309C138.843 273.968 139.202 274.626 139.536 275.234L139.084 275.291C139.734 273.337 140.753 271.618 141.962 270.08C142.526 269.274 143.25 268.623 143.895 267.906C144.626 267.289 145.32 266.623 146.092 266.08L147.263 265.292C147.65 265.024 148.038 264.765 148.461 264.572C149.297 264.173 150.09 263.675 150.949 263.364C151.806 263.05 152.659 262.739 153.506 262.429C154.381 262.221 155.25 262.015 156.114 261.811C156.971 261.564 157.853 261.514 158.719 261.4C159.586 261.315 160.445 261.156 161.305 261.136C162.165 261.127 163.018 261.116 163.865 261.107C164.714 261.091 165.555 261.071 166.383 261.175C167.214 261.246 168.038 261.318 168.855 261.389C169.672 261.459 170.486 261.509 171.277 261.678C172.866 261.956 174.426 262.231 175.957 262.5L175.722 262.836C168.588 249.216 162.612 237.809 158.409 229.783C156.331 225.783 154.691 222.628 153.559 220.451C153.012 219.382 152.588 218.555 152.291 217.975C152.156 217.703 152.052 217.494 151.972 217.332C151.901 217.187 151.868 217.11 151.872 217.105Z" fill="#253138"/>
<path d="M78.6904 207.766L106.703 264.485C106.703 264.485 129.47 263.438 139.106 275.105L113.145 227.61C113.145 227.61 97.9211 207.766 78.6904 207.766Z" fill="#F5F5F5"/>
<path d="M78.691 207.766C78.691 207.766 78.9211 207.77 79.4012 207.789C79.9112 207.811 80.6313 207.843 81.5616 207.883C81.7987 207.898 82.0547 207.899 82.3186 207.929C82.5776 207.974 82.8505 208.022 83.1364 208.072C83.7101 208.172 84.3346 208.28 85.0089 208.398C85.6922 208.483 86.3944 208.726 87.1544 208.938C87.9064 209.179 88.7352 209.34 89.5569 209.685C96.2523 212.028 105.231 217.707 113.304 227.477L113.319 227.499L113.322 227.505C120.712 241 129.661 257.339 139.321 274.976C139.389 275.101 139.348 275.259 139.23 275.33C139.132 275.39 139.011 275.37 138.933 275.289L138.92 275.276C138.573 274.912 138.197 274.521 137.82 274.128C135.738 272.004 133.271 270.328 130.65 269.144C128.043 267.932 125.352 266.996 122.637 266.382C117.223 265.103 111.82 264.622 106.715 264.729H106.708C106.617 264.731 106.538 264.678 106.499 264.598C98.3331 247.945 91.3568 233.718 86.4104 223.632C83.9711 218.635 82.0328 214.665 80.6951 211.923C80.0436 210.583 79.5406 209.545 79.188 208.82C79.0277 208.485 78.9022 208.223 78.8085 208.028C78.7249 207.851 78.685 207.763 78.691 207.766C78.697 207.769 78.7478 207.865 78.8414 208.05C78.944 208.25 79.0805 208.518 79.2548 208.862C79.6233 209.595 80.1492 210.643 80.8285 211.996C82.2001 214.741 84.1852 218.713 86.6833 223.715C91.6625 233.725 98.6877 247.845 106.909 264.373L106.694 264.242C111.858 264.124 117.275 264.601 122.745 265.884C125.484 266.5 128.208 267.443 130.853 268.671C133.511 269.871 136.029 271.576 138.167 273.755C138.553 274.159 138.938 274.562 139.294 274.935L138.892 275.235C129.26 257.579 120.339 241.226 112.969 227.717L112.988 227.744C109.045 222.87 104.745 219.053 100.726 216.078C96.6697 213.146 92.811 211.106 89.4812 209.915C88.6664 209.564 87.8447 209.396 87.0996 209.147C86.3476 208.927 85.6504 208.678 84.9731 208.583C84.3037 208.456 83.6842 208.336 83.1145 208.228C82.8306 208.173 82.5597 208.122 82.3017 208.073C82.0437 208.038 81.8007 208.031 81.5706 208.01C79.8604 207.864 79.0655 207.797 78.691 207.766Z" fill="#253138"/>
<path d="M133.466 333.622C131.479 344.77 121.058 351.883 110.191 349.512C99.324 347.142 92.1244 336.185 94.1115 325.038C96.0984 313.891 106.519 306.777 117.386 309.148C128.253 311.518 135.453 322.476 133.466 333.622Z" fill="url(#paint0_linear_728_1179)"/>
<path d="M93.8569 330.062C93.8832 330.43 74.0172 343.361 77.7418 347.846C81.4653 352.331 101.413 347.242 119.342 337.718C137.272 328.194 154.345 315.607 151.181 310.604C148.017 305.601 126.298 313.652 126.298 313.652L128.359 315.683C128.359 315.683 141.548 310.495 144.744 314.318C147.94 318.141 135.197 327.584 118.17 335.546C101.143 343.508 85.2205 348.234 83.5164 344.667C81.8135 341.1 94.2774 333.15 94.2774 333.15L93.8569 330.062Z" fill="#78186E"/>
<path d="M93.857 330.061C93.8834 330.429 74.0172 343.361 77.7418 347.846C81.4653 352.331 101.413 347.242 119.342 337.718C137.272 328.194 154.345 315.607 151.181 310.604C148.017 305.601 126.298 313.652 126.298 313.652L128.359 315.683C128.359 315.683 141.548 310.495 144.744 314.318C147.94 318.141 135.197 327.584 118.17 335.546C101.143 343.508 85.2205 348.234 83.5164 344.667C81.8135 341.1 94.2774 333.15 94.2774 333.15L93.857 330.061Z" fill="#53074B"/>
<path d="M316.257 138.356C316.472 128.841 323.98 121.311 333.028 121.536C342.076 121.762 349.237 129.658 349.023 139.173C348.807 148.688 341.299 156.218 332.251 155.992C323.203 155.766 316.042 147.871 316.257 138.356Z" fill="#E3561A"/>
<path d="M337.98 132.166C338.015 130.615 339.24 129.386 340.716 129.423C342.193 129.46 343.359 130.748 343.324 132.299C343.289 133.851 342.065 135.08 340.589 135.043C339.114 135.005 337.945 133.718 337.98 132.166Z" fill="black"/>
<path d="M343.325 138.729C343.345 137.826 344.057 137.111 344.915 137.133C345.774 137.154 346.453 137.903 346.432 138.806C346.412 139.709 345.7 140.423 344.842 140.402C343.983 140.38 343.304 139.631 343.325 138.729Z" fill="black"/>
<path d="M341.238 143.75C341.554 143.759 341.805 144.034 341.798 144.367C341.79 144.7 341.527 144.964 341.211 144.956C340.894 144.948 340.644 144.672 340.652 144.339C340.659 144.006 340.921 143.743 341.238 143.75Z" fill="black"/>
<path d="M247.66 119.925C246.795 105.851 235.245 95.18 221.862 96.0892C208.479 96.9984 198.331 109.144 199.196 123.218C199.822 133.407 206.052 141.808 214.52 145.327C214.704 148.347 214.915 151.756 214.915 151.756L236.152 150.313C236.152 150.313 236.06 146.696 235.908 143.472C243.451 138.709 248.265 129.793 247.66 119.925Z" fill="url(#paint1_linear_728_1179)"/>
<path d="M228.468 150.733C228.468 150.733 228.464 150.625 228.472 150.416C228.483 150.195 228.496 149.887 228.514 149.49C228.558 148.678 228.621 147.477 228.742 145.934C228.863 144.392 229.034 142.504 229.365 140.33C229.706 138.161 230.2 135.692 231.129 133.089C231.594 131.789 232.142 130.453 232.887 129.141C233.272 128.497 233.763 127.862 234.448 127.463C235.13 127.061 236.013 127.001 236.753 127.385C237.12 127.577 237.442 127.919 237.582 128.343C237.737 128.759 237.725 129.245 237.562 129.656C237.237 130.489 236.557 131.099 235.794 131.48C234.23 132.177 232.377 132.155 230.733 131.447C229.084 130.743 227.711 129.259 227.05 127.428C226.733 126.518 226.527 125.511 226.727 124.499C226.895 123.495 227.755 122.548 228.82 122.579C229.347 122.583 229.847 122.929 230.108 123.393C230.38 123.855 230.478 124.417 230.399 124.951C230.232 126.03 229.551 126.875 228.851 127.599C227.407 129.03 225.372 129.909 223.309 129.706C221.261 129.502 219.355 128.217 218.399 126.352C217.901 125.435 217.725 124.295 218.044 123.275C218.205 122.773 218.547 122.29 219.038 122.076C219.52 121.842 220.083 121.9 220.538 122.119C220.999 122.336 221.386 122.718 221.63 123.169C221.884 123.616 222.017 124.115 222.09 124.611C222.22 125.605 222.146 126.606 221.901 127.548C221.424 129.435 220.265 131.08 218.747 132.054C217.238 133.037 215.436 133.393 213.778 133.119C212.959 132.986 212.113 132.703 211.522 132.051C210.944 131.414 210.727 130.358 211.236 129.606C211.49 129.243 211.891 129.031 212.291 128.971C212.692 128.914 213.098 128.972 213.462 129.129C214.204 129.454 214.686 130.126 215.052 130.777C215.746 132.118 216.318 133.427 216.892 134.676C219.145 139.68 220.779 143.819 221.881 146.689C222.431 148.124 222.841 149.245 223.117 150.007C223.248 150.379 223.35 150.668 223.424 150.875C223.491 151.072 223.518 151.175 223.518 151.175C223.518 151.175 223.472 151.079 223.395 150.887C223.315 150.682 223.205 150.398 223.06 150.03C222.761 149.264 222.329 148.156 221.773 146.735C220.641 143.88 218.976 139.758 216.701 134.772C216.125 133.534 215.539 132.209 214.854 130.9C214.499 130.269 214.031 129.644 213.373 129.363C212.733 129.084 211.865 129.145 211.436 129.759C211.016 130.369 211.192 131.31 211.707 131.866C212.234 132.449 213.027 132.722 213.819 132.847C215.414 133.106 217.154 132.758 218.603 131.808C220.058 130.87 221.169 129.288 221.626 127.47C221.86 126.565 221.929 125.599 221.804 124.656C221.683 123.73 221.251 122.78 220.419 122.4C220.019 122.209 219.55 122.166 219.156 122.359C218.753 122.535 218.468 122.93 218.323 123.377C218.039 124.291 218.188 125.342 218.659 126.203C219.562 127.969 221.39 129.203 223.338 129.393C225.299 129.588 227.258 128.747 228.648 127.372C229.324 126.676 229.965 125.858 230.107 124.905C230.177 124.439 230.09 123.949 229.858 123.556C229.633 123.161 229.238 122.891 228.809 122.886C228.381 122.87 227.95 123.068 227.63 123.376C227.304 123.682 227.103 124.11 227.008 124.565C226.824 125.48 227.011 126.45 227.317 127.322C227.947 129.077 229.263 130.503 230.838 131.18C232.407 131.865 234.21 131.884 235.683 131.23C236.398 130.879 237.038 130.294 237.324 129.56C237.63 128.828 237.304 127.942 236.64 127.618C235.992 127.274 235.177 127.32 234.562 127.684C233.93 128.047 233.459 128.646 233.081 129.27C232.348 130.549 231.791 131.883 231.325 133.167C230.392 135.745 229.885 138.199 229.529 140.359C229.185 142.523 228.997 144.405 228.858 145.945C228.736 147.476 228.64 148.67 228.574 149.495C228.543 149.891 228.519 150.199 228.503 150.418C228.485 150.627 228.468 150.733 228.468 150.733Z" fill="#253138"/>
<path d="M234.774 154.552L216.538 155.791C215.783 155.843 215.129 155.24 215.08 154.445C215.032 153.65 215.606 152.965 216.362 152.914L234.596 151.675C235.352 151.624 236.005 152.227 236.054 153.022C236.103 153.816 235.53 154.501 234.774 154.552Z" fill="#253138"/>
<path d="M234.851 155.816L216.616 157.055C215.861 157.106 215.287 157.793 215.336 158.588C215.386 159.382 216.037 159.985 216.793 159.934L218.795 159.798L221.777 164.931C222.119 165.519 222.742 165.859 223.394 165.815L229.91 165.373C230.569 165.328 231.15 164.897 231.413 164.26L233.668 158.787L235.029 158.695C235.785 158.644 236.357 157.956 236.309 157.161C236.26 156.366 235.607 155.764 234.851 155.816Z" fill="#253138"/>
<path d="M231.099 164.735C231.08 164.785 230.608 164.595 229.821 164.415C229.036 164.233 227.924 164.098 226.703 164.215C225.482 164.338 224.414 164.688 223.675 165.02C222.932 165.351 222.502 165.63 222.475 165.586C222.456 165.559 222.849 165.211 223.586 164.819C224.319 164.426 225.416 164.029 226.676 163.903C227.936 163.781 229.083 163.957 229.873 164.199C230.666 164.44 231.113 164.705 231.099 164.735Z" fill="#455A63"/>
<path d="M233.708 158.852C233.714 158.939 230.421 159.233 226.355 159.509C222.288 159.786 218.988 159.941 218.983 159.855C218.977 159.768 222.269 159.472 226.336 159.197C230.402 158.919 233.703 158.765 233.708 158.852Z" fill="#455A63"/>
<path d="M232.708 161.204C232.712 161.246 232.031 161.371 230.924 161.52C229.818 161.668 228.284 161.84 226.586 161.98C224.887 162.122 223.347 162.204 222.231 162.239C221.115 162.274 220.425 162.265 220.423 162.222C220.421 162.178 221.108 162.109 222.22 162.017C223.421 161.921 224.912 161.8 226.562 161.667C228.211 161.527 229.701 161.401 230.903 161.299C232.014 161.206 232.703 161.16 232.708 161.204Z" fill="#455A63"/>
<path d="M161.939 102.55H160.48C157.502 102.55 155.089 100.012 155.089 96.8804V70.3438H167.33V96.8804C167.33 100.012 164.916 102.55 161.939 102.55Z" fill="#78186E"/>
<path d="M155.089 70.3436L161.21 58.5391L167.33 70.3436H155.089Z" fill="#FFBD9D"/>
<path d="M158.784 63.2137C158.784 63.2137 160.643 66.1539 163.633 63.2137L161.209 58.5391L158.784 63.2137Z" fill="#084640"/>
<path d="M167.5 95.5889C167.5 95.7324 164.713 95.8497 161.278 95.8497C157.841 95.8497 155.055 95.7324 155.055 95.5889C155.055 95.4454 157.841 95.3281 161.278 95.3281C164.713 95.3281 167.5 95.4454 167.5 95.5889Z" fill="#253138"/>
<path d="M167.373 93.6113C167.373 93.7548 164.642 93.8732 161.276 93.8732C157.907 93.8732 155.178 93.7548 155.178 93.6113C155.178 93.4678 157.907 93.3516 161.276 93.3516C164.642 93.3516 167.373 93.4678 167.373 93.6113Z" fill="#253138"/>
<path d="M158.681 70.5352C158.818 70.5352 158.928 75.6739 158.928 82.0108C158.928 88.3499 158.818 93.4865 158.681 93.4865C158.544 93.4865 158.433 88.3499 158.433 82.0108C158.433 75.6739 158.544 70.5352 158.681 70.5352Z" fill="#F9F9F9"/>
<path d="M163.634 70.5352C163.77 70.5352 163.881 75.6739 163.881 82.0108C163.881 88.3499 163.77 93.4865 163.634 93.4865C163.496 93.4865 163.386 88.3499 163.386 82.0108C163.386 75.6739 163.496 70.5352 163.634 70.5352Z" fill="#F9F9F9"/>
<path d="M206.793 282.143L231.839 278.238L219.864 260.398L213.442 260.798C209.119 261.065 205.311 263.874 203.597 268.055C202.687 270.276 202.434 272.733 202.87 275.108L206.793 282.143Z" fill="#E8505B"/>
<path d="M206.793 282.144L231.839 278.238L219.864 260.398L213.442 260.798C209.119 261.065 205.311 263.874 203.597 268.055C202.687 270.276 202.434 272.733 202.87 275.108L206.793 282.144Z" fill="#084640"/>
<path d="M314.381 311.326C314.639 312.08 314.92 312.972 315.205 314.041C315.45 314.957 315.536 315.912 315.476 316.861C315.402 318.014 315.243 319.541 314.91 320.347C314.498 321.347 315.455 322.351 316.268 321.852C317.079 321.353 318.278 318.629 318.204 315.124C318.131 311.618 321.531 315.82 322.796 317.328C324.062 318.836 328.185 323.307 328.934 323.265C330.032 323.205 330.172 321.955 328.875 320.48C327.561 318.988 323.984 314.294 324.774 313.63C325.552 312.975 331.894 320.744 331.894 320.744C331.894 320.744 332.994 322.636 333.931 321.9C335.619 320.572 328.3 312.836 327.586 312.119C327.089 311.619 327.923 310.866 328.429 311.432C328.949 312.013 334.582 319.334 336.315 318C337.643 316.978 330.35 311.578 329.984 309.378C329.617 307.175 335.119 314.062 336.351 313.03C336.81 312.646 337.101 312.291 333.398 308.816C331.601 307.129 324.769 302.101 324.769 302.101L304.211 240.203L288.336 249.764L314.381 311.326Z" fill="#FFBD9D"/>
<path d="M192.003 194.273L169.03 165.444H169.029C168.732 164.453 168.372 163.486 167.905 162.569C166.756 160.32 164.857 158.361 162.485 157.815C161.028 157.48 159.361 157.641 158.217 156.634C157.706 156.183 157.367 155.542 156.83 155.124C156.295 154.706 155.403 154.625 155.061 155.227C154.817 155.655 154.971 156.204 155.156 156.664C156.008 158.792 157.402 160.672 159.144 162.078C156.99 162.766 153.913 163.807 153.913 163.807C153.913 163.807 149.058 158.267 146.571 158.284C144.082 158.301 148.58 163.231 148.58 163.231C148.58 163.231 144.596 159.36 143.361 160.451C142.126 161.542 145.292 164.416 145.292 164.416C144.287 163.851 143.185 163.267 142.06 163.464C140.935 163.66 139.968 165.057 140.573 166.073C140.805 166.462 141.203 166.702 141.584 166.926C143.623 168.12 145.661 169.314 147.699 170.509C148.722 171.109 149.797 171.724 150.968 171.762C154.069 171.862 156.428 169.843 159.53 169.93C159.53 169.93 176.853 208.277 178.605 210.255C180.358 212.232 218.414 214.925 218.414 214.925L240.441 194.969L192.003 194.273Z" fill="#FFBD9D"/>
<path d="M261.002 403.148L284.462 413.894L271.899 444.655C269.178 443.213 270.067 424.765 270.067 424.765L254.768 418.531L261.002 403.148Z" fill="#084640"/>
<path d="M269.715 425.205C269.861 425.265 270.231 424.542 270.992 424.011C271.739 423.458 272.516 423.356 272.515 423.193C272.544 423.043 271.599 422.88 270.688 423.541C269.772 424.193 269.571 425.179 269.715 425.205Z" fill="#253138"/>
<path d="M269.667 428.996C269.791 429.094 270.3 428.552 271.112 428.315C271.919 428.054 272.624 428.219 272.679 428.067C272.759 427.935 271.966 427.453 270.96 427.77C269.953 428.076 269.532 428.931 269.667 428.996Z" fill="#253138"/>
<path d="M272.591 432.491C272.678 432.368 272.048 431.837 271.108 431.869C270.168 431.895 269.57 432.463 269.664 432.581C269.747 432.719 270.352 432.452 271.124 432.437C271.896 432.405 272.517 432.634 272.591 432.491Z" fill="#253138"/>
<path d="M266.378 423.375C266.534 423.371 266.617 422.592 267.02 421.768C267.404 420.935 267.946 420.397 267.855 420.263C267.788 420.13 266.995 420.536 266.535 421.515C266.068 422.488 266.235 423.397 266.378 423.375Z" fill="#253138"/>
<path d="M263.207 421.074C263.266 421.102 263.596 420.549 263.828 419.53C263.944 419.023 264.024 418.401 264.016 417.706C264.012 417.359 263.985 416.994 263.931 416.62C263.902 416.439 263.884 416.231 263.777 415.999C263.695 415.766 263.355 415.5 263.045 415.587C262.756 415.643 262.545 415.877 262.449 416.097C262.35 416.32 262.317 416.525 262.29 416.71C262.229 417.088 262.205 417.457 262.211 417.808C262.225 418.511 262.351 419.134 262.518 419.629C262.854 420.627 263.289 421.11 263.337 421.073C263.411 421.025 263.106 420.477 262.884 419.516C262.774 419.037 262.696 418.455 262.709 417.81C262.718 417.488 262.749 417.15 262.811 416.807C262.862 416.445 262.974 416.167 263.145 416.147C263.211 416.14 263.233 416.144 263.296 416.252C263.351 416.361 263.379 416.531 263.408 416.71C263.466 417.058 263.501 417.397 263.518 417.723C263.553 418.373 263.516 418.964 263.452 419.457C263.326 420.443 263.128 421.042 263.207 421.074Z" fill="#253138"/>
<path d="M263.492 420.968C263.536 420.925 263.146 420.396 262.243 419.922C261.795 419.69 261.218 419.489 260.554 419.409C260.221 419.37 259.868 419.362 259.503 419.398C259.141 419.448 258.664 419.494 258.363 420.048C258.227 420.347 258.351 420.7 258.508 420.874C258.665 421.066 258.826 421.163 258.981 421.277C259.3 421.487 259.638 421.631 259.967 421.723C260.63 421.906 261.257 421.873 261.749 421.748C262.753 421.489 263.18 420.94 263.137 420.905C263.085 420.823 262.596 421.222 261.68 421.353C261.228 421.418 260.672 421.405 260.104 421.218C259.82 421.126 259.534 420.992 259.269 420.808C258.977 420.62 258.777 420.382 258.859 420.274C258.919 420.12 259.259 419.967 259.559 419.953C259.886 419.914 260.204 419.91 260.508 419.931C261.115 419.977 261.656 420.12 262.092 420.292C262.968 420.639 263.437 421.04 263.492 420.968Z" fill="#253138"/>
<path d="M242.937 445.414L252.638 466.791L255.677 486.025C255.896 487.413 257.187 488.314 258.487 487.989C259.216 487.809 259.812 487.276 260.092 486.547C261.876 481.902 268.357 464.784 267.563 463.261C266.644 461.497 258.75 439.996 258.75 439.996L242.937 445.414Z" fill="#084640"/>
<path d="M259.147 476.328C259.056 476.442 258.108 475.53 256.627 475.498C255.145 475.421 254.142 476.263 254.059 476.14C254.018 476.096 254.206 475.805 254.656 475.507C255.1 475.208 255.827 474.95 256.644 474.979C257.463 475.01 258.169 475.32 258.592 475.651C259.021 475.982 259.191 476.286 259.147 476.328Z" fill="#253138"/>
<path d="M258.918 479.906C258.86 480.046 257.901 479.656 256.701 479.838C255.497 479.992 254.669 480.633 254.579 480.514C254.471 480.432 255.265 479.506 256.636 479.322C258.004 479.123 259 479.797 258.918 479.906Z" fill="#253138"/>
<path d="M260.287 471.335C260.234 471.484 258.761 470.876 256.872 470.987C254.982 471.067 253.571 471.822 253.504 471.68C253.422 471.581 254.821 470.559 256.848 470.467C258.874 470.354 260.359 471.228 260.287 471.335Z" fill="#253138"/>
<path d="M257.852 464.574C257.852 464.729 256.503 464.768 255.003 465.41C253.493 466.03 252.49 466.978 252.39 466.865C252.287 466.785 253.198 465.597 254.82 464.926C256.434 464.241 257.873 464.443 257.852 464.574Z" fill="#253138"/>
<path d="M255.154 458.221C255.144 458.375 253.695 458.196 252.167 459.008C250.622 459.784 249.873 461.102 249.75 461.015C249.696 460.987 249.806 460.609 250.157 460.097C250.503 459.587 251.122 458.97 251.949 458.542C252.776 458.115 253.619 457.976 254.216 457.998C254.814 458.019 255.165 458.159 255.154 458.221Z" fill="#253138"/>
<path d="M251.687 457.784C251.662 457.797 251.491 457.529 251.309 456.98C251.131 456.437 250.947 455.598 251.013 454.548C251.063 454.042 251.073 453.417 251.525 452.862C251.749 452.582 252.198 452.437 252.563 452.609C252.924 452.773 253.153 453.091 253.305 453.43C253.87 454.812 253.318 456.668 251.935 457.557C250.535 458.424 248.823 458.17 247.734 457.262C247.475 457.016 247.226 456.681 247.229 456.24C247.229 455.798 247.584 455.453 247.9 455.367C248.552 455.175 249.094 455.362 249.57 455.468C250.534 455.732 251.242 456.155 251.69 456.485C252.141 456.817 252.343 457.06 252.325 457.082C252.277 457.173 251.352 456.267 249.491 455.827C249.031 455.741 248.49 455.612 248.032 455.777C247.808 455.856 247.663 456.032 247.665 456.25C247.661 456.462 247.819 456.713 248.033 456.901C248.941 457.636 250.506 457.864 251.679 457.113C252.851 456.375 253.334 454.743 252.89 453.626C252.78 453.359 252.597 453.125 252.395 453.03C252.196 452.937 251.975 452.991 251.82 453.161C251.494 453.519 251.419 454.1 251.361 454.581C251.173 456.577 251.788 457.762 251.687 457.784Z" fill="#253138"/>
<path d="M275.628 405.769L249.027 386.939L257.83 296.029L232.633 280.556L209.592 274.941C209.592 274.941 199.968 295.994 195.689 309.47C186.588 338.134 180.2 348.405 181.658 369.182C182.12 375.758 205.212 392.208 219.795 401.345C219.996 403.444 220.251 405.276 220.569 406.789C225.553 430.479 240.762 461.983 240.762 461.983L263.879 450.681L256.42 423.818L264.189 428.584L275.628 405.769ZM218.449 347.148L221.552 332.576C220.896 341.842 220.296 351.508 219.868 360.777C218.374 356.493 217.864 351.732 218.449 347.148Z" fill="#253138"/>
<path d="M240.762 461.973C240.754 461.978 240.695 461.847 240.583 461.59C240.465 461.309 240.307 460.929 240.105 460.443C239.686 459.405 239.085 457.917 238.317 456.01C236.782 452.153 234.584 446.559 231.938 439.619C229.307 432.673 226.174 424.4 223.019 415.079C222.232 412.749 221.461 410.347 220.738 407.866C220.417 406.61 220.015 405.372 219.804 404.042C219.744 403.715 219.673 403.385 219.621 403.055L219.511 402.064C219.441 401.401 219.369 400.735 219.298 400.066C219.029 397.389 218.803 394.657 218.637 391.882C218.553 390.495 218.483 389.095 218.43 387.685C218.382 386.282 218.322 384.848 218.399 383.421C218.79 371.998 219.703 361.171 220.454 351.314C221.237 341.467 221.942 332.598 222.535 325.14C223.108 317.689 223.51 311.654 223.737 307.483C223.861 305.396 223.93 303.776 223.976 302.676C224.004 302.146 224.025 301.731 224.041 301.426C224.058 301.144 224.072 300.999 224.08 301C224.088 301 224.092 301.145 224.091 301.427C224.088 301.733 224.082 302.148 224.077 302.679C224.062 303.78 224.024 305.404 223.93 307.493C223.762 311.671 223.413 317.712 222.884 325.169C222.32 332.63 221.651 341.502 220.908 351.353C220.183 361.205 219.284 372.045 218.894 383.432C218.816 384.854 218.876 386.256 218.924 387.667C218.976 389.07 219.045 390.465 219.128 391.85C219.293 394.617 219.515 397.342 219.782 400.013C219.851 400.68 219.92 401.344 219.99 402.006L220.098 402.995C220.149 403.319 220.218 403.638 220.277 403.956C220.475 405.237 220.876 406.482 221.191 407.724C221.905 410.192 222.669 412.591 223.448 414.921C226.576 424.237 229.674 432.523 232.263 439.483C234.888 446.411 237.014 452.024 238.496 455.932C239.226 457.854 239.798 459.356 240.197 460.403C240.38 460.898 240.524 461.284 240.63 461.569C240.725 461.833 240.77 461.97 240.762 461.973Z" fill="#455A63"/>
<path d="M222.984 297.937C222.963 297.965 222.75 297.784 222.377 297.421C222.03 297.038 221.609 296.392 221.252 295.52C220.535 293.77 220.173 291.156 220.118 288.308C220.068 285.45 220.269 282.876 220.448 281.023C220.632 279.171 220.78 278.03 220.847 278.035C220.917 278.039 220.891 279.194 220.797 281.051C220.709 282.908 220.564 285.472 220.613 288.297C220.668 291.113 220.971 293.669 221.578 295.385C221.882 296.241 222.236 296.882 222.524 297.29C222.837 297.677 223.005 297.91 222.984 297.937Z" fill="#455A63"/>
<path d="M213.035 276.293C213.084 276.282 213.325 277.246 213.232 278.836C213.149 280.413 212.639 282.63 211.325 284.658C210.012 286.686 208.235 287.996 206.871 288.654C205.497 289.326 204.555 289.444 204.547 289.39C204.523 289.304 205.421 289.06 206.712 288.326C207.997 287.604 209.661 286.302 210.917 284.365C212.172 282.428 212.716 280.324 212.884 278.802C213.062 277.269 212.95 276.301 213.035 276.293Z" fill="#455A63"/>
<path d="M254.368 329.148C254.377 329.149 254.375 329.244 254.363 329.426C254.346 329.638 254.324 329.904 254.298 330.234C254.227 330.982 254.128 332.021 254.002 333.337C253.719 336.071 253.315 339.958 252.82 344.744C251.779 354.403 250.35 367.682 248.771 382.351C248.161 389.695 248.77 396.762 250.081 402.989C250.728 406.111 251.586 409.008 252.488 411.689C253.384 414.374 254.218 416.877 254.98 419.167C256.479 423.716 257.697 427.41 258.553 430.007C258.955 431.261 259.273 432.25 259.501 432.962C259.597 433.279 259.674 433.533 259.737 433.736C259.785 433.912 259.808 434.003 259.799 434.006C259.791 434.008 259.754 433.923 259.689 433.754C259.615 433.556 259.523 433.307 259.408 432.998C259.158 432.294 258.811 431.316 258.372 430.075C257.48 427.491 256.212 423.815 254.65 419.29C253.87 417.007 253.017 414.511 252.103 411.833C251.181 409.152 250.299 406.232 249.636 403.094C248.291 396.829 247.663 389.707 248.278 382.307C249.834 367.598 251.379 354.33 252.473 344.706C253.033 339.928 253.489 336.048 253.809 333.318C253.975 332.006 254.105 330.97 254.199 330.224C254.245 329.896 254.282 329.631 254.312 329.421C254.341 329.241 254.359 329.147 254.368 329.148Z" fill="#455A63"/>
<path d="M209.592 274.761L213.672 263.797L222.981 278.397L210.567 275.133" fill="#FFBD9D"/>
<path d="M307.029 241.802L295.977 215.75C294.656 211.563 292.177 210.912 290.101 208.481L262.42 192.064C242.245 183.373 231.259 212.517 231.259 212.517L212.923 256.499C191.359 264.018 206.626 281.432 206.626 281.432C206.626 281.432 200.761 270.711 206.53 266.843C212.57 262.792 219.267 273.464 225.701 283.6C233.296 295.565 257.977 303.338 257.977 303.338C260.864 300.131 260.058 288.934 262.318 282.926C263.035 281.021 280.127 239.388 280.127 239.388L286.752 256.269C286.752 256.269 295.246 245.798 299.361 244.133C303.478 242.468 307.029 241.802 307.029 241.802Z" fill="#084640"/>
<path d="M257.977 260.315C257.993 260.341 257.703 260.573 257.139 260.93C256.576 261.288 255.724 261.745 254.62 262.185C252.431 263.072 249.116 263.761 245.524 263.177C241.929 262.594 238.967 260.887 237.133 259.347C236.207 258.578 235.526 257.871 235.091 257.352C234.657 256.833 234.447 256.52 234.469 256.499C234.538 256.431 235.468 257.614 237.343 259.053C239.198 260.49 242.104 262.095 245.598 262.663C249.091 263.23 252.324 262.621 254.504 261.839C256.704 261.061 257.931 260.228 257.977 260.315Z" fill="#253138"/>
<path d="M212.102 219.004L229.185 220.7L256.516 190.322L240.442 189.742L211.819 192.713C211.819 192.713 214.354 205.258 212.102 219.004Z" fill="#084640"/>
<path d="M235.829 203.008C235.844 203.016 235.772 203.208 235.62 203.565C235.44 203.971 235.214 204.485 234.935 205.117C234.307 206.523 233.448 208.453 232.399 210.808C230.274 215.622 227.457 222.327 224.401 229.763C221.346 237.201 218.566 243.931 216.465 248.761C215.416 251.177 214.551 253.125 213.928 254.459C213.633 255.082 213.394 255.588 213.204 255.989C213.034 256.337 212.937 256.516 212.921 256.509C212.905 256.501 212.973 256.307 213.113 255.945C213.281 255.534 213.493 255.013 213.753 254.373C214.345 252.95 215.155 250.996 216.145 248.612C218.165 243.679 220.911 236.97 223.946 229.556C227.003 222.118 229.875 215.431 232.082 210.651C233.183 208.261 234.099 206.339 234.762 205.026C235.074 204.413 235.329 203.913 235.531 203.519C235.712 203.177 235.813 203.001 235.829 203.008Z" fill="#253138"/>
<path d="M287.972 211.833C288.02 211.921 286.959 212.502 285.514 213.796C284.786 214.435 283.997 215.289 283.206 216.306C282.436 217.343 281.678 218.554 281.039 219.916C280.418 221.287 279.985 222.664 279.688 223.941C279.418 225.225 279.27 226.406 279.244 227.402C279.174 229.397 279.396 230.631 279.299 230.646C279.267 230.653 279.194 230.35 279.091 229.792C279.035 229.513 278.982 229.17 278.959 228.767C278.932 228.364 278.873 227.905 278.894 227.396C278.875 226.375 278.989 225.161 279.242 223.836C279.522 222.52 279.956 221.098 280.595 219.689C281.251 218.289 282.044 217.05 282.852 216.004C283.685 214.975 284.519 214.128 285.293 213.512C285.66 213.179 286.04 212.942 286.356 212.716C286.671 212.484 286.961 212.317 287.203 212.191C287.684 211.929 287.955 211.801 287.972 211.833Z" fill="#253138"/>
<path d="M292.745 170.109L276.718 201.613C274.101 206.757 268.148 208.897 263.085 206.514C257.51 203.89 255.204 196.855 258.059 191.178C259.57 188.173 260.824 185.72 260.824 185.72C260.824 185.72 253.857 180.971 257.115 173.054C260.021 165.99 270.696 146.052 272.963 141.836L286.469 148.193C294.056 152.337 296.895 162.249 292.745 170.109Z" fill="#FFBD9D"/>
<path d="M260.858 185.609C260.858 185.609 265.418 188.241 271.861 187.285C271.861 187.285 267.143 191.867 259.973 187.641L260.858 185.609Z" fill="#EB996D"/>
<path d="M266.007 160.413C265.735 160.998 265.979 161.723 266.554 162.034C267.128 162.343 267.814 162.123 268.087 161.538C268.36 160.954 268.114 160.228 267.541 159.918C266.966 159.607 266.279 159.829 266.007 160.413Z" fill="#253138"/>
<path d="M266.068 159.414C266.138 159.623 267.215 159.375 268.365 159.919C269.521 160.447 270.101 161.466 270.289 161.377C270.378 161.34 270.355 161.011 270.107 160.557C269.864 160.105 269.363 159.544 268.645 159.21C267.926 158.877 267.207 158.868 266.739 158.99C266.263 159.108 266.031 159.317 266.068 159.414Z" fill="#253138"/>
<path d="M276.773 165.988C276.5 166.572 276.745 167.297 277.32 167.607C277.894 167.917 278.581 167.696 278.853 167.113C279.125 166.528 278.88 165.802 278.307 165.492C277.732 165.181 277.045 165.403 276.773 165.988Z" fill="#253138"/>
<path d="M277.281 164.961C277.351 165.17 278.431 164.922 279.58 165.467C280.734 165.993 281.314 167.013 281.502 166.924C281.591 166.887 281.571 166.559 281.321 166.103C281.079 165.653 280.578 165.091 279.859 164.756C279.14 164.423 278.42 164.415 277.952 164.537C277.477 164.656 277.244 164.864 277.281 164.961Z" fill="#253138"/>
<path d="M269.288 171.971C269.322 171.905 268.661 171.439 267.569 170.737C267.289 170.568 267.036 170.375 267.077 170.14C267.103 169.885 267.367 169.61 267.662 169.317C268.257 168.699 268.88 168.052 269.533 167.373C272.166 164.591 274.211 162.248 274.105 162.137C273.997 162.027 271.775 164.192 269.143 166.974C268.501 167.664 267.889 168.32 267.304 168.949C267.043 169.248 266.682 169.557 266.634 170.09C266.616 170.358 266.76 170.627 266.925 170.77C267.089 170.918 267.253 171 267.394 171.077C268.533 171.691 269.254 172.038 269.288 171.971Z" fill="#253138"/>
<path d="M272.317 174.404C272.135 174.304 271.574 175.617 270.108 176.045C268.643 176.479 267.374 175.705 267.286 175.884C267.234 175.958 267.475 176.279 268.029 176.559C268.572 176.838 269.457 177.031 270.353 176.769C271.249 176.504 271.853 175.872 272.126 175.354C272.407 174.827 272.406 174.436 272.317 174.404Z" fill="#253138"/>
<path d="M279.002 160.076C278.976 160.459 280.191 160.843 281.469 161.649C282.76 162.43 283.673 163.358 283.978 163.146C284.118 163.044 284.059 162.645 283.755 162.119C283.455 161.595 282.886 160.966 282.116 160.489C281.346 160.014 280.546 159.801 279.965 159.78C279.38 159.757 279.02 159.897 279.002 160.076Z" fill="#253138"/>
<path d="M267.98 156.108C268.066 156.479 268.979 156.566 269.939 157.002C270.912 157.401 271.62 158.015 271.929 157.815C272.069 157.713 272.059 157.378 271.818 156.952C271.58 156.53 271.089 156.044 270.425 155.757C269.76 155.471 269.087 155.453 268.636 155.577C268.179 155.701 267.949 155.932 267.98 156.108Z" fill="#253138"/>
<path d="M287.704 174.832C287.857 174.834 293.531 175.653 291.076 180.96C288.622 186.266 284.062 182.58 284.124 182.424C284.185 182.267 287.704 174.832 287.704 174.832Z" fill="#FFBD9D"/>
<path d="M286.595 181.206C286.625 181.201 286.652 181.315 286.768 181.464C286.88 181.607 287.108 181.783 287.417 181.815C288.046 181.882 288.907 181.221 289.374 180.277C289.61 179.802 289.726 179.29 289.739 178.828C289.766 178.36 289.652 177.967 289.407 177.78C289.169 177.578 288.901 177.65 288.771 177.769C288.635 177.882 288.618 178.004 288.587 178C288.566 178.005 288.52 177.856 288.662 177.657C288.731 177.563 288.85 177.468 289.015 177.426C289.184 177.385 289.386 177.423 289.562 177.54C289.937 177.768 290.116 178.323 290.102 178.832C290.107 179.354 289.985 179.933 289.721 180.467C289.193 181.519 288.21 182.255 287.379 182.103C286.979 182.018 286.735 181.753 286.64 181.55C286.544 181.339 286.574 181.206 286.595 181.206Z" fill="#EB996D"/>
<path d="M290.631 175.995C289.935 175.428 288.261 175.551 287.602 176.164C286.941 176.775 286.498 177.611 285.838 178.225C285.178 178.838 284.134 179.181 283.433 178.618C282.952 178.23 282.792 177.518 282.89 176.889C282.986 176.258 283.298 175.689 283.614 175.145C284.985 172.772 286.548 170.516 287.722 168.029C288.896 165.543 289.672 162.75 289.325 159.999C288.979 157.246 287.331 154.567 284.843 153.641C283.194 153.027 281.365 153.212 279.685 152.701C277.694 152.096 276.008 150.467 275.266 148.432C275.171 148.172 274.606 147.241 274.606 147.241C274.662 147.111 275.257 146.042 275.853 145.83C280.286 144.256 286.3 146.064 289.975 149.11C293.651 152.155 296.225 157.057 296.27 161.977C296.315 166.898 293.371 172.327 290.631 175.995Z" fill="#253138"/>
<path d="M290.678 175.462C292.08 172.955 294.354 171.139 296.092 168.876C297.828 166.612 299.021 163.423 297.785 160.821C297.363 159.933 296.686 159.187 296.334 158.265C295.978 157.338 295.977 156.313 295.842 155.324C295.42 152.269 293.584 149.465 291.019 147.961C289.246 146.921 287.2 146.495 285.402 145.501C282.556 143.928 280.475 141.012 277.484 139.769C276.492 139.356 275.331 139.156 274.383 139.67C273.434 140.185 272.925 141.631 273.616 142.486C273.493 141.482 272.256 140.93 271.38 141.348C270.502 141.765 270.054 142.863 270.114 143.873C270.172 144.882 270.65 145.814 271.199 146.643C273.016 149.378 275.792 151.388 278.87 152.198L285.745 151.633L291.381 156.026L295.554 163.009L287.988 173.345L290.678 175.462Z" fill="#253138"/>
</g>
</g>
<defs>
<linearGradient id="paint0_linear_728_1179" x1="117.386" y1="309.148" x2="108.654" y2="349.177" gradientUnits="userSpaceOnUse">
<stop stop-color="#78186E"/>
<stop offset="1" stop-color="#BA24AB"/>
</linearGradient>
<linearGradient id="paint1_linear_728_1179" x1="223.428" y1="96.0352" x2="223.428" y2="151.756" gradientUnits="userSpaceOnUse">
<stop stop-color="#52CEC2"/>
<stop offset="1" stop-color="#CDF2B0"/>
</linearGradient>
<clipPath id="clip0_728_1179">
<rect width="405" height="551" fill="white"/>
</clipPath>
</defs>
</svg>
