<svg width="32" height="24" viewBox="0 0 32 24" fill="none" xmlns="http://www.w3.org/2000/svg">
<rect width="31.5824" height="23.1745" rx="5" fill="#F8F8F8"/>
<path d="M22.5824 10.5924H11.4124L16.2924 5.71244C16.6824 5.32244 16.6824 4.68244 16.2924 4.29244C16.1999 4.19974 16.09 4.12619 15.9691 4.07601C15.8481 4.02583 15.7184 4 15.5874 4C15.4565 4 15.3268 4.02583 15.2058 4.07601C15.0848 4.12619 14.975 4.19974 14.8824 4.29244L8.29244 10.8824C8.19974 10.975 8.12619 11.0848 8.07601 11.2058C8.02583 11.3268 8 11.4565 8 11.5874C8 11.7184 8.02583 11.8481 8.07601 11.9691C8.12619 12.09 8.19974 12.1999 8.29244 12.2924L14.8824 18.8824C14.975 18.975 15.0849 19.0485 15.2059 19.0986C15.3269 19.1487 15.4565 19.1745 15.5874 19.1745C15.7184 19.1745 15.848 19.1487 15.969 19.0986C16.09 19.0485 16.1999 18.975 16.2924 18.8824C16.385 18.7899 16.4585 18.68 16.5086 18.559C16.5587 18.438 16.5845 18.3084 16.5845 18.1774C16.5845 18.0465 16.5587 17.9169 16.5086 17.7959C16.4585 17.6749 16.385 17.565 16.2924 17.4724L11.4124 12.5924H22.5824C23.1324 12.5924 23.5824 12.1424 23.5824 11.5924C23.5824 11.0424 23.1324 10.5924 22.5824 10.5924Z" fill="#444444"/>
</svg>
