<svg viewBox="0 0 750 101" fill="none" xmlns="http://www.w3.org/2000/svg">
<g clip-path="url(#clip0_32_176)">
<path d="M21.67 27.3601H1.8C0.81 27.3601 0 26.5601 0 25.5601V17.4401C0 16.4501 0.81 15.6401 1.8 15.6401H54.43C55.42 15.6401 56.23 16.4401 56.23 17.4401V25.5601C56.23 26.5501 55.43 27.3601 54.43 27.3601H34.55V82.1901C34.55 83.1801 33.75 83.9901 32.75 83.9901H23.46C22.47 83.9901 21.66 83.1901 21.66 82.1901V27.3601H21.67Z" fill="white"/>
<path d="M137.19 17.4401V72.0701H170.54C171.53 72.0701 172.34 72.8701 172.34 73.8701V82.1901C172.34 83.1801 171.54 83.9901 170.54 83.9901H126.1C125.11 83.9901 124.3 83.1901 124.3 82.1901V17.4401C124.3 16.4501 125.1 15.6401 126.1 15.6401H135.39C136.38 15.6401 137.19 16.4401 137.19 17.4401Z" fill="white"/>
<path d="M230.52 83.9801H182.96C181.97 83.9801 181.16 83.1801 181.16 82.1801V17.4401C181.16 16.4501 181.96 15.6401 182.96 15.6401H230.52C231.51 15.6401 232.32 16.4401 232.32 17.4401V26.3401C232.32 27.3301 231.51 28.1401 230.52 28.1401H193.95V43.8601H229.15C230.14 43.8601 230.95 44.6601 230.95 45.6601V54.0701C230.95 55.0601 230.15 55.8701 229.15 55.8701H193.95V71.2901H230.52C231.51 71.2901 232.32 72.0901 232.32 73.0901V82.1901C232.32 83.1801 231.51 83.9901 230.52 83.9901" fill="white"/>
<path d="M748.2 83.9801H700.64C699.65 83.9801 698.84 83.1801 698.84 82.1801V17.4401C698.84 16.4501 699.64 15.6401 700.64 15.6401H748.2C749.19 15.6401 750 16.4401 750 17.4401V26.3401C750 27.3301 749.19 28.1401 748.2 28.1401H711.63V43.8601H746.83C747.82 43.8601 748.63 44.6601 748.63 45.6601V54.0701C748.63 55.0601 747.83 55.8701 746.83 55.8701H711.63V71.2901H748.2C749.19 71.2901 750 72.0901 750 73.0901V82.1901C750 83.1801 749.19 83.9901 748.2 83.9901" fill="white"/>
<path d="M287.92 61.6301V17.4401C287.92 16.4501 288.72 15.6401 289.72 15.6401H299.01C300 15.6401 300.81 16.4401 300.81 17.4401V82.1801C300.81 83.1701 300.01 83.9801 299.01 83.9801H291.23C290.68 83.9801 290.17 83.7301 289.83 83.3101L254.05 38.4901V82.1901C254.05 83.1801 253.25 83.9901 252.25 83.9901H242.96C241.97 83.9901 241.16 83.1901 241.16 82.1901V17.4401C241.16 16.4501 241.96 15.6401 242.96 15.6401H250.74C251.29 15.6401 251.81 15.8901 252.15 16.3201L287.93 61.6201L287.92 61.6301Z" fill="white"/>
<path d="M331.31 27.3601H311.43C310.44 27.3601 309.63 26.5601 309.63 25.5601V17.4401C309.63 16.4501 310.44 15.6401 311.43 15.6401H364.07C365.06 15.6401 365.87 16.4401 365.87 17.4401V25.5601C365.87 26.5501 365.07 27.3601 364.07 27.3601H344.19V82.1901C344.19 83.1801 343.39 83.9901 342.39 83.9901H333.1C332.11 83.9901 331.3 83.1901 331.3 82.1901V27.3601H331.31Z" fill="white"/>
<path d="M438.62 31.4298C437.85 31.8298 436.93 31.5998 436.39 30.9398C433.56 27.5098 427.69 24.5298 421.04 24.5298C411.47 24.5298 406.89 28.5298 406.89 33.6098C406.89 39.5698 413.92 41.2198 422.12 42.1998C436.37 43.9598 449.65 47.6698 449.65 63.9698C449.65 79.1998 436.18 85.7398 420.95 85.7398C407.61 85.7398 397.21 81.8198 391.88 70.5598C391.46 69.6798 391.81 68.6198 392.67 68.1698L400.26 64.2398C401.13 63.7898 402.19 64.1298 402.66 64.9898C406.11 71.3798 413.46 74.2198 421.14 74.2198C429.24 74.2198 436.86 71.3898 436.86 63.9698C436.86 57.5298 430.13 54.8898 421.04 53.9098C407.08 52.2498 394.19 48.5398 394.19 33.2098C394.19 19.1498 408.05 13.3898 420.65 13.2998C430.7 13.2998 441.09 15.9998 446.57 25.1698C447.11 26.0698 446.78 27.2398 445.85 27.7098L438.62 31.4298Z" fill="white"/>
<path d="M517.15 74.0698C517.89 74.8198 517.82 76.0198 517.03 76.7098C510.22 82.7298 501.69 85.5398 492.48 85.5398C467.1 85.5398 456.36 68.0698 456.26 50.2998C456.16 32.4298 467.78 14.2798 492.48 14.2798C501.13 14.2798 509.36 17.3398 516.13 23.3798C516.92 24.0898 516.97 25.2998 516.21 26.0398L510.18 31.8598C509.53 32.4898 508.5 32.5398 507.8 31.9598C503.46 28.2998 497.93 26.5798 492.48 26.5798C475.98 26.5798 468.85 38.8798 468.95 50.2998C469.05 61.6198 475.59 73.4398 492.48 73.4398C497.92 73.4398 504.02 71.3998 508.46 67.6098C509.17 67.0098 510.22 67.0698 510.87 67.7298L517.14 74.0698H517.15Z" fill="white"/>
<path d="M609.33 85.8999C589.68 105.55 557.82 105.55 538.17 85.8999C518.52 66.2499 518.52 34.3899 538.17 14.7399C557.82 -4.91006 589.68 -4.91006 609.33 14.7399C628.98 34.3899 628.98 66.2499 609.33 85.8999ZM604.73 27.8599L607.9 24.6899C608.56 24.0299 608.6 22.9899 608.01 22.2599C607.09 21.1399 606.12 20.0399 605.07 18.9999C604.02 17.9499 602.93 16.9699 601.81 16.0599C601.09 15.4699 600.04 15.5099 599.38 16.1699L596.21 19.3399C597.82 20.5099 599.36 21.8099 600.81 23.2599C602.26 24.7099 603.57 26.2499 604.74 27.8599L577.86 54.7399C575.65 56.9499 572.16 57.0799 569.79 55.1499C569.63 55.0199 569.48 54.8799 569.33 54.7399C569.18 54.5899 569.05 54.4399 568.92 54.2799C566.99 51.9099 567.13 48.4199 569.33 46.2099L596.21 19.3299C580.64 8.00994 558.46 9.88994 545.08 24.9699C532.39 39.2699 532.35 61.1999 544.98 75.5499C559.72 92.2999 585.28 92.9099 600.81 77.3799C614.3 63.8899 615.61 42.8299 604.74 27.8599" fill="#60C4B0"/>
<path d="M691.52 80.99L672.73 59.77C685.71 57.13 690.01 47.66 690.01 38.29C690.01 26.48 681.52 15.74 665.41 15.64C655.18 15.64 644.94 15.55 634.7 15.54C633.71 15.54 632.9 16.35 632.9 17.34V82.18C632.9 83.17 633.71 83.98 634.7 83.98H643.99C644.98 83.98 645.79 83.18 645.79 82.18V61.13H658.87L678.15 83.35C678.49 83.74 678.99 83.97 679.51 83.97H690.18C691.73 83.97 692.55 82.14 691.52 80.98M645.78 49.51V27.65H665.4C673.5 27.65 677.12 33.12 677.12 38.58C677.12 44.04 673.6 49.51 665.4 49.51H645.78Z" fill="white"/>
<path d="M115.34 81.5401L90.63 16.8001C90.36 16.1001 89.7 15.6401 88.95 15.6401H77.63C76.89 15.6401 76.22 16.1001 75.95 16.8001L51.24 81.5401C50.79 82.7201 51.66 83.9801 52.92 83.9801H62.87C63.61 83.9801 64.28 83.5201 64.55 82.8201L83.3 33.7101L102.05 82.8201C102.32 83.5201 102.98 83.9801 103.73 83.9801H113.68C114.94 83.9801 115.81 82.7201 115.36 81.5401" fill="white"/>
</g>
<defs>
<clipPath id="clip0_32_176">
<rect width="750" height="100.63" fill="white"/>
</clipPath>
</defs>
</svg>
