<svg width="355" height="306" viewBox="0 0 355 306" fill="none" xmlns="http://www.w3.org/2000/svg">
<g clip-path="url(#clip0_319_680)">
<mask id="mask0_319_680" style="mask-type:luminance" maskUnits="userSpaceOnUse" x="-44" y="0" width="399" height="399">
<path d="M355 0H-44V399H355V0Z" fill="white"/>
</mask>
<g mask="url(#mask0_319_680)">
<path d="M137.56 153.957C134.23 157.156 132.96 162.134 136.138 165.977C139.128 169.593 144.914 170.36 148.651 167.478C157.667 160.517 148.27 147.675 138.539 150.333C136.737 150.825 137.185 153.394 138.965 153.495C141.811 153.659 144.857 153.765 147.129 155.759C149.571 157.9 149.624 161.524 147.621 163.987C142.318 170.509 133.107 160.905 138.677 155.074C139.38 154.339 138.295 153.252 137.56 153.957Z" fill="#8AA9FC"/>
<path d="M230.434 164.977C231.655 169.511 233.001 173.996 234.398 178.478C234.735 179.557 235.754 179.894 236.681 179.265C240.324 176.789 243.972 174.356 247.422 171.616C248.088 171.088 247.939 170.026 247.285 169.577C243.243 166.802 237.783 162.707 232.654 162.678C231.348 162.671 230.439 164.507 231.761 165.27C233.832 166.463 236.312 166.887 238.523 167.807C241.074 168.867 243.601 170.113 245.854 171.721C245.905 170.978 245.954 170.234 246.004 169.49C242.147 171.866 238.514 174.528 234.845 177.181C235.568 177.325 236.289 177.472 237.011 177.616C235.447 173.188 233.838 168.79 232.103 164.426C231.736 163.506 230.174 164.011 230.434 164.977Z" fill="#528AA3"/>
<path d="M256.018 188.991C261.434 186.396 266.978 183.412 271.86 179.911C273.653 178.624 271.887 176.115 269.997 177.104C264.778 179.836 259.694 183.368 255.039 186.969C254.104 187.691 254.791 189.578 256.018 188.991Z" fill="#EDC483"/>
<path d="M56.4655 205.547C55.3337 199.65 53.8585 193.529 51.7115 187.919C50.923 185.857 48.0469 186.927 48.5237 189.006C49.84 194.748 51.9616 200.564 54.2612 205.981C54.7233 207.068 56.722 206.882 56.4655 205.547Z" fill="#E8947E"/>
<path d="M73.5145 153.335C73.4127 153.246 73.3131 153.155 73.2114 153.066C71.8698 151.879 69.6676 151.644 68.362 153.066C67.0437 154.503 67.0903 156.476 68.362 157.913C68.4531 158.015 68.5443 158.117 68.6333 158.219C69.8329 159.575 72.3064 159.535 73.5145 158.219C74.7162 156.909 74.96 154.613 73.5145 153.335Z" fill="#251A51"/>
<path d="M91.0029 201.483C91.2763 199.665 91.2254 197.937 92.2428 196.335C94.269 193.145 97.1473 193.944 99.9344 195.349C102.775 196.78 105.447 197.636 108.535 196.301C113.357 194.213 115.621 186.941 111.019 183.521C109.529 182.412 108.063 184.241 108.262 185.642C108.542 187.598 109.512 189.752 107.836 191.433C105.596 193.681 102.965 191.793 100.729 190.784C98.313 189.695 95.7484 189.455 93.2559 190.462C88.9639 192.198 85.8525 198.014 89.2585 201.943C89.7396 202.496 90.8884 202.248 91.0029 201.483Z" fill="#6E3281"/>
<path d="M154.357 204.999C160.15 203.42 166.142 201.481 171.572 198.912C173.567 197.969 172.28 195.184 170.243 195.817C164.618 197.568 158.984 200.128 153.758 202.835C152.709 203.378 153.046 205.357 154.357 204.999Z" fill="#EDC483"/>
<path d="M125.612 211.032C126.833 215.566 128.179 220.05 129.576 224.533C129.913 225.612 130.932 225.951 131.858 225.322C135.502 222.846 139.147 220.411 142.6 217.67C143.263 217.142 143.117 216.081 142.462 215.631C138.42 212.857 132.961 208.762 127.831 208.732C126.526 208.726 125.616 210.561 126.939 211.324C129.01 212.518 131.49 212.942 133.7 213.861C136.252 214.921 138.779 216.167 141.032 217.776C141.082 217.032 141.131 216.288 141.182 215.544C137.325 217.92 133.692 220.582 130.023 223.236C130.746 223.38 131.466 223.526 132.189 223.67C130.625 219.243 129.016 214.845 127.28 210.481C126.914 209.559 125.352 210.065 125.612 211.032Z" fill="#EDE6F5"/>
<path d="M133.58 256.411C139.565 256.856 145.858 257.032 151.835 256.443C154.031 256.227 153.761 253.23 151.629 253.147C145.743 252.916 139.576 253.431 133.743 254.215C132.573 254.372 132.223 256.309 133.58 256.411Z" fill="#6E3281"/>
<path d="M212.774 147.324C213.113 142.655 213.45 137.986 213.788 133.317C217.457 132.282 219.366 127.586 217.902 124.066C216.437 120.546 212.277 118.569 208.503 119.108C210.885 117.486 212.261 115.952 210.306 113.835C208.35 111.718 205.287 111.032 202.407 110.921C199.526 110.81 196.614 111.159 193.78 110.632C191.271 110.166 188.81 109.017 186.277 109.336C183.744 109.655 181.323 112.505 182.689 114.663C179.036 114.127 177.032 112.08 173.786 113.842C170.54 115.604 168.911 120.617 171.7 123.037C169.857 123.976 169.396 126.643 170.432 128.434C171.468 130.225 173.591 131.164 175.654 131.313C177.717 131.461 179.762 130.938 181.764 130.42" fill="#251A51"/>
<path d="M212.382 288.835C212.382 288.835 164.231 300.034 144.89 280.694L151.812 234.497C153.914 221.219 152.661 195.669 162.831 186.605C164.799 184.85 166.692 183.977 166.692 183.977C173.826 180.532 186.518 178.672 198.702 178.625C213.504 178.568 228.739 189.761 232.627 204.045L216.607 241.52L212.382 288.835Z" fill="#528AA3"/>
<path d="M188.311 225.627C194.857 225.261 201.321 225.548 207.861 225.634C208.431 225.641 208.399 224.833 207.861 224.768C201.417 223.998 194.762 224.306 188.311 224.86C187.826 224.901 187.813 225.654 188.311 225.627Z" fill="#1A3066"/>
<path d="M217.629 188.907C195.516 190.904 210.639 223.509 216.306 233.382C216.621 233.932 217.469 233.437 217.157 232.883C211.524 222.91 196.448 192.569 217.701 189.447C218.003 189.402 217.937 188.879 217.629 188.907Z" fill="#1A3066"/>
<path d="M156.341 207.548C153.618 218.406 151.79 229.698 151.116 240.879C151.088 241.341 151.869 241.46 151.935 240.99C153.518 229.874 155.108 218.786 156.891 207.698C156.949 207.344 156.432 207.184 156.341 207.548Z" fill="#1A3066"/>
<path d="M206.766 155.998L201.443 184.387C200.244 190.783 193.937 194.876 187.608 193.365C181.741 191.966 177.984 186.235 179.038 180.297L181.928 164.026L206.766 155.998Z" fill="#F6AEA6"/>
<path d="M212.177 138.238L211.441 147.943C211.441 147.943 219.693 149.057 217.341 156.583C214.99 164.109 209.344 160.816 209.344 160.816C209.344 160.816 207.933 180.104 188.176 173.989C172.451 169.122 173.412 148.759 175.408 131.4C176.183 124.675 182.542 120.052 189.186 121.346L201.065 123.66C207.931 124.997 212.708 131.264 212.177 138.238Z" fill="#F6AEA6"/>
<path d="M213.718 152.59C213.32 153.488 212.922 154.384 212.524 155.282C212.829 154.775 213.691 154.853 214.006 155.354C214.322 155.854 214.137 156.558 213.705 156.961C213.273 157.365 212.655 157.515 212.064 157.528" stroke="#251A51" stroke-width="0.0896191" stroke-miterlimit="10"/>
<path d="M163.579 266.808C163.579 266.808 138.014 271.284 138.514 274.6C139.014 277.916 140.81 281.26 140.81 281.26L163.579 280.724V266.808Z" fill="#F6AEA6"/>
<path d="M208.402 209.8C208.402 209.8 229.97 251.347 219.26 253.559C184.028 260.838 163.578 266.807 163.578 266.807L161.782 280.49C162.308 282.558 233.064 280.768 241.445 271.263C247.361 264.55 255.226 249.039 238.493 215.466L233.408 204.045L208.402 209.8Z" fill="#F6AEA6"/>
<path d="M102.173 266.294C102.173 266.294 101.46 251.466 104.282 251.027C107.104 250.588 112.648 249.247 112.648 249.247C112.648 249.247 110.214 235.517 112.224 237.357C114.235 239.196 118.621 257.433 114.515 267.504L102.173 266.294Z" fill="#F6AEA6"/>
<path d="M163.002 186.345L121.857 229.777L107.457 271.604L114.023 283.639C114.023 283.639 124.939 266.924 131.391 250.429C139.585 229.48 156.253 225.009 156.253 225.009L163.002 186.345Z" fill="#F6AEA6"/>
<path d="M173.764 181.494C155.012 187.468 149.283 206.548 122.887 217.558L135.661 245.448L156.689 228.205L173.764 181.494Z" fill="#528AA3"/>
<path d="M204.392 204.044L218.017 235.705L248.75 230.095L228.046 194.437L203.533 204.044" fill="#528AA3"/>
<path d="M190.543 282.066L190.348 278.526L137.697 275.305L120.038 228.072L62.25 231.25L81.9645 282.328L190.543 282.066Z" fill="#9B9B9B"/>
<path d="M94.111 253.74C94.2401 256.103 96.2619 257.911 98.6242 257.782C100.987 257.651 102.797 255.631 102.666 253.269C102.537 250.906 100.517 249.098 98.1546 249.227C95.7923 249.358 93.982 251.378 94.111 253.74Z" fill="white" fill-opacity="0.41"/>
<path d="M92.4 253.833C92.581 257.142 95.4112 259.676 98.7199 259.493C102.029 259.312 104.563 256.484 104.38 253.175C104.197 249.866 101.369 247.33 98.0603 247.513C94.7516 247.694 92.2171 250.524 92.4 253.833Z" fill="white" fill-opacity="0.41"/>
<path d="M188.324 139.039C188.032 143.692 187.742 148.347 187.449 153.002C187.385 154.039 187.337 155.167 187.74 156.04C188.143 156.913 189.195 157.21 189.586 156.325" stroke="#251A51" stroke-width="0.896191" stroke-miterlimit="10"/>
<path d="M199.259 170.847C196.504 172.756 193.14 173.769 189.79 173.699C186.44 173.629 183.119 172.475 180.448 170.451" stroke="#251A51" stroke-width="0.0896191" stroke-miterlimit="10"/>
<path d="M195.038 158.431C194.279 160.039 193.62 161.14 191.915 161.688C190.211 162.237 188.656 161.712 187.192 160.707" stroke="#251A51" stroke-width="1.79238" stroke-miterlimit="10"/>
<path d="M199.549 140.051C198.513 139.069 196.963 138.662 195.579 139.008" stroke="#251A51" stroke-width="0.896191" stroke-miterlimit="10"/>
<path d="M183.014 136.368C181.666 135.581 179.963 135.433 178.499 135.974" stroke="#251A51" stroke-width="0.896191" stroke-miterlimit="10"/>
<path d="M211.442 147.947C205.927 142.572 204.307 133.613 202.81 126.059C197.704 129.778 190.679 130.692 184.789 128.405C182.941 130.577 180.769 132.475 178.369 134.015C177.686 134.452 176.878 134.877 176.102 134.642C175.177 134.363 174.765 133.302 174.544 132.361C173.84 129.348 173.813 126.123 174.863 123.212C175.914 120.301 178.118 117.745 181.004 116.629C184.089 115.435 187.56 115.955 190.762 116.785C195.585 118.036 200.234 119.957 204.534 122.476C208.754 124.947 212.808 128.218 214.599 132.769C216.389 137.32 216.38 146.166 212.064 148.467" fill="#251A51"/>
<path d="M198.454 145.197C198.382 146.19 198.312 147.185 198.24 148.178" stroke="#251A51" stroke-width="1.79237" stroke-miterlimit="10"/>
<path d="M182.589 143.17C182.518 144.163 182.448 145.157 182.376 146.15" stroke="#251A51" stroke-width="1.79237" stroke-miterlimit="10"/>
<path d="M230.322 109.793C229.619 111.157 231.919 146.403 231.919 146.403L249.274 144.962L247.25 154.267L255.731 144.704L272.714 142.741L271.681 108.578L230.322 109.793Z" fill="#386377"/>
<path d="M239.819 125.564L243.469 138.25L248.574 137.256L248.077 134.702L249.526 133.831L252.262 136.536L260.912 134.851L262.033 131.541L259.572 130.99L262.751 129.93L262.059 126.384L259.31 126.625L263.085 125.596L262.227 121.199L253.435 122.913C253.435 122.913 254.004 116.765 251.406 114.769L249.421 115.156C249.421 115.156 250.091 117.087 250.029 118.277C249.966 119.466 248.237 124.955 248.237 124.955L245.54 126.216L244.897 124.428L239.819 125.564Z" fill="white"/>
<path d="M48.9405 281.635L280.845 278.74L294.427 285.872C294.427 285.872 116.4 334.735 48.9405 281.635Z" fill="#84818B" fill-opacity="0.06"/>
</g>
</g>
<defs>
<clipPath id="clip0_319_680">
<rect width="355" height="306" fill="white"/>
</clipPath>
</defs>
</svg>
