<svg width="97" height="125" viewBox="0 0 97 125" fill="none" xmlns="http://www.w3.org/2000/svg">
<path d="M96.5939 115.771C96.594 118.87 94.2881 121.201 91.2286 121.201L21.212 121.201C18.1525 121.201 15.632 118.87 15.632 115.771L15.6318 16.1488C15.6318 13.0491 18.1523 10.7656 21.2118 10.7656L91.2284 10.7655C94.2879 10.7655 96.5937 13.0489 96.5938 16.1487L96.5939 115.771Z" fill="#082A80"/>
<path d="M95.8482 13.2772C94.2132 15.4986 92.6875 17.6964 90.912 19.8942L90.9122 109.528C90.9122 112.628 88.5296 114.805 85.4701 114.805L21.7975 114.805C20.8862 117.29 19.9431 118.738 18.9563 120.63C19.6458 120.942 20.4077 121.197 21.2117 121.197L91.2283 121.196C94.2878 121.196 96.5938 118.866 96.5938 115.767L96.5936 16.1446C96.5936 15.0954 96.3427 14.1171 95.8482 13.2772Z" fill="#082A80"/>
<path d="M92.9037 115.911L20.9376 117.242L19.0566 15.53L91.0228 14.1991L92.9037 115.911Z" fill="#EDEDED"/>
<path d="M92.6299 116.314L20.6525 115.892L21.2489 14.1641L93.2263 14.5861L92.6299 116.314Z" fill="white"/>
<path d="M75.1241 100.707C78.249 100.707 80.7862 103.244 80.7862 106.369C80.7862 109.494 78.249 112.031 75.1241 112.031C71.9991 112.031 69.4619 109.494 69.4619 106.369C69.4619 103.244 71.9991 100.707 75.1241 100.707Z" stroke="#B0B0B0" stroke-width="0.899946"/>
<path d="M70.0137 102.068L75.9037 107.291L81.9049 95.0664" stroke="#2BBD12" stroke-width="2.22267" stroke-linecap="round"/>
<path d="M29.1561 86.1445C31.0343 86.1445 32.5593 87.6695 32.5593 89.5477C32.5593 91.4259 31.0343 92.9509 29.1561 92.9509C27.2779 92.9509 25.7529 91.4259 25.7529 89.5477C25.7529 87.6695 27.2779 86.1445 29.1561 86.1445Z" stroke="#B0B0B0" stroke-width="0.5409"/>
<path d="M25.7949 86.5719L29.9138 90.2245L34.1105 81.6758" stroke="#2BBD12" stroke-width="1.24345" stroke-linecap="round"/>
<path d="M74.2225 92.4394H35.8721V90.6641H74.2225V92.4394Z" fill="#B0B0B0"/>
<path d="M80.6142 89.597H35.8721V88.8867H80.6142V89.597Z" fill="#B0B0B0"/>
<path d="M68.1859 87.4638H35.8721V86.3984H68.1859V87.4638Z" fill="#B0B0B0"/>
<path d="M29.3114 72.625C31.1896 72.625 32.7145 74.15 32.7145 76.0282C32.7145 77.9064 31.1896 79.4313 29.3114 79.4313C27.4332 79.4313 25.9082 77.9064 25.9082 76.0282C25.9082 74.15 27.4332 72.625 29.3114 72.625Z" stroke="#B0B0B0" stroke-width="0.5409"/>
<path d="M25.873 73.2828L29.992 76.9354L34.1886 68.3867" stroke="#2BBD12" stroke-width="1.24345" stroke-linecap="round"/>
<path d="M74.578 78.5892H36.2275V77.8789H74.578V78.5892Z" fill="#B0B0B0"/>
<path d="M80.9696 76.456H36.2275V75.3906H80.9696V76.456Z" fill="#B0B0B0"/>
<path d="M68.5404 73.9716H36.2266V72.9062H68.5404V73.9716Z" fill="#B0B0B0"/>
<path d="M29.3114 58.1602C31.1896 58.1602 32.7145 59.6851 32.7145 61.5633C32.7145 63.4415 31.1896 64.9665 29.3114 64.9665C27.4332 64.9665 25.9082 63.4415 25.9082 61.5633C25.9082 59.6851 27.4332 58.1602 29.3114 58.1602Z" stroke="#B0B0B0" stroke-width="0.5409"/>
<path d="M25.4062 58.5133L29.5252 62.1659L33.7218 53.6172" stroke="#2BBD12" stroke-width="1.24345" stroke-linecap="round"/>
<path d="M74.578 64.3856H36.2275V63.3203H74.578V64.3856Z" fill="#B0B0B0"/>
<path d="M82.034 61.5424H36.2266V60.832H82.034V61.5424Z" fill="#B0B0B0"/>
<path d="M68.5404 59.4174H36.2266V58.707H68.5404V59.4174Z" fill="#B0B0B0"/>
<path d="M29.078 44.332C30.9562 44.332 32.4811 45.857 32.4811 47.7352C32.4811 49.6134 30.9562 51.1384 29.078 51.1384C27.1998 51.1384 25.6748 49.6134 25.6748 47.7352C25.6748 45.857 27.1998 44.332 29.078 44.332Z" stroke="#B0B0B0" stroke-width="0.5409"/>
<path d="M25.4062 44.6773L29.5252 48.33L33.7218 39.7812" stroke="#2BBD12" stroke-width="1.24345" stroke-linecap="round"/>
<path d="M59.6636 50.1791H35.8721V49.4688H59.6636V50.1791Z" fill="#B0B0B0"/>
<path d="M72.4469 48.0497H35.8721V46.9844H72.4469V48.0497Z" fill="#B0B0B0"/>
<path d="M82.3898 45.9203H35.8721V44.5H82.3898V45.9203Z" fill="#B0B0B0"/>
<path d="M26.6406 34.5586H84.1662" stroke="#2E2E2E" stroke-width="0.310862" stroke-linecap="round" stroke-linejoin="round"/>
<path d="M31.9888 32.2169L30.4562 29.8403C30.9427 29.7579 31.3127 29.5699 31.5707 29.2777C31.8271 28.9854 31.9546 28.6093 31.9546 28.1523C31.9546 27.6161 31.7821 27.1856 31.437 26.8607C31.0919 26.5343 30.5868 26.3711 29.9184 26.3711H27.8574V32.2169H28.8009V29.8823H29.4708L30.9287 32.2169H31.9888ZM28.8009 27.1824H29.8438C30.2355 27.1824 30.5246 27.2726 30.7096 27.4513C30.8945 27.6316 30.9863 27.8819 30.9863 28.2021C30.9863 28.8751 30.6054 29.2108 29.8438 29.2108H28.8009V27.1824Z" fill="#2E2E2E"/>
<path d="M36.1447 27.1327V26.3711H32.7998V32.2169H36.1447V31.4475H33.7433V29.6336H35.896V28.9046H33.7433V27.1327H36.1447Z" fill="#2E2E2E"/>
<path d="M39.7289 26.3242C39.16 26.3242 38.6595 26.4501 38.2258 26.7019C37.7922 26.9522 37.458 27.3034 37.2202 27.7526C36.9824 28.2034 36.8643 28.7179 36.8643 29.2976C36.8643 29.8774 36.9824 30.3919 37.2202 30.841C37.458 31.2918 37.7937 31.6431 38.2305 31.8964C38.6657 32.1513 39.1693 32.2772 39.7366 32.2772C40.2449 32.2772 40.6956 32.1731 41.0904 31.9633C41.4852 31.7534 41.8023 31.4737 42.0432 31.1224C42.2826 30.7727 42.4365 30.381 42.5017 29.9504V29.0489H39.5641V29.7437H41.7075C41.636 30.2691 41.4262 30.681 41.078 30.9825C40.7314 31.2825 40.3133 31.4332 39.8283 31.4332C39.4304 31.4332 39.0823 31.3493 38.7807 31.1814C38.4807 31.012 38.2476 30.768 38.0813 30.4478C37.9165 30.1276 37.8326 29.7437 37.8326 29.2976C37.8326 28.8717 37.915 28.5018 38.0766 28.1878C38.2398 27.8723 38.4668 27.6298 38.7559 27.4589C39.0465 27.2879 39.3729 27.2024 39.7366 27.2024C40.1345 27.2024 40.478 27.2957 40.7687 27.4837C41.0578 27.6718 41.2661 27.9221 41.3935 28.2376H42.3867C42.2375 27.6469 41.9313 27.1806 41.4681 26.8387C41.0034 26.4967 40.4236 26.3242 39.7289 26.3242Z" fill="#2E2E2E"/>
<path d="M43.4473 26.3711V32.2169H44.3907V26.3711H43.4473Z" fill="#2E2E2E"/>
<path d="M49.3659 30.6614C49.3659 30.2915 49.285 29.993 49.1218 29.7661C48.9586 29.5407 48.7597 29.3682 48.525 29.2485C48.2918 29.1304 47.9887 29.0138 47.6188 28.8972C47.3266 28.7978 47.0966 28.7107 46.9272 28.6361C46.7593 28.5615 46.6194 28.4605 46.509 28.3299C46.3987 28.2009 46.3443 28.0361 46.3443 27.8372C46.3443 27.5838 46.4236 27.3896 46.5837 27.2543C46.7437 27.1191 46.9567 27.0507 47.2225 27.0507C47.5147 27.0507 47.7447 27.13 47.9126 27.287C48.082 27.444 48.1846 27.6336 48.2234 27.8543H49.2415C49.1918 27.3911 48.9928 27.015 48.6416 26.7274C48.2918 26.4414 47.8178 26.2969 47.2225 26.2969C46.8463 26.2969 46.5153 26.3622 46.2277 26.4927C45.9417 26.6217 45.721 26.8051 45.5656 27.0429C45.4117 27.2808 45.334 27.5559 45.334 27.8698C45.334 28.2289 45.4133 28.5195 45.5749 28.7403C45.7334 28.961 45.9293 29.1288 46.1578 29.2454C46.3863 29.3604 46.6831 29.477 47.0484 29.592C47.3453 29.6915 47.58 29.7801 47.7509 29.8578C47.9219 29.9355 48.0665 30.0412 48.1815 30.1764C48.2981 30.3117 48.3556 30.4842 48.3556 30.694C48.3556 30.9365 48.2779 31.1354 48.1193 31.2893C47.9623 31.4448 47.7401 31.5225 47.4541 31.5225C47.1339 31.5225 46.8774 31.4308 46.6878 31.2489C46.4966 31.0671 46.3878 30.8479 46.3614 30.5945H45.3511C45.3775 30.9256 45.4863 31.2178 45.6728 31.4727C45.8609 31.7261 46.1127 31.9235 46.4267 32.0634C46.7422 32.2048 47.0981 32.2748 47.4945 32.2748C47.9033 32.2748 48.2483 32.2002 48.5296 32.0509C48.811 31.9033 49.0208 31.7059 49.1591 31.4603C49.2975 31.2147 49.3659 30.9474 49.3659 30.6614Z" fill="#2E2E2E"/>
<path d="M49.8555 26.3711V27.1327H51.4782V32.2169H52.4294V27.1327H54.0614V26.3711H49.8555Z" fill="#2E2E2E"/>
<path d="M58.8882 32.2169L57.3556 29.8403C57.8421 29.7579 58.2121 29.5699 58.4701 29.2777C58.7265 28.9854 58.854 28.6093 58.854 28.1523C58.854 27.6161 58.6815 27.1856 58.3364 26.8607C57.9914 26.5343 57.4862 26.3711 56.8179 26.3711H54.7568V32.2169H55.7003V29.8823H56.3702L57.8282 32.2169H58.8882ZM55.7003 27.1824H56.7432C57.1349 27.1824 57.424 27.2726 57.609 27.4513C57.794 27.6316 57.8857 27.8819 57.8857 28.2021C57.8857 28.8751 57.5049 29.2108 56.7432 29.2108H55.7003V27.1824Z" fill="#2E2E2E"/>
<path d="M63.632 32.2189H64.6423L62.4974 26.4648H61.4125L59.2598 32.2189H60.2701L60.7177 30.9521H63.1844L63.632 32.2189ZM60.9819 30.2232L61.9503 27.4907L62.9202 30.2232H60.9819Z" fill="#2E2E2E"/>
<path d="M64.8906 26.3711V27.1327H66.5133V32.2169H67.4646V27.1327H69.0966V26.3711H64.8906Z" fill="#2E2E2E"/>
<path d="M69.792 26.3711V32.2169H70.7355V26.3711H69.792Z" fill="#2E2E2E"/>
<path d="M74.5759 26.2969C74.0304 26.2969 73.5377 26.4243 73.0994 26.6777C72.6595 26.9326 72.3129 27.287 72.0595 27.7424C71.8062 28.1978 71.6787 28.7123 71.6787 29.2858C71.6787 29.8609 71.8062 30.3754 72.0595 30.8308C72.3129 31.2862 72.6595 31.6422 73.0994 31.8986C73.5377 32.1551 74.0304 32.2841 74.5759 32.2841C75.1168 32.2841 75.608 32.1551 76.0463 31.8986C76.4846 31.6422 76.8297 31.2862 77.0815 30.8308C77.3317 30.3754 77.4576 29.8609 77.4576 29.2858C77.4576 28.7123 77.3317 28.1978 77.0815 27.7424C76.8297 27.287 76.4846 26.9326 76.0463 26.6777C75.608 26.4243 75.1168 26.2969 74.5759 26.2969ZM74.5759 27.1751C74.9459 27.1751 75.2754 27.2605 75.566 27.4315C75.8551 27.6025 76.0821 27.8481 76.2453 28.1683C76.4069 28.4885 76.4893 28.8615 76.4893 29.2858C76.4893 29.7117 76.4069 30.0847 76.2453 30.4034C76.0821 30.7236 75.8551 30.9691 75.566 31.1417C75.2754 31.3126 74.9459 31.3981 74.5759 31.3981C74.2014 31.3981 73.8672 31.3126 73.575 31.1417C73.2828 30.9691 73.0543 30.7236 72.8911 30.4034C72.7294 30.0847 72.647 29.7117 72.647 29.2858C72.647 28.8615 72.7294 28.4885 72.8911 28.1683C73.0543 27.8481 73.2828 27.6025 73.575 27.4315C73.8672 27.2605 74.2014 27.1751 74.5759 27.1751Z" fill="#2E2E2E"/>
<path d="M83.129 26.3828H82.1855V30.7131L79.3458 26.3828H78.4023V32.2193H79.3458V27.906L82.1855 32.2193H83.129V26.3828Z" fill="#2E2E2E"/>
<path d="M71.8282 8.27697L64.198 8.27699C64.2143 8.27699 64.2304 7.78365 64.2304 7.60195C64.2304 3.73902 60.4886 0.539013 55.8729 0.539022C51.2572 0.539031 47.5155 3.7734 47.5155 7.63633C47.5155 7.81803 47.5315 8.27702 47.5479 8.27702L40.9307 8.27703C37.5738 8.27704 34.8526 11.8282 34.8526 16.7995L77.9064 16.7994C77.9064 11.8281 75.1851 8.27697 71.8282 8.27697ZM55.6197 10.6932C54.221 10.6932 53.0871 9.48875 53.0871 8.00299C53.0871 6.51722 54.221 5.31278 55.6197 5.31278C57.0184 5.31278 58.1523 6.51721 58.1523 8.00298C58.1523 9.48874 57.0184 10.6932 55.6197 10.6932Z" fill="#EECA2F"/>
<g style="mix-blend-mode:multiply" opacity="0.4">
<path d="M77.7462 16.7983C77.7462 12.182 75.4152 8.70376 72.4081 8.18743C73.53 9.75075 74.2272 11.8268 74.2272 14.3125L34.9332 14.3126C34.7794 15.3779 34.6924 16.0882 34.6924 16.7984L77.7462 16.7983Z" fill="#EECA2F"/>
</g>
<path d="M67.5195 123.747C67.5195 123.747 70.7379 124.606 71.0278 124.167C71.0278 124.167 71.502 123.773 68.4021 121.527L67.5195 123.747Z" fill="#4D4D4D"/>
<path d="M26.1101 107.995C25.6171 108.172 25.0742 107.916 24.8974 107.423C24.0446 105.046 19.98 104.465 16.7141 103.999C15.1597 103.778 13.6911 103.567 12.6488 103.182C10.5388 102.401 7.85081 101.227 5.77223 99.067C2.80815 95.9861 1.6693 92.7093 1.18326 91.3098C1.1172 91.1203 1.06918 90.9744 1.03047 90.882C0.787688 90.5207 0.819706 90.027 1.13259 89.6991C1.49459 89.3207 2.0944 89.3074 2.47318 89.6686C2.69327 89.8789 2.7755 90.1156 2.97414 90.6876C3.41945 91.9691 4.46271 94.9708 7.13862 97.7519C8.95033 99.6351 11.387 100.693 13.3072 101.403C14.1596 101.719 15.5307 101.915 16.9822 102.122C20.7519 102.66 25.4434 103.33 26.6822 106.783C26.859 107.276 26.603 107.819 26.1101 107.995Z" fill="#808080"/>
<path d="M68.1918 124.114C68.1918 124.114 35.4317 113.262 2.24215 92.9386C2.24215 92.9386 -1.90943 87.6093 4.74535 88.143C4.74535 88.143 32.4371 97.4535 69.3544 121.847L68.1918 124.114Z" fill="#CC600E"/>
<g opacity="0.1">
<path d="M3.98256 89.752C3.98256 89.752 31.6498 99.0547 68.542 123.424L69.3546 121.839C32.4374 97.4458 4.74557 88.1352 4.74557 88.1352C1.58037 87.8814 0.861498 88.9542 0.976207 90.1487C1.55099 89.8073 2.4957 89.6328 3.98256 89.752Z" fill="white"/>
</g>
<g style="mix-blend-mode:multiply" opacity="0.3">
<path d="M68.1474 122.121C68.1474 122.121 35.3873 111.269 2.1977 90.9453C2.1977 90.9453 1.53899 90.0979 1.16704 89.1133C0.365014 90.5289 2.24309 92.9436 2.24309 92.9436C35.4327 113.267 68.1927 124.119 68.1927 124.119L69.3554 121.852C69.086 121.674 68.8221 121.505 68.5538 121.329L68.1474 122.121Z" fill="#CC600E"/>
</g>
</svg>
