<svg width="87" height="116" viewBox="0 0 87 116" fill="none" xmlns="http://www.w3.org/2000/svg">
<path d="M86.1996 110.546L86.0419 10.4667C86.0382 8.0608 84.0846 6.11342 81.6786 6.11719L4.52923 6.2387C2.12331 6.24248 0.175916 8.19599 0.179693 10.6019L0.337322 110.681C0.341099 113.087 2.29461 115.034 4.70054 115.03L81.85 114.909C84.256 114.905 86.2033 112.952 86.1996 110.546Z" fill="url(#paint0_linear_728_2186)"/>
<path d="M81.76 9.91016V110.705H4.74414V9.91016H81.76Z" fill="#EFFAFB"/>
<path d="M71.3345 98.63C71.2367 101.335 68.8114 103.557 65.9516 103.453C63.1237 103.351 61.1646 101.015 61.5289 98.3702C61.8744 95.8623 64.2065 93.9594 66.7771 94.0047C69.374 94.0506 71.4271 96.0677 71.3345 98.63Z" fill="#7984A6"/>
<path d="M65.7462 105.383C61.8593 105.227 59.2288 101.968 59.7896 98.3672L60.4781 98.3855C60.001 101.596 62.3623 104.477 65.8139 104.61C65.9147 104.614 66.016 104.616 66.1151 104.615L66.0854 105.388C65.9736 105.389 65.8596 105.387 65.7462 105.383Z" fill="#7984A6"/>
<path d="M73.0775 98.7234L72.354 98.7041C72.4331 95.6146 69.9331 93.2018 66.8203 93.1521L66.873 92.5508C70.3356 92.602 73.14 95.2743 73.0775 98.7234Z" fill="#7984A6"/>
<path d="M69.0144 98.5686C68.9292 99.9863 67.6463 101.128 66.1593 101.081C64.6808 101.035 63.6219 99.8309 63.7821 98.4299C63.9378 97.0684 65.1941 96.0171 66.599 96.0475C68.0117 96.0781 69.0972 97.1912 69.0144 98.5686Z" fill="white"/>
<path d="M54.4973 104.965L26.4106 103.54L26.556 103.25L54.5775 104.655L54.4973 104.965Z" fill="#7984A6"/>
<path d="M51.2879 105.074C50.5376 105.13 49.7996 104.572 49.3713 103.615C49.2902 103.433 49.22 103.234 49.1641 103.02C48.61 104.134 47.6461 104.771 46.6215 104.676C45.436 104.566 44.4358 103.541 43.9525 101.971C43.5572 100.688 43.3306 98.4813 44.3966 95.1887C44.5921 94.5848 44.7419 94.1114 44.8565 93.7405C44.7262 94.0279 44.5862 94.3399 44.4469 94.6505C43.5113 96.736 42.1712 99.7235 41.327 100.895C40.6833 101.789 40.0696 102.271 39.4577 102.359C38.4367 102.507 37.5948 101.551 36.6748 99.2403C36.4817 98.7554 36.3337 98.3834 36.2398 98.2398C36.1963 98.3111 36.1425 98.4086 36.0926 98.4988C35.6989 99.2109 34.8636 100.721 32.6221 102.305C31.0156 103.439 30.0562 103.82 29.7925 103.424C29.4031 102.84 30.9144 100.784 32.4365 99.4328C33.0298 98.9059 33.1989 98.6707 33.2462 98.5864C32.9504 98.6344 31.6072 99.3676 30.1734 100.78L29.947 100.592C31.3579 99.2064 32.9484 98.2108 33.447 98.2293C33.5678 98.2336 33.6414 98.2941 33.6488 98.3951C33.6591 98.5353 33.5664 98.817 32.6391 99.6429C31.1285 100.988 29.9277 102.789 30.1589 103.132C30.2764 103.307 30.9525 103.106 32.4807 102.03C34.5954 100.54 35.3584 99.168 35.761 98.4439C35.9545 98.096 36.0707 97.887 36.2834 97.8362C36.5447 97.7745 36.6302 97.9853 37.0451 99.0154C37.5785 100.34 38.4369 102.141 39.5357 101.979C39.9864 101.914 40.4895 101.501 41.0259 100.76C41.8396 99.6358 43.175 96.6802 44.1076 94.616C44.4065 93.9543 44.6619 93.3892 44.855 92.9838C45.147 92.3709 45.2392 92.1962 45.4398 92.2033C45.6284 92.2104 45.6064 92.3579 45.429 92.9907C45.3014 93.446 45.0816 94.1596 44.7534 95.1838C42.909 100.939 44.825 104.095 46.7679 104.273C47.6593 104.354 48.4352 103.798 48.889 102.76C48.941 102.641 48.9947 102.522 49.0499 102.401C48.9096 101.16 49.2411 99.6011 50.5206 98.1474C51.0064 97.5954 51.3597 97.211 51.6032 96.9691C51.8629 96.7111 52.0748 96.5203 52.2473 96.6002C52.4715 96.704 52.3488 96.9578 51.3762 98.7057C50.7816 99.7743 50.0427 101.102 49.4608 102.365C49.5147 102.744 49.6163 103.088 49.7486 103.381C50.1522 104.274 50.857 104.786 51.494 104.645C51.9737 104.539 52.3945 104.07 52.7079 103.297L53.0803 103.366C52.5977 104.566 51.9474 104.943 51.4875 105.045C51.4211 105.06 51.3545 105.069 51.2879 105.074ZM51.7891 97.2369C51.5876 97.4433 51.2756 97.7812 50.7912 98.3336C49.8222 99.439 49.4474 100.609 49.4195 101.627C49.947 100.561 50.5446 99.4929 51.0425 98.6035C51.3266 98.096 51.6143 97.582 51.7891 97.2369Z" fill="#5C6EA6"/>
<g opacity="0.5">
<path d="M66.3226 35.8323L20.4102 35.8956L20.4072 33.7509L66.3197 33.6875L66.3226 35.8323Z" fill="#7984A6"/>
</g>
<path d="M75.8888 44.5745L10.8858 44.6642L10.8828 42.5195L75.8859 42.4297L75.8888 44.5745Z" fill="#D1DBE6"/>
<path d="M75.8674 39.8127L10.8643 39.9024L10.8613 37.7577L75.8645 37.668L75.8674 39.8127Z" fill="#D1DBE6"/>
<path d="M69.4484 49.344L10.9033 49.4248L10.9004 47.2801L69.4454 47.1992L69.4484 49.344Z" fill="#D1DBE6"/>
<path d="M76.235 54.3163L20.9421 54.3926L20.9404 53.1584L76.2333 53.082L76.235 54.3163Z" fill="#D1DBE6"/>
<path d="M76.235 56.7577L20.9421 56.834L20.9404 55.5998L76.2333 55.5234L76.235 56.7577Z" fill="#D1DBE6"/>
<path d="M76.235 59.203L20.9421 59.2793L20.9404 58.0451L76.2333 57.9688L76.235 59.203Z" fill="#D1DBE6"/>
<path d="M76.234 64.1366L20.9411 64.2129L20.9395 62.9787L76.2323 62.9023L76.234 64.1366Z" fill="#D1DBE6"/>
<path d="M76.235 66.5819L20.9421 66.6583L20.9404 65.424L76.2333 65.3477L76.235 66.5819Z" fill="#D1DBE6"/>
<path d="M76.235 69.0272L20.9421 69.1036L20.9404 67.8693L76.2333 67.793L76.235 69.0272Z" fill="#D1DBE6"/>
<path d="M76.235 74.4921L20.9421 74.5684L20.9404 73.3341L76.2333 73.2578L76.235 74.4921Z" fill="#D1DBE6"/>
<path d="M76.235 76.9335L20.9421 77.0098L20.9404 75.7755L76.2333 75.6992L76.235 76.9335Z" fill="#D1DBE6"/>
<path d="M76.234 79.3788L20.9411 79.4551L20.9395 78.2209L76.2323 78.1445L76.234 79.3788Z" fill="#D1DBE6"/>
<path d="M76.235 84.4647L20.9421 84.5411L20.9404 83.3068L76.2333 83.2305L76.235 84.4647Z" fill="#D1DBE6"/>
<path d="M76.234 86.9101L20.9411 86.9864L20.9395 85.7521L76.2323 85.6758L76.234 86.9101Z" fill="#D1DBE6"/>
<path d="M76.234 89.3515L20.9411 89.4278L20.9395 88.1935L76.2323 88.1172L76.234 89.3515Z" fill="#D1DBE6"/>
<path d="M15.1093 11.5312H9.39866H9.39315H9.32763L9.25637 11.5315L9.2436 11.7298C9.07585 13.031 8.00237 14.0094 6.69373 14.056H6.65625V14.1273V14.1985V19.6129H6.79862V14.1902C8.13257 14.0947 9.21247 13.0842 9.38522 11.7435L9.38967 11.6736H15.1093V11.5312Z" fill="#7984A6"/>
<path d="M71.6421 11.5312H77.3528H77.3582H77.4238L77.495 11.5315L77.5078 11.7298C77.6756 13.031 78.7489 14.0094 80.0576 14.056H80.0951V14.1273V14.1985V19.6129H79.9528V14.1902C78.6188 14.0947 77.5389 13.0842 77.3662 11.7435L77.3617 11.6736H71.6421V11.5312Z" fill="#7984A6"/>
<path d="M15.1083 108.777H9.39769H9.39217H9.32666V108.777L9.2554 108.777L9.24263 108.578C9.07487 107.277 8.00139 106.299 6.69275 106.252H6.65527V106.181V106.11V100.695H6.79764V106.118C8.13159 106.214 9.2115 107.224 9.38424 108.565L9.3887 108.635H15.1083V108.777Z" fill="#7984A6"/>
<path d="M71.6411 108.777H77.3518H77.3572H77.4228V108.777L77.494 108.777L77.5069 108.578C77.6746 107.277 78.748 106.299 80.0567 106.252H80.0941V106.181V106.11V100.695H79.9518V106.118C78.6178 106.214 77.5379 107.224 77.3652 108.565L77.3607 108.635H71.6411V108.777Z" fill="#7984A6"/>
<path d="M24.8054 25.5905H23.3345V28.8707H21.4883V19.9102H24.8176C25.8762 19.9102 26.6925 20.1461 27.267 20.6178C27.8414 21.0896 28.1287 21.7564 28.1287 22.618C28.1287 23.2293 27.9963 23.739 27.7317 24.1472C27.4671 24.5555 27.066 24.8807 26.5286 25.1227L28.4671 28.7844V28.8707H26.4855L24.8054 25.5905ZM23.3345 24.0949H24.8238C25.2874 24.0949 25.6463 23.9771 25.9008 23.7411C26.1551 23.5052 26.2824 23.1802 26.2824 22.7657C26.2824 22.3432 26.1624 22.0108 25.9223 21.7687C25.6823 21.5266 25.314 21.4056 24.8176 21.4056H23.3345V24.0949Z" fill="#5C6EA6"/>
<path d="M34.9233 24.9873H31.3785V27.3875H35.5387V28.8707H29.5322V19.9102H35.5264V21.4056H31.3785V23.5411H34.9233V24.9873Z" fill="#5C6EA6"/>
<path d="M38.4679 25.7135V28.8707H36.6216V19.9102H40.1172C40.79 19.9102 41.3818 20.0333 41.8926 20.2794C42.4035 20.5256 42.7962 20.8753 43.0712 21.3287C43.3461 21.7821 43.4835 22.2979 43.4835 22.8764C43.4835 23.7544 43.1829 24.4469 42.5819 24.9535C41.9808 25.4603 41.149 25.7135 40.0864 25.7135H38.4679ZM38.4679 24.218H40.1172C40.6054 24.218 40.9776 24.1033 41.2342 23.8734C41.4906 23.6437 41.6188 23.3154 41.6188 22.8887C41.6188 22.4497 41.4896 22.0948 41.2311 21.8241C40.9726 21.5533 40.6156 21.4138 40.1602 21.4056H38.4679V24.218Z" fill="#5C6EA6"/>
<path d="M52.1118 24.5955C52.1118 25.4776 51.9558 26.251 51.644 26.9156C51.3321 27.5803 50.886 28.0932 50.3055 28.4542C49.7248 28.8152 49.0593 28.9958 48.3085 28.9958C47.5658 28.9958 46.9032 28.8173 46.3206 28.4603C45.738 28.1033 45.2867 27.5936 44.9667 26.9309C44.6467 26.2684 44.4845 25.5062 44.4805 24.6446V24.2016C44.4805 23.3195 44.6395 22.543 44.9574 21.8722C45.2753 21.2014 45.7246 20.6866 46.3052 20.3275C46.8858 19.9686 47.5493 19.7891 48.2961 19.7891C49.0428 19.7891 49.7063 19.9686 50.287 20.3275C50.8675 20.6866 51.3168 21.2014 51.6348 21.8722C51.9527 22.543 52.1118 23.3175 52.1118 24.1954V24.5955ZM50.2409 24.1893C50.2409 23.2498 50.0725 22.5359 49.7362 22.0476C49.3998 21.5595 48.9197 21.3153 48.2961 21.3153C47.6766 21.3153 47.1986 21.5564 46.8622 22.0384C46.5257 22.5205 46.3555 23.2272 46.3514 24.1585V24.5955C46.3514 25.5104 46.5196 26.2202 46.856 26.7248C47.1924 27.2294 47.6767 27.4818 48.3085 27.4818C48.9279 27.4818 49.4039 27.2386 49.7362 26.7525C50.0685 26.2663 50.2367 25.5576 50.2409 24.6262V24.1893Z" fill="#5C6EA6"/>
<path d="M56.7708 25.5905H55.2999V28.8707H53.4536V19.9102H56.783C57.8416 19.9102 58.6579 20.1461 59.2324 20.6178C59.8068 21.0896 60.094 21.7564 60.094 22.618C60.094 23.2293 59.9617 23.739 59.6971 24.1472C59.4325 24.5555 59.0314 24.8807 58.494 25.1227L60.4325 28.7844V28.8707H58.4508L56.7708 25.5905ZM55.2999 24.0949H56.7892C57.2528 24.0949 57.6117 23.9771 57.8662 23.7411C58.1205 23.5052 58.2478 23.1802 58.2478 22.7657C58.2478 22.3432 58.1278 22.0108 57.8877 21.7687C57.6477 21.5266 57.2794 21.4056 56.783 21.4056H55.2999V24.0949Z" fill="#5C6EA6"/>
<path d="M67.9342 21.4056H65.1894V28.8707H63.3431V21.4056H60.6353V19.9102H67.9342V21.4056Z" fill="#5C6EA6"/>
<path d="M18.136 59.7502H11.0811V52.6953H18.136V59.7502ZM11.4944 59.3369H17.7226V53.1087H11.4944V59.3369Z" fill="#5C6EA6"/>
<path d="M18.136 69.8322H11.0811V62.7773H18.136V69.8322ZM11.4944 69.4189H17.7226V63.1907H11.4944V69.4189Z" fill="#5C6EA6"/>
<path d="M18.136 79.9026H11.0811V72.8477H18.136V79.9026ZM11.4944 79.4892H17.7226V73.261H11.4944V79.4892Z" fill="#5C6EA6"/>
<path d="M18.136 89.9846H11.0811V82.9297H18.136V89.9846ZM11.4944 89.5712H17.7226V83.343H11.4944V89.5712Z" fill="#5C6EA6"/>
<path d="M43.1856 7.06401C41.1699 7.06401 39.5298 5.59261 39.5298 3.78396C39.5298 1.97531 41.1699 0.503906 43.1856 0.503906C45.2014 0.503906 46.8414 1.97531 46.8414 3.78396C46.8414 5.59261 45.2014 7.06401 43.1856 7.06401ZM43.1856 2.19226C42.2074 2.19226 41.4116 2.90627 41.4116 3.78396C41.4116 4.66165 42.2074 5.37566 43.1856 5.37566C44.1638 5.37566 44.9596 4.66165 44.9596 3.78396C44.9596 2.90627 44.1638 2.19226 43.1856 2.19226Z" fill="url(#paint1_linear_728_2186)"/>
<path d="M24.3427 15.8773H39.8517C39.9522 15.8773 40.0503 15.8455 40.1316 15.7864C41.9599 14.4599 44.43 14.4455 46.2736 15.7506L46.3287 15.7897C46.4093 15.8467 46.5055 15.8773 46.6042 15.8773H62.101C63.4354 15.8773 64.5171 14.7956 64.5171 13.4613V8.97464C64.5171 7.64031 63.4354 6.55859 62.101 6.55859H24.3427C23.0084 6.55859 21.9268 7.64031 21.9268 8.97464V13.4613C21.9268 14.7956 23.0084 15.8773 24.3427 15.8773ZM39.5571 14.9269H24.3427C23.5334 14.9269 22.8771 14.2707 22.8771 13.4613V8.97464C22.8771 8.16526 23.5334 7.50905 24.3427 7.50905H62.101C62.9104 7.50905 63.5666 8.16526 63.5666 8.97464V13.4613C63.5666 14.2707 62.9104 14.9269 62.101 14.9269H46.898C46.8041 14.9269 46.7128 14.898 46.6341 14.8465C44.5633 13.491 41.888 13.4933 39.8211 14.8465C39.7424 14.898 39.6511 14.9269 39.5571 14.9269Z" fill="url(#paint2_linear_728_2186)"/>
<path d="M26.3828 9.25021H59.988C60.694 9.25021 61.2662 8.67795 61.2662 7.97195V5.56732C61.2662 4.86139 60.694 4.28906 59.988 4.28906H26.3828C25.6767 4.28906 25.1045 4.86139 25.1045 5.56732V7.97195C25.1045 8.67795 25.6767 9.25021 26.3828 9.25021Z" fill="url(#paint3_linear_728_2186)"/>
<path d="M9.98926 54.2557L14.7102 57.5881L23.5967 49.8125" stroke="#2B4483" stroke-width="2.22161" stroke-linecap="round"/>
<path d="M9.98926 64.4862L14.7102 67.8186L23.5967 60.043" stroke="#2B4483" stroke-width="2.22161" stroke-linecap="round"/>
<path d="M9.98926 74.9042L14.7102 78.2366L23.5967 70.4609" stroke="#2B4483" stroke-width="2.22161" stroke-linecap="round"/>
<path d="M9.98926 85.1196L14.7102 88.452C14.7102 88.452 23.3858 80.8609 23.593 80.6797" stroke="#2B4483" stroke-width="2.22161" stroke-linecap="round"/>
<defs>
<linearGradient id="paint0_linear_728_2186" x1="46.2604" y1="-31.2804" x2="41.1685" y2="120.627" gradientUnits="userSpaceOnUse">
<stop stop-color="#005888"/>
<stop offset="0.56" stop-color="#0E4786"/>
<stop offset="1" stop-color="#1C3785"/>
</linearGradient>
<linearGradient id="paint1_linear_728_2186" x1="43.1624" y1="0.450106" x2="43.0971" y2="5.61445" gradientUnits="userSpaceOnUse">
<stop stop-color="white"/>
<stop offset="0.09" stop-color="#CCCCCC"/>
<stop offset="0.18" stop-color="#999999"/>
<stop offset="0.36" stop-color="#666666"/>
<stop offset="0.53" stop-color="#333333"/>
<stop offset="0.7" stop-color="#808080"/>
<stop offset="0.87" stop-color="#CCCCCC"/>
</linearGradient>
<linearGradient id="paint2_linear_728_2186" x1="43.0542" y1="5.50673" x2="43.2082" y2="17.9285" gradientUnits="userSpaceOnUse">
<stop stop-color="white"/>
<stop offset="0.09" stop-color="#CCCCCC"/>
<stop offset="0.18" stop-color="#999999"/>
<stop offset="0.36" stop-color="#666666"/>
<stop offset="0.53" stop-color="#333333"/>
<stop offset="0.7" stop-color="#808080"/>
<stop offset="0.87" stop-color="#CCCCCC"/>
</linearGradient>
<linearGradient id="paint3_linear_728_2186" x1="42.9063" y1="4.37876" x2="42.8521" y2="10.4654" gradientUnits="userSpaceOnUse">
<stop stop-color="white"/>
<stop offset="0.09" stop-color="#CCCCCC"/>
<stop offset="0.18" stop-color="#999999"/>
<stop offset="0.36" stop-color="#666666"/>
<stop offset="0.53" stop-color="#333333"/>
<stop offset="0.7" stop-color="#808080"/>
<stop offset="0.87" stop-color="#CCCCCC"/>
</linearGradient>
</defs>
</svg>
