<svg width="125" height="128" viewBox="0 0 125 128" fill="none" xmlns="http://www.w3.org/2000/svg">
<path d="M46.6251 88.7418C42.4419 85.1796 41.2758 80.5078 43.399 75.8236C45.3783 71.4582 49.8286 69.1044 54.894 69.7445C59.465 70.3221 63.2087 74.1266 63.8246 79.1737C64.3032 83.0955 62.8109 86.3232 59.6148 88.711C58.939 85.3286 57.9394 84.2432 54.9406 83.6398C56.0551 82.7659 57.2028 81.9136 57.0164 80.2448C57.0255 79.7471 57.0355 79.2477 57.0447 78.75C57.3668 75.2419 56.0617 73.5398 53.112 73.6114C51.1853 73.658 49.7096 74.412 49.1411 76.3555C48.4886 78.5836 49.6355 82.2216 51.2385 83.2927C48.6709 84.2374 46.9904 85.9328 46.6251 88.7418Z" fill="#B6C0CF"/>
<path d="M9.05739 81.6496C5.46849 79.1361 3.977 74.6616 5.33033 70.4726C6.70363 66.222 10.6579 63.329 15.0974 63.3281C19.596 63.3273 23.6327 66.3536 24.9461 70.7107C26.1845 74.8214 24.6772 79.1619 21.1516 81.6363C20.8861 78.8598 19.5319 77.0745 16.643 76.6883C17.3047 74.9421 19.3954 73.7677 18.7246 71.488L18.8137 71.374L18.6589 71.275C18.5656 71.1984 18.5498 71.1093 18.6114 71.0053C18.6289 68.5733 17.2364 67.6311 15.0034 67.6744C12.8777 67.716 11.5843 68.6807 11.6442 70.9803C10.6895 73.4015 12.6538 74.8747 13.5044 76.7091C10.4498 77.429 9.51099 78.4719 9.05739 81.6496Z" fill="#026A60"/>
<path d="M78.4248 88.8476C74.8675 85.997 73.3644 82.4206 74.5745 77.897C75.6416 73.9094 79.2754 70.6959 83.5252 70.3779C87.8997 70.0508 91.1982 72.0867 93.3955 75.8187C95.8932 80.0618 94.7013 85.4377 90.6963 88.4364C90.0979 85.858 88.6571 84.1135 85.9463 83.6207C86.8793 81.9528 88.6222 80.5296 87.556 78.2615C88.6488 76.944 87.541 76.0076 86.7287 75.5066C85.6301 74.8291 84.1086 73.1711 83.2505 74.0442C82.3774 74.9315 80.4348 75.8453 81.1248 77.837C80.6246 80.1633 81.4252 82.0443 83.1057 83.6241C79.8439 84.3165 78.816 85.4643 78.4248 88.8476Z" fill="#5E8ACC"/>
<path d="M4.57709 52.6843C0.84836 49.7662 -0.478333 45.648 0.960722 41.4582C2.35483 37.4007 6.18094 34.7032 10.4781 34.7506C14.747 34.7981 18.4816 37.5738 19.8191 41.6937C21.135 45.7479 19.7825 49.9169 16.3126 52.5012C15.8648 49.8536 14.6305 47.9701 11.6916 47.7429C12.7511 46.0508 14.4241 44.6317 14.0953 42.3238C13.8956 39.7178 12.8335 38.5667 10.6005 38.5409C8.26419 38.5135 6.83097 39.9492 6.64286 42.5069C6.12267 44.8856 8.17014 46.0708 9.09317 47.7787C6.03612 48.2481 4.93997 49.4391 4.57709 52.6843Z" fill="#6EA1CC"/>
<path d="M19.9556 111.89C16.5198 109.403 15.1998 105.316 16.4116 101.321C17.4045 98.049 20.9909 94.3094 25.8291 94.6241C30.2611 94.912 33.7493 97.1917 35.0186 101.3C36.2729 105.362 34.937 109.377 31.5129 111.837C31.0726 109.326 29.9415 107.462 27.1392 107.159C27.5786 105.432 29.8783 104.505 29.2283 102.309C30.376 100.082 28.9186 98.9071 27.2815 98.1181C24.2286 96.6474 21.5328 99.1593 21.7009 103.184C21.6185 105.104 24.1936 105.308 24.2502 107.138C21.5577 107.582 20.2186 109.25 19.9556 111.89Z" fill="#38689F"/>
<path d="M48.5967 124.89C43.8309 121.14 43.3549 114.587 47.5297 110.202C51.4349 106.098 58.1274 106.18 62.0043 110.378C66.0244 114.731 65.3985 121.306 60.6094 125.056C60.5012 122.371 58.9598 120.853 56.5352 120.054C56.5511 118.898 58.0966 118.779 58.1591 117.654C59.5174 115.962 59.2619 114.306 58.0475 112.671L58.0675 112.704C57.4708 110.933 56.0342 110.479 54.4187 110.591C52.8015 110.703 51.4082 111.308 51.1161 113.199L51.1319 113.164C50.2089 113.844 50.5701 114.843 50.5951 115.694C50.665 118.036 50.4944 120.327 49.6513 122.534C48.9355 123.156 49.0204 124.137 48.5967 124.89Z" fill="#A0C3DA"/>
<path d="M58.1821 55.8002C53.7243 52.1355 53.2673 45.8466 57.1634 41.7559C61.061 37.6634 67.6204 37.7824 71.3267 42.013C75.1353 46.361 74.3904 52.5617 69.6246 56.1805C69.7503 53.5263 68.5102 51.9341 65.91 51.3989C65.7952 51.0344 65.6778 50.6715 65.5613 50.3086C67.265 49.2624 67.7628 47.6894 67.5364 45.7975C67.3141 42.2711 67.315 42.2536 63.9774 42.2744C62.7431 42.2819 61.1859 41.9564 60.3636 42.5707C59.4605 43.2449 61.1617 44.5674 60.719 45.7426C60.7031 46.0547 60.6882 46.3668 60.674 46.6789C60.6882 47.0335 60.7023 47.3872 60.7165 47.7418C60.6083 48.4285 60.9054 48.9162 61.4655 49.2766L61.5529 49.369C61.9358 49.9915 62.3178 50.6141 62.7007 51.2366C59.9899 51.5654 59.036 53.6329 58.1821 55.8002Z" fill="#3486D2"/>
<path d="M29.624 36.7424C25.1187 33.2134 24.5877 27.3273 28.4038 23.2241C32.0302 19.3247 38.0569 19.2556 41.7482 23.0709C45.67 27.1242 45.1922 33.0852 40.6454 36.8231C40.3732 34.2879 39.1572 32.6291 36.4747 32.3336C37.9487 30.5167 38.9783 28.6632 38.0777 26.1455C37.5151 24.5716 36.453 24.1238 35.0614 24.1862C33.7164 24.247 32.7901 24.6731 32.2657 26.3227C31.47 28.8246 32.3631 30.5325 33.8654 32.2388C31.2611 32.6183 30.0043 34.2679 29.624 36.7424Z" fill="#439C95"/>
<path d="M82.8803 119.218C79.4062 116.863 77.8673 112.628 79.0151 108.578C80.1611 104.535 84.202 101.361 88.361 101.238C92.545 101.115 96.625 104.011 98.0332 108.101C99.4415 112.196 98.1189 116.384 94.5617 119.093C94.5159 118.789 94.471 118.484 94.426 118.181C94.5825 114.468 92.987 111.069 92.4584 107.466C92.1696 105.498 90.3319 104.541 88.2761 104.718C86.232 104.894 84.8337 106.074 84.564 108.125C84.2919 110.193 83.7883 112.182 83.2623 114.189C82.9136 115.521 82.4958 116.92 83.0093 118.336C82.966 118.63 82.9236 118.925 82.8803 119.218Z" fill="#61ADA8"/>
<path d="M54.9397 83.6409C57.9385 84.2443 58.9381 85.3296 59.6139 88.7121C56.7 91.8482 49.8985 91.9556 46.625 88.7421C46.9904 85.9339 48.67 84.2385 51.236 83.293C52.3421 84.7603 53.6405 84.211 54.9397 83.6409Z" fill="#39218B"/>
<path d="M85.9459 83.6172C88.6567 84.1099 90.0974 85.8544 90.6958 88.4329C87.7162 91.6756 82.3128 91.8562 78.4243 88.8441C78.8155 85.4607 79.8434 84.313 83.1052 83.6205C84.0532 84.5727 84.9995 84.0375 85.9459 83.6172Z" fill="#7D3B99"/>
<path d="M9.05811 81.645C9.51171 78.4672 10.4506 77.4243 13.5051 76.7044C14.5613 78.1726 15.6075 78.2716 16.6429 76.6836C19.5318 77.0698 20.886 78.8551 21.1515 81.6316C17.1231 84.3716 13.0923 84.3674 9.05811 81.645Z" fill="#BCCCD1"/>
<path d="M27.1379 107.158C29.9402 107.46 31.0705 109.324 31.5108 111.835C27.7338 114.87 23.7579 114.887 19.9551 111.888C20.2181 109.248 21.5564 107.58 24.2473 107.137C25.2069 107.647 26.1674 108.091 27.1379 107.158Z" fill="#FB8F13"/>
<path d="M4.57715 52.6836C4.94003 49.4384 6.03701 48.2474 9.09407 47.778C9.24721 48.3431 9.05412 49.1596 10.0304 49.1421C10.9501 49.1255 11.4953 48.6319 11.6925 47.7422C14.6314 47.9694 15.8649 49.8521 16.3126 52.4996C12.5731 55.4127 8.60467 55.4751 4.57715 52.6836Z" fill="#E01619"/>
<path d="M29.6226 36.7388C30.0029 34.2644 31.2597 32.6147 33.864 32.2344C34.7196 32.6422 35.5719 33.1416 36.4733 32.3301C39.1558 32.6256 40.3718 34.2843 40.6439 36.8195C36.9385 39.5254 33.1091 39.4971 29.6226 36.7388Z" fill="#1A1B1B"/>
<path d="M48.5967 124.896C49.0203 124.143 48.9363 123.162 49.6512 122.541C49.8368 123.065 49.9841 123.605 50.2205 124.104C50.4627 124.616 50.2513 125.622 51.2301 125.424C51.9475 125.28 52.1381 124.543 52.0865 123.856C51.9883 122.556 52.5368 121.493 53.2426 120.477C54.64 122.701 55.5273 120.904 56.5352 120.059C58.9597 120.858 60.502 122.376 60.6102 125.061C56.591 127.955 52.3912 127.899 48.5967 124.896Z" fill="#3DA96D"/>
<path d="M82.8813 119.21C82.9246 118.916 82.9671 118.621 83.0104 118.327C86.8157 118.275 90.6209 118.223 94.4262 118.172C94.4712 118.476 94.5161 118.781 94.5619 119.085C90.7258 121.882 86.6933 121.925 82.8813 119.21Z" fill="#FA3234"/>
<path d="M57.0447 78.7469C57.0356 79.2446 57.0256 79.7423 57.0164 80.2409C56.4488 80.7061 55.9311 81.2588 55.3027 81.6183C53.6157 82.583 51.971 82.4623 50.4645 81.1822C49.2369 80.1393 49.0488 78.8834 49.7821 77.4826C50.6934 75.7423 52.2307 75.4435 54.0152 75.6241C55.9328 75.818 56.334 77.4177 57.0447 78.7469Z" fill="#F2C150"/>
<path d="M57.0441 78.7471C56.3333 77.4179 55.9321 75.8182 54.0145 75.6243C52.23 75.4437 50.6928 75.7425 49.7814 77.4828C49.0481 78.8836 49.2362 80.1404 50.4639 81.1833C51.9704 82.4634 53.615 82.5832 55.3021 81.6186C55.9305 81.259 56.449 80.7072 57.0166 80.2419C57.2031 81.9107 56.0545 82.763 54.94 83.6369C53.64 84.207 52.3424 84.7564 51.2363 83.289C49.6349 82.2187 48.488 78.5807 49.1405 76.3526C49.709 74.4091 51.1855 73.6542 53.1123 73.6076C56.062 73.5361 57.3662 75.239 57.0441 78.7471Z" fill="#1A1B1B"/>
<path d="M16.6422 76.682C15.6068 78.27 14.5606 78.1718 13.5044 76.7036C12.653 74.8692 10.6888 73.396 11.6434 70.974C14.127 68.3131 16.0521 68.3206 18.6106 70.9998C18.549 71.1039 18.564 71.1929 18.6572 71.2687L18.7238 71.4826C19.3947 73.7622 17.3039 74.9358 16.6422 76.682Z" fill="#F2C150"/>
<path d="M18.6133 71.0081C16.0548 68.3289 14.1296 68.3222 11.646 70.9831C11.5861 68.6843 12.8795 67.7188 15.0052 67.6772C17.2383 67.6339 18.6307 68.5761 18.6133 71.0081Z" fill="#1A1B1B"/>
<path d="M18.7248 71.4873L18.6582 71.2734L18.8138 71.3733L18.7248 71.4873Z" fill="#1A1B1B"/>
<path d="M85.9465 83.6238C85.0002 84.0441 84.053 84.5801 83.105 83.628C81.4246 82.0474 80.6247 80.1664 81.1241 77.8401C83.3189 77.2051 85.5304 76.3311 87.5562 78.2646C88.6224 80.5326 86.8795 81.9559 85.9465 83.6238Z" fill="#F2C150"/>
<path d="M87.5569 78.2585C85.531 76.325 83.3196 77.199 81.1248 77.834C80.4348 75.8423 82.3783 74.9284 83.2514 74.0412C84.1095 73.1681 85.6309 74.8261 86.7296 75.5035C87.5419 76.0046 88.6497 76.9409 87.5569 78.2585Z" fill="#1A1B1B"/>
<path d="M11.6925 47.744C11.4952 48.6338 10.9509 49.1273 10.0312 49.144C9.05491 49.1614 9.24718 48.3449 9.09403 47.7798C8.17017 46.0719 6.12437 44.8867 6.64373 42.508C9.09819 41.2262 11.5585 40.2208 14.0962 42.3249C14.4249 44.6329 12.752 46.0519 11.6925 47.744Z" fill="#F2C150"/>
<path d="M14.0955 42.3253C11.5578 40.2213 9.09753 41.2275 6.64307 42.5093C6.83117 39.9524 8.2644 38.5159 10.6007 38.5434C12.8337 38.5692 13.8958 39.7194 14.0955 42.3253Z" fill="#1A1B1B"/>
<path d="M27.1388 107.158C26.1683 108.091 25.207 107.647 24.2474 107.137C24.1916 105.307 21.6173 105.102 21.6997 103.183C24.5512 100.459 27.1413 100.157 29.2271 102.307C29.8771 104.504 27.5783 105.431 27.1388 107.158Z" fill="#F2C150"/>
<path d="M29.2267 102.31C27.141 100.16 24.5508 100.462 21.6994 103.186C21.5312 99.1609 24.2279 96.649 27.2808 98.1197C28.9179 98.9087 30.3745 100.084 29.2267 102.31Z" fill="#E01619"/>
<path d="M56.5341 120.058C55.5262 120.903 54.6398 122.7 53.2415 120.477C52.1187 118.162 50.4117 116.014 51.1308 113.168L51.1158 113.203C53.2815 110.908 55.6111 110.927 58.0664 112.708L58.0464 112.675C58.0839 114.336 58.1213 115.997 58.1588 117.658C58.0964 118.782 56.5499 118.902 56.5341 120.058Z" fill="#F2C150"/>
<path d="M51.132 113.168C50.4129 116.014 52.1192 118.162 53.2419 120.477C52.5361 121.493 51.9885 122.555 52.0867 123.855C52.1383 124.542 51.9477 125.279 51.2302 125.424C50.2515 125.621 50.4629 124.615 50.2207 124.104C49.9843 123.604 49.837 123.064 49.6514 122.54C50.4953 120.332 50.6651 118.041 50.5952 115.699C50.5702 114.848 50.209 113.848 51.132 113.168Z" fill="#1A1B1B"/>
<path d="M58.0681 112.707C55.6128 110.926 53.2824 110.907 51.1167 113.202C51.4088 111.311 52.8021 110.706 54.4193 110.594C56.0348 110.482 57.4713 110.936 58.0681 112.707Z" fill="#1A1B1B"/>
<path d="M58.1589 117.654C58.1214 115.993 58.0848 114.333 58.0474 112.672C59.2617 114.307 59.5172 115.962 58.1589 117.654Z" fill="#1A1B1B"/>
<path d="M60.7209 45.7391C61.1629 44.5631 59.4616 43.2414 60.3647 42.5672C61.187 41.953 62.7443 42.2784 63.9786 42.2709C67.3161 42.2501 67.3161 42.2676 67.5383 45.7941C65.753 45.0159 63.9353 46.0904 62.1433 45.7008C62.0526 45.5044 61.9611 45.3097 61.8703 45.1132C61.7463 45.2847 61.6215 45.4553 61.4966 45.6276C61.237 45.6651 60.9798 45.7025 60.7209 45.7391Z" fill="#1A1B1B"/>
<path d="M62.1438 45.7021C63.9358 46.0916 65.7527 45.0163 67.538 45.7945C67.7644 47.6863 67.265 49.2594 65.5621 50.3056C64.6532 48.1691 62.9445 49.4466 61.5537 49.3659L61.4672 49.2735C61.5629 48.5927 61.2491 48.1125 60.7173 47.7388C60.7031 47.3842 60.6898 47.0296 60.6748 46.6767C61.096 46.4437 61.3923 46.1124 61.4971 45.6289C61.7135 45.653 61.9283 45.678 62.1438 45.7021Z" fill="#F2C150"/>
<path d="M61.5532 49.3646C62.944 49.4453 64.6527 48.1677 65.5616 50.3043C65.6781 50.6672 65.7946 51.03 65.9095 51.3946C65.4351 52.2793 64.9998 52.9701 63.6897 52.8112C62.4288 52.658 63.0522 51.725 62.7001 51.2323C62.3181 50.6097 61.9361 49.9872 61.5532 49.3646Z" fill="#AC9347"/>
<path d="M61.4955 45.6289C61.3914 46.1116 61.096 46.4429 60.6748 46.6759C60.6898 46.363 60.7039 46.0509 60.7197 45.7388C60.9794 45.7021 61.2366 45.6655 61.4955 45.6289Z" fill="#AC9347"/>
<path d="M36.4749 32.3366C35.5735 33.1481 34.7212 32.6487 33.8656 32.2409C32.3633 30.5355 31.4702 28.8276 32.2659 26.3257C32.7903 24.6761 33.7166 24.2499 35.0616 24.1892C36.4533 24.1268 37.5153 24.5745 38.0779 26.1484C38.9785 28.6662 37.9489 30.5197 36.4749 32.3366Z" fill="#F2C150"/>
<path d="M94.4252 118.175C90.6199 118.226 86.8146 118.278 83.0093 118.33C82.4949 116.914 82.9128 115.515 83.2615 114.183C83.7875 112.176 84.291 110.187 84.5632 108.119C84.8329 106.068 86.2311 104.889 88.2753 104.712C90.3311 104.535 92.1688 105.492 92.4576 107.461C92.9861 111.063 94.5817 114.462 94.4252 118.175ZM92.0939 109.482C91.8725 108.113 90.0739 107.684 88.6315 107.191C87.4513 106.788 85.0426 109.143 85.0901 110.304C85.1691 112.224 86.7738 113.745 88.6823 113.709C90.6257 113.674 92.1339 112.111 92.0939 109.482Z" fill="#1A1B1B"/>
<path d="M92.0949 109.482C92.1348 112.111 90.6267 113.673 88.6832 113.709C86.7748 113.745 85.1701 112.223 85.091 110.303C85.0436 109.143 87.4523 106.787 88.6325 107.19C90.0749 107.683 91.8735 108.113 92.0949 109.482Z" fill="#F2C150"/>
<path d="M44.2433 72.861C29.6372 68.2762 21.3045 58.1495 18.4646 43.3475C14.9459 25.0049 28.6273 5.93172 47.1113 1.74036C61.2239 -1.45959 79.8194 5.74029 87.3468 20.7477C87.6155 21.2834 87.7675 21.8779 87.9738 22.4452C87.0421 23.1977 85.4211 23.455 85.8856 25.2297C86.8463 28.9021 86.221 32.6404 86.3493 36.3461C86.3774 37.1663 86.8551 38.3755 85.357 38.6056C84.8274 29.7258 82.301 21.7225 75.2917 15.6879C65.0543 5.07729 46.6459 4.79804 34.8586 15.0758C22.0395 26.2528 20.9769 47.0893 32.6536 58.3014C32.9161 58.6377 33.148 59.0048 33.4465 59.306C39.4618 65.3783 46.9163 67.982 55.2938 68.3544C55.0716 69.6356 54.0556 69.3519 53.2311 69.3651C51.3975 69.3941 49.5631 69.3677 47.7295 69.3783C44.6982 69.395 44.3144 69.784 44.2433 72.861Z" fill="#242E41"/>
<path d="M92.4638 71.0699C93.5316 71.2078 93.9566 70.2989 94.5827 69.7422C96.065 68.4259 98.825 68.3029 100.176 69.6473C108.109 77.541 116.013 85.4635 123.928 93.3747C124.429 93.8753 124.903 94.3855 124.891 95.1609C122.798 94.7973 121.053 95.6623 119.702 97.0576C115.614 101.283 109.262 101.034 104.341 96.0443C99.0445 90.6736 93.6747 85.374 88.3409 80.0384C87.6665 79.3631 86.8542 78.7651 86.8516 77.6639C87.1457 76.8639 88.2742 76.5329 88.0854 75.4615C89.9233 74.3753 91.3977 72.9254 92.4638 71.0699Z" fill="#038477"/>
<path d="M85.3573 38.5949C86.8554 38.3648 86.3786 37.1547 86.3505 36.3346C86.2223 32.6288 86.8467 28.8914 85.886 25.2191C85.4214 23.4443 87.0434 23.1862 87.9751 22.4336C91.7361 28.9459 92.054 36.014 91.211 43.2245C90.6367 48.135 88.7891 52.6329 86.2741 56.8664C85.6085 57.9869 84.7944 59.0406 84.5951 60.3851C82.1969 62.7886 79.7996 65.1929 77.4014 67.5964C75.6793 67.8229 74.4174 68.9953 72.972 69.7786C63.8113 74.7436 54.2755 76.0862 44.2437 72.8494C44.3148 69.7724 44.6994 69.3834 47.7308 69.3667C49.5643 69.3562 51.3987 69.3825 53.2323 69.3535C54.0569 69.3404 55.0729 69.624 55.2951 68.3428C70.1743 68.0407 84.8138 54.0089 85.3573 38.5949Z" fill="#151C2E"/>
<path d="M86.8506 77.6602C86.8532 78.7613 87.6655 79.3594 88.3399 80.0346C93.6738 85.3702 99.0427 90.6698 104.34 96.0405C109.26 101.03 115.613 101.28 119.701 97.0539C121.052 95.6585 122.797 94.7936 124.89 95.1571L124.873 95.1536C124.882 95.7305 124.891 96.3075 124.9 96.8844C124.971 97.4693 124.654 97.8767 124.273 98.257C121.305 101.23 118.356 104.223 115.363 107.171C113.795 108.715 112.137 108.728 110.563 107.158C102.51 99.1193 94.4474 91.0904 86.4388 83.0072C84.6263 81.178 84.8335 79.6535 86.8506 77.6602Z" fill="#026A60"/>
<path d="M77.4014 67.5941C79.7996 65.1906 82.1969 62.7863 84.5951 60.3828C84.6329 62.5141 85.4864 64.1904 87.0987 65.6367C88.9867 67.3315 90.6832 69.2389 92.4632 71.054C91.3972 72.9095 89.9237 74.3602 88.0857 75.4464C86.2697 73.6647 84.3668 71.9611 82.6649 70.0766C81.2151 68.4705 79.5432 67.602 77.4014 67.5941Z" fill="#232E41"/>
<g opacity="0.2">
<path d="M32.6545 58.2992C20.9779 47.0871 22.0404 26.2506 34.8595 15.0736C46.6468 4.79587 65.0553 5.07512 75.2926 15.6857C76.1374 17.8608 76.9549 20.0474 77.8331 22.2094C81.7768 31.9146 80.1663 41.0657 74.6217 49.5477C67.5711 60.333 54.1215 65.2383 42.3992 61.9224C39.0755 60.982 35.8983 59.5216 32.6545 58.2992ZM52.7586 13.0003C50.4816 12.8941 48.4733 13.2137 46.6178 13.954C36.2417 18.0953 30.547 25.7808 29.5301 36.9104C29.4063 38.2618 30.1175 39.1505 31.433 39.2787C32.8415 39.4166 33.271 38.4102 33.1392 37.2221C32.889 34.967 33.6661 32.9095 34.222 30.8055C36.1776 23.3984 45.0073 16.3759 52.6076 16.1467C54.0197 16.1037 56.1342 16.5744 56.1843 14.5827C56.2493 12.0159 53.8238 13.4069 52.7586 13.0003Z" fill="#DBF1F3"/>
</g>
<g opacity="0.21">
<path d="M32.6538 58.301C35.8977 59.5234 39.0748 60.9838 42.3985 61.9243C54.1208 65.2401 67.5704 60.3348 74.621 49.5495C80.1656 41.0675 81.7761 31.9164 77.8324 22.2112C76.9543 20.0492 76.1367 17.8627 75.2919 15.6875C82.3013 21.7221 84.8268 29.7255 85.3563 38.6052C84.8127 54.0192 70.1732 68.051 55.294 68.3531C46.9166 67.9808 39.462 65.378 33.4468 59.3056C33.1482 59.0044 32.9164 58.6374 32.6538 58.301Z" fill="#CAEBED"/>
</g>
</svg>
