<svg  fill="none" xmlns="http://www.w3.org/2000/svg">
<path d="M119.798 78.6468C119.798 78.6468 114.745 74.3828 109.291 76.0586C109.291 76.0586 107.171 72.5089 103.4 74.415C98.1152 77.0851 101.897 83.0746 104.614 81.8184C104.614 81.8184 104.54 83.3109 103.181 86.3476C101.824 89.3843 104.631 95.8209 110.294 93.6892C115.958 91.5576 120.839 89.1647 120.839 89.1647C120.839 89.1647 125.34 82.0802 119.798 78.6468Z" fill="#081145"/>
<path d="M144.314 121.458C144.314 121.458 144.4 121.441 144.549 121.413C145.389 121.253 148.215 120.714 148.685 120.577C149.239 120.415 148.386 121.492 147.444 121.838C146.502 122.183 147.14 122.966 146.084 122.924C145.027 122.883 144.314 121.458 144.314 121.458Z" fill="#FC9F55"/>
<path d="M152.071 124.32L150.793 125.939L131.911 108.975C131.732 108.814 131.711 108.527 131.865 108.332C131.997 108.164 132.228 108.135 132.388 108.265L152.071 124.32Z" fill="#FE7A12"/>
<path d="M150.79 126.124L152.07 124.503L150.317 123.073L149.188 124.684L150.79 126.124Z" fill="#814CA1"/>
<path d="M152.062 124.577C152.062 124.577 153.071 123.868 154.918 125.065C156.765 126.261 158.033 125.732 158.033 125.732C158.033 125.732 156.548 127.359 154.712 127.608C152.875 127.857 151.487 127.763 150.79 126.179L152.062 124.577Z" fill="#081145"/>
<path d="M142.444 120.305C142.444 120.305 145.287 118.33 146.914 118.856C148.542 119.381 151.318 121.238 150.185 122.158C149.052 123.08 147.597 122.37 147.123 122.338C146.649 122.307 145.838 124.47 143.068 123.954C140.298 123.438 142.444 120.305 142.444 120.305Z" fill="#FC9F55"/>
<path d="M120.082 123.129C120.082 123.129 120.987 124.847 122.585 126.788C124.511 129.123 127.444 131.779 131.009 132.128C132.713 132.294 134.354 131.808 135.848 130.998C135.852 130.996 135.854 130.996 135.854 130.996C140.079 128.705 143.134 123.832 143.134 123.832C143.807 121.582 142.508 120.16 142.508 120.16C142.508 120.16 133.896 122.756 133.051 122.364C132.206 121.971 126.855 109.756 125.812 107.835C123.758 104.048 120.401 103.106 120.401 103.106L120.082 123.129Z" fill="#814CA1"/>
<path d="M122.678 126.822C124.378 129.952 127.524 131.798 131.08 132.145C132.779 132.311 134.415 131.827 135.905 131.019C135.739 131.052 131.472 131.869 129.637 128.714C127.764 125.494 125.674 120.33 123.152 122.242C122.065 123.066 122.187 124.949 122.678 126.822Z" fill="#61377A"/>
<path d="M87.1873 223.687C87.1873 223.687 84.5519 226.284 85.0667 228.131C85.5808 229.976 87.9594 231.207 88.2808 233.463C88.6022 235.718 89.8885 236.949 91.0455 236.949C92.2025 236.949 96.5624 236.949 96.5624 236.949C96.5624 236.949 97.4141 235.361 95.3569 234.883C93.2998 234.404 92.5239 231.753 92.6526 229.292C92.7813 226.831 92.4598 223.55 92.4598 223.55L88.0881 222.456L87.1873 223.687Z" fill="#142067"/>
<path d="M109.498 225.055C109.498 225.055 108.55 236.06 109.707 236.675L124.517 236.641C124.517 236.641 124.517 234.797 122.138 234.386C119.76 233.977 115.581 232.472 114.874 229.123C114.166 225.772 109.498 225.055 109.498 225.055Z" fill="#142067"/>
<path d="M121.93 136.548L109.774 135.678L102.923 135.187C102.923 135.187 102.152 129.933 101.808 127.542C101.419 124.844 100.938 122.954 100.619 121.198C100.46 120.328 100.341 119.489 100.292 118.603C100.071 114.57 98.1055 115.565 98.1055 115.565L104.307 102.255C113.494 99.8959 120.503 102.887 120.503 102.887C120.503 102.887 122.912 107.513 124.489 114.176C126.067 120.84 121.93 136.548 121.93 136.548Z" fill="#814CA1"/>
<path d="M111.663 135.275L102.923 135.186C102.923 135.186 102.152 129.933 101.808 127.542C101.419 124.843 100.938 122.954 100.619 121.198L100.609 120.865C100.609 120.865 102.879 117.4 104.137 117.824C105.396 118.248 103.127 124.61 105.025 126.888C106.4 128.537 111.242 129.951 111.663 135.275Z" fill="#61377A"/>
<path d="M121.59 134.475C121.59 134.475 125.86 148.828 126.134 153.713C126.408 158.6 117.972 223.131 117.633 225.383C117.313 227.505 114.873 228.858 114.873 228.858C114.873 228.858 113.75 229.573 112.148 229.085C109.926 228.406 109.223 227.595 109.223 227.595C109.223 227.595 105.9 181.572 107.957 165.132C110.014 148.691 110.037 134.475 110.037 134.475H121.59Z" fill="#261C17"/>
<path d="M103.501 134.046C103.501 134.046 96.9868 143.484 96.38 149.863C95.7726 156.243 95.427 178.651 94.1339 184.871C92.8401 191.09 88.0879 203.059 88.0879 222.456C88.0879 222.456 88.5815 223.568 90.1065 224.161C90.5946 224.35 91.248 224.534 91.8827 224.691C93.1404 225.002 94.4316 224.338 95.0061 223.09C98.219 216.104 108.454 193.569 108.979 188.892C109.35 185.582 112.582 163.674 119.631 150.818C121.324 147.732 117.953 140.182 117.953 140.182L103.501 134.046Z" fill="#423935"/>
<path d="M108.735 101.496C109.254 100.053 109.914 96.2763 109.904 93.6055L110.294 93.6813L116.857 94.9738C116.857 94.9738 116.709 97.0262 116.704 98.9598C116.704 98.9759 116.704 98.9913 116.704 99.0075C116.696 100.687 116.71 102.037 116.533 102.495C115.908 104.106 108.305 102.695 108.735 101.496Z" fill="#FC9F55"/>
<path d="M116.858 94.9741C116.858 94.9741 116.709 97.0265 116.704 98.9601C113.031 98.8567 111.09 95.5266 110.294 93.6816L116.858 94.9741Z" fill="#FB782C"/>
<path d="M118.085 97.0828C118.085 97.0828 109.394 97.2365 109.387 91.3907C109.382 85.5443 108.256 81.6267 113.804 81.281C119.353 80.9345 120.433 83.1642 120.874 85.1153C121.316 87.0663 120.345 96.8914 118.085 97.0828Z" fill="#FC9F55"/>
<path d="M117.763 81.1386C117.763 81.1386 115.384 87.9975 111.732 89.0113C108.08 90.0258 106.497 88.9684 106.497 88.9684C106.497 88.9684 109.298 86.5655 109.879 82.3713C109.879 82.3713 115.968 77.8737 117.763 81.1386Z" fill="#081145"/>
<path d="M117.173 81.6952C117.173 81.6952 118.937 82.4076 119.663 83.7974C120.373 85.1562 120.978 86.9562 120.838 89.1644C120.838 89.1644 122.631 84.5023 120.616 81.8658C118.48 79.0694 117.173 81.6952 117.173 81.6952Z" fill="#081145"/>
<path d="M116.387 93.6128C116.387 93.6128 116.537 94.301 118.124 94.1942C118.124 94.1942 119.457 94.1056 119.416 93.3483C119.416 93.3483 118.124 92.8105 116.387 93.6128Z" fill="#FEFEFE"/>
<path d="M105.064 134.987C105.064 134.987 112.32 132.707 115.091 137.388C115.679 138.381 111.156 138.689 108.754 138.257C108.181 138.154 104.132 137.127 104.132 137.127L105.064 134.987Z" fill="#FC9F55"/>
<path d="M104.45 102.394C104.45 102.394 99.4667 103.162 95.9024 109.95C92.8487 115.765 88.3765 125.029 88.3327 126.777C88.2889 128.525 90.6776 134.011 104.152 137.631C104.152 137.631 105.594 136.108 105.54 134.858C105.54 134.858 97.2747 126.763 97.32 125.856C97.4062 124.141 98.807 121.925 106.434 114.267C108.507 112.186 104.45 102.394 104.45 102.394Z" fill="#814CA1"/>
<path d="M129.474 135.618C124.971 126.482 106.83 126.778 106.25 129.085C105.671 131.392 110.249 133.915 109.051 135.978C106.945 139.606 101.622 136.826 100.047 139.891C98.4726 142.957 108.657 156.545 118.398 156.148C128.14 155.75 133.977 144.754 129.474 135.618ZM113.039 136.946C113.346 137.696 112.888 138.63 112.016 139.032C111.143 139.434 110.187 139.152 109.88 138.402C109.573 137.652 110.032 136.718 110.904 136.316C111.776 135.914 112.732 136.196 113.039 136.946Z" fill="#FDDFBB"/>
<path d="M107.914 148.295C107.561 147.83 107.208 147.276 107.29 146.687C107.37 146.116 107.854 145.692 108.373 145.537C108.892 145.383 109.445 145.447 109.983 145.511C110.31 145.551 110.639 145.59 110.967 145.629C111.177 145.655 111.396 145.683 111.575 145.806C111.743 145.921 111.856 146.107 111.96 146.289C112.061 146.464 112.16 146.644 112.208 146.842C112.726 148.954 108.867 149.553 107.914 148.295Z" fill="#0C1248"/>
<path d="M127.347 144.837C126.81 144.996 126.196 145.119 125.72 144.8C125.259 144.491 125.082 143.842 125.15 143.267C125.219 142.693 125.487 142.174 125.751 141.671C125.912 141.362 126.074 141.055 126.235 140.747C126.338 140.551 126.447 140.346 126.622 140.22C126.787 140.1 126.989 140.065 127.187 140.035C127.376 140.006 127.569 139.982 127.759 140.015C129.778 140.359 128.799 144.406 127.347 144.837Z" fill="#B5CBE2"/>
<path d="M114.399 149.571C114.83 149.242 115.39 149.074 115.905 149.218C116.174 149.293 116.418 149.446 116.679 149.55C117.116 149.723 117.616 149.767 117.968 150.095C118.385 150.484 118.456 151.147 118.402 151.733C118.368 152.096 118.296 152.461 118.135 152.782C117.647 153.751 116.412 154.083 115.431 153.729C114.543 153.41 113.868 152.622 113.565 151.686C113.276 150.793 113.699 150.106 114.399 149.571Z" fill="#FD5A17"/>
<path d="M123.252 134.792C123.593 134.533 124.034 134.4 124.441 134.514C124.653 134.572 124.845 134.693 125.05 134.776C125.395 134.912 125.79 134.947 126.067 135.206C126.396 135.512 126.452 136.035 126.409 136.497C126.382 136.784 126.325 137.071 126.198 137.324C125.813 138.089 124.84 138.35 124.066 138.071C123.367 137.819 122.835 137.197 122.595 136.46C122.367 135.756 122.7 135.214 123.252 134.792Z" fill="#814CA1"/>
<path d="M117.351 131.695C117.691 131.435 118.131 131.303 118.538 131.416C118.749 131.475 118.942 131.596 119.147 131.677C119.492 131.814 119.886 131.849 120.164 132.108C120.493 132.414 120.55 132.938 120.506 133.399C120.48 133.686 120.423 133.974 120.295 134.227C119.91 134.991 118.937 135.252 118.163 134.974C117.463 134.721 116.932 134.1 116.693 133.362C116.465 132.658 116.798 132.116 117.351 131.695Z" fill="#ECF4F9"/>
<path d="M121.413 150.984C121.065 150.513 121.073 149.826 121.3 149.283C121.527 148.741 121.939 148.314 122.36 147.927C122.655 147.658 122.965 147.397 123.327 147.246C123.688 147.095 124.113 147.068 124.459 147.261C124.807 147.454 125.042 147.9 124.939 148.3C124.799 148.846 124.221 149.238 123.964 149.732C123.719 150.202 123.708 150.775 123.477 151.233C123.268 151.646 123.06 151.907 122.579 151.953C121.861 152.021 121.804 151.512 121.413 150.984Z" fill="#FE7A12"/>
<path d="M107.211 134.53C107.211 134.53 109.738 134.065 110.21 134.156C110.979 134.306 112.6 134.714 112.782 134.861C112.963 135.008 111.793 135.738 110.875 135.567C110.251 135.452 108.913 136.358 108.451 136.657C107.988 136.956 107.211 134.53 107.211 134.53Z" fill="#FC9F55"/>
<path d="M213.66 173.348H152.765L162.318 89.3174H223.214L213.66 173.348Z" fill="#8C401A"/>
<path d="M216.398 173.348H155.503L165.057 89.3174H225.952L216.398 173.348Z" fill="#E18E59"/>
<path d="M213.321 168.998H159.569L168.175 93.3027H221.926L213.321 168.998Z" fill="#EBB182"/>
<path d="M218.345 133.458H162.675L163.157 129.219H218.827L218.345 133.458Z" fill="#E18E59"/>
<path d="M163.633 101.839L165.056 89.3174H176.651L163.633 101.839Z" fill="#CC7846"/>
<path d="M224.528 101.839L225.952 89.3174H214.357L224.528 101.839Z" fill="#CC7846"/>
<path d="M167.096 173.358H155.501L156.925 160.837L167.096 173.358Z" fill="#CC7846"/>
<path d="M204.801 173.358H216.397L217.82 160.837L204.801 173.358Z" fill="#CC7846"/>
<path d="M162.902 239.391C162.455 239.391 162.123 238.947 162.217 238.475L186.417 117.383C186.544 116.751 187.061 116.3 187.66 116.3H188.417C189.02 116.3 189.467 116.903 189.335 117.538L163.726 238.681C163.638 239.096 163.296 239.391 162.902 239.391Z" fill="#081145"/>
<path d="M198.776 239.58C198.351 239.57 198.012 239.195 198.014 238.735L198.41 117.559C198.415 116.988 198.848 116.529 199.377 116.535L200.03 116.543C200.576 116.549 201.013 117.034 201.005 117.624L199.419 238.91C199.414 239.287 199.126 239.589 198.776 239.58Z" fill="#081145"/>
<path d="M198.992 194.61L172.213 194.599V192.396L198.993 192.407L198.992 194.61Z" fill="#081145"/>
<path d="M186.547 193.637L184.522 193.366L197.553 79.8955L199.577 80.1667L186.547 193.637Z" fill="#081145"/>
<path d="M199.658 125.836L184.898 125.83L185.921 123.627L199.659 123.634L199.658 125.836Z" fill="#081145"/>
<path d="M220.239 238.84L192.119 135.892C192.074 135.729 192.081 135.555 192.138 135.396L192.705 133.832C192.953 133.147 193.865 133.194 194.051 133.901L221.605 238.413C221.733 238.904 221.393 239.392 220.92 239.392C220.605 239.392 220.328 239.167 220.239 238.84Z" fill="#081145"/>
<path d="M212.69 175.075H153.775C153.48 175.075 153.242 174.816 153.242 174.498C153.242 173.569 153.938 172.816 154.8 172.816H213.289C213.691 172.816 214.018 173.169 214.018 173.603V173.639C214.018 174.432 213.423 175.075 212.69 175.075Z" fill="#081145"/>
<path d="M203.247 89.3162H192.279V87.6484H203.247V89.3162Z" fill="#081145"/>
<path d="M257.217 69.5537C257.217 69.5537 255.47 69.8058 253.644 71.5213C251.971 73.0918 236.203 98.3066 236.203 98.3066C235.476 101.432 241.918 101.851 241.918 101.851L256.772 87.1177L257.217 69.5537Z" fill="#993655"/>
<path d="M272.87 53.4579C272.763 52.1536 272.46 50.8517 272.005 49.6158C271.524 48.308 270.868 47.0518 269.977 45.9908C269.086 44.9309 267.952 44.0704 266.679 43.6389C266.4 43.5443 266.084 43.4751 265.836 43.6168C265.414 43.8566 265.457 44.4994 265.565 45.0015C266.088 47.4104 266.851 49.7684 267.285 52.1949C267.734 54.7074 267.551 57.1285 267.4 59.6323C267.758 59.2213 268.116 58.8106 268.474 58.3997C268.249 59.8575 268.186 61.3484 268.286 62.8353C270.465 61.7835 272.013 59.5904 272.606 57.1448C272.896 55.9509 272.972 54.7026 272.87 53.4579Z" fill="#382B3D"/>
<path d="M245.45 209.845C245.551 209.879 245.653 209.914 245.754 209.944C247.645 210.483 251.083 210.641 252.436 209.084C253.028 208.398 253.874 208.017 254.745 208.049L255.035 208.063C257.268 208.141 256.644 205.412 256.219 203.038C256.219 203.038 255.71 198.235 255.891 198.008L251.809 198.608C251.637 198.756 252.183 202.14 252.12 202.307L245.188 207.889C244.492 208.405 244.647 209.56 245.45 209.845Z" fill="#6D363F"/>
<path d="M263.219 111.066C256.317 135.992 254.373 166.896 256.076 202.202L251.96 201.933C244.138 176.689 241.585 150.206 246.229 121.912L249.308 109.042L263.219 111.066Z" fill="#814CA1"/>
<path d="M266.087 211.403C266.19 211.426 266.293 211.451 266.397 211.467C268.328 211.799 271.764 211.582 272.964 209.886C273.49 209.138 274.296 208.669 275.165 208.605L275.455 208.588C277.683 208.423 276.809 205.775 276.164 203.459C276.164 203.459 275.212 198.737 275.37 198.491L271.365 199.531C271.207 199.697 272.066 203.006 272.018 203.179L265.642 209.487C264.999 210.075 265.26 211.207 266.087 211.403Z" fill="#6D363F"/>
<path d="M274.554 111.193C270.011 136.744 270.957 167.702 275.946 202.643L271.824 202.824C261.689 178.558 256.68 152.488 258.661 123.832L260.524 110.692L274.554 111.193Z" fill="#814CA1"/>
<path d="M250.916 84.6887C249.961 77.4635 253.749 70.4842 260.052 67.8503L267.416 64.8551C267.781 64.7071 268.183 64.7224 268.539 64.8949L271.704 66.4266C277.582 69.2769 280.939 76.0531 279.875 82.9161L274.12 120.045L246.141 113.316C246.141 113.316 253.529 101.528 252.166 94.1733L250.916 84.6887Z" fill="#993655"/>
<path d="M281.032 106.496C280.767 106.298 280.495 106.082 280.225 105.841C275.735 101.881 272.409 94.1161 273.732 82.9099C274.138 79.4759 275.183 72.2843 274.254 68.1084C278.946 71.223 283.288 73.2681 282.669 80.9913C282.623 81.6322 284.294 94.559 284.724 97.9053C283.367 99.0707 280.954 101.823 281.032 106.496Z" fill="#993655"/>
<path d="M306.566 98.9374C304.949 100.676 301.82 102.42 299.381 103.201C297.035 104.082 294.957 105.136 293.037 106.037C288.625 108.132 285.048 109.495 281.031 106.496C280.954 101.823 283.367 99.071 284.725 97.9056C284.789 98.4057 284.83 98.6935 284.83 98.6935C287.931 99.0414 291.002 99.8977 293.685 100.244C295.798 100.516 297.678 100.492 299.136 99.6527C300.428 97.7944 301.261 95.7815 302.306 93.6882C303.142 93.8178 302.802 94.7457 302.723 95.3927C302.553 96.7693 302.043 99.2639 303.861 96.8882C304.272 96.3534 304.311 95.0794 303.667 93.9433C303.518 93.7067 304.436 92.5005 305.628 93.917C306.17 94.567 308.377 96.9882 306.566 98.9374Z" fill="#CD8079"/>
<path d="M256.647 124.233C259.017 121.064 261.677 120.643 262.927 120.643C263.922 120.644 264.92 120.615 265.903 120.446C271.678 119.455 273.52 116.162 273.846 112.943C274.216 109.283 272.251 102.712 270.7 100.062C268.935 97.0443 265.648 94.4848 259.665 97.3392C258.697 97.8004 257.792 98.4015 256.907 99.0281C255.858 99.7731 253.428 100.991 249.846 99.7588C248.644 99.3455 246.62 98.9424 245.364 98.8312C234.851 97.9076 230.933 102.981 231.001 111.676C231.04 116.567 232.378 121.382 234.839 125.487C239.216 132.787 245.072 134.693 253.378 127.67C254.369 126.831 255.855 125.291 256.647 124.233Z" fill="#EA6A6A"/>
<path d="M256.683 117.146C253.745 118.1 250.645 116.299 249.763 113.126C248.881 109.951 250.551 106.606 253.489 105.653C256.428 104.7 259.525 106.502 260.407 109.676C261.289 112.85 259.622 116.194 256.683 117.146Z" fill="#382B3D"/>
<path d="M242.839 121.581L239.791 110.62C239.608 109.96 239.956 109.264 240.568 109.066C241.179 108.868 241.824 109.242 242.007 109.902L245.053 120.864C245.236 121.524 244.889 122.22 244.278 122.418C243.666 122.616 243.021 122.241 242.839 121.581Z" fill="#382B3D"/>
<path d="M304.148 100.353L312.394 95.7483L310.905 90.3906L301.553 91.5407L300.025 94.6033L258.017 107.53L259.505 112.887L301.164 98.6996L304.148 100.353Z" fill="#382B3D"/>
<path d="M240.83 114.473L240.817 114.31L301.701 94.5791L301.714 94.7421L240.83 114.473Z" fill="white"/>
<path d="M241.149 115.596L241.159 115.446C242.141 115.458 307.856 93.2391 308.519 93.0156L308.554 93.1796C305.836 94.099 241.999 115.663 241.149 115.596Z" fill="white"/>
<path d="M241.778 117.767L241.737 117.622L302.63 97.8701L302.662 98.0371L241.778 117.767Z" fill="white"/>
<path d="M241.399 116.494C242.074 115.933 306.08 96.0863 308.817 95.2383L309.032 95.4158C308.364 95.623 242.298 116.021 241.484 116.615L241.399 116.494Z" fill="white"/>
<path d="M300.511 98.5243C301.235 96.8946 305.001 92.2849 307.052 94.9678C310.099 98.9519 301.676 102.282 299.381 103.198" fill="#CD8079"/>
<path d="M267.533 59.3547C267.686 59.6676 269.139 65.4096 269.139 65.4096L272.317 67.3862C272.317 67.3862 268.644 68.9281 265.585 71.7095C263.039 74.0236 259.021 71.0807 260.336 67.8019C260.35 67.765 260.366 67.7263 260.382 67.6897C260.461 67.5056 260.616 67.3678 260.794 67.2967L262.335 66.6854L260.732 62.1504L267.533 59.3547Z" fill="#C56B63"/>
<path d="M271.139 52.8837L271.129 52.8814L271.12 52.8792C270.949 52.7669 270.76 52.7033 270.55 52.706C270.21 52.7087 269.835 52.8661 269.492 53.1345C268.126 49.1666 264.674 44.905 261.825 44.8855C258.905 44.8688 256.471 46.1888 255.891 51.5416C255.73 53.0555 255.712 54.9013 255.874 57.1177C256.169 61.1024 259.281 65.0695 262.992 65.4253C265.241 65.6331 267.48 63.506 268.819 60.9106C269.151 60.2904 269.429 59.6362 269.638 58.9761C270.792 58.5169 272.023 57.8386 272.177 56.0046C272.282 54.8264 271.894 53.3892 271.139 52.8837Z" fill="#CD8079"/>
<path d="M255.656 50.7955C256.371 51.5184 257.013 51.9674 257.963 52.3001C258.051 52.0051 257.762 51.7392 257.653 51.345C257.539 50.9053 257.794 50.6687 257.894 50.3106C258.245 50.6327 258.47 50.9501 258.84 51.3249C259.28 51.7449 260.078 51.3122 260.584 51.7019C261.263 52.1726 261.706 52.4247 261.9 53.0859C262.068 52.6085 262.034 51.8723 262.466 51.4331C262.861 51.0627 263.304 51.271 263.604 51.0648C264.252 51.7151 265.057 51.937 265.854 52.3212C266.548 52.6089 267.285 53.7933 267.515 54.681C267.737 55.5282 267.28 56.0383 267.053 56.7863C266.927 57.1971 266.665 58.0311 266.741 58.4626C267.288 57.9796 267.732 57.0496 268.105 56.3893C268.493 55.7032 268.838 55.0141 269.199 54.3085C269.557 53.6082 270.019 52.9646 270.145 52.1696C270.412 50.49 270.286 48.6525 269.719 47.0112C268.438 43.3025 263.684 42.6059 260.547 42.9478C258.627 43.1568 256.726 44.1249 255.551 45.6515C254.651 46.8209 254.07 48.5635 254.17 50.1299C254.24 51.2177 254.561 52.2023 254.912 53.2295C255.181 54.0171 255.36 54.8177 255.92 55.4456C256.288 55.114 256.33 54.0351 256.434 53.5538C256.578 52.8884 256.663 52.201 256.775 51.5271" fill="#382B3D"/>
<path d="M263.651 110.7C264.122 110.515 264.764 110.443 265.03 109.983C265.296 109.523 263.908 109.364 264.087 109.149C264.163 109.057 264.272 109.068 264.57 109.033C264.868 108.999 265.354 108.755 265.564 108.441C265.787 108.066 264.272 108.303 264.243 108.076C264.166 107.459 264.97 107.301 265.169 107.141C265.509 107.056 266.179 106.551 264.771 106.585C263.362 106.618 263.063 106.797 262.904 106.672C262.767 106.576 262.245 106.312 262.426 106.085C262.573 105.849 263.221 105.534 263.016 105.325C262.774 105.121 261.129 105.909 260.892 106.087L257.216 108.205C256.72 108.597 255.876 108.636 255.357 108.289L255.191 108.178L252.93 106.399C252.93 106.399 240.127 94.4388 236.146 98.5303C234.22 101.386 235.497 105.37 238.631 106.338L250.654 110.046L253.884 111.045L256.01 111.705C256.443 111.831 256.906 111.835 257.339 111.708L260.929 110.748C261.414 110.703 262.081 110.485 262.415 110.779C262.738 110.987 262.544 111.397 263.124 111.315C263.729 111.331 264.665 111.201 264.228 111.013C263.222 110.651 263.164 110.957 263.651 110.7Z" fill="#CD8079"/>
<path d="M262.455 60.487C261.414 60.1871 260.969 60.2104 260.258 60.3625C259.946 60.429 259.661 60.8022 259.586 61.0103C259.491 61.2771 259.831 61.4565 260.174 61.64C260.786 61.9677 262.345 62.0262 262.755 61.9311C262.992 61.8767 263.458 61.7614 263.599 61.4526C263.703 61.2248 262.897 60.6147 262.455 60.487Z" fill="#FCFCFC"/>
<mask id="mask0_107_1295" style="mask-type:luminance" maskUnits="userSpaceOnUse" x="133" y="50" width="37" height="38">
<path d="M133.434 55.2354L165.648 49.9998L169.342 82.2634L137.128 87.4989L133.434 55.2354Z" fill="white"/>
</mask>
<g mask="url(#mask0_107_1295)">
<path d="M149.041 54.3903C149.429 53.2733 150.241 53.1387 150.845 54.0904L154.907 60.4999C155.511 61.4516 156.927 62.2156 158.052 62.1976L165.634 62.0717C166.759 62.0522 167.092 62.806 166.375 63.7443L161.538 70.0641C160.819 71.0027 160.483 72.6747 160.792 73.7808L162.863 81.2236C163.172 82.3294 162.566 82.9306 161.519 82.5577L154.466 80.0536C153.418 79.6825 151.795 79.9528 150.859 80.6532L144.56 85.3781C143.624 86.0802 142.423 85.9186 142.349 83.9113L143.466 76.6624C143.537 75.493 142.87 73.9882 141.983 73.3158L136.017 68.7936C135.13 68.121 135.298 67.2859 136.39 66.9346L143.739 64.5754C144.831 64.2258 146.042 63.024 146.43 61.9068L149.041 54.3903Z" fill="#FFC55E"/>
<path d="M149.041 54.3903C149.429 53.2733 150.241 53.1387 150.845 54.0904L154.907 60.4999C155.511 61.4516 156.927 62.2156 158.052 62.1976L165.634 62.0717C166.759 62.0522 167.092 62.806 166.375 63.7443L161.538 70.0641C160.819 71.0027 160.483 72.6747 160.792 73.7808L162.863 81.2236C163.172 82.3294 162.566 82.9306 161.519 82.5577L154.466 80.0536C153.418 79.6825 151.795 79.9528 150.859 80.6532L144.56 85.3781C143.624 86.0802 142.33 85.9346 142.349 83.9113L143.466 76.6624C143.537 75.493 142.87 73.9882 141.983 73.3158L136.017 68.7936C135.13 68.121 135.298 67.2859 136.39 66.9346L143.739 64.5754C144.831 64.2258 146.042 63.024 146.43 61.9068L149.041 54.3903Z" fill="#FFC55E"/>
<path d="M147.903 54.1798C148.268 53.1305 149.403 52.84 149.972 53.734L153.413 59.917C153.98 60.8113 155.31 61.529 156.367 61.5108L165.231 61.3945C166.289 61.3763 166.226 62.38 165.551 63.2604L159.639 68.8992C158.964 69.7811 158.648 71.3519 158.937 72.3898L160.882 79.3796C161.171 80.4175 160.603 80.981 159.619 80.6314L152.995 78.2808C152.012 77.9313 150.488 78.1849 149.608 78.8445L143.834 84.6653C142.955 85.3245 142.244 84.4624 142.311 83.3649L142.664 75.0956C142.732 73.9981 142.105 72.5844 141.272 71.9545L135.601 68.13C134.769 67.5001 134.994 66.2912 136.021 65.963L142.921 63.7474C143.947 63.4196 145.083 62.2913 145.448 61.242L147.903 54.1798Z" fill="#FFD696"/>
<path d="M148.66 54.5027C149.034 53.425 149.817 53.2954 150.399 54.2138L154.32 60.3991C154.901 61.3177 156.268 62.0557 157.354 62.037L164.671 61.9166C165.757 61.8979 166.079 62.6257 165.385 63.5304L160.717 69.6287C160.023 70.5349 159.7 72.1501 159.997 73.2153L161.996 80.398C162.293 81.4647 161.709 82.0439 160.699 81.6855L153.892 79.2694C152.881 78.9113 151.315 79.172 150.411 79.8492L144.331 84.4093C143.428 85.0865 142.744 84.718 142.812 83.5905L143.274 75.998C143.343 74.8703 142.699 73.418 141.843 72.7699L136.087 68.4041C135.231 67.7573 135.394 66.9494 136.447 66.6109L143.539 64.3343C144.592 63.9971 145.761 62.8379 146.136 61.7587L148.66 54.5027Z" fill="#FFC55E"/>
</g>
<mask id="mask1_107_1295" style="mask-type:luminance" maskUnits="userSpaceOnUse" x="214" y="174" width="19" height="20">
<path d="M214.231 177.274L230.827 174.577L232.73 191.198L216.135 193.895L214.231 177.274Z" fill="white"/>
</mask>
<g mask="url(#mask1_107_1295)">
<path d="M222.26 176.829C222.459 176.254 222.878 176.184 223.189 176.675L225.281 179.976C225.593 180.467 226.322 180.86 226.902 180.851L230.807 180.786C231.387 180.776 231.559 181.164 231.189 181.648L228.697 184.904C228.327 185.387 228.154 186.248 228.313 186.818L229.38 190.652C229.539 191.222 229.227 191.532 228.688 191.34L225.054 190.05C224.514 189.858 223.679 189.998 223.196 190.358L219.951 192.793C219.469 193.154 218.85 193.071 218.812 192.037L219.387 188.303C219.424 187.7 219.081 186.925 218.624 186.579L215.55 184.249C215.093 183.903 215.18 183.472 215.742 183.291L219.528 182.076C220.091 181.896 220.715 181.277 220.914 180.701L222.26 176.829Z" fill="#FFC55E"/>
<path d="M222.26 176.829C222.459 176.254 222.878 176.184 223.189 176.675L225.281 179.976C225.593 180.467 226.322 180.86 226.902 180.851L230.807 180.786C231.387 180.776 231.559 181.164 231.189 181.648L228.697 184.904C228.327 185.387 228.154 186.248 228.313 186.818L229.38 190.652C229.539 191.222 229.227 191.532 228.688 191.34L225.054 190.05C224.514 189.858 223.679 189.998 223.196 190.358L219.951 192.793C219.469 193.154 218.802 193.079 218.812 192.037L219.387 188.303C219.424 187.7 219.081 186.925 218.624 186.579L215.55 184.249C215.093 183.903 215.18 183.472 215.742 183.291L219.528 182.076C220.091 181.896 220.715 181.277 220.914 180.701L222.26 176.829Z" fill="#FFC55E"/>
<path d="M221.671 176.747C221.859 176.206 222.444 176.056 222.737 176.517L224.51 179.702C224.802 180.163 225.487 180.533 226.032 180.523L230.598 180.463C231.143 180.454 231.11 180.971 230.762 181.424L227.717 184.329C227.369 184.784 227.206 185.593 227.356 186.127L228.357 189.728C228.506 190.263 228.214 190.553 227.707 190.373L224.295 189.162C223.788 188.982 223.003 189.113 222.55 189.453L219.575 192.451C219.122 192.791 218.756 192.347 218.791 191.781L218.972 187.521C219.007 186.956 218.685 186.228 218.255 185.903L215.334 183.933C214.905 183.609 215.021 182.986 215.55 182.817L219.105 181.675C219.633 181.506 220.219 180.925 220.406 180.385L221.671 176.747Z" fill="#FFD696"/>
<path d="M222.068 176.9C222.261 176.345 222.664 176.278 222.964 176.752L224.984 179.938C225.283 180.411 225.987 180.791 226.547 180.782L230.316 180.72C230.876 180.71 231.041 181.085 230.684 181.551L228.279 184.693C227.922 185.159 227.755 185.991 227.908 186.54L228.938 190.24C229.091 190.79 228.79 191.088 228.27 190.904L224.763 189.659C224.243 189.475 223.436 189.609 222.97 189.958L219.838 192.307C219.373 192.656 219.02 192.466 219.056 191.885L219.293 187.974C219.329 187.393 218.997 186.645 218.556 186.311L215.591 184.062C215.15 183.729 215.234 183.312 215.776 183.138L219.43 181.965C219.972 181.791 220.575 181.194 220.768 180.638L222.068 176.9Z" fill="#FFC55E"/>
</g>
</svg>
