<svg width="122" height="122" viewBox="0 0 122 122" fill="none" xmlns="http://www.w3.org/2000/svg">
<path d="M60.9992 8.65234C89.89 8.65234 113.347 32.1094 113.347 61.0002C113.347 89.891 89.89 113.348 60.9992 113.348C32.1084 113.348 8.65137 89.891 8.65137 61.0002C8.65137 32.1094 32.1084 8.65234 60.9992 8.65234Z" stroke="#EDEDED" stroke-width="17.2" stroke-linecap="round"/>
<path d="M60.9992 8.65234C89.89 8.65234 113.347 32.1094 113.347 61.0002C113.347 89.891 89.89 113.348 60.9992 113.348C32.1084 113.348 8.65137 89.891 8.65137 61.0002C8.65137 46.9093 14.2314 34.1111 23.2999 24.6965" stroke="url(#paint0_linear_728_2681)" stroke-width="13.76" stroke-linecap="round"/>
<path d="M40.0269 73.4887C41.5061 73.4887 42.803 73.2101 43.9244 72.6494C45.0424 72.0887 45.9093 71.2975 46.5182 70.2723C47.1305 69.2472 47.4332 68.0604 47.4332 66.7051V66.2991C47.4332 65.0814 47.1236 63.9359 46.501 62.866C45.8818 61.7962 45.0562 60.9809 44.0242 60.4202C44.898 59.9627 45.5997 59.2919 46.1329 58.4078C46.6661 57.5203 46.931 56.5743 46.931 55.5663V54.9781C46.931 53.7019 46.6455 52.5804 46.0744 51.6103C45.5034 50.6437 44.695 49.8938 43.6561 49.3606C42.6138 48.8308 41.4029 48.5625 40.0269 48.5625C38.6509 48.5625 37.44 48.8308 36.3977 49.3606C35.3588 49.8938 34.5504 50.6437 33.9794 51.6103C33.4084 52.5804 33.1228 53.7019 33.1228 54.9781V55.5663C33.1228 56.5536 33.3843 57.4893 33.9037 58.3803C34.4266 59.2712 35.118 59.9523 35.978 60.4202C34.9598 60.9706 34.1445 61.7824 33.5356 62.8557C32.9233 63.9324 32.6206 65.0814 32.6206 66.2991V66.7051C32.6206 68.0604 32.9233 69.2472 33.5356 70.2723C34.1445 71.2975 35.0114 72.0887 36.1294 72.6494C37.2508 73.2101 38.5477 73.4887 40.0269 73.4887ZM40.0269 70.1967C39.2323 70.1967 38.5305 70.0453 37.9285 69.7357C37.3231 69.4261 36.8552 68.9927 36.525 68.4354C36.1948 67.8747 36.0296 67.2245 36.0296 66.4849V66.2338C36.0296 65.4839 36.1948 64.8234 36.525 64.2523C36.8552 63.6813 37.3231 63.2375 37.9285 62.9245C38.5305 62.6115 39.2323 62.4532 40.0269 62.4532C40.8216 62.4532 41.5233 62.6115 42.1253 62.9245C42.7308 63.2375 43.1986 63.6779 43.5288 64.242C43.8591 64.8096 44.0242 65.4667 44.0242 66.2166V66.4505C44.0242 67.1901 43.8591 67.8437 43.5288 68.4079C43.1986 68.9755 42.7308 69.4123 42.1253 69.7288C41.5233 70.0419 40.8216 70.1967 40.0269 70.1967ZM40.0269 59.1611C39.3424 59.1611 38.7404 59.0132 38.214 58.7174C37.6877 58.4215 37.2784 58.0019 36.986 57.4583C36.697 56.9148 36.5491 56.2887 36.5491 55.5835V55.3324C36.5491 54.6375 36.697 54.0287 36.986 53.5023C37.2784 52.976 37.6877 52.5701 38.214 52.2846C38.7404 51.9991 39.3424 51.8546 40.0269 51.8546C40.7115 51.8546 41.3135 51.9991 41.8398 52.2846C42.3661 52.5701 42.7755 52.976 43.0679 53.5023C43.3568 54.0287 43.5048 54.6341 43.5048 55.3152V55.5491C43.5048 56.2681 43.3568 56.9011 43.0679 57.448C42.7755 57.9984 42.3661 58.4215 41.8398 58.7174C41.3135 59.0132 40.7115 59.1611 40.0269 59.1611ZM64.8362 48.8136H51.5509V55.5835H54.9772V52.0747H61.1898L54.874 73.2376H58.5204L64.8362 51.8718V48.8136ZM70.5982 73.2376H73.6048L86.8728 48.8136H83.8663L70.5982 73.2376ZM84.9086 73.4887C86.1952 73.4887 87.1962 73.1138 87.9048 72.3639C88.6169 71.6139 88.9712 70.5544 88.9712 69.1887V67.1247C88.9712 65.7453 88.6204 64.6789 87.9152 63.9255C87.21 63.1687 86.2055 62.7903 84.9086 62.7903C83.6083 62.7903 82.6072 63.1687 81.902 63.9255C81.1968 64.6789 80.8425 65.735 80.8425 67.0903V69.1887C80.8425 70.5441 81.1968 71.6002 81.902 72.357C82.6072 73.1103 83.6083 73.4887 84.9086 73.4887ZM84.9086 70.8193C84.5061 70.8193 84.1931 70.6955 83.9764 70.4512C83.7562 70.2035 83.6496 69.8389 83.6496 69.3573V66.9046C83.6496 66.4471 83.7562 66.0927 83.9764 65.8485C84.1931 65.6008 84.5061 65.477 84.9086 65.477C85.3008 65.477 85.6069 65.6008 85.8305 65.8485C86.0541 66.0927 86.1676 66.4402 86.1676 66.8874V69.3573C86.1676 69.8286 86.0541 70.1898 85.8305 70.4409C85.6069 70.692 85.3008 70.8193 84.9086 70.8193ZM72.762 59.2781C74.052 59.2781 75.0496 58.9031 75.7616 58.1532C76.4737 57.4033 76.828 56.3472 76.828 54.9781V52.9141C76.828 51.5347 76.4772 50.4683 75.7685 49.7149C75.0633 48.9581 74.0623 48.5797 72.762 48.5797C71.4651 48.5797 70.464 48.9581 69.7554 49.7149C69.0502 50.4683 68.6993 51.5243 68.6993 52.8797V54.9781C68.6993 56.3335 69.0502 57.3895 69.7554 58.1463C70.464 58.9031 71.4651 59.2781 72.762 59.2781ZM72.762 56.6087C72.3595 56.6087 72.0499 56.4848 71.8297 56.2406C71.613 55.9929 71.5029 55.6283 71.5029 55.1467V52.6939C71.5029 52.2364 71.613 51.8821 71.8297 51.6379C72.0499 51.3902 72.3595 51.2663 72.762 51.2663C73.1541 51.2663 73.4637 51.3902 73.6873 51.6379C73.9109 51.8821 74.0244 52.2295 74.0244 52.6767V55.1467C74.0244 55.6179 73.9109 55.9791 73.6873 56.2303C73.4637 56.4814 73.1541 56.6087 72.762 56.6087Z" fill="#103557"/>
<defs>
<linearGradient id="paint0_linear_728_2681" x1="60.9992" y1="8.65234" x2="60.9992" y2="113.348" gradientUnits="userSpaceOnUse">
<stop stop-color="#5D89CB"/>
<stop offset="1" stop-color="#86C7CB"/>
</linearGradient>
</defs>
</svg>
